G04 #@! TF.GenerationSoftware,KiCad,Pcbnew,5.1.10-88a1d61d58~90~ubuntu20.04.1*
G04 #@! TF.CreationDate,2021-07-24T14:54:54+02:00*
G04 #@! TF.ProjectId,mistrum,6d697374-7275-46d2-9e6b-696361645f70,rev?*
G04 #@! TF.SameCoordinates,PX2faf080PYdb58580*
G04 #@! TF.FileFunction,Soldermask,Top*
G04 #@! TF.FilePolarity,Negative*
%FSLAX46Y46*%
G04 Gerber Fmt 4.6, Leading zero omitted, Abs format (unit mm)*
G04 Created by KiCad (PCBNEW 5.1.10-88a1d61d58~90~ubuntu20.04.1) date 2021-07-24 14:54:54*
%MOMM*%
%LPD*%
G01*
G04 APERTURE LIST*
%ADD10C,1.500000*%
%ADD11C,0.120000*%
%ADD12C,3.600000*%
%ADD13C,2.000000*%
%ADD14C,1.924000*%
%ADD15O,2.000000X2.000000*%
%ADD16C,1.720800*%
%ADD17C,2.200000*%
%ADD18C,2.400000*%
%ADD19O,2.400000X2.400000*%
%ADD20O,2.100000X2.100000*%
%ADD21C,2.100000*%
%ADD22C,2.600000*%
%ADD23C,1.900000*%
%ADD24C,2.020000*%
G04 APERTURE END LIST*
D10*
X90335000Y162690000D02*
X90335000Y116335000D01*
X276771000Y19880000D02*
X280708000Y19880000D01*
X275755000Y18926000D02*
X276644000Y19815000D01*
X275755000Y2670000D02*
X275755000Y18926000D01*
X192570000Y2670000D02*
X275755000Y2670000D01*
X192570000Y4575000D02*
X192570000Y2670000D01*
X167805000Y2670000D02*
X167805000Y4575000D01*
X90335000Y2670000D02*
X167805000Y2670000D01*
X27470000Y4575000D02*
X72555000Y4575000D01*
X27470000Y19815000D02*
X27470000Y4575000D01*
X7785000Y97158000D02*
X9944000Y94999000D01*
X7785000Y110366000D02*
X7785000Y97158000D01*
X9944000Y112525000D02*
X7785000Y110366000D01*
X9944000Y115065000D02*
X9944000Y112525000D01*
X12865000Y117986000D02*
X9944000Y115065000D01*
X12865000Y162690000D02*
X12865000Y117986000D01*
X22390000Y186185000D02*
X22390000Y162690000D01*
X7912000Y122558000D02*
X9944000Y122558000D01*
D11*
X7912000Y123066000D02*
X8166000Y122558000D01*
D10*
X7785000Y130940000D02*
X7785000Y122685000D01*
X10325000Y133480000D02*
X7785000Y130940000D01*
X10325000Y165230000D02*
X10325000Y133480000D01*
X19850000Y165230000D02*
X10325000Y165230000D01*
X17310000Y186185000D02*
X17310000Y165230000D01*
D12*
X259880000Y95000000D03*
X12865000Y4575000D03*
X285280000Y157000000D03*
X50330000Y10290000D03*
X5880000Y171580000D03*
X285280000Y176660000D03*
X285280000Y3940000D03*
X12865000Y48390000D03*
D13*
X129070000Y66170000D03*
X129070000Y90300000D03*
X129070000Y122685000D03*
X129070000Y162690000D03*
X129070000Y152530000D03*
X188760000Y62360000D03*
X188760000Y92840000D03*
X188760000Y109985000D03*
X188760000Y120145000D03*
X188760000Y162690000D03*
X67475000Y4575000D03*
X67475000Y32515000D03*
X67475000Y52200000D03*
X67475000Y85220000D03*
X67475000Y90935000D03*
X67475000Y165230000D03*
X67475000Y185550000D03*
G36*
G01*
X285950920Y185839740D02*
X285950920Y183639740D01*
G75*
G02*
X284850920Y182539740I-1100000J0D01*
G01*
X282650920Y182539740D01*
G75*
G02*
X281550920Y183639740I0J1100000D01*
G01*
X281550920Y185839740D01*
G75*
G02*
X282650920Y186939740I1100000J0D01*
G01*
X284850920Y186939740D01*
G75*
G02*
X285950920Y185839740I0J-1100000D01*
G01*
G37*
G36*
G01*
X253449080Y185839740D02*
X253449080Y183639740D01*
G75*
G02*
X252349080Y182539740I-1100000J0D01*
G01*
X250149080Y182539740D01*
G75*
G02*
X249049080Y183639740I0J1100000D01*
G01*
X249049080Y185839740D01*
G75*
G02*
X250149080Y186939740I1100000J0D01*
G01*
X252349080Y186939740D01*
G75*
G02*
X253449080Y185839740I0J-1100000D01*
G01*
G37*
D14*
X268749680Y179741020D03*
X271249040Y179741020D03*
X273748400Y179741020D03*
X276250300Y179741020D03*
X278749660Y179741020D03*
X266250320Y179741020D03*
X263750960Y179741020D03*
X261249060Y179741020D03*
X258749700Y179741020D03*
X256250340Y179741020D03*
X256250340Y174742300D03*
X258749700Y174742300D03*
X261249060Y174742300D03*
X263750960Y174742300D03*
X266250320Y174742300D03*
X278749660Y174742300D03*
X276250300Y174742300D03*
X273748400Y174742300D03*
X271249040Y174742300D03*
X268749680Y174742300D03*
X9910980Y54996900D03*
X9910980Y57498800D03*
X9910980Y59998160D03*
X9910980Y62497520D03*
X9910980Y64996880D03*
X9910980Y67498780D03*
X9910980Y69998140D03*
X14912240Y72497500D03*
X14912240Y74996860D03*
X14912240Y77496220D03*
X14912240Y79998120D03*
X14912240Y82497480D03*
X14912240Y84996840D03*
X14912240Y87496200D03*
X14912240Y89998100D03*
X14912240Y92497460D03*
X9910980Y72497500D03*
X9910980Y74996860D03*
X9910980Y77496220D03*
X9910980Y79998120D03*
X9910980Y82497480D03*
X9910980Y84996840D03*
X9910980Y87496200D03*
X9910980Y89998100D03*
X9910980Y92497460D03*
X14912240Y94999360D03*
X14912240Y97498720D03*
X14912240Y99998080D03*
X14912240Y102497440D03*
X14912240Y104999340D03*
X9910980Y94999360D03*
X9910980Y97498720D03*
X9910980Y99998080D03*
X9910980Y104999340D03*
X9910980Y102497440D03*
G36*
G01*
X3812260Y137199280D02*
X6012260Y137199280D01*
G75*
G02*
X7112260Y136099280I0J-1100000D01*
G01*
X7112260Y133899280D01*
G75*
G02*
X6012260Y132799280I-1100000J0D01*
G01*
X3812260Y132799280D01*
G75*
G02*
X2712260Y133899280I0J1100000D01*
G01*
X2712260Y136099280D01*
G75*
G02*
X3812260Y137199280I1100000J0D01*
G01*
G37*
G36*
G01*
X3812260Y52200720D02*
X6012260Y52200720D01*
G75*
G02*
X7112260Y51100720I0J-1100000D01*
G01*
X7112260Y48900720D01*
G75*
G02*
X6012260Y47800720I-1100000J0D01*
G01*
X3812260Y47800720D01*
G75*
G02*
X2712260Y48900720I0J1100000D01*
G01*
X2712260Y51100720D01*
G75*
G02*
X3812260Y52200720I1100000J0D01*
G01*
G37*
X9910980Y119998040D03*
X9910980Y122497400D03*
X9910980Y124996760D03*
X9910980Y127498660D03*
X9910980Y129998020D03*
X9910980Y117498680D03*
X9910980Y114999320D03*
X9910980Y112497420D03*
X9910980Y109998060D03*
X9910980Y107498700D03*
X14909700Y107498700D03*
X14909700Y109998060D03*
X14909700Y112497420D03*
X14909700Y114999320D03*
X14909700Y117498680D03*
X14909700Y129998020D03*
X14909700Y127498660D03*
X14909700Y124996760D03*
X14909700Y122497400D03*
X14909700Y119998040D03*
X14912240Y69998140D03*
X14912240Y67498780D03*
X14912240Y64996880D03*
X14912240Y62497520D03*
X14912240Y59998160D03*
X14912240Y57498800D03*
X14912240Y54996900D03*
X14909700Y22461680D03*
X14909700Y24961040D03*
X14909700Y27460400D03*
X14909700Y29962300D03*
X14909700Y32461660D03*
X14909700Y19962320D03*
X14909700Y17462960D03*
X14909700Y14961060D03*
X14909700Y12461700D03*
X14909700Y9962340D03*
X9910980Y9962340D03*
X9910980Y12461700D03*
X9910980Y14961060D03*
X9910980Y17462960D03*
X9910980Y19962320D03*
X9910980Y32461660D03*
X9910980Y29962300D03*
X9910980Y27460400D03*
X9910980Y24961040D03*
X9910980Y22461680D03*
G36*
G01*
X3812260Y7161080D02*
X6012260Y7161080D01*
G75*
G02*
X7112260Y6061080I0J-1100000D01*
G01*
X7112260Y3861080D01*
G75*
G02*
X6012260Y2761080I-1100000J0D01*
G01*
X3812260Y2761080D01*
G75*
G02*
X2712260Y3861080I0J1100000D01*
G01*
X2712260Y6061080D01*
G75*
G02*
X3812260Y7161080I1100000J0D01*
G01*
G37*
G36*
G01*
X3812260Y39662920D02*
X6012260Y39662920D01*
G75*
G02*
X7112260Y38562920I0J-1100000D01*
G01*
X7112260Y36362920D01*
G75*
G02*
X6012260Y35262920I-1100000J0D01*
G01*
X3812260Y35262920D01*
G75*
G02*
X2712260Y36362920I0J1100000D01*
G01*
X2712260Y38562920D01*
G75*
G02*
X3812260Y39662920I1100000J0D01*
G01*
G37*
G36*
G01*
X46050000Y93745000D02*
X44450000Y93745000D01*
G75*
G02*
X44250000Y93945000I0J200000D01*
G01*
X44250000Y95545000D01*
G75*
G02*
X44450000Y95745000I200000J0D01*
G01*
X46050000Y95745000D01*
G75*
G02*
X46250000Y95545000I0J-200000D01*
G01*
X46250000Y93945000D01*
G75*
G02*
X46050000Y93745000I-200000J0D01*
G01*
G37*
D15*
X45250000Y97285000D03*
X45250000Y99825000D03*
X45250000Y102365000D03*
X45250000Y104905000D03*
X45250000Y107445000D03*
X45250000Y109985000D03*
X45250000Y112525000D03*
X45250000Y115065000D03*
D16*
X270040000Y139830000D03*
X267500000Y139830000D03*
X267500000Y137290000D03*
X254800000Y118875000D03*
X252260000Y118875000D03*
X252260000Y116335000D03*
X254800000Y124590000D03*
X252260000Y124590000D03*
X252260000Y127130000D03*
D17*
X182370000Y130940000D03*
X177370000Y130940000D03*
X155065000Y134115000D03*
X150065000Y134115000D03*
X139825000Y133480000D03*
X134825000Y133480000D03*
D13*
X116250000Y37595000D03*
X113710000Y37595000D03*
X111170000Y37595000D03*
G36*
G01*
X282748000Y49965000D02*
X284348000Y49965000D01*
G75*
G02*
X284548000Y49765000I0J-200000D01*
G01*
X284548000Y48165000D01*
G75*
G02*
X284348000Y47965000I-200000J0D01*
G01*
X282748000Y47965000D01*
G75*
G02*
X282548000Y48165000I0J200000D01*
G01*
X282548000Y49765000D01*
G75*
G02*
X282748000Y49965000I200000J0D01*
G01*
G37*
X283548000Y46195000D03*
X283548000Y43425000D03*
X283548000Y40655000D03*
X283548000Y37885000D03*
X283548000Y35115000D03*
X283548000Y32345000D03*
X283548000Y29575000D03*
X283548000Y26805000D03*
X283548000Y24035000D03*
X283548000Y21265000D03*
X283548000Y18495000D03*
X283548000Y15725000D03*
X280708000Y47580000D03*
X280708000Y44810000D03*
X280708000Y42040000D03*
X280708000Y39270000D03*
X280708000Y36500000D03*
X280708000Y33730000D03*
X280708000Y30960000D03*
X280708000Y28190000D03*
X280708000Y25420000D03*
X280708000Y22650000D03*
X280708000Y19880000D03*
X280708000Y17110000D03*
X109920000Y35000000D03*
X112460000Y35000000D03*
X115000000Y35000000D03*
D18*
X253530000Y89919000D03*
D19*
X253530000Y62419000D03*
D13*
X205270000Y131575000D03*
X217770000Y131575000D03*
D20*
X198920000Y130940000D03*
X196380000Y130940000D03*
D17*
X134150000Y128400000D03*
X139150000Y128400000D03*
D13*
X31280000Y170310000D03*
X31280000Y165310000D03*
X35090000Y160150000D03*
X35090000Y155150000D03*
X240195000Y172215000D03*
X240195000Y174715000D03*
X237695000Y174715000D03*
X147565000Y123320000D03*
X152565000Y123320000D03*
X125180000Y132210000D03*
X120180000Y132210000D03*
X134785000Y130940000D03*
X139785000Y130940000D03*
X110020000Y131575000D03*
X100020000Y131575000D03*
X109960000Y123955000D03*
X106210000Y123955000D03*
D21*
X10325000Y179835000D03*
D20*
X10325000Y182375000D03*
X10325000Y184915000D03*
D22*
X17310000Y186185000D03*
X22390000Y186185000D03*
X27470000Y186185000D03*
D16*
X227495000Y155070000D03*
X224955000Y155070000D03*
X224955000Y152530000D03*
D21*
X230035000Y127130000D03*
D23*
X249720000Y149990000D03*
X249720000Y154890000D03*
D13*
X282740000Y160150000D03*
D15*
X282740000Y142650000D03*
D13*
X259880000Y136020000D03*
X249880000Y136020000D03*
X154470000Y99190000D03*
X149470000Y99190000D03*
X253530000Y102365000D03*
X253530000Y94865000D03*
X216065000Y69980000D03*
X206065000Y69980000D03*
D21*
X237655000Y69980000D03*
X253530000Y165230000D03*
D13*
X176060000Y123955000D03*
X183560000Y123955000D03*
X71285000Y13465000D03*
X71285000Y18465000D03*
G36*
G01*
X161725000Y119345000D02*
X161725000Y120945000D01*
G75*
G02*
X161925000Y121145000I200000J0D01*
G01*
X163525000Y121145000D01*
G75*
G02*
X163725000Y120945000I0J-200000D01*
G01*
X163725000Y119345000D01*
G75*
G02*
X163525000Y119145000I-200000J0D01*
G01*
X161925000Y119145000D01*
G75*
G02*
X161725000Y119345000I0J200000D01*
G01*
G37*
D15*
X170345000Y112525000D03*
X162725000Y117605000D03*
X170345000Y115065000D03*
X162725000Y115065000D03*
X170345000Y117605000D03*
X162725000Y112525000D03*
X170345000Y120145000D03*
G36*
G01*
X28470000Y166030000D02*
X28470000Y164430000D01*
G75*
G02*
X28270000Y164230000I-200000J0D01*
G01*
X26670000Y164230000D01*
G75*
G02*
X26470000Y164430000I0J200000D01*
G01*
X26470000Y166030000D01*
G75*
G02*
X26670000Y166230000I200000J0D01*
G01*
X28270000Y166230000D01*
G75*
G02*
X28470000Y166030000I0J-200000D01*
G01*
G37*
X19850000Y180470000D03*
X27470000Y167770000D03*
X19850000Y177930000D03*
X27470000Y170310000D03*
X19850000Y175390000D03*
X27470000Y172850000D03*
X19850000Y172850000D03*
X27470000Y175390000D03*
X19850000Y170310000D03*
X27470000Y177930000D03*
X19850000Y167770000D03*
X27470000Y180470000D03*
X19850000Y165230000D03*
X147485000Y137290000D03*
X155105000Y152530000D03*
X147485000Y139830000D03*
X155105000Y149990000D03*
X147485000Y142370000D03*
X155105000Y147450000D03*
X147485000Y144910000D03*
X155105000Y144910000D03*
X147485000Y147450000D03*
X155105000Y142370000D03*
X147485000Y149990000D03*
X155105000Y139830000D03*
X147485000Y152530000D03*
G36*
G01*
X156105000Y138090000D02*
X156105000Y136490000D01*
G75*
G02*
X155905000Y136290000I-200000J0D01*
G01*
X154305000Y136290000D01*
G75*
G02*
X154105000Y136490000I0J200000D01*
G01*
X154105000Y138090000D01*
G75*
G02*
X154305000Y138290000I200000J0D01*
G01*
X155905000Y138290000D01*
G75*
G02*
X156105000Y138090000I0J-200000D01*
G01*
G37*
G36*
G01*
X108480000Y61890000D02*
X108480000Y60290000D01*
G75*
G02*
X108280000Y60090000I-200000J0D01*
G01*
X106680000Y60090000D01*
G75*
G02*
X106480000Y60290000I0J200000D01*
G01*
X106480000Y61890000D01*
G75*
G02*
X106680000Y62090000I200000J0D01*
G01*
X108280000Y62090000D01*
G75*
G02*
X108480000Y61890000I0J-200000D01*
G01*
G37*
X92240000Y109350000D03*
X107480000Y63630000D03*
X92240000Y106810000D03*
X107480000Y66170000D03*
X92240000Y104270000D03*
X107480000Y68710000D03*
X92240000Y101730000D03*
X107480000Y71250000D03*
X92240000Y99190000D03*
X107480000Y73790000D03*
X92240000Y96650000D03*
X107480000Y76330000D03*
X92240000Y94110000D03*
X107480000Y78870000D03*
X92240000Y91570000D03*
X107480000Y81410000D03*
X92240000Y89030000D03*
X107480000Y83950000D03*
X92240000Y86490000D03*
X107480000Y86490000D03*
X92240000Y83950000D03*
X107480000Y89030000D03*
X92240000Y81410000D03*
X107480000Y91570000D03*
X92240000Y78870000D03*
X107480000Y94110000D03*
X92240000Y76330000D03*
X107480000Y96650000D03*
X92240000Y73790000D03*
X107480000Y99190000D03*
X92240000Y71250000D03*
X107480000Y101730000D03*
X92240000Y68710000D03*
X107480000Y104270000D03*
X92240000Y66170000D03*
X107480000Y106810000D03*
X92240000Y63630000D03*
X107480000Y109350000D03*
X92240000Y61090000D03*
X132880000Y137290000D03*
X140500000Y152530000D03*
X132880000Y139830000D03*
X140500000Y149990000D03*
X132880000Y142370000D03*
X140500000Y147450000D03*
X132880000Y144910000D03*
X140500000Y144910000D03*
X132880000Y147450000D03*
X140500000Y142370000D03*
X132880000Y149990000D03*
X140500000Y139830000D03*
X132880000Y152530000D03*
G36*
G01*
X141500000Y138090000D02*
X141500000Y136490000D01*
G75*
G02*
X141300000Y136290000I-200000J0D01*
G01*
X139700000Y136290000D01*
G75*
G02*
X139500000Y136490000I0J200000D01*
G01*
X139500000Y138090000D01*
G75*
G02*
X139700000Y138290000I200000J0D01*
G01*
X141300000Y138290000D01*
G75*
G02*
X141500000Y138090000I0J-200000D01*
G01*
G37*
X35090000Y29975000D03*
X42710000Y45215000D03*
X35090000Y32515000D03*
X42710000Y42675000D03*
X35090000Y35055000D03*
X42710000Y40135000D03*
X35090000Y37595000D03*
X42710000Y37595000D03*
X35090000Y40135000D03*
X42710000Y35055000D03*
X35090000Y42675000D03*
X42710000Y32515000D03*
X35090000Y45215000D03*
G36*
G01*
X43710000Y30775000D02*
X43710000Y29175000D01*
G75*
G02*
X43510000Y28975000I-200000J0D01*
G01*
X41910000Y28975000D01*
G75*
G02*
X41710000Y29175000I0J200000D01*
G01*
X41710000Y30775000D01*
G75*
G02*
X41910000Y30975000I200000J0D01*
G01*
X43510000Y30975000D01*
G75*
G02*
X43710000Y30775000I0J-200000D01*
G01*
G37*
X35090000Y7115000D03*
X42710000Y22355000D03*
X35090000Y9655000D03*
X42710000Y19815000D03*
X35090000Y12195000D03*
X42710000Y17275000D03*
X35090000Y14735000D03*
X42710000Y14735000D03*
X35090000Y17275000D03*
X42710000Y12195000D03*
X35090000Y19815000D03*
X42710000Y9655000D03*
X35090000Y22355000D03*
G36*
G01*
X43710000Y7915000D02*
X43710000Y6315000D01*
G75*
G02*
X43510000Y6115000I-200000J0D01*
G01*
X41910000Y6115000D01*
G75*
G02*
X41710000Y6315000I0J200000D01*
G01*
X41710000Y7915000D01*
G75*
G02*
X41910000Y8115000I200000J0D01*
G01*
X43510000Y8115000D01*
G75*
G02*
X43710000Y7915000I0J-200000D01*
G01*
G37*
X37630000Y165230000D03*
X45250000Y180470000D03*
X37630000Y167770000D03*
X45250000Y177930000D03*
X37630000Y170310000D03*
X45250000Y175390000D03*
X37630000Y172850000D03*
X45250000Y172850000D03*
X37630000Y175390000D03*
X45250000Y170310000D03*
X37630000Y177930000D03*
X45250000Y167770000D03*
X37630000Y180470000D03*
G36*
G01*
X46250000Y166030000D02*
X46250000Y164430000D01*
G75*
G02*
X46050000Y164230000I-200000J0D01*
G01*
X44450000Y164230000D01*
G75*
G02*
X44250000Y164430000I0J200000D01*
G01*
X44250000Y166030000D01*
G75*
G02*
X44450000Y166230000I200000J0D01*
G01*
X46050000Y166230000D01*
G75*
G02*
X46250000Y166030000I0J-200000D01*
G01*
G37*
G36*
G01*
X81175000Y135550000D02*
X81175000Y133950000D01*
G75*
G02*
X80975000Y133750000I-200000J0D01*
G01*
X79375000Y133750000D01*
G75*
G02*
X79175000Y133950000I0J200000D01*
G01*
X79175000Y135550000D01*
G75*
G02*
X79375000Y135750000I200000J0D01*
G01*
X80975000Y135750000D01*
G75*
G02*
X81175000Y135550000I0J-200000D01*
G01*
G37*
X72555000Y149990000D03*
X80175000Y137290000D03*
X72555000Y147450000D03*
X80175000Y139830000D03*
X72555000Y144910000D03*
X80175000Y142370000D03*
X72555000Y142370000D03*
X80175000Y144910000D03*
X72555000Y139830000D03*
X80175000Y147450000D03*
X72555000Y137290000D03*
X80175000Y149990000D03*
X72555000Y134750000D03*
G36*
G01*
X95780000Y135550000D02*
X95780000Y133950000D01*
G75*
G02*
X95580000Y133750000I-200000J0D01*
G01*
X93980000Y133750000D01*
G75*
G02*
X93780000Y133950000I0J200000D01*
G01*
X93780000Y135550000D01*
G75*
G02*
X93980000Y135750000I200000J0D01*
G01*
X95580000Y135750000D01*
G75*
G02*
X95780000Y135550000I0J-200000D01*
G01*
G37*
X87160000Y149990000D03*
X94780000Y137290000D03*
X87160000Y147450000D03*
X94780000Y139830000D03*
X87160000Y144910000D03*
X94780000Y142370000D03*
X87160000Y142370000D03*
X94780000Y144910000D03*
X87160000Y139830000D03*
X94780000Y147450000D03*
X87160000Y137290000D03*
X94780000Y149990000D03*
X87160000Y134750000D03*
X102400000Y134750000D03*
X110020000Y152530000D03*
X102400000Y137290000D03*
X110020000Y149990000D03*
X102400000Y139830000D03*
X110020000Y147450000D03*
X102400000Y142370000D03*
X110020000Y144910000D03*
X102400000Y144910000D03*
X110020000Y142370000D03*
X102400000Y147450000D03*
X110020000Y139830000D03*
X102400000Y149990000D03*
X110020000Y137290000D03*
X102400000Y152530000D03*
G36*
G01*
X111020000Y135550000D02*
X111020000Y133950000D01*
G75*
G02*
X110820000Y133750000I-200000J0D01*
G01*
X109220000Y133750000D01*
G75*
G02*
X109020000Y133950000I0J200000D01*
G01*
X109020000Y135550000D01*
G75*
G02*
X109220000Y135750000I200000J0D01*
G01*
X110820000Y135750000D01*
G75*
G02*
X111020000Y135550000I0J-200000D01*
G01*
G37*
X55410000Y165230000D03*
X63030000Y183010000D03*
X55410000Y167770000D03*
X63030000Y180470000D03*
X55410000Y170310000D03*
X63030000Y177930000D03*
X55410000Y172850000D03*
X63030000Y175390000D03*
X55410000Y175390000D03*
X63030000Y172850000D03*
X55410000Y177930000D03*
X63030000Y170310000D03*
X55410000Y180470000D03*
X63030000Y167770000D03*
X55410000Y183010000D03*
G36*
G01*
X64030000Y166030000D02*
X64030000Y164430000D01*
G75*
G02*
X63830000Y164230000I-200000J0D01*
G01*
X62230000Y164230000D01*
G75*
G02*
X62030000Y164430000I0J200000D01*
G01*
X62030000Y166030000D01*
G75*
G02*
X62230000Y166230000I200000J0D01*
G01*
X63830000Y166230000D01*
G75*
G02*
X64030000Y166030000I0J-200000D01*
G01*
G37*
G36*
G01*
X81175000Y53000000D02*
X81175000Y51400000D01*
G75*
G02*
X80975000Y51200000I-200000J0D01*
G01*
X79375000Y51200000D01*
G75*
G02*
X79175000Y51400000I0J200000D01*
G01*
X79175000Y53000000D01*
G75*
G02*
X79375000Y53200000I200000J0D01*
G01*
X80975000Y53200000D01*
G75*
G02*
X81175000Y53000000I0J-200000D01*
G01*
G37*
X72555000Y75060000D03*
X80175000Y54740000D03*
X72555000Y72520000D03*
X80175000Y57280000D03*
X72555000Y69980000D03*
X80175000Y59820000D03*
X72555000Y67440000D03*
X80175000Y62360000D03*
X72555000Y64900000D03*
X80175000Y64900000D03*
X72555000Y62360000D03*
X80175000Y67440000D03*
X72555000Y59820000D03*
X80175000Y69980000D03*
X72555000Y57280000D03*
X80175000Y72520000D03*
X72555000Y54740000D03*
X80175000Y75060000D03*
X72555000Y52200000D03*
G36*
G01*
X56410000Y54270000D02*
X56410000Y52670000D01*
G75*
G02*
X56210000Y52470000I-200000J0D01*
G01*
X54610000Y52470000D01*
G75*
G02*
X54410000Y52670000I0J200000D01*
G01*
X54410000Y54270000D01*
G75*
G02*
X54610000Y54470000I200000J0D01*
G01*
X56210000Y54470000D01*
G75*
G02*
X56410000Y54270000I0J-200000D01*
G01*
G37*
X47790000Y76330000D03*
X55410000Y56010000D03*
X47790000Y73790000D03*
X55410000Y58550000D03*
X47790000Y71250000D03*
X55410000Y61090000D03*
X47790000Y68710000D03*
X55410000Y63630000D03*
X47790000Y66170000D03*
X55410000Y66170000D03*
X47790000Y63630000D03*
X55410000Y68710000D03*
X47790000Y61090000D03*
X55410000Y71250000D03*
X47790000Y58550000D03*
X55410000Y73790000D03*
X47790000Y56010000D03*
X55410000Y76330000D03*
X47790000Y53470000D03*
X47790000Y92205000D03*
X55410000Y115065000D03*
X47790000Y94745000D03*
X55410000Y112525000D03*
X47790000Y97285000D03*
X55410000Y109985000D03*
X47790000Y99825000D03*
X55410000Y107445000D03*
X47790000Y102365000D03*
X55410000Y104905000D03*
X47790000Y104905000D03*
X55410000Y102365000D03*
X47790000Y107445000D03*
X55410000Y99825000D03*
X47790000Y109985000D03*
X55410000Y97285000D03*
X47790000Y112525000D03*
X55410000Y94745000D03*
X47790000Y115065000D03*
G36*
G01*
X56410000Y93005000D02*
X56410000Y91405000D01*
G75*
G02*
X56210000Y91205000I-200000J0D01*
G01*
X54610000Y91205000D01*
G75*
G02*
X54410000Y91405000I0J200000D01*
G01*
X54410000Y93005000D01*
G75*
G02*
X54610000Y93205000I200000J0D01*
G01*
X56210000Y93205000D01*
G75*
G02*
X56410000Y93005000I0J-200000D01*
G01*
G37*
X72555000Y90935000D03*
X80175000Y113795000D03*
X72555000Y93475000D03*
X80175000Y111255000D03*
X72555000Y96015000D03*
X80175000Y108715000D03*
X72555000Y98555000D03*
X80175000Y106175000D03*
X72555000Y101095000D03*
X80175000Y103635000D03*
X72555000Y103635000D03*
X80175000Y101095000D03*
X72555000Y106175000D03*
X80175000Y98555000D03*
X72555000Y108715000D03*
X80175000Y96015000D03*
X72555000Y111255000D03*
X80175000Y93475000D03*
X72555000Y113795000D03*
G36*
G01*
X81175000Y91735000D02*
X81175000Y90135000D01*
G75*
G02*
X80975000Y89935000I-200000J0D01*
G01*
X79375000Y89935000D01*
G75*
G02*
X79175000Y90135000I0J200000D01*
G01*
X79175000Y91735000D01*
G75*
G02*
X79375000Y91935000I200000J0D01*
G01*
X80975000Y91935000D01*
G75*
G02*
X81175000Y91735000I0J-200000D01*
G01*
G37*
G36*
G01*
X81175000Y166030000D02*
X81175000Y164430000D01*
G75*
G02*
X80975000Y164230000I-200000J0D01*
G01*
X79375000Y164230000D01*
G75*
G02*
X79175000Y164430000I0J200000D01*
G01*
X79175000Y166030000D01*
G75*
G02*
X79375000Y166230000I200000J0D01*
G01*
X80975000Y166230000D01*
G75*
G02*
X81175000Y166030000I0J-200000D01*
G01*
G37*
X72555000Y183010000D03*
X80175000Y167770000D03*
X72555000Y180470000D03*
X80175000Y170310000D03*
X72555000Y177930000D03*
X80175000Y172850000D03*
X72555000Y175390000D03*
X80175000Y175390000D03*
X72555000Y172850000D03*
X80175000Y177930000D03*
X72555000Y170310000D03*
X80175000Y180470000D03*
X72555000Y167770000D03*
X80175000Y183010000D03*
X72555000Y165230000D03*
G36*
G01*
X64030000Y125390000D02*
X64030000Y123790000D01*
G75*
G02*
X63830000Y123590000I-200000J0D01*
G01*
X62230000Y123590000D01*
G75*
G02*
X62030000Y123790000I0J200000D01*
G01*
X62030000Y125390000D01*
G75*
G02*
X62230000Y125590000I200000J0D01*
G01*
X63830000Y125590000D01*
G75*
G02*
X64030000Y125390000I0J-200000D01*
G01*
G37*
X47790000Y157610000D03*
X63030000Y127130000D03*
X47790000Y155070000D03*
X63030000Y129670000D03*
X47790000Y152530000D03*
X63030000Y132210000D03*
X47790000Y149990000D03*
X63030000Y134750000D03*
X47790000Y147450000D03*
X63030000Y137290000D03*
X47790000Y144910000D03*
X63030000Y139830000D03*
X47790000Y142370000D03*
X63030000Y142370000D03*
X47790000Y139830000D03*
X63030000Y144910000D03*
X47790000Y137290000D03*
X63030000Y147450000D03*
X47790000Y134750000D03*
X63030000Y149990000D03*
X47790000Y132210000D03*
X63030000Y152530000D03*
X47790000Y129670000D03*
X63030000Y155070000D03*
X47790000Y127130000D03*
X63030000Y157610000D03*
X47790000Y124590000D03*
X57315000Y7115000D03*
X64935000Y29975000D03*
X57315000Y9655000D03*
X64935000Y27435000D03*
X57315000Y12195000D03*
X64935000Y24895000D03*
X57315000Y14735000D03*
X64935000Y22355000D03*
X57315000Y17275000D03*
X64935000Y19815000D03*
X57315000Y19815000D03*
X64935000Y17275000D03*
X57315000Y22355000D03*
X64935000Y14735000D03*
X57315000Y24895000D03*
X64935000Y12195000D03*
X57315000Y27435000D03*
X64935000Y9655000D03*
X57315000Y29975000D03*
G36*
G01*
X65935000Y7915000D02*
X65935000Y6315000D01*
G75*
G02*
X65735000Y6115000I-200000J0D01*
G01*
X64135000Y6115000D01*
G75*
G02*
X63935000Y6315000I0J200000D01*
G01*
X63935000Y7915000D01*
G75*
G02*
X64135000Y8115000I200000J0D01*
G01*
X65735000Y8115000D01*
G75*
G02*
X65935000Y7915000I0J-200000D01*
G01*
G37*
G36*
G01*
X201190000Y5375000D02*
X201190000Y3775000D01*
G75*
G02*
X200990000Y3575000I-200000J0D01*
G01*
X199390000Y3575000D01*
G75*
G02*
X199190000Y3775000I0J200000D01*
G01*
X199190000Y5375000D01*
G75*
G02*
X199390000Y5575000I200000J0D01*
G01*
X200990000Y5575000D01*
G75*
G02*
X201190000Y5375000I0J-200000D01*
G01*
G37*
X192570000Y27435000D03*
X200190000Y7115000D03*
X192570000Y24895000D03*
X200190000Y9655000D03*
X192570000Y22355000D03*
X200190000Y12195000D03*
X192570000Y19815000D03*
X200190000Y14735000D03*
X192570000Y17275000D03*
X200190000Y17275000D03*
X192570000Y14735000D03*
X200190000Y19815000D03*
X192570000Y12195000D03*
X200190000Y22355000D03*
X192570000Y9655000D03*
X200190000Y24895000D03*
X192570000Y7115000D03*
X200190000Y27435000D03*
X192570000Y4575000D03*
G36*
G01*
X141500000Y45380000D02*
X141500000Y43780000D01*
G75*
G02*
X141300000Y43580000I-200000J0D01*
G01*
X139700000Y43580000D01*
G75*
G02*
X139500000Y43780000I0J200000D01*
G01*
X139500000Y45380000D01*
G75*
G02*
X139700000Y45580000I200000J0D01*
G01*
X141300000Y45580000D01*
G75*
G02*
X141500000Y45380000I0J-200000D01*
G01*
G37*
X132880000Y67440000D03*
X140500000Y47120000D03*
X132880000Y64900000D03*
X140500000Y49660000D03*
X132880000Y62360000D03*
X140500000Y52200000D03*
X132880000Y59820000D03*
X140500000Y54740000D03*
X132880000Y57280000D03*
X140500000Y57280000D03*
X132880000Y54740000D03*
X140500000Y59820000D03*
X132880000Y52200000D03*
X140500000Y62360000D03*
X132880000Y49660000D03*
X140500000Y64900000D03*
X132880000Y47120000D03*
X140500000Y67440000D03*
X132880000Y44580000D03*
G36*
G01*
X126260000Y138090000D02*
X126260000Y136490000D01*
G75*
G02*
X126060000Y136290000I-200000J0D01*
G01*
X124460000Y136290000D01*
G75*
G02*
X124260000Y136490000I0J200000D01*
G01*
X124260000Y138090000D01*
G75*
G02*
X124460000Y138290000I200000J0D01*
G01*
X126060000Y138290000D01*
G75*
G02*
X126260000Y138090000I0J-200000D01*
G01*
G37*
X117640000Y152530000D03*
X125260000Y139830000D03*
X117640000Y149990000D03*
X125260000Y142370000D03*
X117640000Y147450000D03*
X125260000Y144910000D03*
X117640000Y144910000D03*
X125260000Y147450000D03*
X117640000Y142370000D03*
X125260000Y149990000D03*
X117640000Y139830000D03*
X125260000Y152530000D03*
X117640000Y137290000D03*
G36*
G01*
X126260000Y166030000D02*
X126260000Y164430000D01*
G75*
G02*
X126060000Y164230000I-200000J0D01*
G01*
X124460000Y164230000D01*
G75*
G02*
X124260000Y164430000I0J200000D01*
G01*
X124260000Y166030000D01*
G75*
G02*
X124460000Y166230000I200000J0D01*
G01*
X126060000Y166230000D01*
G75*
G02*
X126260000Y166030000I0J-200000D01*
G01*
G37*
X117640000Y183010000D03*
X125260000Y167770000D03*
X117640000Y180470000D03*
X125260000Y170310000D03*
X117640000Y177930000D03*
X125260000Y172850000D03*
X117640000Y175390000D03*
X125260000Y175390000D03*
X117640000Y172850000D03*
X125260000Y177930000D03*
X117640000Y170310000D03*
X125260000Y180470000D03*
X117640000Y167770000D03*
X125260000Y183010000D03*
X117640000Y165230000D03*
G36*
G01*
X126260000Y45380000D02*
X126260000Y43780000D01*
G75*
G02*
X126060000Y43580000I-200000J0D01*
G01*
X124460000Y43580000D01*
G75*
G02*
X124260000Y43780000I0J200000D01*
G01*
X124260000Y45380000D01*
G75*
G02*
X124460000Y45580000I200000J0D01*
G01*
X126060000Y45580000D01*
G75*
G02*
X126260000Y45380000I0J-200000D01*
G01*
G37*
X117640000Y62360000D03*
X125260000Y47120000D03*
X117640000Y59820000D03*
X125260000Y49660000D03*
X117640000Y57280000D03*
X125260000Y52200000D03*
X117640000Y54740000D03*
X125260000Y54740000D03*
X117640000Y52200000D03*
X125260000Y57280000D03*
X117640000Y49660000D03*
X125260000Y59820000D03*
X117640000Y47120000D03*
X125260000Y62360000D03*
X117640000Y44580000D03*
X192570000Y104905000D03*
X200190000Y122685000D03*
X192570000Y107445000D03*
X200190000Y120145000D03*
X192570000Y109985000D03*
X200190000Y117605000D03*
X192570000Y112525000D03*
X200190000Y115065000D03*
X192570000Y115065000D03*
X200190000Y112525000D03*
X192570000Y117605000D03*
X200190000Y109985000D03*
X192570000Y120145000D03*
X200190000Y107445000D03*
X192570000Y122685000D03*
G36*
G01*
X201190000Y105705000D02*
X201190000Y104105000D01*
G75*
G02*
X200990000Y103905000I-200000J0D01*
G01*
X199390000Y103905000D01*
G75*
G02*
X199190000Y104105000I0J200000D01*
G01*
X199190000Y105705000D01*
G75*
G02*
X199390000Y105905000I200000J0D01*
G01*
X200990000Y105905000D01*
G75*
G02*
X201190000Y105705000I0J-200000D01*
G01*
G37*
G36*
G01*
X185950000Y45380000D02*
X185950000Y43780000D01*
G75*
G02*
X185750000Y43580000I-200000J0D01*
G01*
X184150000Y43580000D01*
G75*
G02*
X183950000Y43780000I0J200000D01*
G01*
X183950000Y45380000D01*
G75*
G02*
X184150000Y45580000I200000J0D01*
G01*
X185750000Y45580000D01*
G75*
G02*
X185950000Y45380000I0J-200000D01*
G01*
G37*
X177330000Y62360000D03*
X184950000Y47120000D03*
X177330000Y59820000D03*
X184950000Y49660000D03*
X177330000Y57280000D03*
X184950000Y52200000D03*
X177330000Y54740000D03*
X184950000Y54740000D03*
X177330000Y52200000D03*
X184950000Y57280000D03*
X177330000Y49660000D03*
X184950000Y59820000D03*
X177330000Y47120000D03*
X184950000Y62360000D03*
X177330000Y44580000D03*
G36*
G01*
X185950000Y75860000D02*
X185950000Y74260000D01*
G75*
G02*
X185750000Y74060000I-200000J0D01*
G01*
X184150000Y74060000D01*
G75*
G02*
X183950000Y74260000I0J200000D01*
G01*
X183950000Y75860000D01*
G75*
G02*
X184150000Y76060000I200000J0D01*
G01*
X185750000Y76060000D01*
G75*
G02*
X185950000Y75860000I0J-200000D01*
G01*
G37*
X177330000Y92840000D03*
X184950000Y77600000D03*
X177330000Y90300000D03*
X184950000Y80140000D03*
X177330000Y87760000D03*
X184950000Y82680000D03*
X177330000Y85220000D03*
X184950000Y85220000D03*
X177330000Y82680000D03*
X184950000Y87760000D03*
X177330000Y80140000D03*
X184950000Y90300000D03*
X177330000Y77600000D03*
X184950000Y92840000D03*
X177330000Y75060000D03*
X162725000Y44580000D03*
X170345000Y62360000D03*
X162725000Y47120000D03*
X170345000Y59820000D03*
X162725000Y49660000D03*
X170345000Y57280000D03*
X162725000Y52200000D03*
X170345000Y54740000D03*
X162725000Y54740000D03*
X170345000Y52200000D03*
X162725000Y57280000D03*
X170345000Y49660000D03*
X162725000Y59820000D03*
X170345000Y47120000D03*
X162725000Y62360000D03*
G36*
G01*
X171345000Y45380000D02*
X171345000Y43780000D01*
G75*
G02*
X171145000Y43580000I-200000J0D01*
G01*
X169545000Y43580000D01*
G75*
G02*
X169345000Y43780000I0J200000D01*
G01*
X169345000Y45380000D01*
G75*
G02*
X169545000Y45580000I200000J0D01*
G01*
X171145000Y45580000D01*
G75*
G02*
X171345000Y45380000I0J-200000D01*
G01*
G37*
G36*
G01*
X171345000Y75860000D02*
X171345000Y74260000D01*
G75*
G02*
X171145000Y74060000I-200000J0D01*
G01*
X169545000Y74060000D01*
G75*
G02*
X169345000Y74260000I0J200000D01*
G01*
X169345000Y75860000D01*
G75*
G02*
X169545000Y76060000I200000J0D01*
G01*
X171145000Y76060000D01*
G75*
G02*
X171345000Y75860000I0J-200000D01*
G01*
G37*
X162725000Y92840000D03*
X170345000Y77600000D03*
X162725000Y90300000D03*
X170345000Y80140000D03*
X162725000Y87760000D03*
X170345000Y82680000D03*
X162725000Y85220000D03*
X170345000Y85220000D03*
X162725000Y82680000D03*
X170345000Y87760000D03*
X162725000Y80140000D03*
X170345000Y90300000D03*
X162725000Y77600000D03*
X170345000Y92840000D03*
X162725000Y75060000D03*
X132880000Y165230000D03*
X140500000Y183010000D03*
X132880000Y167770000D03*
X140500000Y180470000D03*
X132880000Y170310000D03*
X140500000Y177930000D03*
X132880000Y172850000D03*
X140500000Y175390000D03*
X132880000Y175390000D03*
X140500000Y172850000D03*
X132880000Y177930000D03*
X140500000Y170310000D03*
X132880000Y180470000D03*
X140500000Y167770000D03*
X132880000Y183010000D03*
G36*
G01*
X141500000Y166030000D02*
X141500000Y164430000D01*
G75*
G02*
X141300000Y164230000I-200000J0D01*
G01*
X139700000Y164230000D01*
G75*
G02*
X139500000Y164430000I0J200000D01*
G01*
X139500000Y166030000D01*
G75*
G02*
X139700000Y166230000I200000J0D01*
G01*
X141300000Y166230000D01*
G75*
G02*
X141500000Y166030000I0J-200000D01*
G01*
G37*
X192570000Y137290000D03*
X200190000Y152530000D03*
X192570000Y139830000D03*
X200190000Y149990000D03*
X192570000Y142370000D03*
X200190000Y147450000D03*
X192570000Y144910000D03*
X200190000Y144910000D03*
X192570000Y147450000D03*
X200190000Y142370000D03*
X192570000Y149990000D03*
X200190000Y139830000D03*
X192570000Y152530000D03*
G36*
G01*
X201190000Y138090000D02*
X201190000Y136490000D01*
G75*
G02*
X200990000Y136290000I-200000J0D01*
G01*
X199390000Y136290000D01*
G75*
G02*
X199190000Y136490000I0J200000D01*
G01*
X199190000Y138090000D01*
G75*
G02*
X199390000Y138290000I200000J0D01*
G01*
X200990000Y138290000D01*
G75*
G02*
X201190000Y138090000I0J-200000D01*
G01*
G37*
X75095000Y9655000D03*
X82715000Y32515000D03*
X75095000Y12195000D03*
X82715000Y29975000D03*
X75095000Y14735000D03*
X82715000Y27435000D03*
X75095000Y17275000D03*
X82715000Y24895000D03*
X75095000Y19815000D03*
X82715000Y22355000D03*
X75095000Y22355000D03*
X82715000Y19815000D03*
X75095000Y24895000D03*
X82715000Y17275000D03*
X75095000Y27435000D03*
X82715000Y14735000D03*
X75095000Y29975000D03*
X82715000Y12195000D03*
X75095000Y32515000D03*
G36*
G01*
X83715000Y10455000D02*
X83715000Y8855000D01*
G75*
G02*
X83515000Y8655000I-200000J0D01*
G01*
X81915000Y8655000D01*
G75*
G02*
X81715000Y8855000I0J200000D01*
G01*
X81715000Y10455000D01*
G75*
G02*
X81915000Y10655000I200000J0D01*
G01*
X83515000Y10655000D01*
G75*
G02*
X83715000Y10455000I0J-200000D01*
G01*
G37*
X132880000Y75060000D03*
X140500000Y92840000D03*
X132880000Y77600000D03*
X140500000Y90300000D03*
X132880000Y80140000D03*
X140500000Y87760000D03*
X132880000Y82680000D03*
X140500000Y85220000D03*
X132880000Y85220000D03*
X140500000Y82680000D03*
X132880000Y87760000D03*
X140500000Y80140000D03*
X132880000Y90300000D03*
X140500000Y77600000D03*
X132880000Y92840000D03*
G36*
G01*
X141500000Y75860000D02*
X141500000Y74260000D01*
G75*
G02*
X141300000Y74060000I-200000J0D01*
G01*
X139700000Y74060000D01*
G75*
G02*
X139500000Y74260000I0J200000D01*
G01*
X139500000Y75860000D01*
G75*
G02*
X139700000Y76060000I200000J0D01*
G01*
X141300000Y76060000D01*
G75*
G02*
X141500000Y75860000I0J-200000D01*
G01*
G37*
X147485000Y75060000D03*
X155105000Y92840000D03*
X147485000Y77600000D03*
X155105000Y90300000D03*
X147485000Y80140000D03*
X155105000Y87760000D03*
X147485000Y82680000D03*
X155105000Y85220000D03*
X147485000Y85220000D03*
X155105000Y82680000D03*
X147485000Y87760000D03*
X155105000Y80140000D03*
X147485000Y90300000D03*
X155105000Y77600000D03*
X147485000Y92840000D03*
G36*
G01*
X156105000Y75860000D02*
X156105000Y74260000D01*
G75*
G02*
X155905000Y74060000I-200000J0D01*
G01*
X154305000Y74060000D01*
G75*
G02*
X154105000Y74260000I0J200000D01*
G01*
X154105000Y75860000D01*
G75*
G02*
X154305000Y76060000I200000J0D01*
G01*
X155905000Y76060000D01*
G75*
G02*
X156105000Y75860000I0J-200000D01*
G01*
G37*
X147485000Y44580000D03*
X155105000Y62360000D03*
X147485000Y47120000D03*
X155105000Y59820000D03*
X147485000Y49660000D03*
X155105000Y57280000D03*
X147485000Y52200000D03*
X155105000Y54740000D03*
X147485000Y54740000D03*
X155105000Y52200000D03*
X147485000Y57280000D03*
X155105000Y49660000D03*
X147485000Y59820000D03*
X155105000Y47120000D03*
X147485000Y62360000D03*
G36*
G01*
X156105000Y45380000D02*
X156105000Y43780000D01*
G75*
G02*
X155905000Y43580000I-200000J0D01*
G01*
X154305000Y43580000D01*
G75*
G02*
X154105000Y43780000I0J200000D01*
G01*
X154105000Y45380000D01*
G75*
G02*
X154305000Y45580000I200000J0D01*
G01*
X155905000Y45580000D01*
G75*
G02*
X156105000Y45380000I0J-200000D01*
G01*
G37*
X162725000Y137290000D03*
X170345000Y155070000D03*
X162725000Y139830000D03*
X170345000Y152530000D03*
X162725000Y142370000D03*
X170345000Y149990000D03*
X162725000Y144910000D03*
X170345000Y147450000D03*
X162725000Y147450000D03*
X170345000Y144910000D03*
X162725000Y149990000D03*
X170345000Y142370000D03*
X162725000Y152530000D03*
X170345000Y139830000D03*
X162725000Y155070000D03*
G36*
G01*
X171345000Y138090000D02*
X171345000Y136490000D01*
G75*
G02*
X171145000Y136290000I-200000J0D01*
G01*
X169545000Y136290000D01*
G75*
G02*
X169345000Y136490000I0J200000D01*
G01*
X169345000Y138090000D01*
G75*
G02*
X169545000Y138290000I200000J0D01*
G01*
X171145000Y138290000D01*
G75*
G02*
X171345000Y138090000I0J-200000D01*
G01*
G37*
G36*
G01*
X156105000Y166030000D02*
X156105000Y164430000D01*
G75*
G02*
X155905000Y164230000I-200000J0D01*
G01*
X154305000Y164230000D01*
G75*
G02*
X154105000Y164430000I0J200000D01*
G01*
X154105000Y166030000D01*
G75*
G02*
X154305000Y166230000I200000J0D01*
G01*
X155905000Y166230000D01*
G75*
G02*
X156105000Y166030000I0J-200000D01*
G01*
G37*
X147485000Y183010000D03*
X155105000Y167770000D03*
X147485000Y180470000D03*
X155105000Y170310000D03*
X147485000Y177930000D03*
X155105000Y172850000D03*
X147485000Y175390000D03*
X155105000Y175390000D03*
X147485000Y172850000D03*
X155105000Y177930000D03*
X147485000Y170310000D03*
X155105000Y180470000D03*
X147485000Y167770000D03*
X155105000Y183010000D03*
X147485000Y165230000D03*
G36*
G01*
X201190000Y75860000D02*
X201190000Y74260000D01*
G75*
G02*
X200990000Y74060000I-200000J0D01*
G01*
X199390000Y74060000D01*
G75*
G02*
X199190000Y74260000I0J200000D01*
G01*
X199190000Y75860000D01*
G75*
G02*
X199390000Y76060000I200000J0D01*
G01*
X200990000Y76060000D01*
G75*
G02*
X201190000Y75860000I0J-200000D01*
G01*
G37*
X192570000Y90300000D03*
X200190000Y77600000D03*
X192570000Y87760000D03*
X200190000Y80140000D03*
X192570000Y85220000D03*
X200190000Y82680000D03*
X192570000Y82680000D03*
X200190000Y85220000D03*
X192570000Y80140000D03*
X200190000Y87760000D03*
X192570000Y77600000D03*
X200190000Y90300000D03*
X192570000Y75060000D03*
G36*
G01*
X126260000Y78400000D02*
X126260000Y76800000D01*
G75*
G02*
X126060000Y76600000I-200000J0D01*
G01*
X124460000Y76600000D01*
G75*
G02*
X124260000Y76800000I0J200000D01*
G01*
X124260000Y78400000D01*
G75*
G02*
X124460000Y78600000I200000J0D01*
G01*
X126060000Y78600000D01*
G75*
G02*
X126260000Y78400000I0J-200000D01*
G01*
G37*
X117640000Y92840000D03*
X125260000Y80140000D03*
X117640000Y90300000D03*
X125260000Y82680000D03*
X117640000Y87760000D03*
X125260000Y85220000D03*
X117640000Y85220000D03*
X125260000Y87760000D03*
X117640000Y82680000D03*
X125260000Y90300000D03*
X117640000Y80140000D03*
X125260000Y92840000D03*
X117640000Y77600000D03*
G36*
G01*
X216430000Y7915000D02*
X216430000Y6315000D01*
G75*
G02*
X216230000Y6115000I-200000J0D01*
G01*
X214630000Y6115000D01*
G75*
G02*
X214430000Y6315000I0J200000D01*
G01*
X214430000Y7915000D01*
G75*
G02*
X214630000Y8115000I200000J0D01*
G01*
X216230000Y8115000D01*
G75*
G02*
X216430000Y7915000I0J-200000D01*
G01*
G37*
X207810000Y22355000D03*
X215430000Y9655000D03*
X207810000Y19815000D03*
X215430000Y12195000D03*
X207810000Y17275000D03*
X215430000Y14735000D03*
X207810000Y14735000D03*
X215430000Y17275000D03*
X207810000Y12195000D03*
X215430000Y19815000D03*
X207810000Y9655000D03*
X215430000Y22355000D03*
X207810000Y7115000D03*
G36*
G01*
X201190000Y47920000D02*
X201190000Y46320000D01*
G75*
G02*
X200990000Y46120000I-200000J0D01*
G01*
X199390000Y46120000D01*
G75*
G02*
X199190000Y46320000I0J200000D01*
G01*
X199190000Y47920000D01*
G75*
G02*
X199390000Y48120000I200000J0D01*
G01*
X200990000Y48120000D01*
G75*
G02*
X201190000Y47920000I0J-200000D01*
G01*
G37*
X192570000Y62360000D03*
X200190000Y49660000D03*
X192570000Y59820000D03*
X200190000Y52200000D03*
X192570000Y57280000D03*
X200190000Y54740000D03*
X192570000Y54740000D03*
X200190000Y57280000D03*
X192570000Y52200000D03*
X200190000Y59820000D03*
X192570000Y49660000D03*
X200190000Y62360000D03*
X192570000Y47120000D03*
G36*
G01*
X171345000Y166030000D02*
X171345000Y164430000D01*
G75*
G02*
X171145000Y164230000I-200000J0D01*
G01*
X169545000Y164230000D01*
G75*
G02*
X169345000Y164430000I0J200000D01*
G01*
X169345000Y166030000D01*
G75*
G02*
X169545000Y166230000I200000J0D01*
G01*
X171145000Y166230000D01*
G75*
G02*
X171345000Y166030000I0J-200000D01*
G01*
G37*
X162725000Y183010000D03*
X170345000Y167770000D03*
X162725000Y180470000D03*
X170345000Y170310000D03*
X162725000Y177930000D03*
X170345000Y172850000D03*
X162725000Y175390000D03*
X170345000Y175390000D03*
X162725000Y172850000D03*
X170345000Y177930000D03*
X162725000Y170310000D03*
X170345000Y180470000D03*
X162725000Y167770000D03*
X170345000Y183010000D03*
X162725000Y165230000D03*
G36*
G01*
X215795000Y105705000D02*
X215795000Y104105000D01*
G75*
G02*
X215595000Y103905000I-200000J0D01*
G01*
X213995000Y103905000D01*
G75*
G02*
X213795000Y104105000I0J200000D01*
G01*
X213795000Y105705000D01*
G75*
G02*
X213995000Y105905000I200000J0D01*
G01*
X215595000Y105905000D01*
G75*
G02*
X215795000Y105705000I0J-200000D01*
G01*
G37*
X207175000Y120145000D03*
X214795000Y107445000D03*
X207175000Y117605000D03*
X214795000Y109985000D03*
X207175000Y115065000D03*
X214795000Y112525000D03*
X207175000Y112525000D03*
X214795000Y115065000D03*
X207175000Y109985000D03*
X214795000Y117605000D03*
X207175000Y107445000D03*
X214795000Y120145000D03*
X207175000Y104905000D03*
G36*
G01*
X231035000Y5375000D02*
X231035000Y3775000D01*
G75*
G02*
X230835000Y3575000I-200000J0D01*
G01*
X229235000Y3575000D01*
G75*
G02*
X229035000Y3775000I0J200000D01*
G01*
X229035000Y5375000D01*
G75*
G02*
X229235000Y5575000I200000J0D01*
G01*
X230835000Y5575000D01*
G75*
G02*
X231035000Y5375000I0J-200000D01*
G01*
G37*
X222415000Y22355000D03*
X230035000Y7115000D03*
X222415000Y19815000D03*
X230035000Y9655000D03*
X222415000Y17275000D03*
X230035000Y12195000D03*
X222415000Y14735000D03*
X230035000Y14735000D03*
X222415000Y12195000D03*
X230035000Y17275000D03*
X222415000Y9655000D03*
X230035000Y19815000D03*
X222415000Y7115000D03*
X230035000Y22355000D03*
X222415000Y4575000D03*
X207175000Y44580000D03*
X214795000Y62360000D03*
X207175000Y47120000D03*
X214795000Y59820000D03*
X207175000Y49660000D03*
X214795000Y57280000D03*
X207175000Y52200000D03*
X214795000Y54740000D03*
X207175000Y54740000D03*
X214795000Y52200000D03*
X207175000Y57280000D03*
X214795000Y49660000D03*
X207175000Y59820000D03*
X214795000Y47120000D03*
X207175000Y62360000D03*
G36*
G01*
X215795000Y45380000D02*
X215795000Y43780000D01*
G75*
G02*
X215595000Y43580000I-200000J0D01*
G01*
X213995000Y43580000D01*
G75*
G02*
X213795000Y43780000I0J200000D01*
G01*
X213795000Y45380000D01*
G75*
G02*
X213995000Y45580000I200000J0D01*
G01*
X215595000Y45580000D01*
G75*
G02*
X215795000Y45380000I0J-200000D01*
G01*
G37*
G36*
G01*
X186585000Y166030000D02*
X186585000Y164430000D01*
G75*
G02*
X186385000Y164230000I-200000J0D01*
G01*
X184785000Y164230000D01*
G75*
G02*
X184585000Y164430000I0J200000D01*
G01*
X184585000Y166030000D01*
G75*
G02*
X184785000Y166230000I200000J0D01*
G01*
X186385000Y166230000D01*
G75*
G02*
X186585000Y166030000I0J-200000D01*
G01*
G37*
X177965000Y183010000D03*
X185585000Y167770000D03*
X177965000Y180470000D03*
X185585000Y170310000D03*
X177965000Y177930000D03*
X185585000Y172850000D03*
X177965000Y175390000D03*
X185585000Y175390000D03*
X177965000Y172850000D03*
X185585000Y177930000D03*
X177965000Y170310000D03*
X185585000Y180470000D03*
X177965000Y167770000D03*
X185585000Y183010000D03*
X177965000Y165230000D03*
X207175000Y75060000D03*
X214795000Y92840000D03*
X207175000Y77600000D03*
X214795000Y90300000D03*
X207175000Y80140000D03*
X214795000Y87760000D03*
X207175000Y82680000D03*
X214795000Y85220000D03*
X207175000Y85220000D03*
X214795000Y82680000D03*
X207175000Y87760000D03*
X214795000Y80140000D03*
X207175000Y90300000D03*
X214795000Y77600000D03*
X207175000Y92840000D03*
G36*
G01*
X215795000Y75860000D02*
X215795000Y74260000D01*
G75*
G02*
X215595000Y74060000I-200000J0D01*
G01*
X213995000Y74060000D01*
G75*
G02*
X213795000Y74260000I0J200000D01*
G01*
X213795000Y75860000D01*
G75*
G02*
X213995000Y76060000I200000J0D01*
G01*
X215595000Y76060000D01*
G75*
G02*
X215795000Y75860000I0J-200000D01*
G01*
G37*
G36*
G01*
X246275000Y45380000D02*
X246275000Y43780000D01*
G75*
G02*
X246075000Y43580000I-200000J0D01*
G01*
X244475000Y43580000D01*
G75*
G02*
X244275000Y43780000I0J200000D01*
G01*
X244275000Y45380000D01*
G75*
G02*
X244475000Y45580000I200000J0D01*
G01*
X246075000Y45580000D01*
G75*
G02*
X246275000Y45380000I0J-200000D01*
G01*
G37*
X237655000Y62360000D03*
X245275000Y47120000D03*
X237655000Y59820000D03*
X245275000Y49660000D03*
X237655000Y57280000D03*
X245275000Y52200000D03*
X237655000Y54740000D03*
X245275000Y54740000D03*
X237655000Y52200000D03*
X245275000Y57280000D03*
X237655000Y49660000D03*
X245275000Y59820000D03*
X237655000Y47120000D03*
X245275000Y62360000D03*
X237655000Y44580000D03*
X222415000Y44580000D03*
X230035000Y62360000D03*
X222415000Y47120000D03*
X230035000Y59820000D03*
X222415000Y49660000D03*
X230035000Y57280000D03*
X222415000Y52200000D03*
X230035000Y54740000D03*
X222415000Y54740000D03*
X230035000Y52200000D03*
X222415000Y57280000D03*
X230035000Y49660000D03*
X222415000Y59820000D03*
X230035000Y47120000D03*
X222415000Y62360000D03*
G36*
G01*
X231035000Y45380000D02*
X231035000Y43780000D01*
G75*
G02*
X230835000Y43580000I-200000J0D01*
G01*
X229235000Y43580000D01*
G75*
G02*
X229035000Y43780000I0J200000D01*
G01*
X229035000Y45380000D01*
G75*
G02*
X229235000Y45580000I200000J0D01*
G01*
X230835000Y45580000D01*
G75*
G02*
X231035000Y45380000I0J-200000D01*
G01*
G37*
X132880000Y32515000D03*
X117640000Y4575000D03*
X132880000Y29975000D03*
X117640000Y7115000D03*
X132880000Y27435000D03*
X117640000Y9655000D03*
X132880000Y24895000D03*
X117640000Y12195000D03*
X132880000Y22355000D03*
X117640000Y14735000D03*
X132880000Y19815000D03*
X117640000Y17275000D03*
X132880000Y17275000D03*
X117640000Y19815000D03*
X132880000Y14735000D03*
X117640000Y22355000D03*
X132880000Y12195000D03*
X117640000Y24895000D03*
X132880000Y9655000D03*
X117640000Y27435000D03*
X132880000Y7115000D03*
X117640000Y29975000D03*
X132880000Y4575000D03*
G36*
G01*
X116640000Y31715000D02*
X116640000Y33315000D01*
G75*
G02*
X116840000Y33515000I200000J0D01*
G01*
X118440000Y33515000D01*
G75*
G02*
X118640000Y33315000I0J-200000D01*
G01*
X118640000Y31715000D01*
G75*
G02*
X118440000Y31515000I-200000J0D01*
G01*
X116840000Y31515000D01*
G75*
G02*
X116640000Y31715000I0J200000D01*
G01*
G37*
X192570000Y165230000D03*
X200190000Y183010000D03*
X192570000Y167770000D03*
X200190000Y180470000D03*
X192570000Y170310000D03*
X200190000Y177930000D03*
X192570000Y172850000D03*
X200190000Y175390000D03*
X192570000Y175390000D03*
X200190000Y172850000D03*
X192570000Y177930000D03*
X200190000Y170310000D03*
X192570000Y180470000D03*
X200190000Y167770000D03*
X192570000Y183010000D03*
G36*
G01*
X201190000Y166030000D02*
X201190000Y164430000D01*
G75*
G02*
X200990000Y164230000I-200000J0D01*
G01*
X199390000Y164230000D01*
G75*
G02*
X199190000Y164430000I0J200000D01*
G01*
X199190000Y166030000D01*
G75*
G02*
X199390000Y166230000I200000J0D01*
G01*
X200990000Y166230000D01*
G75*
G02*
X201190000Y166030000I0J-200000D01*
G01*
G37*
G36*
G01*
X186585000Y138090000D02*
X186585000Y136490000D01*
G75*
G02*
X186385000Y136290000I-200000J0D01*
G01*
X184785000Y136290000D01*
G75*
G02*
X184585000Y136490000I0J200000D01*
G01*
X184585000Y138090000D01*
G75*
G02*
X184785000Y138290000I200000J0D01*
G01*
X186385000Y138290000D01*
G75*
G02*
X186585000Y138090000I0J-200000D01*
G01*
G37*
X177965000Y152530000D03*
X185585000Y139830000D03*
X177965000Y149990000D03*
X185585000Y142370000D03*
X177965000Y147450000D03*
X185585000Y144910000D03*
X177965000Y144910000D03*
X185585000Y147450000D03*
X177965000Y142370000D03*
X185585000Y149990000D03*
X177965000Y139830000D03*
X185585000Y152530000D03*
X177965000Y137290000D03*
X132880000Y104905000D03*
X140500000Y120145000D03*
X132880000Y107445000D03*
X140500000Y117605000D03*
X132880000Y109985000D03*
X140500000Y115065000D03*
X132880000Y112525000D03*
X140500000Y112525000D03*
X132880000Y115065000D03*
X140500000Y109985000D03*
X132880000Y117605000D03*
X140500000Y107445000D03*
X132880000Y120145000D03*
G36*
G01*
X141500000Y105705000D02*
X141500000Y104105000D01*
G75*
G02*
X141300000Y103905000I-200000J0D01*
G01*
X139700000Y103905000D01*
G75*
G02*
X139500000Y104105000I0J200000D01*
G01*
X139500000Y105705000D01*
G75*
G02*
X139700000Y105905000I200000J0D01*
G01*
X141300000Y105905000D01*
G75*
G02*
X141500000Y105705000I0J-200000D01*
G01*
G37*
G36*
G01*
X246275000Y75860000D02*
X246275000Y74260000D01*
G75*
G02*
X246075000Y74060000I-200000J0D01*
G01*
X244475000Y74060000D01*
G75*
G02*
X244275000Y74260000I0J200000D01*
G01*
X244275000Y75860000D01*
G75*
G02*
X244475000Y76060000I200000J0D01*
G01*
X246075000Y76060000D01*
G75*
G02*
X246275000Y75860000I0J-200000D01*
G01*
G37*
X237655000Y92840000D03*
X245275000Y77600000D03*
X237655000Y90300000D03*
X245275000Y80140000D03*
X237655000Y87760000D03*
X245275000Y82680000D03*
X237655000Y85220000D03*
X245275000Y85220000D03*
X237655000Y82680000D03*
X245275000Y87760000D03*
X237655000Y80140000D03*
X245275000Y90300000D03*
X237655000Y77600000D03*
X245275000Y92840000D03*
X237655000Y75060000D03*
X222415000Y75060000D03*
X230035000Y92840000D03*
X222415000Y77600000D03*
X230035000Y90300000D03*
X222415000Y80140000D03*
X230035000Y87760000D03*
X222415000Y82680000D03*
X230035000Y85220000D03*
X222415000Y85220000D03*
X230035000Y82680000D03*
X222415000Y87760000D03*
X230035000Y80140000D03*
X222415000Y90300000D03*
X230035000Y77600000D03*
X222415000Y92840000D03*
G36*
G01*
X231035000Y75860000D02*
X231035000Y74260000D01*
G75*
G02*
X230835000Y74060000I-200000J0D01*
G01*
X229235000Y74060000D01*
G75*
G02*
X229035000Y74260000I0J200000D01*
G01*
X229035000Y75860000D01*
G75*
G02*
X229235000Y76060000I200000J0D01*
G01*
X230835000Y76060000D01*
G75*
G02*
X231035000Y75860000I0J-200000D01*
G01*
G37*
G36*
G01*
X216430000Y166030000D02*
X216430000Y164430000D01*
G75*
G02*
X216230000Y164230000I-200000J0D01*
G01*
X214630000Y164230000D01*
G75*
G02*
X214430000Y164430000I0J200000D01*
G01*
X214430000Y166030000D01*
G75*
G02*
X214630000Y166230000I200000J0D01*
G01*
X216230000Y166230000D01*
G75*
G02*
X216430000Y166030000I0J-200000D01*
G01*
G37*
X207810000Y183010000D03*
X215430000Y167770000D03*
X207810000Y180470000D03*
X215430000Y170310000D03*
X207810000Y177930000D03*
X215430000Y172850000D03*
X207810000Y175390000D03*
X215430000Y175390000D03*
X207810000Y172850000D03*
X215430000Y177930000D03*
X207810000Y170310000D03*
X215430000Y180470000D03*
X207810000Y167770000D03*
X215430000Y183010000D03*
X207810000Y165230000D03*
X177330000Y104905000D03*
X184950000Y120145000D03*
X177330000Y107445000D03*
X184950000Y117605000D03*
X177330000Y109985000D03*
X184950000Y115065000D03*
X177330000Y112525000D03*
X184950000Y112525000D03*
X177330000Y115065000D03*
X184950000Y109985000D03*
X177330000Y117605000D03*
X184950000Y107445000D03*
X177330000Y120145000D03*
G36*
G01*
X185950000Y105705000D02*
X185950000Y104105000D01*
G75*
G02*
X185750000Y103905000I-200000J0D01*
G01*
X184150000Y103905000D01*
G75*
G02*
X183950000Y104105000I0J200000D01*
G01*
X183950000Y105705000D01*
G75*
G02*
X184150000Y105905000I200000J0D01*
G01*
X185750000Y105905000D01*
G75*
G02*
X185950000Y105705000I0J-200000D01*
G01*
G37*
G36*
G01*
X215795000Y138090000D02*
X215795000Y136490000D01*
G75*
G02*
X215595000Y136290000I-200000J0D01*
G01*
X213995000Y136290000D01*
G75*
G02*
X213795000Y136490000I0J200000D01*
G01*
X213795000Y138090000D01*
G75*
G02*
X213995000Y138290000I200000J0D01*
G01*
X215595000Y138290000D01*
G75*
G02*
X215795000Y138090000I0J-200000D01*
G01*
G37*
X207175000Y155070000D03*
X214795000Y139830000D03*
X207175000Y152530000D03*
X214795000Y142370000D03*
X207175000Y149990000D03*
X214795000Y144910000D03*
X207175000Y147450000D03*
X214795000Y147450000D03*
X207175000Y144910000D03*
X214795000Y149990000D03*
X207175000Y142370000D03*
X214795000Y152530000D03*
X207175000Y139830000D03*
X214795000Y155070000D03*
X207175000Y137290000D03*
G36*
G01*
X231035000Y105705000D02*
X231035000Y104105000D01*
G75*
G02*
X230835000Y103905000I-200000J0D01*
G01*
X229235000Y103905000D01*
G75*
G02*
X229035000Y104105000I0J200000D01*
G01*
X229035000Y105705000D01*
G75*
G02*
X229235000Y105905000I200000J0D01*
G01*
X230835000Y105905000D01*
G75*
G02*
X231035000Y105705000I0J-200000D01*
G01*
G37*
X222415000Y122685000D03*
X230035000Y107445000D03*
X222415000Y120145000D03*
X230035000Y109985000D03*
X222415000Y117605000D03*
X230035000Y112525000D03*
X222415000Y115065000D03*
X230035000Y115065000D03*
X222415000Y112525000D03*
X230035000Y117605000D03*
X222415000Y109985000D03*
X230035000Y120145000D03*
X222415000Y107445000D03*
X230035000Y122685000D03*
X222415000Y104905000D03*
X117640000Y104905000D03*
X125260000Y122685000D03*
X117640000Y107445000D03*
X125260000Y120145000D03*
X117640000Y109985000D03*
X125260000Y117605000D03*
X117640000Y112525000D03*
X125260000Y115065000D03*
X117640000Y115065000D03*
X125260000Y112525000D03*
X117640000Y117605000D03*
X125260000Y109985000D03*
X117640000Y120145000D03*
X125260000Y107445000D03*
X117640000Y122685000D03*
G36*
G01*
X126260000Y105705000D02*
X126260000Y104105000D01*
G75*
G02*
X126060000Y103905000I-200000J0D01*
G01*
X124460000Y103905000D01*
G75*
G02*
X124260000Y104105000I0J200000D01*
G01*
X124260000Y105705000D01*
G75*
G02*
X124460000Y105905000I200000J0D01*
G01*
X126060000Y105905000D01*
G75*
G02*
X126260000Y105705000I0J-200000D01*
G01*
G37*
G36*
G01*
X141405000Y31715000D02*
X141405000Y33315000D01*
G75*
G02*
X141605000Y33515000I200000J0D01*
G01*
X143205000Y33515000D01*
G75*
G02*
X143405000Y33315000I0J-200000D01*
G01*
X143405000Y31715000D01*
G75*
G02*
X143205000Y31515000I-200000J0D01*
G01*
X141605000Y31515000D01*
G75*
G02*
X141405000Y31715000I0J200000D01*
G01*
G37*
X157645000Y4575000D03*
X142405000Y29975000D03*
X157645000Y7115000D03*
X142405000Y27435000D03*
X157645000Y9655000D03*
X142405000Y24895000D03*
X157645000Y12195000D03*
X142405000Y22355000D03*
X157645000Y14735000D03*
X142405000Y19815000D03*
X157645000Y17275000D03*
X142405000Y17275000D03*
X157645000Y19815000D03*
X142405000Y14735000D03*
X157645000Y22355000D03*
X142405000Y12195000D03*
X157645000Y24895000D03*
X142405000Y9655000D03*
X157645000Y27435000D03*
X142405000Y7115000D03*
X157645000Y29975000D03*
X142405000Y4575000D03*
X157645000Y32515000D03*
G36*
G01*
X231035000Y166030000D02*
X231035000Y164430000D01*
G75*
G02*
X230835000Y164230000I-200000J0D01*
G01*
X229235000Y164230000D01*
G75*
G02*
X229035000Y164430000I0J200000D01*
G01*
X229035000Y166030000D01*
G75*
G02*
X229235000Y166230000I200000J0D01*
G01*
X230835000Y166230000D01*
G75*
G02*
X231035000Y166030000I0J-200000D01*
G01*
G37*
X222415000Y183010000D03*
X230035000Y167770000D03*
X222415000Y180470000D03*
X230035000Y170310000D03*
X222415000Y177930000D03*
X230035000Y172850000D03*
X222415000Y175390000D03*
X230035000Y175390000D03*
X222415000Y172850000D03*
X230035000Y177930000D03*
X222415000Y170310000D03*
X230035000Y180470000D03*
X222415000Y167770000D03*
X230035000Y183010000D03*
X222415000Y165230000D03*
G36*
G01*
X246275000Y138090000D02*
X246275000Y136490000D01*
G75*
G02*
X246075000Y136290000I-200000J0D01*
G01*
X244475000Y136290000D01*
G75*
G02*
X244275000Y136490000I0J200000D01*
G01*
X244275000Y138090000D01*
G75*
G02*
X244475000Y138290000I200000J0D01*
G01*
X246075000Y138290000D01*
G75*
G02*
X246275000Y138090000I0J-200000D01*
G01*
G37*
X237655000Y152530000D03*
X245275000Y139830000D03*
X237655000Y149990000D03*
X245275000Y142370000D03*
X237655000Y147450000D03*
X245275000Y144910000D03*
X237655000Y144910000D03*
X245275000Y147450000D03*
X237655000Y142370000D03*
X245275000Y149990000D03*
X237655000Y139830000D03*
X245275000Y152530000D03*
X237655000Y137290000D03*
X183045000Y32515000D03*
X167805000Y4575000D03*
X183045000Y29975000D03*
X167805000Y7115000D03*
X183045000Y27435000D03*
X167805000Y9655000D03*
X183045000Y24895000D03*
X167805000Y12195000D03*
X183045000Y22355000D03*
X167805000Y14735000D03*
X183045000Y19815000D03*
X167805000Y17275000D03*
X183045000Y17275000D03*
X167805000Y19815000D03*
X183045000Y14735000D03*
X167805000Y22355000D03*
X183045000Y12195000D03*
X167805000Y24895000D03*
X183045000Y9655000D03*
X167805000Y27435000D03*
X183045000Y7115000D03*
X167805000Y29975000D03*
X183045000Y4575000D03*
G36*
G01*
X166805000Y31715000D02*
X166805000Y33315000D01*
G75*
G02*
X167005000Y33515000I200000J0D01*
G01*
X168605000Y33515000D01*
G75*
G02*
X168805000Y33315000I0J-200000D01*
G01*
X168805000Y31715000D01*
G75*
G02*
X168605000Y31515000I-200000J0D01*
G01*
X167005000Y31515000D01*
G75*
G02*
X166805000Y31715000I0J200000D01*
G01*
G37*
X252260000Y44580000D03*
X259880000Y59820000D03*
X252260000Y47120000D03*
X259880000Y57280000D03*
X252260000Y49660000D03*
X259880000Y54740000D03*
X252260000Y52200000D03*
X259880000Y52200000D03*
X252260000Y54740000D03*
X259880000Y49660000D03*
X252260000Y57280000D03*
X259880000Y47120000D03*
X252260000Y59820000D03*
G36*
G01*
X260880000Y45380000D02*
X260880000Y43780000D01*
G75*
G02*
X260680000Y43580000I-200000J0D01*
G01*
X259080000Y43580000D01*
G75*
G02*
X258880000Y43780000I0J200000D01*
G01*
X258880000Y45380000D01*
G75*
G02*
X259080000Y45580000I200000J0D01*
G01*
X260680000Y45580000D01*
G75*
G02*
X260880000Y45380000I0J-200000D01*
G01*
G37*
X237020000Y7115000D03*
X244640000Y22355000D03*
X237020000Y9655000D03*
X244640000Y19815000D03*
X237020000Y12195000D03*
X244640000Y17275000D03*
X237020000Y14735000D03*
X244640000Y14735000D03*
X237020000Y17275000D03*
X244640000Y12195000D03*
X237020000Y19815000D03*
X244640000Y9655000D03*
X237020000Y22355000D03*
G36*
G01*
X245640000Y7915000D02*
X245640000Y6315000D01*
G75*
G02*
X245440000Y6115000I-200000J0D01*
G01*
X243840000Y6115000D01*
G75*
G02*
X243640000Y6315000I0J200000D01*
G01*
X243640000Y7915000D01*
G75*
G02*
X243840000Y8115000I200000J0D01*
G01*
X245440000Y8115000D01*
G75*
G02*
X245640000Y7915000I0J-200000D01*
G01*
G37*
X252260000Y7115000D03*
X259880000Y22355000D03*
X252260000Y9655000D03*
X259880000Y19815000D03*
X252260000Y12195000D03*
X259880000Y17275000D03*
X252260000Y14735000D03*
X259880000Y14735000D03*
X252260000Y17275000D03*
X259880000Y12195000D03*
X252260000Y19815000D03*
X259880000Y9655000D03*
X252260000Y22355000D03*
G36*
G01*
X260880000Y7915000D02*
X260880000Y6315000D01*
G75*
G02*
X260680000Y6115000I-200000J0D01*
G01*
X259080000Y6115000D01*
G75*
G02*
X258880000Y6315000I0J200000D01*
G01*
X258880000Y7915000D01*
G75*
G02*
X259080000Y8115000I200000J0D01*
G01*
X260680000Y8115000D01*
G75*
G02*
X260880000Y7915000I0J-200000D01*
G01*
G37*
X107480000Y37595000D03*
X92240000Y4575000D03*
X107480000Y35055000D03*
X92240000Y7115000D03*
X107480000Y32515000D03*
X92240000Y9655000D03*
X107480000Y29975000D03*
X92240000Y12195000D03*
X107480000Y27435000D03*
X92240000Y14735000D03*
X107480000Y24895000D03*
X92240000Y17275000D03*
X107480000Y22355000D03*
X92240000Y19815000D03*
X107480000Y19815000D03*
X92240000Y22355000D03*
X107480000Y17275000D03*
X92240000Y24895000D03*
X107480000Y14735000D03*
X92240000Y27435000D03*
X107480000Y12195000D03*
X92240000Y29975000D03*
X107480000Y9655000D03*
X92240000Y32515000D03*
X107480000Y7115000D03*
X92240000Y35055000D03*
X107480000Y4575000D03*
G36*
G01*
X91240000Y36795000D02*
X91240000Y38395000D01*
G75*
G02*
X91440000Y38595000I200000J0D01*
G01*
X93040000Y38595000D01*
G75*
G02*
X93240000Y38395000I0J-200000D01*
G01*
X93240000Y36795000D01*
G75*
G02*
X93040000Y36595000I-200000J0D01*
G01*
X91440000Y36595000D01*
G75*
G02*
X91240000Y36795000I0J200000D01*
G01*
G37*
D24*
X249085000Y174675000D03*
X246585000Y172175000D03*
X249085000Y169675000D03*
G36*
G01*
X254580000Y171795000D02*
X254580000Y170095000D01*
G75*
G02*
X254380000Y169895000I-200000J0D01*
G01*
X252680000Y169895000D01*
G75*
G02*
X252480000Y170095000I0J200000D01*
G01*
X252480000Y171795000D01*
G75*
G02*
X252680000Y171995000I200000J0D01*
G01*
X254380000Y171995000D01*
G75*
G02*
X254580000Y171795000I0J-200000D01*
G01*
G37*
D20*
X253530000Y173485000D03*
G36*
G01*
X156105000Y105705000D02*
X156105000Y104105000D01*
G75*
G02*
X155905000Y103905000I-200000J0D01*
G01*
X154305000Y103905000D01*
G75*
G02*
X154105000Y104105000I0J200000D01*
G01*
X154105000Y105705000D01*
G75*
G02*
X154305000Y105905000I200000J0D01*
G01*
X155905000Y105905000D01*
G75*
G02*
X156105000Y105705000I0J-200000D01*
G01*
G37*
D15*
X147485000Y120145000D03*
X155105000Y107445000D03*
X147485000Y117605000D03*
X155105000Y109985000D03*
X147485000Y115065000D03*
X155105000Y112525000D03*
X147485000Y112525000D03*
X155105000Y115065000D03*
X147485000Y109985000D03*
X155105000Y117605000D03*
X147485000Y107445000D03*
X155105000Y120145000D03*
X147485000Y104905000D03*
X155105000Y127765000D03*
G36*
G01*
X146485000Y126965000D02*
X146485000Y128565000D01*
G75*
G02*
X146685000Y128765000I200000J0D01*
G01*
X148285000Y128765000D01*
G75*
G02*
X148485000Y128565000I0J-200000D01*
G01*
X148485000Y126965000D01*
G75*
G02*
X148285000Y126765000I-200000J0D01*
G01*
X146685000Y126765000D01*
G75*
G02*
X146485000Y126965000I0J200000D01*
G01*
G37*
G36*
G01*
X98860000Y126965000D02*
X98860000Y128565000D01*
G75*
G02*
X99060000Y128765000I200000J0D01*
G01*
X100660000Y128765000D01*
G75*
G02*
X100860000Y128565000I0J-200000D01*
G01*
X100860000Y126965000D01*
G75*
G02*
X100660000Y126765000I-200000J0D01*
G01*
X99060000Y126765000D01*
G75*
G02*
X98860000Y126965000I0J200000D01*
G01*
G37*
X110020000Y127765000D03*
G36*
G01*
X28470000Y51095000D02*
X28470000Y49495000D01*
G75*
G02*
X28270000Y49295000I-200000J0D01*
G01*
X26670000Y49295000D01*
G75*
G02*
X26470000Y49495000I0J200000D01*
G01*
X26470000Y51095000D01*
G75*
G02*
X26670000Y51295000I200000J0D01*
G01*
X28270000Y51295000D01*
G75*
G02*
X28470000Y51095000I0J-200000D01*
G01*
G37*
X19850000Y50295000D03*
X19850000Y46485000D03*
G36*
G01*
X28470000Y47285000D02*
X28470000Y45685000D01*
G75*
G02*
X28270000Y45485000I-200000J0D01*
G01*
X26670000Y45485000D01*
G75*
G02*
X26470000Y45685000I0J200000D01*
G01*
X26470000Y47285000D01*
G75*
G02*
X26670000Y47485000I200000J0D01*
G01*
X28270000Y47485000D01*
G75*
G02*
X28470000Y47285000I0J-200000D01*
G01*
G37*
G36*
G01*
X28470000Y43475000D02*
X28470000Y41875000D01*
G75*
G02*
X28270000Y41675000I-200000J0D01*
G01*
X26670000Y41675000D01*
G75*
G02*
X26470000Y41875000I0J200000D01*
G01*
X26470000Y43475000D01*
G75*
G02*
X26670000Y43675000I200000J0D01*
G01*
X28270000Y43675000D01*
G75*
G02*
X28470000Y43475000I0J-200000D01*
G01*
G37*
X19850000Y42675000D03*
G36*
G01*
X28470000Y39665000D02*
X28470000Y38065000D01*
G75*
G02*
X28270000Y37865000I-200000J0D01*
G01*
X26670000Y37865000D01*
G75*
G02*
X26470000Y38065000I0J200000D01*
G01*
X26470000Y39665000D01*
G75*
G02*
X26670000Y39865000I200000J0D01*
G01*
X28270000Y39865000D01*
G75*
G02*
X28470000Y39665000I0J-200000D01*
G01*
G37*
X19850000Y38865000D03*
G36*
G01*
X28470000Y35855000D02*
X28470000Y34255000D01*
G75*
G02*
X28270000Y34055000I-200000J0D01*
G01*
X26670000Y34055000D01*
G75*
G02*
X26470000Y34255000I0J200000D01*
G01*
X26470000Y35855000D01*
G75*
G02*
X26670000Y36055000I200000J0D01*
G01*
X28270000Y36055000D01*
G75*
G02*
X28470000Y35855000I0J-200000D01*
G01*
G37*
X19850000Y35055000D03*
G36*
G01*
X28470000Y32045000D02*
X28470000Y30445000D01*
G75*
G02*
X28270000Y30245000I-200000J0D01*
G01*
X26670000Y30245000D01*
G75*
G02*
X26470000Y30445000I0J200000D01*
G01*
X26470000Y32045000D01*
G75*
G02*
X26670000Y32245000I200000J0D01*
G01*
X28270000Y32245000D01*
G75*
G02*
X28470000Y32045000I0J-200000D01*
G01*
G37*
X19850000Y31245000D03*
X19850000Y27435000D03*
G36*
G01*
X28470000Y28235000D02*
X28470000Y26635000D01*
G75*
G02*
X28270000Y26435000I-200000J0D01*
G01*
X26670000Y26435000D01*
G75*
G02*
X26470000Y26635000I0J200000D01*
G01*
X26470000Y28235000D01*
G75*
G02*
X26670000Y28435000I200000J0D01*
G01*
X28270000Y28435000D01*
G75*
G02*
X28470000Y28235000I0J-200000D01*
G01*
G37*
X19850000Y23625000D03*
G36*
G01*
X28470000Y24425000D02*
X28470000Y22825000D01*
G75*
G02*
X28270000Y22625000I-200000J0D01*
G01*
X26670000Y22625000D01*
G75*
G02*
X26470000Y22825000I0J200000D01*
G01*
X26470000Y24425000D01*
G75*
G02*
X26670000Y24625000I200000J0D01*
G01*
X28270000Y24625000D01*
G75*
G02*
X28470000Y24425000I0J-200000D01*
G01*
G37*
G36*
G01*
X274120000Y133950000D02*
X274120000Y135550000D01*
G75*
G02*
X274320000Y135750000I200000J0D01*
G01*
X275920000Y135750000D01*
G75*
G02*
X276120000Y135550000I0J-200000D01*
G01*
X276120000Y133950000D01*
G75*
G02*
X275920000Y133750000I-200000J0D01*
G01*
X274320000Y133750000D01*
G75*
G02*
X274120000Y133950000I0J200000D01*
G01*
G37*
X285280000Y134750000D03*
X275120000Y130940000D03*
G36*
G01*
X286280000Y131740000D02*
X286280000Y130140000D01*
G75*
G02*
X286080000Y129940000I-200000J0D01*
G01*
X284480000Y129940000D01*
G75*
G02*
X284280000Y130140000I0J200000D01*
G01*
X284280000Y131740000D01*
G75*
G02*
X284480000Y131940000I200000J0D01*
G01*
X286080000Y131940000D01*
G75*
G02*
X286280000Y131740000I0J-200000D01*
G01*
G37*
X275120000Y123320000D03*
G36*
G01*
X286280000Y124120000D02*
X286280000Y122520000D01*
G75*
G02*
X286080000Y122320000I-200000J0D01*
G01*
X284480000Y122320000D01*
G75*
G02*
X284280000Y122520000I0J200000D01*
G01*
X284280000Y124120000D01*
G75*
G02*
X284480000Y124320000I200000J0D01*
G01*
X286080000Y124320000D01*
G75*
G02*
X286280000Y124120000I0J-200000D01*
G01*
G37*
X275120000Y127130000D03*
G36*
G01*
X286280000Y127930000D02*
X286280000Y126330000D01*
G75*
G02*
X286080000Y126130000I-200000J0D01*
G01*
X284480000Y126130000D01*
G75*
G02*
X284280000Y126330000I0J200000D01*
G01*
X284280000Y127930000D01*
G75*
G02*
X284480000Y128130000I200000J0D01*
G01*
X286080000Y128130000D01*
G75*
G02*
X286280000Y127930000I0J-200000D01*
G01*
G37*
G36*
G01*
X271040000Y172380000D02*
X271040000Y170780000D01*
G75*
G02*
X270840000Y170580000I-200000J0D01*
G01*
X269240000Y170580000D01*
G75*
G02*
X269040000Y170780000I0J200000D01*
G01*
X269040000Y172380000D01*
G75*
G02*
X269240000Y172580000I200000J0D01*
G01*
X270840000Y172580000D01*
G75*
G02*
X271040000Y172380000I0J-200000D01*
G01*
G37*
X259880000Y171580000D03*
X275120000Y162690000D03*
G36*
G01*
X286280000Y163490000D02*
X286280000Y161890000D01*
G75*
G02*
X286080000Y161690000I-200000J0D01*
G01*
X284480000Y161690000D01*
G75*
G02*
X284280000Y161890000I0J200000D01*
G01*
X284280000Y163490000D01*
G75*
G02*
X284480000Y163690000I200000J0D01*
G01*
X286080000Y163690000D01*
G75*
G02*
X286280000Y163490000I0J-200000D01*
G01*
G37*
G36*
G01*
X274120000Y165700000D02*
X274120000Y167300000D01*
G75*
G02*
X274320000Y167500000I200000J0D01*
G01*
X275920000Y167500000D01*
G75*
G02*
X276120000Y167300000I0J-200000D01*
G01*
X276120000Y165700000D01*
G75*
G02*
X275920000Y165500000I-200000J0D01*
G01*
X274320000Y165500000D01*
G75*
G02*
X274120000Y165700000I0J200000D01*
G01*
G37*
X285280000Y166500000D03*
X285280000Y170310000D03*
G36*
G01*
X274120000Y169510000D02*
X274120000Y171110000D01*
G75*
G02*
X274320000Y171310000I200000J0D01*
G01*
X275920000Y171310000D01*
G75*
G02*
X276120000Y171110000I0J-200000D01*
G01*
X276120000Y169510000D01*
G75*
G02*
X275920000Y169310000I-200000J0D01*
G01*
X274320000Y169310000D01*
G75*
G02*
X274120000Y169510000I0J200000D01*
G01*
G37*
X221145000Y101730000D03*
G36*
G01*
X232305000Y102530000D02*
X232305000Y100930000D01*
G75*
G02*
X232105000Y100730000I-200000J0D01*
G01*
X230505000Y100730000D01*
G75*
G02*
X230305000Y100930000I0J200000D01*
G01*
X230305000Y102530000D01*
G75*
G02*
X230505000Y102730000I200000J0D01*
G01*
X232105000Y102730000D01*
G75*
G02*
X232305000Y102530000I0J-200000D01*
G01*
G37*
G36*
G01*
X232305000Y99990000D02*
X232305000Y98390000D01*
G75*
G02*
X232105000Y98190000I-200000J0D01*
G01*
X230505000Y98190000D01*
G75*
G02*
X230305000Y98390000I0J200000D01*
G01*
X230305000Y99990000D01*
G75*
G02*
X230505000Y100190000I200000J0D01*
G01*
X232105000Y100190000D01*
G75*
G02*
X232305000Y99990000I0J-200000D01*
G01*
G37*
X221145000Y99190000D03*
G36*
G01*
X232305000Y97450000D02*
X232305000Y95850000D01*
G75*
G02*
X232105000Y95650000I-200000J0D01*
G01*
X230505000Y95650000D01*
G75*
G02*
X230305000Y95850000I0J200000D01*
G01*
X230305000Y97450000D01*
G75*
G02*
X230505000Y97650000I200000J0D01*
G01*
X232105000Y97650000D01*
G75*
G02*
X232305000Y97450000I0J-200000D01*
G01*
G37*
X221145000Y96650000D03*
D13*
X147485000Y130940000D03*
D15*
X155105000Y130940000D03*
D13*
X170345000Y126495000D03*
D15*
X162725000Y126495000D03*
X187490000Y133480000D03*
D13*
X177330000Y133480000D03*
D15*
X73825000Y124590000D03*
D13*
X81445000Y124590000D03*
D15*
X117640000Y127130000D03*
D13*
X125260000Y127130000D03*
X27470000Y19815000D03*
D15*
X19850000Y19815000D03*
X19850000Y16005000D03*
D13*
X27470000Y16005000D03*
X27470000Y12195000D03*
D15*
X19850000Y12195000D03*
X19850000Y8385000D03*
D13*
X27470000Y8385000D03*
X27470000Y4575000D03*
D15*
X19850000Y4575000D03*
X31280000Y149990000D03*
D13*
X31280000Y160150000D03*
D15*
X99860000Y171580000D03*
D13*
X110020000Y171580000D03*
X33820000Y170310000D03*
D15*
X33820000Y180470000D03*
X99860000Y174120000D03*
D13*
X110020000Y174120000D03*
X97320000Y167770000D03*
D15*
X87160000Y167770000D03*
X99860000Y176660000D03*
D13*
X110020000Y176660000D03*
D15*
X99860000Y181740000D03*
D13*
X110020000Y181740000D03*
D15*
X87160000Y175390000D03*
D13*
X97320000Y175390000D03*
X110020000Y179200000D03*
D15*
X99860000Y179200000D03*
X87160000Y177930000D03*
D13*
X97320000Y177930000D03*
X97320000Y180470000D03*
D15*
X87160000Y180470000D03*
D13*
X97320000Y170310000D03*
D15*
X87160000Y170310000D03*
X87160000Y172850000D03*
D13*
X97320000Y172850000D03*
D15*
X117640000Y71250000D03*
D13*
X125260000Y71250000D03*
X18580000Y144910000D03*
D15*
X18580000Y155070000D03*
D13*
X184950000Y101095000D03*
D15*
X177330000Y101095000D03*
X21120000Y144910000D03*
D13*
X21120000Y155070000D03*
X117640000Y73790000D03*
D15*
X125260000Y73790000D03*
X162725000Y133480000D03*
D13*
X170345000Y133480000D03*
X22390000Y96015000D03*
D15*
X32550000Y96015000D03*
D13*
X140500000Y123320000D03*
D15*
X132880000Y123320000D03*
D13*
X140500000Y125860000D03*
D15*
X132880000Y125860000D03*
D13*
X230035000Y69980000D03*
D15*
X222415000Y69980000D03*
X222415000Y67440000D03*
D13*
X230035000Y67440000D03*
X236385000Y167770000D03*
D15*
X246545000Y167770000D03*
D13*
X246545000Y165230000D03*
D15*
X236385000Y165230000D03*
D13*
X259880000Y162690000D03*
D15*
X270040000Y162690000D03*
X270040000Y165230000D03*
D13*
X259880000Y165230000D03*
X270040000Y167770000D03*
D15*
X259880000Y167770000D03*
X275120000Y138560000D03*
D13*
X285280000Y138560000D03*
X259880000Y142370000D03*
D15*
X249720000Y142370000D03*
X222415000Y137290000D03*
D13*
X230035000Y137290000D03*
X230035000Y139830000D03*
D15*
X222415000Y139830000D03*
D13*
X230035000Y142370000D03*
D15*
X222415000Y142370000D03*
X222415000Y144910000D03*
D13*
X230035000Y144910000D03*
D15*
X184950000Y126495000D03*
D13*
X177330000Y126495000D03*
X245275000Y102365000D03*
D15*
X237655000Y102365000D03*
X237655000Y104905000D03*
D13*
X245275000Y104905000D03*
D15*
X245275000Y107445000D03*
D13*
X237655000Y107445000D03*
D15*
X245275000Y109985000D03*
D13*
X237655000Y109985000D03*
X237655000Y112525000D03*
D15*
X245275000Y112525000D03*
D13*
X245275000Y115065000D03*
D15*
X237655000Y115065000D03*
X237655000Y117605000D03*
D13*
X245275000Y117605000D03*
X259880000Y127130000D03*
D15*
X270040000Y127130000D03*
X270040000Y124590000D03*
D13*
X259880000Y124590000D03*
D15*
X259880000Y119510000D03*
D13*
X270040000Y119510000D03*
X245275000Y120145000D03*
D15*
X237655000Y120145000D03*
X245275000Y122685000D03*
D13*
X237655000Y122685000D03*
X237655000Y125225000D03*
D15*
X245275000Y125225000D03*
D13*
X117640000Y129670000D03*
D15*
X125260000Y129670000D03*
D13*
X149390000Y159515000D03*
D15*
X157010000Y159515000D03*
X162725000Y123955000D03*
D13*
X170345000Y123955000D03*
D15*
X94780000Y125225000D03*
D13*
X87160000Y125225000D03*
X104940000Y121415000D03*
D15*
X97320000Y121415000D03*
X259880000Y132845000D03*
D13*
X249720000Y132845000D03*
X249720000Y139830000D03*
D15*
X259880000Y139830000D03*
X222415000Y147450000D03*
D13*
X230035000Y147450000D03*
X222415000Y159515000D03*
D15*
X230035000Y159515000D03*
X200190000Y93475000D03*
D13*
X192570000Y93475000D03*
D15*
X205270000Y128400000D03*
D13*
X215430000Y128400000D03*
X259880000Y122050000D03*
D15*
X270040000Y122050000D03*
D13*
X237655000Y97920000D03*
D15*
X245275000Y97920000D03*
D13*
X14770000Y170310000D03*
D15*
X14770000Y160150000D03*
X264960000Y59820000D03*
D13*
X272580000Y59820000D03*
X272580000Y56010000D03*
D15*
X264960000Y56010000D03*
X264960000Y52200000D03*
D13*
X272580000Y52200000D03*
X272580000Y48390000D03*
D15*
X264960000Y48390000D03*
X264960000Y44580000D03*
D13*
X272580000Y44580000D03*
X272580000Y40135000D03*
D15*
X264960000Y40135000D03*
X264960000Y36325000D03*
D13*
X272580000Y36325000D03*
D15*
X264960000Y32515000D03*
D13*
X272580000Y32515000D03*
D15*
X264960000Y28705000D03*
D13*
X272580000Y28705000D03*
X272580000Y24895000D03*
D15*
X264960000Y24895000D03*
X264960000Y21085000D03*
D13*
X272580000Y21085000D03*
X272580000Y17275000D03*
D15*
X264960000Y17275000D03*
D13*
X170345000Y106175000D03*
D15*
X162725000Y106175000D03*
D13*
X104940000Y118875000D03*
D15*
X97320000Y118875000D03*
X97320000Y116335000D03*
D13*
X104940000Y116335000D03*
D15*
X170345000Y108715000D03*
D13*
X162725000Y108715000D03*
X162725000Y103635000D03*
D15*
X170345000Y103635000D03*
X71285000Y28705000D03*
D13*
X71285000Y21085000D03*
D15*
X214795000Y101095000D03*
D13*
X207175000Y101095000D03*
G36*
G01*
X234115000Y159350000D02*
X234115000Y160950000D01*
G75*
G02*
X234315000Y161150000I200000J0D01*
G01*
X235915000Y161150000D01*
G75*
G02*
X236115000Y160950000I0J-200000D01*
G01*
X236115000Y159350000D01*
G75*
G02*
X235915000Y159150000I-200000J0D01*
G01*
X234315000Y159150000D01*
G75*
G02*
X234115000Y159350000I0J200000D01*
G01*
G37*
D15*
X245275000Y160150000D03*
X245275000Y156340000D03*
G36*
G01*
X234115000Y155540000D02*
X234115000Y157140000D01*
G75*
G02*
X234315000Y157340000I200000J0D01*
G01*
X235915000Y157340000D01*
G75*
G02*
X236115000Y157140000I0J-200000D01*
G01*
X236115000Y155540000D01*
G75*
G02*
X235915000Y155340000I-200000J0D01*
G01*
X234315000Y155340000D01*
G75*
G02*
X234115000Y155540000I0J200000D01*
G01*
G37*
D13*
X90335000Y2670000D03*
X90335000Y89030000D03*
X90335000Y116335000D03*
X112560000Y80140000D03*
X112560000Y44580000D03*
X112560000Y85220000D03*
X112560000Y104905000D03*
X112560000Y125225000D03*
X112560000Y139830000D03*
X112560000Y165230000D03*
X112560000Y185550000D03*
X143675000Y64900000D03*
X143675000Y104905000D03*
X143675000Y44580000D03*
X143675000Y124590000D03*
X143675000Y130940000D03*
X143675000Y137290000D03*
X143675000Y144910000D03*
X143675000Y165230000D03*
X143675000Y185550000D03*
X160185000Y42675000D03*
X160185000Y62360000D03*
X160185000Y2670000D03*
X160185000Y94110000D03*
X160185000Y132210000D03*
X160185000Y162690000D03*
X174155000Y64900000D03*
X174155000Y75060000D03*
X174155000Y44580000D03*
X174155000Y104905000D03*
X174155000Y137290000D03*
X174155000Y144910000D03*
X174155000Y165230000D03*
X174155000Y185550000D03*
X204000000Y44580000D03*
X204000000Y75060000D03*
X204000000Y85220000D03*
X204000000Y104905000D03*
X204000000Y125205000D03*
X204000000Y165230000D03*
X204000000Y185550000D03*
X219240000Y22355000D03*
X219240000Y62360000D03*
X219240000Y77600000D03*
X219240000Y93520000D03*
X219240000Y103000000D03*
X219240000Y122685000D03*
X219240000Y162690000D03*
X233845000Y4575000D03*
X233845000Y64900000D03*
X233845000Y75060000D03*
X233845000Y104905000D03*
X233845000Y137290000D03*
X233845000Y185550000D03*
X247815000Y22355000D03*
X247815000Y62360000D03*
X247815000Y102365000D03*
X247815000Y122685000D03*
X247815000Y162690000D03*
X55410000Y162690000D03*
X12865000Y162690000D03*
X90335000Y162690000D03*
X22390000Y162690000D03*
X140500000Y185550000D03*
X125260000Y185550000D03*
X34879600Y49564800D03*
X149801700Y139168600D03*
X115227000Y165230000D03*
X58048400Y172570700D03*
X210267900Y85887500D03*
X49328400Y153791500D03*
X202797514Y155165000D03*
X111334990Y159476500D03*
X49291000Y160194988D03*
X109121800Y159458400D03*
X45551600Y160194990D03*
X41991300Y143679700D03*
X73478000Y49145100D03*
X32223500Y139301300D03*
X53346600Y177961500D03*
X64957300Y67440000D03*
X75398100Y47871300D03*
X66195600Y133459800D03*
X66109990Y170265400D03*
X45250000Y123149100D03*
X218014990Y34160600D03*
X214962800Y160317800D03*
X138617700Y159952098D03*
X30839800Y124999800D03*
X32437500Y69980000D03*
X81101900Y42829800D03*
X74450500Y132836400D03*
X68982300Y136395800D03*
X81646800Y37942800D03*
X91560010Y46604800D03*
X40370400Y97159000D03*
X209146800Y154184500D03*
X97752000Y151797800D03*
X35838100Y116627500D03*
X130848000Y160023000D03*
X212512900Y67710600D03*
X163138500Y70630700D03*
X35445600Y110449600D03*
X37443400Y98165800D03*
X100925800Y153836200D03*
X178695400Y94461300D03*
X124101600Y156213200D03*
X217487100Y30735600D03*
X58145000Y115895200D03*
X228099100Y73690100D03*
X82952300Y42230900D03*
X3036500Y57677300D03*
X71706800Y46045600D03*
X74628500Y128434300D03*
X68806087Y48913513D03*
X60456000Y64900000D03*
X7128200Y70721500D03*
X51783800Y144245100D03*
X59170000Y111607900D03*
X50569700Y102376400D03*
X56099200Y139814300D03*
X212133700Y20419000D03*
X154256100Y159486300D03*
X55406300Y157610000D03*
X40620100Y101730000D03*
X43386800Y152341800D03*
X175735600Y157007300D03*
X63507700Y79527500D03*
X123696000Y125381100D03*
X70247300Y129677300D03*
X62448900Y75137800D03*
X61662100Y72520000D03*
X75631500Y136906300D03*
X77321300Y142809300D03*
X43989700Y61138400D03*
X77928100Y48506000D03*
X71557900Y47948200D03*
X30010000Y185550000D03*
X153173600Y136484100D03*
X137376800Y139796700D03*
X146054200Y141161700D03*
X142292600Y94891500D03*
X76317400Y83349600D03*
X123390800Y80529300D03*
X165968400Y117295600D03*
X165532500Y123349700D03*
X60133100Y145732900D03*
X77396100Y127829700D03*
X130970400Y119238700D03*
X192492700Y159219900D03*
X88534990Y158118008D03*
X178403400Y154461300D03*
X107480000Y153235000D03*
X213256400Y126841300D03*
X196963900Y124317400D03*
X155923600Y100572800D03*
X158959990Y65203300D03*
X136054600Y59818100D03*
X49884500Y151907200D03*
X158959700Y152025000D03*
X164578400Y112568500D03*
X131102000Y133607000D03*
X81691400Y156747200D03*
X106113600Y157643700D03*
X152099900Y42040300D03*
X84275700Y156713800D03*
X191255010Y157087900D03*
X85875000Y123374100D03*
X137571200Y74675700D03*
X158498100Y73799900D03*
X130295010Y139830000D03*
X120882600Y149336400D03*
X231156700Y154941000D03*
X167944800Y82702900D03*
X150048500Y59738600D03*
X121280300Y113822900D03*
X113785010Y58001768D03*
X103535900Y45146300D03*
X120761000Y90070700D03*
X197457800Y98789500D03*
X193637500Y95646300D03*
X193270100Y132865500D03*
X130973400Y58524200D03*
X127398200Y53385700D03*
X113785010Y48436169D03*
X147617100Y99956500D03*
X183604600Y99493900D03*
X152403600Y92786500D03*
X206181100Y20984700D03*
X151399600Y109096100D03*
X134558700Y97600200D03*
X102139000Y41884500D03*
X187534990Y153395700D03*
X180574100Y126032900D03*
X185604400Y133367100D03*
X128965900Y42635700D03*
X211552700Y72756400D03*
X122755500Y68637500D03*
X185552400Y71869200D03*
X99374800Y44061100D03*
X240944900Y82135000D03*
X116985500Y97234700D03*
X116863700Y95380100D03*
X108888600Y55176700D03*
X109182900Y43958500D03*
X153340300Y34965900D03*
X150442800Y24552600D03*
X205484800Y58211400D03*
X138425200Y37595000D03*
X131240600Y94697300D03*
X199190900Y97905600D03*
X201491500Y130172600D03*
X203240022Y112644955D03*
X136587200Y99385600D03*
X79732800Y32980900D03*
X98662900Y50987000D03*
X178747500Y66183000D03*
X235862300Y25130700D03*
X239477800Y20268800D03*
X106431400Y135342200D03*
X171465800Y95234800D03*
X101086100Y99488700D03*
X100922200Y97638300D03*
X102963200Y99587500D03*
X69673600Y109591500D03*
X59081000Y81398900D03*
X57855600Y80007300D03*
X103862700Y96645000D03*
X81726300Y66170000D03*
X78205000Y67446300D03*
X85342600Y68710000D03*
X53379200Y76040300D03*
X76810800Y72527400D03*
X130375300Y102916100D03*
X89065000Y85855000D03*
X28969900Y120073000D03*
X92264800Y120145000D03*
X28819100Y113701800D03*
X12466800Y114297200D03*
X79470600Y129311700D03*
X150629900Y123421400D03*
X26932500Y94901500D03*
X155453200Y35670800D03*
X145864200Y69336300D03*
X96550100Y52441300D03*
X138446700Y69273600D03*
X263751000Y143399300D03*
X129664400Y124546900D03*
X221288500Y128447200D03*
X261604900Y151589500D03*
X136944000Y164849000D03*
X25050000Y165252300D03*
X78949600Y156933400D03*
X40524000Y156365600D03*
X110851600Y106636200D03*
X74041600Y88806600D03*
X92135010Y146092300D03*
X28699200Y103769300D03*
X182299200Y120851900D03*
X71798659Y126365641D03*
X29002200Y111049900D03*
X84351200Y116221100D03*
X73194000Y83346400D03*
X122251000Y102466600D03*
X151615000Y69922200D03*
X184342400Y65866500D03*
X202136700Y66711100D03*
X110655000Y76330000D03*
X216336500Y58423600D03*
X181615100Y105998300D03*
X127494900Y98197800D03*
X110890400Y26923300D03*
X27151800Y111577700D03*
X226789600Y122625700D03*
X223065700Y154696500D03*
M02*
