M48
; DRILL file {KiCad 5.1.10-88a1d61d58~90~ubuntu20.04.1} date Sat Jul 24 14:54:52 2021
; FORMAT={-:-/ absolute / metric / decimal}
; #@! TF.CreationDate,2021-07-24T14:54:52+02:00
; #@! TF.GenerationSoftware,Kicad,Pcbnew,5.1.10-88a1d61d58~90~ubuntu20.04.1
FMAT,2
METRIC
T1C0.800
T2C0.813
T3C0.900
T4C1.000
T5C1.200
T6C1.999
T7C3.200
%
G90
G05
T1
X3.036Y57.677
X7.128Y70.721
X12.467Y114.297
X12.865Y162.69
X14.77Y170.31
X14.77Y160.15
X18.58Y155.07
X18.58Y144.91
X19.85Y180.47
X19.85Y177.93
X19.85Y175.39
X19.85Y172.85
X19.85Y170.31
X19.85Y167.77
X19.85Y165.23
X19.85Y50.295
X19.85Y46.485
X19.85Y42.675
X19.85Y38.865
X19.85Y35.055
X19.85Y31.245
X19.85Y27.435
X19.85Y23.625
X19.85Y19.815
X19.85Y16.005
X19.85Y12.195
X19.85Y8.385
X19.85Y4.575
X21.12Y155.07
X21.12Y144.91
X22.39Y162.69
X22.39Y96.015
X25.05Y165.252
X26.932Y94.901
X27.152Y111.578
X27.47Y180.47
X27.47Y177.93
X27.47Y175.39
X27.47Y172.85
X27.47Y170.31
X27.47Y167.77
X27.47Y165.23
X27.47Y50.295
X27.47Y46.485
X27.47Y42.675
X27.47Y38.865
X27.47Y35.055
X27.47Y31.245
X27.47Y27.435
X27.47Y23.625
X27.47Y19.815
X27.47Y16.005
X27.47Y12.195
X27.47Y8.385
X27.47Y4.575
X28.699Y103.769
X28.819Y113.702
X28.97Y120.073
X29.002Y111.05
X30.01Y185.55
X30.84Y125.0
X31.28Y170.31
X31.28Y165.31
X31.28Y160.15
X31.28Y149.99
X32.224Y139.301
X32.438Y69.98
X32.55Y96.015
X33.82Y180.47
X33.82Y170.31
X34.88Y49.565
X35.09Y160.15
X35.09Y155.15
X35.09Y45.215
X35.09Y42.675
X35.09Y40.135
X35.09Y37.595
X35.09Y35.055
X35.09Y32.515
X35.09Y29.975
X35.09Y22.355
X35.09Y19.815
X35.09Y17.275
X35.09Y14.735
X35.09Y12.195
X35.09Y9.655
X35.09Y7.115
X35.446Y110.45
X35.838Y116.627
X37.443Y98.166
X37.63Y180.47
X37.63Y177.93
X37.63Y175.39
X37.63Y172.85
X37.63Y170.31
X37.63Y167.77
X37.63Y165.23
X40.37Y97.159
X40.524Y156.366
X40.62Y101.73
X41.991Y143.68
X42.71Y45.215
X42.71Y42.675
X42.71Y40.135
X42.71Y37.595
X42.71Y35.055
X42.71Y32.515
X42.71Y29.975
X42.71Y22.355
X42.71Y19.815
X42.71Y17.275
X42.71Y14.735
X42.71Y12.195
X42.71Y9.655
X42.71Y7.115
X43.387Y152.342
X43.99Y61.138
X45.25Y180.47
X45.25Y177.93
X45.25Y175.39
X45.25Y172.85
X45.25Y170.31
X45.25Y167.77
X45.25Y165.23
X45.25Y123.149
X45.25Y115.065
X45.25Y112.525
X45.25Y109.985
X45.25Y107.445
X45.25Y104.905
X45.25Y102.365
X45.25Y99.825
X45.25Y97.285
X45.25Y94.745
X45.552Y160.195
X47.79Y157.61
X47.79Y155.07
X47.79Y152.53
X47.79Y149.99
X47.79Y147.45
X47.79Y144.91
X47.79Y142.37
X47.79Y139.83
X47.79Y137.29
X47.79Y134.75
X47.79Y132.21
X47.79Y129.67
X47.79Y127.13
X47.79Y124.59
X47.79Y115.065
X47.79Y112.525
X47.79Y109.985
X47.79Y107.445
X47.79Y104.905
X47.79Y102.365
X47.79Y99.825
X47.79Y97.285
X47.79Y94.745
X47.79Y92.205
X47.79Y76.33
X47.79Y73.79
X47.79Y71.25
X47.79Y68.71
X47.79Y66.17
X47.79Y63.63
X47.79Y61.09
X47.79Y58.55
X47.79Y56.01
X47.79Y53.47
X49.291Y160.195
X49.328Y153.791
X49.884Y151.907
X50.57Y102.376
X51.784Y144.245
X53.347Y177.962
X53.379Y76.04
X55.406Y157.61
X55.41Y183.01
X55.41Y180.47
X55.41Y177.93
X55.41Y175.39
X55.41Y172.85
X55.41Y170.31
X55.41Y167.77
X55.41Y165.23
X55.41Y162.69
X55.41Y115.065
X55.41Y112.525
X55.41Y109.985
X55.41Y107.445
X55.41Y104.905
X55.41Y102.365
X55.41Y99.825
X55.41Y97.285
X55.41Y94.745
X55.41Y92.205
X55.41Y76.33
X55.41Y73.79
X55.41Y71.25
X55.41Y68.71
X55.41Y66.17
X55.41Y63.63
X55.41Y61.09
X55.41Y58.55
X55.41Y56.01
X55.41Y53.47
X56.099Y139.814
X57.315Y29.975
X57.315Y27.435
X57.315Y24.895
X57.315Y22.355
X57.315Y19.815
X57.315Y17.275
X57.315Y14.735
X57.315Y12.195
X57.315Y9.655
X57.315Y7.115
X57.856Y80.007
X58.048Y172.571
X58.145Y115.895
X59.081Y81.399
X59.17Y111.608
X60.133Y145.733
X60.456Y64.9
X61.662Y72.52
X62.449Y75.138
X63.03Y183.01
X63.03Y180.47
X63.03Y177.93
X63.03Y175.39
X63.03Y172.85
X63.03Y170.31
X63.03Y167.77
X63.03Y165.23
X63.03Y157.61
X63.03Y155.07
X63.03Y152.53
X63.03Y149.99
X63.03Y147.45
X63.03Y144.91
X63.03Y142.37
X63.03Y139.83
X63.03Y137.29
X63.03Y134.75
X63.03Y132.21
X63.03Y129.67
X63.03Y127.13
X63.03Y124.59
X63.508Y79.528
X64.935Y29.975
X64.935Y27.435
X64.935Y24.895
X64.935Y22.355
X64.935Y19.815
X64.935Y17.275
X64.935Y14.735
X64.935Y12.195
X64.935Y9.655
X64.935Y7.115
X64.957Y67.44
X66.11Y170.265
X66.196Y133.46
X68.806Y48.914
X68.982Y136.396
X69.674Y109.591
X70.247Y129.677
X71.285Y28.705
X71.285Y21.085
X71.285Y18.465
X71.285Y13.465
X71.558Y47.948
X71.707Y46.046
X71.799Y126.366
X72.555Y183.01
X72.555Y180.47
X72.555Y177.93
X72.555Y175.39
X72.555Y172.85
X72.555Y170.31
X72.555Y167.77
X72.555Y165.23
X72.555Y149.99
X72.555Y147.45
X72.555Y144.91
X72.555Y142.37
X72.555Y139.83
X72.555Y137.29
X72.555Y134.75
X72.555Y113.795
X72.555Y111.255
X72.555Y108.715
X72.555Y106.175
X72.555Y103.635
X72.555Y101.095
X72.555Y98.555
X72.555Y96.015
X72.555Y93.475
X72.555Y90.935
X72.555Y75.06
X72.555Y72.52
X72.555Y69.98
X72.555Y67.44
X72.555Y64.9
X72.555Y62.36
X72.555Y59.82
X72.555Y57.28
X72.555Y54.74
X72.555Y52.2
X73.194Y83.346
X73.478Y49.145
X73.825Y124.59
X74.042Y88.807
X74.45Y132.836
X74.629Y128.434
X75.095Y32.515
X75.095Y29.975
X75.095Y27.435
X75.095Y24.895
X75.095Y22.355
X75.095Y19.815
X75.095Y17.275
X75.095Y14.735
X75.095Y12.195
X75.095Y9.655
X75.398Y47.871
X75.632Y136.906
X76.317Y83.35
X76.811Y72.527
X77.321Y142.809
X77.396Y127.83
X77.928Y48.506
X78.205Y67.446
X78.95Y156.933
X79.471Y129.312
X79.733Y32.981
X80.175Y183.01
X80.175Y180.47
X80.175Y177.93
X80.175Y175.39
X80.175Y172.85
X80.175Y170.31
X80.175Y167.77
X80.175Y165.23
X80.175Y149.99
X80.175Y147.45
X80.175Y144.91
X80.175Y142.37
X80.175Y139.83
X80.175Y137.29
X80.175Y134.75
X80.175Y113.795
X80.175Y111.255
X80.175Y108.715
X80.175Y106.175
X80.175Y103.635
X80.175Y101.095
X80.175Y98.555
X80.175Y96.015
X80.175Y93.475
X80.175Y90.935
X80.175Y75.06
X80.175Y72.52
X80.175Y69.98
X80.175Y67.44
X80.175Y64.9
X80.175Y62.36
X80.175Y59.82
X80.175Y57.28
X80.175Y54.74
X80.175Y52.2
X81.102Y42.83
X81.445Y124.59
X81.647Y37.943
X81.691Y156.747
X81.726Y66.17
X82.715Y32.515
X82.715Y29.975
X82.715Y27.435
X82.715Y24.895
X82.715Y22.355
X82.715Y19.815
X82.715Y17.275
X82.715Y14.735
X82.715Y12.195
X82.715Y9.655
X82.952Y42.231
X84.276Y156.714
X84.351Y116.221
X85.343Y68.71
X85.875Y123.374
X87.16Y180.47
X87.16Y177.93
X87.16Y175.39
X87.16Y172.85
X87.16Y170.31
X87.16Y167.77
X87.16Y149.99
X87.16Y147.45
X87.16Y144.91
X87.16Y142.37
X87.16Y139.83
X87.16Y137.29
X87.16Y134.75
X87.16Y125.225
X88.535Y158.118
X89.065Y85.855
X90.335Y162.69
X91.56Y46.605
X92.135Y146.092
X92.24Y109.35
X92.24Y106.81
X92.24Y104.27
X92.24Y101.73
X92.24Y99.19
X92.24Y96.65
X92.24Y94.11
X92.24Y91.57
X92.24Y89.03
X92.24Y86.49
X92.24Y83.95
X92.24Y81.41
X92.24Y78.87
X92.24Y76.33
X92.24Y73.79
X92.24Y71.25
X92.24Y68.71
X92.24Y66.17
X92.24Y63.63
X92.24Y61.09
X92.24Y37.595
X92.24Y35.055
X92.24Y32.515
X92.24Y29.975
X92.24Y27.435
X92.24Y24.895
X92.24Y22.355
X92.24Y19.815
X92.24Y17.275
X92.24Y14.735
X92.24Y12.195
X92.24Y9.655
X92.24Y7.115
X92.24Y4.575
X92.265Y120.145
X94.78Y149.99
X94.78Y147.45
X94.78Y144.91
X94.78Y142.37
X94.78Y139.83
X94.78Y137.29
X94.78Y134.75
X94.78Y125.225
X96.55Y52.441
X97.32Y180.47
X97.32Y177.93
X97.32Y175.39
X97.32Y172.85
X97.32Y170.31
X97.32Y167.77
X97.32Y121.415
X97.32Y118.875
X97.32Y116.335
X97.752Y151.798
X98.663Y50.987
X99.375Y44.061
X99.86Y181.74
X99.86Y179.2
X99.86Y176.66
X99.86Y174.12
X99.86Y171.58
X99.86Y127.765
X100.02Y131.575
X100.922Y97.638
X100.926Y153.836
X101.086Y99.489
X102.139Y41.884
X102.4Y152.53
X102.4Y149.99
X102.4Y147.45
X102.4Y144.91
X102.4Y142.37
X102.4Y139.83
X102.4Y137.29
X102.4Y134.75
X102.963Y99.587
X103.536Y45.146
X103.863Y96.645
X104.94Y121.415
X104.94Y118.875
X104.94Y116.335
X106.114Y157.644
X106.21Y123.955
X106.431Y135.342
X107.48Y153.235
X107.48Y109.35
X107.48Y106.81
X107.48Y104.27
X107.48Y101.73
X107.48Y99.19
X107.48Y96.65
X107.48Y94.11
X107.48Y91.57
X107.48Y89.03
X107.48Y86.49
X107.48Y83.95
X107.48Y81.41
X107.48Y78.87
X107.48Y76.33
X107.48Y73.79
X107.48Y71.25
X107.48Y68.71
X107.48Y66.17
X107.48Y63.63
X107.48Y61.09
X107.48Y37.595
X107.48Y35.055
X107.48Y32.515
X107.48Y29.975
X107.48Y27.435
X107.48Y24.895
X107.48Y22.355
X107.48Y19.815
X107.48Y17.275
X107.48Y14.735
X107.48Y12.195
X107.48Y9.655
X107.48Y7.115
X107.48Y4.575
X108.889Y55.177
X109.122Y159.458
X109.183Y43.959
X109.92Y35.0
X109.96Y123.955
X110.02Y181.74
X110.02Y179.2
X110.02Y176.66
X110.02Y174.12
X110.02Y171.58
X110.02Y152.53
X110.02Y149.99
X110.02Y147.45
X110.02Y144.91
X110.02Y142.37
X110.02Y139.83
X110.02Y137.29
X110.02Y134.75
X110.02Y131.575
X110.02Y127.765
X110.655Y76.33
X110.852Y106.636
X110.89Y26.923
X111.17Y37.595
X111.335Y159.476
X112.46Y35.0
X113.71Y37.595
X113.785Y58.002
X113.785Y48.436
X115.0Y35.0
X115.227Y165.23
X116.25Y37.595
X116.864Y95.38
X116.985Y97.235
X117.64Y183.01
X117.64Y180.47
X117.64Y177.93
X117.64Y175.39
X117.64Y172.85
X117.64Y170.31
X117.64Y167.77
X117.64Y165.23
X117.64Y152.53
X117.64Y149.99
X117.64Y147.45
X117.64Y144.91
X117.64Y142.37
X117.64Y139.83
X117.64Y137.29
X117.64Y129.67
X117.64Y127.13
X117.64Y122.685
X117.64Y120.145
X117.64Y117.605
X117.64Y115.065
X117.64Y112.525
X117.64Y109.985
X117.64Y107.445
X117.64Y104.905
X117.64Y92.84
X117.64Y90.3
X117.64Y87.76
X117.64Y85.22
X117.64Y82.68
X117.64Y80.14
X117.64Y77.6
X117.64Y73.79
X117.64Y71.25
X117.64Y62.36
X117.64Y59.82
X117.64Y57.28
X117.64Y54.74
X117.64Y52.2
X117.64Y49.66
X117.64Y47.12
X117.64Y44.58
X117.64Y32.515
X117.64Y29.975
X117.64Y27.435
X117.64Y24.895
X117.64Y22.355
X117.64Y19.815
X117.64Y17.275
X117.64Y14.735
X117.64Y12.195
X117.64Y9.655
X117.64Y7.115
X117.64Y4.575
X120.18Y132.21
X120.761Y90.071
X120.883Y149.336
X121.28Y113.823
X122.251Y102.467
X122.755Y68.638
X123.391Y80.529
X123.696Y125.381
X124.102Y156.213
X125.18Y132.21
X125.26Y185.55
X125.26Y183.01
X125.26Y180.47
X125.26Y177.93
X125.26Y175.39
X125.26Y172.85
X125.26Y170.31
X125.26Y167.77
X125.26Y165.23
X125.26Y152.53
X125.26Y149.99
X125.26Y147.45
X125.26Y144.91
X125.26Y142.37
X125.26Y139.83
X125.26Y137.29
X125.26Y129.67
X125.26Y127.13
X125.26Y122.685
X125.26Y120.145
X125.26Y117.605
X125.26Y115.065
X125.26Y112.525
X125.26Y109.985
X125.26Y107.445
X125.26Y104.905
X125.26Y92.84
X125.26Y90.3
X125.26Y87.76
X125.26Y85.22
X125.26Y82.68
X125.26Y80.14
X125.26Y77.6
X125.26Y73.79
X125.26Y71.25
X125.26Y62.36
X125.26Y59.82
X125.26Y57.28
X125.26Y54.74
X125.26Y52.2
X125.26Y49.66
X125.26Y47.12
X125.26Y44.58
X127.398Y53.386
X127.495Y98.198
X128.966Y42.636
X129.664Y124.547
X130.295Y139.83
X130.375Y102.916
X130.848Y160.023
X130.97Y119.239
X130.973Y58.524
X131.102Y133.607
X131.241Y94.697
X132.88Y183.01
X132.88Y180.47
X132.88Y177.93
X132.88Y175.39
X132.88Y172.85
X132.88Y170.31
X132.88Y167.77
X132.88Y165.23
X132.88Y152.53
X132.88Y149.99
X132.88Y147.45
X132.88Y144.91
X132.88Y142.37
X132.88Y139.83
X132.88Y137.29
X132.88Y125.86
X132.88Y123.32
X132.88Y120.145
X132.88Y117.605
X132.88Y115.065
X132.88Y112.525
X132.88Y109.985
X132.88Y107.445
X132.88Y104.905
X132.88Y92.84
X132.88Y90.3
X132.88Y87.76
X132.88Y85.22
X132.88Y82.68
X132.88Y80.14
X132.88Y77.6
X132.88Y75.06
X132.88Y67.44
X132.88Y64.9
X132.88Y62.36
X132.88Y59.82
X132.88Y57.28
X132.88Y54.74
X132.88Y52.2
X132.88Y49.66
X132.88Y47.12
X132.88Y44.58
X132.88Y32.515
X132.88Y29.975
X132.88Y27.435
X132.88Y24.895
X132.88Y22.355
X132.88Y19.815
X132.88Y17.275
X132.88Y14.735
X132.88Y12.195
X132.88Y9.655
X132.88Y7.115
X132.88Y4.575
X134.559Y97.6
X134.785Y130.94
X134.825Y133.48
X136.055Y59.818
X136.587Y99.386
X136.944Y164.849
X137.377Y139.797
X137.571Y74.676
X138.425Y37.595
X138.447Y69.274
X138.618Y159.952
X139.785Y130.94
X139.825Y133.48
X140.5Y185.55
X140.5Y183.01
X140.5Y180.47
X140.5Y177.93
X140.5Y175.39
X140.5Y172.85
X140.5Y170.31
X140.5Y167.77
X140.5Y165.23
X140.5Y152.53
X140.5Y149.99
X140.5Y147.45
X140.5Y144.91
X140.5Y142.37
X140.5Y139.83
X140.5Y137.29
X140.5Y125.86
X140.5Y123.32
X140.5Y120.145
X140.5Y117.605
X140.5Y115.065
X140.5Y112.525
X140.5Y109.985
X140.5Y107.445
X140.5Y104.905
X140.5Y92.84
X140.5Y90.3
X140.5Y87.76
X140.5Y85.22
X140.5Y82.68
X140.5Y80.14
X140.5Y77.6
X140.5Y75.06
X140.5Y67.44
X140.5Y64.9
X140.5Y62.36
X140.5Y59.82
X140.5Y57.28
X140.5Y54.74
X140.5Y52.2
X140.5Y49.66
X140.5Y47.12
X140.5Y44.58
X142.293Y94.891
X142.405Y32.515
X142.405Y29.975
X142.405Y27.435
X142.405Y24.895
X142.405Y22.355
X142.405Y19.815
X142.405Y17.275
X142.405Y14.735
X142.405Y12.195
X142.405Y9.655
X142.405Y7.115
X142.405Y4.575
X145.864Y69.336
X146.054Y141.162
X147.485Y183.01
X147.485Y180.47
X147.485Y177.93
X147.485Y175.39
X147.485Y172.85
X147.485Y170.31
X147.485Y167.77
X147.485Y165.23
X147.485Y152.53
X147.485Y149.99
X147.485Y147.45
X147.485Y144.91
X147.485Y142.37
X147.485Y139.83
X147.485Y137.29
X147.485Y130.94
X147.485Y127.765
X147.485Y120.145
X147.485Y117.605
X147.485Y115.065
X147.485Y112.525
X147.485Y109.985
X147.485Y107.445
X147.485Y104.905
X147.485Y92.84
X147.485Y90.3
X147.485Y87.76
X147.485Y85.22
X147.485Y82.68
X147.485Y80.14
X147.485Y77.6
X147.485Y75.06
X147.485Y62.36
X147.485Y59.82
X147.485Y57.28
X147.485Y54.74
X147.485Y52.2
X147.485Y49.66
X147.485Y47.12
X147.485Y44.58
X147.565Y123.32
X147.617Y99.956
X149.39Y159.515
X149.47Y99.19
X149.802Y139.169
X150.048Y59.739
X150.065Y134.115
X150.443Y24.553
X150.63Y123.421
X151.4Y109.096
X151.615Y69.922
X152.1Y42.04
X152.404Y92.786
X152.565Y123.32
X153.174Y136.484
X153.34Y34.966
X154.256Y159.486
X154.47Y99.19
X155.065Y134.115
X155.105Y183.01
X155.105Y180.47
X155.105Y177.93
X155.105Y175.39
X155.105Y172.85
X155.105Y170.31
X155.105Y167.77
X155.105Y165.23
X155.105Y152.53
X155.105Y149.99
X155.105Y147.45
X155.105Y144.91
X155.105Y142.37
X155.105Y139.83
X155.105Y137.29
X155.105Y130.94
X155.105Y127.765
X155.105Y120.145
X155.105Y117.605
X155.105Y115.065
X155.105Y112.525
X155.105Y109.985
X155.105Y107.445
X155.105Y104.905
X155.105Y92.84
X155.105Y90.3
X155.105Y87.76
X155.105Y85.22
X155.105Y82.68
X155.105Y80.14
X155.105Y77.6
X155.105Y75.06
X155.105Y62.36
X155.105Y59.82
X155.105Y57.28
X155.105Y54.74
X155.105Y52.2
X155.105Y49.66
X155.105Y47.12
X155.105Y44.58
X155.453Y35.671
X155.924Y100.573
X157.01Y159.515
X157.645Y32.515
X157.645Y29.975
X157.645Y27.435
X157.645Y24.895
X157.645Y22.355
X157.645Y19.815
X157.645Y17.275
X157.645Y14.735
X157.645Y12.195
X157.645Y9.655
X157.645Y7.115
X157.645Y4.575
X158.498Y73.8
X158.96Y152.025
X158.96Y65.203
X162.725Y183.01
X162.725Y180.47
X162.725Y177.93
X162.725Y175.39
X162.725Y172.85
X162.725Y170.31
X162.725Y167.77
X162.725Y165.23
X162.725Y155.07
X162.725Y152.53
X162.725Y149.99
X162.725Y147.45
X162.725Y144.91
X162.725Y142.37
X162.725Y139.83
X162.725Y137.29
X162.725Y133.48
X162.725Y126.495
X162.725Y123.955
X162.725Y120.145
X162.725Y117.605
X162.725Y115.065
X162.725Y112.525
X162.725Y108.715
X162.725Y106.175
X162.725Y103.635
X162.725Y92.84
X162.725Y90.3
X162.725Y87.76
X162.725Y85.22
X162.725Y82.68
X162.725Y80.14
X162.725Y77.6
X162.725Y75.06
X162.725Y62.36
X162.725Y59.82
X162.725Y57.28
X162.725Y54.74
X162.725Y52.2
X162.725Y49.66
X162.725Y47.12
X162.725Y44.58
X163.138Y70.631
X164.578Y112.569
X165.532Y123.35
X165.968Y117.296
X167.805Y32.515
X167.805Y29.975
X167.805Y27.435
X167.805Y24.895
X167.805Y22.355
X167.805Y19.815
X167.805Y17.275
X167.805Y14.735
X167.805Y12.195
X167.805Y9.655
X167.805Y7.115
X167.805Y4.575
X167.945Y82.703
X170.345Y183.01
X170.345Y180.47
X170.345Y177.93
X170.345Y175.39
X170.345Y172.85
X170.345Y170.31
X170.345Y167.77
X170.345Y165.23
X170.345Y155.07
X170.345Y152.53
X170.345Y149.99
X170.345Y147.45
X170.345Y144.91
X170.345Y142.37
X170.345Y139.83
X170.345Y137.29
X170.345Y133.48
X170.345Y126.495
X170.345Y123.955
X170.345Y120.145
X170.345Y117.605
X170.345Y115.065
X170.345Y112.525
X170.345Y108.715
X170.345Y106.175
X170.345Y103.635
X170.345Y92.84
X170.345Y90.3
X170.345Y87.76
X170.345Y85.22
X170.345Y82.68
X170.345Y80.14
X170.345Y77.6
X170.345Y75.06
X170.345Y62.36
X170.345Y59.82
X170.345Y57.28
X170.345Y54.74
X170.345Y52.2
X170.345Y49.66
X170.345Y47.12
X170.345Y44.58
X171.466Y95.235
X175.736Y157.007
X176.06Y123.955
X177.33Y133.48
X177.33Y126.495
X177.33Y120.145
X177.33Y117.605
X177.33Y115.065
X177.33Y112.525
X177.33Y109.985
X177.33Y107.445
X177.33Y104.905
X177.33Y101.095
X177.33Y92.84
X177.33Y90.3
X177.33Y87.76
X177.33Y85.22
X177.33Y82.68
X177.33Y80.14
X177.33Y77.6
X177.33Y75.06
X177.33Y62.36
X177.33Y59.82
X177.33Y57.28
X177.33Y54.74
X177.33Y52.2
X177.33Y49.66
X177.33Y47.12
X177.33Y44.58
X177.37Y130.94
X177.965Y183.01
X177.965Y180.47
X177.965Y177.93
X177.965Y175.39
X177.965Y172.85
X177.965Y170.31
X177.965Y167.77
X177.965Y165.23
X177.965Y152.53
X177.965Y149.99
X177.965Y147.45
X177.965Y144.91
X177.965Y142.37
X177.965Y139.83
X177.965Y137.29
X178.403Y154.461
X178.695Y94.461
X178.748Y66.183
X180.574Y126.033
X181.615Y105.998
X182.299Y120.852
X182.37Y130.94
X183.045Y32.515
X183.045Y29.975
X183.045Y27.435
X183.045Y24.895
X183.045Y22.355
X183.045Y19.815
X183.045Y17.275
X183.045Y14.735
X183.045Y12.195
X183.045Y9.655
X183.045Y7.115
X183.045Y4.575
X183.56Y123.955
X183.605Y99.494
X184.342Y65.867
X184.95Y126.495
X184.95Y120.145
X184.95Y117.605
X184.95Y115.065
X184.95Y112.525
X184.95Y109.985
X184.95Y107.445
X184.95Y104.905
X184.95Y101.095
X184.95Y92.84
X184.95Y90.3
X184.95Y87.76
X184.95Y85.22
X184.95Y82.68
X184.95Y80.14
X184.95Y77.6
X184.95Y75.06
X184.95Y62.36
X184.95Y59.82
X184.95Y57.28
X184.95Y54.74
X184.95Y52.2
X184.95Y49.66
X184.95Y47.12
X184.95Y44.58
X185.552Y71.869
X185.585Y183.01
X185.585Y180.47
X185.585Y177.93
X185.585Y175.39
X185.585Y172.85
X185.585Y170.31
X185.585Y167.77
X185.585Y165.23
X185.585Y152.53
X185.585Y149.99
X185.585Y147.45
X185.585Y144.91
X185.585Y142.37
X185.585Y139.83
X185.585Y137.29
X185.604Y133.367
X187.49Y133.48
X187.535Y153.396
X191.255Y157.088
X192.493Y159.22
X192.57Y183.01
X192.57Y180.47
X192.57Y177.93
X192.57Y175.39
X192.57Y172.85
X192.57Y170.31
X192.57Y167.77
X192.57Y165.23
X192.57Y152.53
X192.57Y149.99
X192.57Y147.45
X192.57Y144.91
X192.57Y142.37
X192.57Y139.83
X192.57Y137.29
X192.57Y122.685
X192.57Y120.145
X192.57Y117.605
X192.57Y115.065
X192.57Y112.525
X192.57Y109.985
X192.57Y107.445
X192.57Y104.905
X192.57Y93.475
X192.57Y90.3
X192.57Y87.76
X192.57Y85.22
X192.57Y82.68
X192.57Y80.14
X192.57Y77.6
X192.57Y75.06
X192.57Y62.36
X192.57Y59.82
X192.57Y57.28
X192.57Y54.74
X192.57Y52.2
X192.57Y49.66
X192.57Y47.12
X192.57Y27.435
X192.57Y24.895
X192.57Y22.355
X192.57Y19.815
X192.57Y17.275
X192.57Y14.735
X192.57Y12.195
X192.57Y9.655
X192.57Y7.115
X192.57Y4.575
X193.27Y132.865
X193.637Y95.646
X196.964Y124.317
X197.458Y98.789
X199.191Y97.906
X200.19Y183.01
X200.19Y180.47
X200.19Y177.93
X200.19Y175.39
X200.19Y172.85
X200.19Y170.31
X200.19Y167.77
X200.19Y165.23
X200.19Y152.53
X200.19Y149.99
X200.19Y147.45
X200.19Y144.91
X200.19Y142.37
X200.19Y139.83
X200.19Y137.29
X200.19Y122.685
X200.19Y120.145
X200.19Y117.605
X200.19Y115.065
X200.19Y112.525
X200.19Y109.985
X200.19Y107.445
X200.19Y104.905
X200.19Y93.475
X200.19Y90.3
X200.19Y87.76
X200.19Y85.22
X200.19Y82.68
X200.19Y80.14
X200.19Y77.6
X200.19Y75.06
X200.19Y62.36
X200.19Y59.82
X200.19Y57.28
X200.19Y54.74
X200.19Y52.2
X200.19Y49.66
X200.19Y47.12
X200.19Y27.435
X200.19Y24.895
X200.19Y22.355
X200.19Y19.815
X200.19Y17.275
X200.19Y14.735
X200.19Y12.195
X200.19Y9.655
X200.19Y7.115
X200.19Y4.575
X201.492Y130.173
X202.137Y66.711
X202.798Y155.165
X203.24Y112.645
X205.27Y131.575
X205.27Y128.4
X205.485Y58.211
X206.065Y69.98
X206.181Y20.985
X207.175Y155.07
X207.175Y152.53
X207.175Y149.99
X207.175Y147.45
X207.175Y144.91
X207.175Y142.37
X207.175Y139.83
X207.175Y137.29
X207.175Y120.145
X207.175Y117.605
X207.175Y115.065
X207.175Y112.525
X207.175Y109.985
X207.175Y107.445
X207.175Y104.905
X207.175Y101.095
X207.175Y92.84
X207.175Y90.3
X207.175Y87.76
X207.175Y85.22
X207.175Y82.68
X207.175Y80.14
X207.175Y77.6
X207.175Y75.06
X207.175Y62.36
X207.175Y59.82
X207.175Y57.28
X207.175Y54.74
X207.175Y52.2
X207.175Y49.66
X207.175Y47.12
X207.175Y44.58
X207.81Y183.01
X207.81Y180.47
X207.81Y177.93
X207.81Y175.39
X207.81Y172.85
X207.81Y170.31
X207.81Y167.77
X207.81Y165.23
X207.81Y22.355
X207.81Y19.815
X207.81Y17.275
X207.81Y14.735
X207.81Y12.195
X207.81Y9.655
X207.81Y7.115
X209.147Y154.184
X210.268Y85.888
X211.553Y72.756
X212.134Y20.419
X212.513Y67.711
X213.256Y126.841
X214.795Y155.07
X214.795Y152.53
X214.795Y149.99
X214.795Y147.45
X214.795Y144.91
X214.795Y142.37
X214.795Y139.83
X214.795Y137.29
X214.795Y120.145
X214.795Y117.605
X214.795Y115.065
X214.795Y112.525
X214.795Y109.985
X214.795Y107.445
X214.795Y104.905
X214.795Y101.095
X214.795Y92.84
X214.795Y90.3
X214.795Y87.76
X214.795Y85.22
X214.795Y82.68
X214.795Y80.14
X214.795Y77.6
X214.795Y75.06
X214.795Y62.36
X214.795Y59.82
X214.795Y57.28
X214.795Y54.74
X214.795Y52.2
X214.795Y49.66
X214.795Y47.12
X214.795Y44.58
X214.963Y160.318
X215.43Y183.01
X215.43Y180.47
X215.43Y177.93
X215.43Y175.39
X215.43Y172.85
X215.43Y170.31
X215.43Y167.77
X215.43Y165.23
X215.43Y128.4
X215.43Y22.355
X215.43Y19.815
X215.43Y17.275
X215.43Y14.735
X215.43Y12.195
X215.43Y9.655
X215.43Y7.115
X216.065Y69.98
X216.337Y58.424
X217.487Y30.736
X217.77Y131.575
X218.015Y34.161
X221.145Y101.73
X221.145Y99.19
X221.145Y96.65
X221.288Y128.447
X222.415Y183.01
X222.415Y180.47
X222.415Y177.93
X222.415Y175.39
X222.415Y172.85
X222.415Y170.31
X222.415Y167.77
X222.415Y165.23
X222.415Y159.515
X222.415Y147.45
X222.415Y144.91
X222.415Y142.37
X222.415Y139.83
X222.415Y137.29
X222.415Y122.685
X222.415Y120.145
X222.415Y117.605
X222.415Y115.065
X222.415Y112.525
X222.415Y109.985
X222.415Y107.445
X222.415Y104.905
X222.415Y92.84
X222.415Y90.3
X222.415Y87.76
X222.415Y85.22
X222.415Y82.68
X222.415Y80.14
X222.415Y77.6
X222.415Y75.06
X222.415Y69.98
X222.415Y67.44
X222.415Y62.36
X222.415Y59.82
X222.415Y57.28
X222.415Y54.74
X222.415Y52.2
X222.415Y49.66
X222.415Y47.12
X222.415Y44.58
X222.415Y22.355
X222.415Y19.815
X222.415Y17.275
X222.415Y14.735
X222.415Y12.195
X222.415Y9.655
X222.415Y7.115
X222.415Y4.575
X223.066Y154.696
X226.79Y122.626
X228.099Y73.69
X230.035Y183.01
X230.035Y180.47
X230.035Y177.93
X230.035Y175.39
X230.035Y172.85
X230.035Y170.31
X230.035Y167.77
X230.035Y165.23
X230.035Y159.515
X230.035Y147.45
X230.035Y144.91
X230.035Y142.37
X230.035Y139.83
X230.035Y137.29
X230.035Y127.13
X230.035Y122.685
X230.035Y120.145
X230.035Y117.605
X230.035Y115.065
X230.035Y112.525
X230.035Y109.985
X230.035Y107.445
X230.035Y104.905
X230.035Y92.84
X230.035Y90.3
X230.035Y87.76
X230.035Y85.22
X230.035Y82.68
X230.035Y80.14
X230.035Y77.6
X230.035Y75.06
X230.035Y69.98
X230.035Y67.44
X230.035Y62.36
X230.035Y59.82
X230.035Y57.28
X230.035Y54.74
X230.035Y52.2
X230.035Y49.66
X230.035Y47.12
X230.035Y44.58
X230.035Y22.355
X230.035Y19.815
X230.035Y17.275
X230.035Y14.735
X230.035Y12.195
X230.035Y9.655
X230.035Y7.115
X230.035Y4.575
X231.157Y154.941
X231.305Y101.73
X231.305Y99.19
X231.305Y96.65
X235.115Y160.15
X235.115Y156.34
X235.862Y25.131
X236.385Y167.77
X236.385Y165.23
X237.02Y22.355
X237.02Y19.815
X237.02Y17.275
X237.02Y14.735
X237.02Y12.195
X237.02Y9.655
X237.02Y7.115
X237.655Y152.53
X237.655Y149.99
X237.655Y147.45
X237.655Y144.91
X237.655Y142.37
X237.655Y139.83
X237.655Y137.29
X237.655Y125.225
X237.655Y122.685
X237.655Y120.145
X237.655Y117.605
X237.655Y115.065
X237.655Y112.525
X237.655Y109.985
X237.655Y107.445
X237.655Y104.905
X237.655Y102.365
X237.655Y97.92
X237.655Y92.84
X237.655Y90.3
X237.655Y87.76
X237.655Y85.22
X237.655Y82.68
X237.655Y80.14
X237.655Y77.6
X237.655Y75.06
X237.655Y62.36
X237.655Y59.82
X237.655Y57.28
X237.655Y54.74
X237.655Y52.2
X237.655Y49.66
X237.655Y47.12
X237.655Y44.58
X237.695Y174.715
X239.478Y20.269
X240.195Y174.715
X240.195Y172.215
X240.945Y82.135
X244.64Y22.355
X244.64Y19.815
X244.64Y17.275
X244.64Y14.735
X244.64Y12.195
X244.64Y9.655
X244.64Y7.115
X245.275Y160.15
X245.275Y156.34
X245.275Y152.53
X245.275Y149.99
X245.275Y147.45
X245.275Y144.91
X245.275Y142.37
X245.275Y139.83
X245.275Y137.29
X245.275Y125.225
X245.275Y122.685
X245.275Y120.145
X245.275Y117.605
X245.275Y115.065
X245.275Y112.525
X245.275Y109.985
X245.275Y107.445
X245.275Y104.905
X245.275Y102.365
X245.275Y97.92
X245.275Y92.84
X245.275Y90.3
X245.275Y87.76
X245.275Y85.22
X245.275Y82.68
X245.275Y80.14
X245.275Y77.6
X245.275Y75.06
X245.275Y62.36
X245.275Y59.82
X245.275Y57.28
X245.275Y54.74
X245.275Y52.2
X245.275Y49.66
X245.275Y47.12
X245.275Y44.58
X246.545Y167.77
X246.545Y165.23
X249.72Y154.89
X249.72Y149.99
X249.72Y142.37
X249.72Y139.83
X249.72Y132.845
X249.88Y136.02
X252.26Y59.82
X252.26Y57.28
X252.26Y54.74
X252.26Y52.2
X252.26Y49.66
X252.26Y47.12
X252.26Y44.58
X252.26Y22.355
X252.26Y19.815
X252.26Y17.275
X252.26Y14.735
X252.26Y12.195
X252.26Y9.655
X252.26Y7.115
X253.53Y102.365
X253.53Y94.865
X259.88Y171.58
X259.88Y167.77
X259.88Y165.23
X259.88Y162.69
X259.88Y142.37
X259.88Y139.83
X259.88Y136.02
X259.88Y132.845
X259.88Y127.13
X259.88Y124.59
X259.88Y122.05
X259.88Y119.51
X259.88Y59.82
X259.88Y57.28
X259.88Y54.74
X259.88Y52.2
X259.88Y49.66
X259.88Y47.12
X259.88Y44.58
X259.88Y22.355
X259.88Y19.815
X259.88Y17.275
X259.88Y14.735
X259.88Y12.195
X259.88Y9.655
X259.88Y7.115
X261.605Y151.589
X263.751Y143.399
X264.96Y59.82
X264.96Y56.01
X264.96Y52.2
X264.96Y48.39
X264.96Y44.58
X264.96Y40.135
X264.96Y36.325
X264.96Y32.515
X264.96Y28.705
X264.96Y24.895
X264.96Y21.085
X264.96Y17.275
X270.04Y171.58
X270.04Y167.77
X270.04Y165.23
X270.04Y162.69
X270.04Y127.13
X270.04Y124.59
X270.04Y122.05
X270.04Y119.51
X272.58Y59.82
X272.58Y56.01
X272.58Y52.2
X272.58Y48.39
X272.58Y44.58
X272.58Y40.135
X272.58Y36.325
X272.58Y32.515
X272.58Y28.705
X272.58Y24.895
X272.58Y21.085
X272.58Y17.275
X275.12Y170.31
X275.12Y166.5
X275.12Y162.69
X275.12Y138.56
X275.12Y134.75
X275.12Y130.94
X275.12Y127.13
X275.12Y123.32
X282.74Y160.15
X282.74Y142.65
X285.28Y170.31
X285.28Y166.5
X285.28Y162.69
X285.28Y138.56
X285.28Y134.75
X285.28Y130.94
X285.28Y127.13
X285.28Y123.32
T2
X9.911Y129.998
X9.911Y127.499
X9.911Y124.997
X9.911Y122.497
X9.911Y119.998
X9.911Y117.499
X9.911Y114.999
X9.911Y112.497
X9.911Y109.998
X9.911Y107.499
X9.911Y104.999
X9.911Y102.497
X9.911Y99.998
X9.911Y97.499
X9.911Y94.999
X9.911Y92.497
X9.911Y89.998
X9.911Y87.496
X9.911Y84.997
X9.911Y82.497
X9.911Y79.998
X9.911Y77.496
X9.911Y74.997
X9.911Y72.498
X9.911Y69.998
X9.911Y67.499
X9.911Y64.997
X9.911Y62.498
X9.911Y59.998
X9.911Y57.499
X9.911Y54.997
X9.911Y32.462
X9.911Y29.962
X9.911Y27.46
X9.911Y24.961
X9.911Y22.462
X9.911Y19.962
X9.911Y17.463
X9.911Y14.961
X9.911Y12.462
X9.911Y9.962
X14.91Y129.998
X14.91Y127.499
X14.91Y124.997
X14.91Y122.497
X14.91Y119.998
X14.91Y117.499
X14.91Y114.999
X14.91Y112.497
X14.91Y109.998
X14.91Y107.499
X14.91Y32.462
X14.91Y29.962
X14.91Y27.46
X14.91Y24.961
X14.91Y22.462
X14.91Y19.962
X14.91Y17.463
X14.91Y14.961
X14.91Y12.462
X14.91Y9.962
X14.912Y104.999
X14.912Y102.497
X14.912Y99.998
X14.912Y97.499
X14.912Y94.999
X14.912Y92.497
X14.912Y89.998
X14.912Y87.496
X14.912Y84.997
X14.912Y82.497
X14.912Y79.998
X14.912Y77.496
X14.912Y74.997
X14.912Y72.498
X14.912Y69.998
X14.912Y67.499
X14.912Y64.997
X14.912Y62.498
X14.912Y59.998
X14.912Y57.499
X14.912Y54.997
X224.955Y155.07
X224.955Y152.53
X227.495Y155.07
X252.26Y127.13
X252.26Y124.59
X252.26Y118.875
X252.26Y116.335
X254.8Y124.59
X254.8Y118.875
X256.25Y179.741
X256.25Y174.742
X258.75Y179.741
X258.75Y174.742
X261.249Y179.741
X261.249Y174.742
X263.751Y179.741
X263.751Y174.742
X266.25Y179.741
X266.25Y174.742
X267.5Y139.83
X267.5Y137.29
X268.75Y179.741
X268.75Y174.742
X270.04Y139.83
X271.249Y179.741
X271.249Y174.742
X273.748Y179.741
X273.748Y174.742
X276.25Y179.741
X276.25Y174.742
X278.75Y179.741
X278.75Y174.742
T3
X134.15Y128.4
X139.15Y128.4
X246.585Y172.175
X249.085Y174.675
X249.085Y169.675
T4
X10.325Y184.915
X10.325Y182.375
X10.325Y179.835
X67.475Y185.55
X67.475Y165.23
X67.475Y90.935
X67.475Y85.22
X67.475Y52.2
X67.475Y32.515
X67.475Y4.575
X90.335Y116.335
X90.335Y89.03
X90.335Y2.67
X112.56Y185.55
X112.56Y165.23
X112.56Y139.83
X112.56Y125.225
X112.56Y104.905
X112.56Y85.22
X112.56Y80.14
X112.56Y44.58
X129.07Y162.69
X129.07Y152.53
X129.07Y122.685
X129.07Y90.3
X129.07Y66.17
X143.675Y185.55
X143.675Y165.23
X143.675Y144.91
X143.675Y137.29
X143.675Y130.94
X143.675Y124.59
X143.675Y104.905
X143.675Y64.9
X143.675Y44.58
X160.185Y162.69
X160.185Y132.21
X160.185Y94.11
X160.185Y62.36
X160.185Y42.675
X160.185Y2.67
X174.155Y185.55
X174.155Y165.23
X174.155Y144.91
X174.155Y137.29
X174.155Y104.905
X174.155Y75.06
X174.155Y64.9
X174.155Y44.58
X188.76Y162.69
X188.76Y120.145
X188.76Y109.985
X188.76Y92.84
X188.76Y62.36
X196.38Y130.94
X198.92Y130.94
X204.0Y185.55
X204.0Y165.23
X204.0Y125.205
X204.0Y104.905
X204.0Y85.22
X204.0Y75.06
X204.0Y44.58
X219.24Y162.69
X219.24Y122.685
X219.24Y103.0
X219.24Y93.52
X219.24Y77.6
X219.24Y62.36
X219.24Y22.355
X233.845Y185.55
X233.845Y137.29
X233.845Y104.905
X233.845Y75.06
X233.845Y64.9
X233.845Y4.575
X237.655Y69.98
X247.815Y162.69
X247.815Y122.685
X247.815Y102.365
X247.815Y62.36
X247.815Y22.355
X253.53Y173.485
X253.53Y170.945
X253.53Y165.23
X253.53Y89.919
X253.53Y62.419
X280.708Y47.58
X280.708Y44.81
X280.708Y42.04
X280.708Y39.27
X280.708Y36.5
X280.708Y33.73
X280.708Y30.96
X280.708Y28.19
X280.708Y25.42
X280.708Y22.65
X280.708Y19.88
X280.708Y17.11
X283.548Y48.965
X283.548Y46.195
X283.548Y43.425
X283.548Y40.655
X283.548Y37.885
X283.548Y35.115
X283.548Y32.345
X283.548Y29.575
X283.548Y26.805
X283.548Y24.035
X283.548Y21.265
X283.548Y18.495
X283.548Y15.725
T5
X17.31Y186.185
X22.39Y186.185
X27.47Y186.185
T6
X4.912Y134.999
X4.912Y50.001
X4.912Y37.463
X4.912Y4.961
X251.249Y184.74
X283.751Y184.74
T7
X5.88Y171.58
X12.865Y48.39
X12.865Y4.575
X50.33Y10.29
X259.88Y95.0
X285.28Y176.66
X285.28Y157.0
X285.28Y3.94
T0
M30
