G04 #@! TF.GenerationSoftware,KiCad,Pcbnew,5.1.10-88a1d61d58~90~ubuntu20.04.1*
G04 #@! TF.CreationDate,2021-07-24T14:54:54+02:00*
G04 #@! TF.ProjectId,mistrum,6d697374-7275-46d2-9e6b-696361645f70,rev?*
G04 #@! TF.SameCoordinates,PX2faf080PYdb58580*
G04 #@! TF.FileFunction,Copper,L1,Top*
G04 #@! TF.FilePolarity,Positive*
%FSLAX46Y46*%
G04 Gerber Fmt 4.6, Leading zero omitted, Abs format (unit mm)*
G04 Created by KiCad (PCBNEW 5.1.10-88a1d61d58~90~ubuntu20.04.1) date 2021-07-24 14:54:54*
%MOMM*%
%LPD*%
G01*
G04 APERTURE LIST*
G04 #@! TA.AperFunction,ComponentPad*
%ADD10C,1.600000*%
G04 #@! TD*
G04 #@! TA.AperFunction,ComponentPad*
%ADD11C,1.524000*%
G04 #@! TD*
G04 #@! TA.AperFunction,ComponentPad*
%ADD12R,1.600000X1.600000*%
G04 #@! TD*
G04 #@! TA.AperFunction,ComponentPad*
%ADD13O,1.600000X1.600000*%
G04 #@! TD*
G04 #@! TA.AperFunction,ComponentPad*
%ADD14C,1.320800*%
G04 #@! TD*
G04 #@! TA.AperFunction,ComponentPad*
%ADD15C,1.800000*%
G04 #@! TD*
G04 #@! TA.AperFunction,ComponentPad*
%ADD16C,2.000000*%
G04 #@! TD*
G04 #@! TA.AperFunction,ComponentPad*
%ADD17O,2.000000X2.000000*%
G04 #@! TD*
G04 #@! TA.AperFunction,ComponentPad*
%ADD18O,1.700000X1.700000*%
G04 #@! TD*
G04 #@! TA.AperFunction,ComponentPad*
%ADD19C,1.700000*%
G04 #@! TD*
G04 #@! TA.AperFunction,ComponentPad*
%ADD20C,2.200000*%
G04 #@! TD*
G04 #@! TA.AperFunction,ComponentPad*
%ADD21C,1.500000*%
G04 #@! TD*
G04 #@! TA.AperFunction,ComponentPad*
%ADD22C,1.620000*%
G04 #@! TD*
G04 #@! TA.AperFunction,ComponentPad*
%ADD23R,1.700000X1.700000*%
G04 #@! TD*
G04 #@! TA.AperFunction,ViaPad*
%ADD24C,1.600000*%
G04 #@! TD*
G04 #@! TA.AperFunction,Conductor*
%ADD25C,0.350000*%
G04 #@! TD*
G04 #@! TA.AperFunction,Conductor*
%ADD26C,1.500000*%
G04 #@! TD*
G04 #@! TA.AperFunction,Conductor*
%ADD27C,1.200000*%
G04 #@! TD*
G04 #@! TA.AperFunction,Conductor*
%ADD28C,0.400000*%
G04 #@! TD*
G04 APERTURE END LIST*
D10*
X129070000Y66170000D03*
X129070000Y90300000D03*
X129070000Y122685000D03*
X129070000Y162690000D03*
X129070000Y152530000D03*
X188760000Y62360000D03*
X188760000Y92840000D03*
X188760000Y109985000D03*
X188760000Y120145000D03*
X188760000Y162690000D03*
X67475000Y4575000D03*
X67475000Y32515000D03*
X67475000Y52200000D03*
X67475000Y85220000D03*
X67475000Y90935000D03*
X67475000Y165230000D03*
X67475000Y185550000D03*
G04 #@! TA.AperFunction,ComponentPad*
G36*
G01*
X285750920Y185739740D02*
X285750920Y183739740D01*
G75*
G02*
X284750920Y182739740I-1000000J0D01*
G01*
X282750920Y182739740D01*
G75*
G02*
X281750920Y183739740I0J1000000D01*
G01*
X281750920Y185739740D01*
G75*
G02*
X282750920Y186739740I1000000J0D01*
G01*
X284750920Y186739740D01*
G75*
G02*
X285750920Y185739740I0J-1000000D01*
G01*
G37*
G04 #@! TD.AperFunction*
G04 #@! TA.AperFunction,ComponentPad*
G36*
G01*
X253249080Y185739740D02*
X253249080Y183739740D01*
G75*
G02*
X252249080Y182739740I-1000000J0D01*
G01*
X250249080Y182739740D01*
G75*
G02*
X249249080Y183739740I0J1000000D01*
G01*
X249249080Y185739740D01*
G75*
G02*
X250249080Y186739740I1000000J0D01*
G01*
X252249080Y186739740D01*
G75*
G02*
X253249080Y185739740I0J-1000000D01*
G01*
G37*
G04 #@! TD.AperFunction*
D11*
X268749680Y179741020D03*
X271249040Y179741020D03*
X273748400Y179741020D03*
X276250300Y179741020D03*
X278749660Y179741020D03*
X266250320Y179741020D03*
X263750960Y179741020D03*
X261249060Y179741020D03*
X258749700Y179741020D03*
X256250340Y179741020D03*
X256250340Y174742300D03*
X258749700Y174742300D03*
X261249060Y174742300D03*
X263750960Y174742300D03*
X266250320Y174742300D03*
X278749660Y174742300D03*
X276250300Y174742300D03*
X273748400Y174742300D03*
X271249040Y174742300D03*
X268749680Y174742300D03*
X9910980Y54996900D03*
X9910980Y57498800D03*
X9910980Y59998160D03*
X9910980Y62497520D03*
X9910980Y64996880D03*
X9910980Y67498780D03*
X9910980Y69998140D03*
X14912240Y72497500D03*
X14912240Y74996860D03*
X14912240Y77496220D03*
X14912240Y79998120D03*
X14912240Y82497480D03*
X14912240Y84996840D03*
X14912240Y87496200D03*
X14912240Y89998100D03*
X14912240Y92497460D03*
X9910980Y72497500D03*
X9910980Y74996860D03*
X9910980Y77496220D03*
X9910980Y79998120D03*
X9910980Y82497480D03*
X9910980Y84996840D03*
X9910980Y87496200D03*
X9910980Y89998100D03*
X9910980Y92497460D03*
X14912240Y94999360D03*
X14912240Y97498720D03*
X14912240Y99998080D03*
X14912240Y102497440D03*
X14912240Y104999340D03*
X9910980Y94999360D03*
X9910980Y97498720D03*
X9910980Y99998080D03*
X9910980Y104999340D03*
X9910980Y102497440D03*
G04 #@! TA.AperFunction,ComponentPad*
G36*
G01*
X3912260Y136999280D02*
X5912260Y136999280D01*
G75*
G02*
X6912260Y135999280I0J-1000000D01*
G01*
X6912260Y133999280D01*
G75*
G02*
X5912260Y132999280I-1000000J0D01*
G01*
X3912260Y132999280D01*
G75*
G02*
X2912260Y133999280I0J1000000D01*
G01*
X2912260Y135999280D01*
G75*
G02*
X3912260Y136999280I1000000J0D01*
G01*
G37*
G04 #@! TD.AperFunction*
G04 #@! TA.AperFunction,ComponentPad*
G36*
G01*
X3912260Y52000720D02*
X5912260Y52000720D01*
G75*
G02*
X6912260Y51000720I0J-1000000D01*
G01*
X6912260Y49000720D01*
G75*
G02*
X5912260Y48000720I-1000000J0D01*
G01*
X3912260Y48000720D01*
G75*
G02*
X2912260Y49000720I0J1000000D01*
G01*
X2912260Y51000720D01*
G75*
G02*
X3912260Y52000720I1000000J0D01*
G01*
G37*
G04 #@! TD.AperFunction*
X9910980Y119998040D03*
X9910980Y122497400D03*
X9910980Y124996760D03*
X9910980Y127498660D03*
X9910980Y129998020D03*
X9910980Y117498680D03*
X9910980Y114999320D03*
X9910980Y112497420D03*
X9910980Y109998060D03*
X9910980Y107498700D03*
X14909700Y107498700D03*
X14909700Y109998060D03*
X14909700Y112497420D03*
X14909700Y114999320D03*
X14909700Y117498680D03*
X14909700Y129998020D03*
X14909700Y127498660D03*
X14909700Y124996760D03*
X14909700Y122497400D03*
X14909700Y119998040D03*
X14912240Y69998140D03*
X14912240Y67498780D03*
X14912240Y64996880D03*
X14912240Y62497520D03*
X14912240Y59998160D03*
X14912240Y57498800D03*
X14912240Y54996900D03*
X14909700Y22461680D03*
X14909700Y24961040D03*
X14909700Y27460400D03*
X14909700Y29962300D03*
X14909700Y32461660D03*
X14909700Y19962320D03*
X14909700Y17462960D03*
X14909700Y14961060D03*
X14909700Y12461700D03*
X14909700Y9962340D03*
X9910980Y9962340D03*
X9910980Y12461700D03*
X9910980Y14961060D03*
X9910980Y17462960D03*
X9910980Y19962320D03*
X9910980Y32461660D03*
X9910980Y29962300D03*
X9910980Y27460400D03*
X9910980Y24961040D03*
X9910980Y22461680D03*
G04 #@! TA.AperFunction,ComponentPad*
G36*
G01*
X3912260Y6961080D02*
X5912260Y6961080D01*
G75*
G02*
X6912260Y5961080I0J-1000000D01*
G01*
X6912260Y3961080D01*
G75*
G02*
X5912260Y2961080I-1000000J0D01*
G01*
X3912260Y2961080D01*
G75*
G02*
X2912260Y3961080I0J1000000D01*
G01*
X2912260Y5961080D01*
G75*
G02*
X3912260Y6961080I1000000J0D01*
G01*
G37*
G04 #@! TD.AperFunction*
G04 #@! TA.AperFunction,ComponentPad*
G36*
G01*
X3912260Y39462920D02*
X5912260Y39462920D01*
G75*
G02*
X6912260Y38462920I0J-1000000D01*
G01*
X6912260Y36462920D01*
G75*
G02*
X5912260Y35462920I-1000000J0D01*
G01*
X3912260Y35462920D01*
G75*
G02*
X2912260Y36462920I0J1000000D01*
G01*
X2912260Y38462920D01*
G75*
G02*
X3912260Y39462920I1000000J0D01*
G01*
G37*
G04 #@! TD.AperFunction*
D12*
X45250000Y94745000D03*
D13*
X45250000Y97285000D03*
X45250000Y99825000D03*
X45250000Y102365000D03*
X45250000Y104905000D03*
X45250000Y107445000D03*
X45250000Y109985000D03*
X45250000Y112525000D03*
X45250000Y115065000D03*
D14*
X270040000Y139830000D03*
X267500000Y139830000D03*
X267500000Y137290000D03*
X254800000Y118875000D03*
X252260000Y118875000D03*
X252260000Y116335000D03*
X254800000Y124590000D03*
X252260000Y124590000D03*
X252260000Y127130000D03*
D15*
X182370000Y130940000D03*
X177370000Y130940000D03*
X155065000Y134115000D03*
X150065000Y134115000D03*
X139825000Y133480000D03*
X134825000Y133480000D03*
D10*
X116250000Y37595000D03*
X113710000Y37595000D03*
X111170000Y37595000D03*
D12*
X283548000Y48965000D03*
D10*
X283548000Y46195000D03*
X283548000Y43425000D03*
X283548000Y40655000D03*
X283548000Y37885000D03*
X283548000Y35115000D03*
X283548000Y32345000D03*
X283548000Y29575000D03*
X283548000Y26805000D03*
X283548000Y24035000D03*
X283548000Y21265000D03*
X283548000Y18495000D03*
X283548000Y15725000D03*
X280708000Y47580000D03*
X280708000Y44810000D03*
X280708000Y42040000D03*
X280708000Y39270000D03*
X280708000Y36500000D03*
X280708000Y33730000D03*
X280708000Y30960000D03*
X280708000Y28190000D03*
X280708000Y25420000D03*
X280708000Y22650000D03*
X280708000Y19880000D03*
X280708000Y17110000D03*
X109920000Y35000000D03*
X112460000Y35000000D03*
X115000000Y35000000D03*
D16*
X253530000Y89919000D03*
D17*
X253530000Y62419000D03*
D10*
X205270000Y131575000D03*
X217770000Y131575000D03*
D18*
X198920000Y130940000D03*
X196380000Y130940000D03*
D15*
X134150000Y128400000D03*
X139150000Y128400000D03*
D10*
X31280000Y170310000D03*
X31280000Y165310000D03*
X35090000Y160150000D03*
X35090000Y155150000D03*
X240195000Y172215000D03*
X240195000Y174715000D03*
X237695000Y174715000D03*
X147565000Y123320000D03*
X152565000Y123320000D03*
X125180000Y132210000D03*
X120180000Y132210000D03*
X134785000Y130940000D03*
X139785000Y130940000D03*
X110020000Y131575000D03*
X100020000Y131575000D03*
X109960000Y123955000D03*
X106210000Y123955000D03*
D19*
X10325000Y179835000D03*
D18*
X10325000Y182375000D03*
X10325000Y184915000D03*
D20*
X17310000Y186185000D03*
X22390000Y186185000D03*
X27470000Y186185000D03*
D14*
X227495000Y155070000D03*
X224955000Y155070000D03*
X224955000Y152530000D03*
D19*
X230035000Y127130000D03*
D21*
X249720000Y149990000D03*
X249720000Y154890000D03*
D10*
X282740000Y160150000D03*
D13*
X282740000Y142650000D03*
D10*
X259880000Y136020000D03*
X249880000Y136020000D03*
X154470000Y99190000D03*
X149470000Y99190000D03*
X253530000Y102365000D03*
X253530000Y94865000D03*
X216065000Y69980000D03*
X206065000Y69980000D03*
D19*
X237655000Y69980000D03*
X253530000Y165230000D03*
D10*
X176060000Y123955000D03*
X183560000Y123955000D03*
X71285000Y13465000D03*
X71285000Y18465000D03*
D12*
X162725000Y120145000D03*
D13*
X170345000Y112525000D03*
X162725000Y117605000D03*
X170345000Y115065000D03*
X162725000Y115065000D03*
X170345000Y117605000D03*
X162725000Y112525000D03*
X170345000Y120145000D03*
D12*
X27470000Y165230000D03*
D13*
X19850000Y180470000D03*
X27470000Y167770000D03*
X19850000Y177930000D03*
X27470000Y170310000D03*
X19850000Y175390000D03*
X27470000Y172850000D03*
X19850000Y172850000D03*
X27470000Y175390000D03*
X19850000Y170310000D03*
X27470000Y177930000D03*
X19850000Y167770000D03*
X27470000Y180470000D03*
X19850000Y165230000D03*
X147485000Y137290000D03*
X155105000Y152530000D03*
X147485000Y139830000D03*
X155105000Y149990000D03*
X147485000Y142370000D03*
X155105000Y147450000D03*
X147485000Y144910000D03*
X155105000Y144910000D03*
X147485000Y147450000D03*
X155105000Y142370000D03*
X147485000Y149990000D03*
X155105000Y139830000D03*
X147485000Y152530000D03*
D12*
X155105000Y137290000D03*
X107480000Y61090000D03*
D13*
X92240000Y109350000D03*
X107480000Y63630000D03*
X92240000Y106810000D03*
X107480000Y66170000D03*
X92240000Y104270000D03*
X107480000Y68710000D03*
X92240000Y101730000D03*
X107480000Y71250000D03*
X92240000Y99190000D03*
X107480000Y73790000D03*
X92240000Y96650000D03*
X107480000Y76330000D03*
X92240000Y94110000D03*
X107480000Y78870000D03*
X92240000Y91570000D03*
X107480000Y81410000D03*
X92240000Y89030000D03*
X107480000Y83950000D03*
X92240000Y86490000D03*
X107480000Y86490000D03*
X92240000Y83950000D03*
X107480000Y89030000D03*
X92240000Y81410000D03*
X107480000Y91570000D03*
X92240000Y78870000D03*
X107480000Y94110000D03*
X92240000Y76330000D03*
X107480000Y96650000D03*
X92240000Y73790000D03*
X107480000Y99190000D03*
X92240000Y71250000D03*
X107480000Y101730000D03*
X92240000Y68710000D03*
X107480000Y104270000D03*
X92240000Y66170000D03*
X107480000Y106810000D03*
X92240000Y63630000D03*
X107480000Y109350000D03*
X92240000Y61090000D03*
X132880000Y137290000D03*
X140500000Y152530000D03*
X132880000Y139830000D03*
X140500000Y149990000D03*
X132880000Y142370000D03*
X140500000Y147450000D03*
X132880000Y144910000D03*
X140500000Y144910000D03*
X132880000Y147450000D03*
X140500000Y142370000D03*
X132880000Y149990000D03*
X140500000Y139830000D03*
X132880000Y152530000D03*
D12*
X140500000Y137290000D03*
D13*
X35090000Y29975000D03*
X42710000Y45215000D03*
X35090000Y32515000D03*
X42710000Y42675000D03*
X35090000Y35055000D03*
X42710000Y40135000D03*
X35090000Y37595000D03*
X42710000Y37595000D03*
X35090000Y40135000D03*
X42710000Y35055000D03*
X35090000Y42675000D03*
X42710000Y32515000D03*
X35090000Y45215000D03*
D12*
X42710000Y29975000D03*
D13*
X35090000Y7115000D03*
X42710000Y22355000D03*
X35090000Y9655000D03*
X42710000Y19815000D03*
X35090000Y12195000D03*
X42710000Y17275000D03*
X35090000Y14735000D03*
X42710000Y14735000D03*
X35090000Y17275000D03*
X42710000Y12195000D03*
X35090000Y19815000D03*
X42710000Y9655000D03*
X35090000Y22355000D03*
D12*
X42710000Y7115000D03*
D13*
X37630000Y165230000D03*
X45250000Y180470000D03*
X37630000Y167770000D03*
X45250000Y177930000D03*
X37630000Y170310000D03*
X45250000Y175390000D03*
X37630000Y172850000D03*
X45250000Y172850000D03*
X37630000Y175390000D03*
X45250000Y170310000D03*
X37630000Y177930000D03*
X45250000Y167770000D03*
X37630000Y180470000D03*
D12*
X45250000Y165230000D03*
X80175000Y134750000D03*
D13*
X72555000Y149990000D03*
X80175000Y137290000D03*
X72555000Y147450000D03*
X80175000Y139830000D03*
X72555000Y144910000D03*
X80175000Y142370000D03*
X72555000Y142370000D03*
X80175000Y144910000D03*
X72555000Y139830000D03*
X80175000Y147450000D03*
X72555000Y137290000D03*
X80175000Y149990000D03*
X72555000Y134750000D03*
D12*
X94780000Y134750000D03*
D13*
X87160000Y149990000D03*
X94780000Y137290000D03*
X87160000Y147450000D03*
X94780000Y139830000D03*
X87160000Y144910000D03*
X94780000Y142370000D03*
X87160000Y142370000D03*
X94780000Y144910000D03*
X87160000Y139830000D03*
X94780000Y147450000D03*
X87160000Y137290000D03*
X94780000Y149990000D03*
X87160000Y134750000D03*
X102400000Y134750000D03*
X110020000Y152530000D03*
X102400000Y137290000D03*
X110020000Y149990000D03*
X102400000Y139830000D03*
X110020000Y147450000D03*
X102400000Y142370000D03*
X110020000Y144910000D03*
X102400000Y144910000D03*
X110020000Y142370000D03*
X102400000Y147450000D03*
X110020000Y139830000D03*
X102400000Y149990000D03*
X110020000Y137290000D03*
X102400000Y152530000D03*
D12*
X110020000Y134750000D03*
D13*
X55410000Y165230000D03*
X63030000Y183010000D03*
X55410000Y167770000D03*
X63030000Y180470000D03*
X55410000Y170310000D03*
X63030000Y177930000D03*
X55410000Y172850000D03*
X63030000Y175390000D03*
X55410000Y175390000D03*
X63030000Y172850000D03*
X55410000Y177930000D03*
X63030000Y170310000D03*
X55410000Y180470000D03*
X63030000Y167770000D03*
X55410000Y183010000D03*
D12*
X63030000Y165230000D03*
X80175000Y52200000D03*
D13*
X72555000Y75060000D03*
X80175000Y54740000D03*
X72555000Y72520000D03*
X80175000Y57280000D03*
X72555000Y69980000D03*
X80175000Y59820000D03*
X72555000Y67440000D03*
X80175000Y62360000D03*
X72555000Y64900000D03*
X80175000Y64900000D03*
X72555000Y62360000D03*
X80175000Y67440000D03*
X72555000Y59820000D03*
X80175000Y69980000D03*
X72555000Y57280000D03*
X80175000Y72520000D03*
X72555000Y54740000D03*
X80175000Y75060000D03*
X72555000Y52200000D03*
D12*
X55410000Y53470000D03*
D13*
X47790000Y76330000D03*
X55410000Y56010000D03*
X47790000Y73790000D03*
X55410000Y58550000D03*
X47790000Y71250000D03*
X55410000Y61090000D03*
X47790000Y68710000D03*
X55410000Y63630000D03*
X47790000Y66170000D03*
X55410000Y66170000D03*
X47790000Y63630000D03*
X55410000Y68710000D03*
X47790000Y61090000D03*
X55410000Y71250000D03*
X47790000Y58550000D03*
X55410000Y73790000D03*
X47790000Y56010000D03*
X55410000Y76330000D03*
X47790000Y53470000D03*
X47790000Y92205000D03*
X55410000Y115065000D03*
X47790000Y94745000D03*
X55410000Y112525000D03*
X47790000Y97285000D03*
X55410000Y109985000D03*
X47790000Y99825000D03*
X55410000Y107445000D03*
X47790000Y102365000D03*
X55410000Y104905000D03*
X47790000Y104905000D03*
X55410000Y102365000D03*
X47790000Y107445000D03*
X55410000Y99825000D03*
X47790000Y109985000D03*
X55410000Y97285000D03*
X47790000Y112525000D03*
X55410000Y94745000D03*
X47790000Y115065000D03*
D12*
X55410000Y92205000D03*
D13*
X72555000Y90935000D03*
X80175000Y113795000D03*
X72555000Y93475000D03*
X80175000Y111255000D03*
X72555000Y96015000D03*
X80175000Y108715000D03*
X72555000Y98555000D03*
X80175000Y106175000D03*
X72555000Y101095000D03*
X80175000Y103635000D03*
X72555000Y103635000D03*
X80175000Y101095000D03*
X72555000Y106175000D03*
X80175000Y98555000D03*
X72555000Y108715000D03*
X80175000Y96015000D03*
X72555000Y111255000D03*
X80175000Y93475000D03*
X72555000Y113795000D03*
D12*
X80175000Y90935000D03*
X80175000Y165230000D03*
D13*
X72555000Y183010000D03*
X80175000Y167770000D03*
X72555000Y180470000D03*
X80175000Y170310000D03*
X72555000Y177930000D03*
X80175000Y172850000D03*
X72555000Y175390000D03*
X80175000Y175390000D03*
X72555000Y172850000D03*
X80175000Y177930000D03*
X72555000Y170310000D03*
X80175000Y180470000D03*
X72555000Y167770000D03*
X80175000Y183010000D03*
X72555000Y165230000D03*
D12*
X63030000Y124590000D03*
D13*
X47790000Y157610000D03*
X63030000Y127130000D03*
X47790000Y155070000D03*
X63030000Y129670000D03*
X47790000Y152530000D03*
X63030000Y132210000D03*
X47790000Y149990000D03*
X63030000Y134750000D03*
X47790000Y147450000D03*
X63030000Y137290000D03*
X47790000Y144910000D03*
X63030000Y139830000D03*
X47790000Y142370000D03*
X63030000Y142370000D03*
X47790000Y139830000D03*
X63030000Y144910000D03*
X47790000Y137290000D03*
X63030000Y147450000D03*
X47790000Y134750000D03*
X63030000Y149990000D03*
X47790000Y132210000D03*
X63030000Y152530000D03*
X47790000Y129670000D03*
X63030000Y155070000D03*
X47790000Y127130000D03*
X63030000Y157610000D03*
X47790000Y124590000D03*
X57315000Y7115000D03*
X64935000Y29975000D03*
X57315000Y9655000D03*
X64935000Y27435000D03*
X57315000Y12195000D03*
X64935000Y24895000D03*
X57315000Y14735000D03*
X64935000Y22355000D03*
X57315000Y17275000D03*
X64935000Y19815000D03*
X57315000Y19815000D03*
X64935000Y17275000D03*
X57315000Y22355000D03*
X64935000Y14735000D03*
X57315000Y24895000D03*
X64935000Y12195000D03*
X57315000Y27435000D03*
X64935000Y9655000D03*
X57315000Y29975000D03*
D12*
X64935000Y7115000D03*
X200190000Y4575000D03*
D13*
X192570000Y27435000D03*
X200190000Y7115000D03*
X192570000Y24895000D03*
X200190000Y9655000D03*
X192570000Y22355000D03*
X200190000Y12195000D03*
X192570000Y19815000D03*
X200190000Y14735000D03*
X192570000Y17275000D03*
X200190000Y17275000D03*
X192570000Y14735000D03*
X200190000Y19815000D03*
X192570000Y12195000D03*
X200190000Y22355000D03*
X192570000Y9655000D03*
X200190000Y24895000D03*
X192570000Y7115000D03*
X200190000Y27435000D03*
X192570000Y4575000D03*
D12*
X140500000Y44580000D03*
D13*
X132880000Y67440000D03*
X140500000Y47120000D03*
X132880000Y64900000D03*
X140500000Y49660000D03*
X132880000Y62360000D03*
X140500000Y52200000D03*
X132880000Y59820000D03*
X140500000Y54740000D03*
X132880000Y57280000D03*
X140500000Y57280000D03*
X132880000Y54740000D03*
X140500000Y59820000D03*
X132880000Y52200000D03*
X140500000Y62360000D03*
X132880000Y49660000D03*
X140500000Y64900000D03*
X132880000Y47120000D03*
X140500000Y67440000D03*
X132880000Y44580000D03*
D12*
X125260000Y137290000D03*
D13*
X117640000Y152530000D03*
X125260000Y139830000D03*
X117640000Y149990000D03*
X125260000Y142370000D03*
X117640000Y147450000D03*
X125260000Y144910000D03*
X117640000Y144910000D03*
X125260000Y147450000D03*
X117640000Y142370000D03*
X125260000Y149990000D03*
X117640000Y139830000D03*
X125260000Y152530000D03*
X117640000Y137290000D03*
D12*
X125260000Y165230000D03*
D13*
X117640000Y183010000D03*
X125260000Y167770000D03*
X117640000Y180470000D03*
X125260000Y170310000D03*
X117640000Y177930000D03*
X125260000Y172850000D03*
X117640000Y175390000D03*
X125260000Y175390000D03*
X117640000Y172850000D03*
X125260000Y177930000D03*
X117640000Y170310000D03*
X125260000Y180470000D03*
X117640000Y167770000D03*
X125260000Y183010000D03*
X117640000Y165230000D03*
D12*
X125260000Y44580000D03*
D13*
X117640000Y62360000D03*
X125260000Y47120000D03*
X117640000Y59820000D03*
X125260000Y49660000D03*
X117640000Y57280000D03*
X125260000Y52200000D03*
X117640000Y54740000D03*
X125260000Y54740000D03*
X117640000Y52200000D03*
X125260000Y57280000D03*
X117640000Y49660000D03*
X125260000Y59820000D03*
X117640000Y47120000D03*
X125260000Y62360000D03*
X117640000Y44580000D03*
X192570000Y104905000D03*
X200190000Y122685000D03*
X192570000Y107445000D03*
X200190000Y120145000D03*
X192570000Y109985000D03*
X200190000Y117605000D03*
X192570000Y112525000D03*
X200190000Y115065000D03*
X192570000Y115065000D03*
X200190000Y112525000D03*
X192570000Y117605000D03*
X200190000Y109985000D03*
X192570000Y120145000D03*
X200190000Y107445000D03*
X192570000Y122685000D03*
D12*
X200190000Y104905000D03*
X184950000Y44580000D03*
D13*
X177330000Y62360000D03*
X184950000Y47120000D03*
X177330000Y59820000D03*
X184950000Y49660000D03*
X177330000Y57280000D03*
X184950000Y52200000D03*
X177330000Y54740000D03*
X184950000Y54740000D03*
X177330000Y52200000D03*
X184950000Y57280000D03*
X177330000Y49660000D03*
X184950000Y59820000D03*
X177330000Y47120000D03*
X184950000Y62360000D03*
X177330000Y44580000D03*
D12*
X184950000Y75060000D03*
D13*
X177330000Y92840000D03*
X184950000Y77600000D03*
X177330000Y90300000D03*
X184950000Y80140000D03*
X177330000Y87760000D03*
X184950000Y82680000D03*
X177330000Y85220000D03*
X184950000Y85220000D03*
X177330000Y82680000D03*
X184950000Y87760000D03*
X177330000Y80140000D03*
X184950000Y90300000D03*
X177330000Y77600000D03*
X184950000Y92840000D03*
X177330000Y75060000D03*
X162725000Y44580000D03*
X170345000Y62360000D03*
X162725000Y47120000D03*
X170345000Y59820000D03*
X162725000Y49660000D03*
X170345000Y57280000D03*
X162725000Y52200000D03*
X170345000Y54740000D03*
X162725000Y54740000D03*
X170345000Y52200000D03*
X162725000Y57280000D03*
X170345000Y49660000D03*
X162725000Y59820000D03*
X170345000Y47120000D03*
X162725000Y62360000D03*
D12*
X170345000Y44580000D03*
X170345000Y75060000D03*
D13*
X162725000Y92840000D03*
X170345000Y77600000D03*
X162725000Y90300000D03*
X170345000Y80140000D03*
X162725000Y87760000D03*
X170345000Y82680000D03*
X162725000Y85220000D03*
X170345000Y85220000D03*
X162725000Y82680000D03*
X170345000Y87760000D03*
X162725000Y80140000D03*
X170345000Y90300000D03*
X162725000Y77600000D03*
X170345000Y92840000D03*
X162725000Y75060000D03*
X132880000Y165230000D03*
X140500000Y183010000D03*
X132880000Y167770000D03*
X140500000Y180470000D03*
X132880000Y170310000D03*
X140500000Y177930000D03*
X132880000Y172850000D03*
X140500000Y175390000D03*
X132880000Y175390000D03*
X140500000Y172850000D03*
X132880000Y177930000D03*
X140500000Y170310000D03*
X132880000Y180470000D03*
X140500000Y167770000D03*
X132880000Y183010000D03*
D12*
X140500000Y165230000D03*
D13*
X192570000Y137290000D03*
X200190000Y152530000D03*
X192570000Y139830000D03*
X200190000Y149990000D03*
X192570000Y142370000D03*
X200190000Y147450000D03*
X192570000Y144910000D03*
X200190000Y144910000D03*
X192570000Y147450000D03*
X200190000Y142370000D03*
X192570000Y149990000D03*
X200190000Y139830000D03*
X192570000Y152530000D03*
D12*
X200190000Y137290000D03*
D13*
X75095000Y9655000D03*
X82715000Y32515000D03*
X75095000Y12195000D03*
X82715000Y29975000D03*
X75095000Y14735000D03*
X82715000Y27435000D03*
X75095000Y17275000D03*
X82715000Y24895000D03*
X75095000Y19815000D03*
X82715000Y22355000D03*
X75095000Y22355000D03*
X82715000Y19815000D03*
X75095000Y24895000D03*
X82715000Y17275000D03*
X75095000Y27435000D03*
X82715000Y14735000D03*
X75095000Y29975000D03*
X82715000Y12195000D03*
X75095000Y32515000D03*
D12*
X82715000Y9655000D03*
D13*
X132880000Y75060000D03*
X140500000Y92840000D03*
X132880000Y77600000D03*
X140500000Y90300000D03*
X132880000Y80140000D03*
X140500000Y87760000D03*
X132880000Y82680000D03*
X140500000Y85220000D03*
X132880000Y85220000D03*
X140500000Y82680000D03*
X132880000Y87760000D03*
X140500000Y80140000D03*
X132880000Y90300000D03*
X140500000Y77600000D03*
X132880000Y92840000D03*
D12*
X140500000Y75060000D03*
D13*
X147485000Y75060000D03*
X155105000Y92840000D03*
X147485000Y77600000D03*
X155105000Y90300000D03*
X147485000Y80140000D03*
X155105000Y87760000D03*
X147485000Y82680000D03*
X155105000Y85220000D03*
X147485000Y85220000D03*
X155105000Y82680000D03*
X147485000Y87760000D03*
X155105000Y80140000D03*
X147485000Y90300000D03*
X155105000Y77600000D03*
X147485000Y92840000D03*
D12*
X155105000Y75060000D03*
D13*
X147485000Y44580000D03*
X155105000Y62360000D03*
X147485000Y47120000D03*
X155105000Y59820000D03*
X147485000Y49660000D03*
X155105000Y57280000D03*
X147485000Y52200000D03*
X155105000Y54740000D03*
X147485000Y54740000D03*
X155105000Y52200000D03*
X147485000Y57280000D03*
X155105000Y49660000D03*
X147485000Y59820000D03*
X155105000Y47120000D03*
X147485000Y62360000D03*
D12*
X155105000Y44580000D03*
D13*
X162725000Y137290000D03*
X170345000Y155070000D03*
X162725000Y139830000D03*
X170345000Y152530000D03*
X162725000Y142370000D03*
X170345000Y149990000D03*
X162725000Y144910000D03*
X170345000Y147450000D03*
X162725000Y147450000D03*
X170345000Y144910000D03*
X162725000Y149990000D03*
X170345000Y142370000D03*
X162725000Y152530000D03*
X170345000Y139830000D03*
X162725000Y155070000D03*
D12*
X170345000Y137290000D03*
X155105000Y165230000D03*
D13*
X147485000Y183010000D03*
X155105000Y167770000D03*
X147485000Y180470000D03*
X155105000Y170310000D03*
X147485000Y177930000D03*
X155105000Y172850000D03*
X147485000Y175390000D03*
X155105000Y175390000D03*
X147485000Y172850000D03*
X155105000Y177930000D03*
X147485000Y170310000D03*
X155105000Y180470000D03*
X147485000Y167770000D03*
X155105000Y183010000D03*
X147485000Y165230000D03*
D12*
X200190000Y75060000D03*
D13*
X192570000Y90300000D03*
X200190000Y77600000D03*
X192570000Y87760000D03*
X200190000Y80140000D03*
X192570000Y85220000D03*
X200190000Y82680000D03*
X192570000Y82680000D03*
X200190000Y85220000D03*
X192570000Y80140000D03*
X200190000Y87760000D03*
X192570000Y77600000D03*
X200190000Y90300000D03*
X192570000Y75060000D03*
D12*
X125260000Y77600000D03*
D13*
X117640000Y92840000D03*
X125260000Y80140000D03*
X117640000Y90300000D03*
X125260000Y82680000D03*
X117640000Y87760000D03*
X125260000Y85220000D03*
X117640000Y85220000D03*
X125260000Y87760000D03*
X117640000Y82680000D03*
X125260000Y90300000D03*
X117640000Y80140000D03*
X125260000Y92840000D03*
X117640000Y77600000D03*
D12*
X215430000Y7115000D03*
D13*
X207810000Y22355000D03*
X215430000Y9655000D03*
X207810000Y19815000D03*
X215430000Y12195000D03*
X207810000Y17275000D03*
X215430000Y14735000D03*
X207810000Y14735000D03*
X215430000Y17275000D03*
X207810000Y12195000D03*
X215430000Y19815000D03*
X207810000Y9655000D03*
X215430000Y22355000D03*
X207810000Y7115000D03*
D12*
X200190000Y47120000D03*
D13*
X192570000Y62360000D03*
X200190000Y49660000D03*
X192570000Y59820000D03*
X200190000Y52200000D03*
X192570000Y57280000D03*
X200190000Y54740000D03*
X192570000Y54740000D03*
X200190000Y57280000D03*
X192570000Y52200000D03*
X200190000Y59820000D03*
X192570000Y49660000D03*
X200190000Y62360000D03*
X192570000Y47120000D03*
D12*
X170345000Y165230000D03*
D13*
X162725000Y183010000D03*
X170345000Y167770000D03*
X162725000Y180470000D03*
X170345000Y170310000D03*
X162725000Y177930000D03*
X170345000Y172850000D03*
X162725000Y175390000D03*
X170345000Y175390000D03*
X162725000Y172850000D03*
X170345000Y177930000D03*
X162725000Y170310000D03*
X170345000Y180470000D03*
X162725000Y167770000D03*
X170345000Y183010000D03*
X162725000Y165230000D03*
D12*
X214795000Y104905000D03*
D13*
X207175000Y120145000D03*
X214795000Y107445000D03*
X207175000Y117605000D03*
X214795000Y109985000D03*
X207175000Y115065000D03*
X214795000Y112525000D03*
X207175000Y112525000D03*
X214795000Y115065000D03*
X207175000Y109985000D03*
X214795000Y117605000D03*
X207175000Y107445000D03*
X214795000Y120145000D03*
X207175000Y104905000D03*
D12*
X230035000Y4575000D03*
D13*
X222415000Y22355000D03*
X230035000Y7115000D03*
X222415000Y19815000D03*
X230035000Y9655000D03*
X222415000Y17275000D03*
X230035000Y12195000D03*
X222415000Y14735000D03*
X230035000Y14735000D03*
X222415000Y12195000D03*
X230035000Y17275000D03*
X222415000Y9655000D03*
X230035000Y19815000D03*
X222415000Y7115000D03*
X230035000Y22355000D03*
X222415000Y4575000D03*
X207175000Y44580000D03*
X214795000Y62360000D03*
X207175000Y47120000D03*
X214795000Y59820000D03*
X207175000Y49660000D03*
X214795000Y57280000D03*
X207175000Y52200000D03*
X214795000Y54740000D03*
X207175000Y54740000D03*
X214795000Y52200000D03*
X207175000Y57280000D03*
X214795000Y49660000D03*
X207175000Y59820000D03*
X214795000Y47120000D03*
X207175000Y62360000D03*
D12*
X214795000Y44580000D03*
X185585000Y165230000D03*
D13*
X177965000Y183010000D03*
X185585000Y167770000D03*
X177965000Y180470000D03*
X185585000Y170310000D03*
X177965000Y177930000D03*
X185585000Y172850000D03*
X177965000Y175390000D03*
X185585000Y175390000D03*
X177965000Y172850000D03*
X185585000Y177930000D03*
X177965000Y170310000D03*
X185585000Y180470000D03*
X177965000Y167770000D03*
X185585000Y183010000D03*
X177965000Y165230000D03*
X207175000Y75060000D03*
X214795000Y92840000D03*
X207175000Y77600000D03*
X214795000Y90300000D03*
X207175000Y80140000D03*
X214795000Y87760000D03*
X207175000Y82680000D03*
X214795000Y85220000D03*
X207175000Y85220000D03*
X214795000Y82680000D03*
X207175000Y87760000D03*
X214795000Y80140000D03*
X207175000Y90300000D03*
X214795000Y77600000D03*
X207175000Y92840000D03*
D12*
X214795000Y75060000D03*
X245275000Y44580000D03*
D13*
X237655000Y62360000D03*
X245275000Y47120000D03*
X237655000Y59820000D03*
X245275000Y49660000D03*
X237655000Y57280000D03*
X245275000Y52200000D03*
X237655000Y54740000D03*
X245275000Y54740000D03*
X237655000Y52200000D03*
X245275000Y57280000D03*
X237655000Y49660000D03*
X245275000Y59820000D03*
X237655000Y47120000D03*
X245275000Y62360000D03*
X237655000Y44580000D03*
X222415000Y44580000D03*
X230035000Y62360000D03*
X222415000Y47120000D03*
X230035000Y59820000D03*
X222415000Y49660000D03*
X230035000Y57280000D03*
X222415000Y52200000D03*
X230035000Y54740000D03*
X222415000Y54740000D03*
X230035000Y52200000D03*
X222415000Y57280000D03*
X230035000Y49660000D03*
X222415000Y59820000D03*
X230035000Y47120000D03*
X222415000Y62360000D03*
D12*
X230035000Y44580000D03*
D13*
X132880000Y32515000D03*
X117640000Y4575000D03*
X132880000Y29975000D03*
X117640000Y7115000D03*
X132880000Y27435000D03*
X117640000Y9655000D03*
X132880000Y24895000D03*
X117640000Y12195000D03*
X132880000Y22355000D03*
X117640000Y14735000D03*
X132880000Y19815000D03*
X117640000Y17275000D03*
X132880000Y17275000D03*
X117640000Y19815000D03*
X132880000Y14735000D03*
X117640000Y22355000D03*
X132880000Y12195000D03*
X117640000Y24895000D03*
X132880000Y9655000D03*
X117640000Y27435000D03*
X132880000Y7115000D03*
X117640000Y29975000D03*
X132880000Y4575000D03*
D12*
X117640000Y32515000D03*
D13*
X192570000Y165230000D03*
X200190000Y183010000D03*
X192570000Y167770000D03*
X200190000Y180470000D03*
X192570000Y170310000D03*
X200190000Y177930000D03*
X192570000Y172850000D03*
X200190000Y175390000D03*
X192570000Y175390000D03*
X200190000Y172850000D03*
X192570000Y177930000D03*
X200190000Y170310000D03*
X192570000Y180470000D03*
X200190000Y167770000D03*
X192570000Y183010000D03*
D12*
X200190000Y165230000D03*
X185585000Y137290000D03*
D13*
X177965000Y152530000D03*
X185585000Y139830000D03*
X177965000Y149990000D03*
X185585000Y142370000D03*
X177965000Y147450000D03*
X185585000Y144910000D03*
X177965000Y144910000D03*
X185585000Y147450000D03*
X177965000Y142370000D03*
X185585000Y149990000D03*
X177965000Y139830000D03*
X185585000Y152530000D03*
X177965000Y137290000D03*
X132880000Y104905000D03*
X140500000Y120145000D03*
X132880000Y107445000D03*
X140500000Y117605000D03*
X132880000Y109985000D03*
X140500000Y115065000D03*
X132880000Y112525000D03*
X140500000Y112525000D03*
X132880000Y115065000D03*
X140500000Y109985000D03*
X132880000Y117605000D03*
X140500000Y107445000D03*
X132880000Y120145000D03*
D12*
X140500000Y104905000D03*
X245275000Y75060000D03*
D13*
X237655000Y92840000D03*
X245275000Y77600000D03*
X237655000Y90300000D03*
X245275000Y80140000D03*
X237655000Y87760000D03*
X245275000Y82680000D03*
X237655000Y85220000D03*
X245275000Y85220000D03*
X237655000Y82680000D03*
X245275000Y87760000D03*
X237655000Y80140000D03*
X245275000Y90300000D03*
X237655000Y77600000D03*
X245275000Y92840000D03*
X237655000Y75060000D03*
X222415000Y75060000D03*
X230035000Y92840000D03*
X222415000Y77600000D03*
X230035000Y90300000D03*
X222415000Y80140000D03*
X230035000Y87760000D03*
X222415000Y82680000D03*
X230035000Y85220000D03*
X222415000Y85220000D03*
X230035000Y82680000D03*
X222415000Y87760000D03*
X230035000Y80140000D03*
X222415000Y90300000D03*
X230035000Y77600000D03*
X222415000Y92840000D03*
D12*
X230035000Y75060000D03*
X215430000Y165230000D03*
D13*
X207810000Y183010000D03*
X215430000Y167770000D03*
X207810000Y180470000D03*
X215430000Y170310000D03*
X207810000Y177930000D03*
X215430000Y172850000D03*
X207810000Y175390000D03*
X215430000Y175390000D03*
X207810000Y172850000D03*
X215430000Y177930000D03*
X207810000Y170310000D03*
X215430000Y180470000D03*
X207810000Y167770000D03*
X215430000Y183010000D03*
X207810000Y165230000D03*
X177330000Y104905000D03*
X184950000Y120145000D03*
X177330000Y107445000D03*
X184950000Y117605000D03*
X177330000Y109985000D03*
X184950000Y115065000D03*
X177330000Y112525000D03*
X184950000Y112525000D03*
X177330000Y115065000D03*
X184950000Y109985000D03*
X177330000Y117605000D03*
X184950000Y107445000D03*
X177330000Y120145000D03*
D12*
X184950000Y104905000D03*
X214795000Y137290000D03*
D13*
X207175000Y155070000D03*
X214795000Y139830000D03*
X207175000Y152530000D03*
X214795000Y142370000D03*
X207175000Y149990000D03*
X214795000Y144910000D03*
X207175000Y147450000D03*
X214795000Y147450000D03*
X207175000Y144910000D03*
X214795000Y149990000D03*
X207175000Y142370000D03*
X214795000Y152530000D03*
X207175000Y139830000D03*
X214795000Y155070000D03*
X207175000Y137290000D03*
D12*
X230035000Y104905000D03*
D13*
X222415000Y122685000D03*
X230035000Y107445000D03*
X222415000Y120145000D03*
X230035000Y109985000D03*
X222415000Y117605000D03*
X230035000Y112525000D03*
X222415000Y115065000D03*
X230035000Y115065000D03*
X222415000Y112525000D03*
X230035000Y117605000D03*
X222415000Y109985000D03*
X230035000Y120145000D03*
X222415000Y107445000D03*
X230035000Y122685000D03*
X222415000Y104905000D03*
X117640000Y104905000D03*
X125260000Y122685000D03*
X117640000Y107445000D03*
X125260000Y120145000D03*
X117640000Y109985000D03*
X125260000Y117605000D03*
X117640000Y112525000D03*
X125260000Y115065000D03*
X117640000Y115065000D03*
X125260000Y112525000D03*
X117640000Y117605000D03*
X125260000Y109985000D03*
X117640000Y120145000D03*
X125260000Y107445000D03*
X117640000Y122685000D03*
D12*
X125260000Y104905000D03*
X142405000Y32515000D03*
D13*
X157645000Y4575000D03*
X142405000Y29975000D03*
X157645000Y7115000D03*
X142405000Y27435000D03*
X157645000Y9655000D03*
X142405000Y24895000D03*
X157645000Y12195000D03*
X142405000Y22355000D03*
X157645000Y14735000D03*
X142405000Y19815000D03*
X157645000Y17275000D03*
X142405000Y17275000D03*
X157645000Y19815000D03*
X142405000Y14735000D03*
X157645000Y22355000D03*
X142405000Y12195000D03*
X157645000Y24895000D03*
X142405000Y9655000D03*
X157645000Y27435000D03*
X142405000Y7115000D03*
X157645000Y29975000D03*
X142405000Y4575000D03*
X157645000Y32515000D03*
D12*
X230035000Y165230000D03*
D13*
X222415000Y183010000D03*
X230035000Y167770000D03*
X222415000Y180470000D03*
X230035000Y170310000D03*
X222415000Y177930000D03*
X230035000Y172850000D03*
X222415000Y175390000D03*
X230035000Y175390000D03*
X222415000Y172850000D03*
X230035000Y177930000D03*
X222415000Y170310000D03*
X230035000Y180470000D03*
X222415000Y167770000D03*
X230035000Y183010000D03*
X222415000Y165230000D03*
D12*
X245275000Y137290000D03*
D13*
X237655000Y152530000D03*
X245275000Y139830000D03*
X237655000Y149990000D03*
X245275000Y142370000D03*
X237655000Y147450000D03*
X245275000Y144910000D03*
X237655000Y144910000D03*
X245275000Y147450000D03*
X237655000Y142370000D03*
X245275000Y149990000D03*
X237655000Y139830000D03*
X245275000Y152530000D03*
X237655000Y137290000D03*
X183045000Y32515000D03*
X167805000Y4575000D03*
X183045000Y29975000D03*
X167805000Y7115000D03*
X183045000Y27435000D03*
X167805000Y9655000D03*
X183045000Y24895000D03*
X167805000Y12195000D03*
X183045000Y22355000D03*
X167805000Y14735000D03*
X183045000Y19815000D03*
X167805000Y17275000D03*
X183045000Y17275000D03*
X167805000Y19815000D03*
X183045000Y14735000D03*
X167805000Y22355000D03*
X183045000Y12195000D03*
X167805000Y24895000D03*
X183045000Y9655000D03*
X167805000Y27435000D03*
X183045000Y7115000D03*
X167805000Y29975000D03*
X183045000Y4575000D03*
D12*
X167805000Y32515000D03*
D13*
X252260000Y44580000D03*
X259880000Y59820000D03*
X252260000Y47120000D03*
X259880000Y57280000D03*
X252260000Y49660000D03*
X259880000Y54740000D03*
X252260000Y52200000D03*
X259880000Y52200000D03*
X252260000Y54740000D03*
X259880000Y49660000D03*
X252260000Y57280000D03*
X259880000Y47120000D03*
X252260000Y59820000D03*
D12*
X259880000Y44580000D03*
D13*
X237020000Y7115000D03*
X244640000Y22355000D03*
X237020000Y9655000D03*
X244640000Y19815000D03*
X237020000Y12195000D03*
X244640000Y17275000D03*
X237020000Y14735000D03*
X244640000Y14735000D03*
X237020000Y17275000D03*
X244640000Y12195000D03*
X237020000Y19815000D03*
X244640000Y9655000D03*
X237020000Y22355000D03*
D12*
X244640000Y7115000D03*
D13*
X252260000Y7115000D03*
X259880000Y22355000D03*
X252260000Y9655000D03*
X259880000Y19815000D03*
X252260000Y12195000D03*
X259880000Y17275000D03*
X252260000Y14735000D03*
X259880000Y14735000D03*
X252260000Y17275000D03*
X259880000Y12195000D03*
X252260000Y19815000D03*
X259880000Y9655000D03*
X252260000Y22355000D03*
D12*
X259880000Y7115000D03*
D13*
X107480000Y37595000D03*
X92240000Y4575000D03*
X107480000Y35055000D03*
X92240000Y7115000D03*
X107480000Y32515000D03*
X92240000Y9655000D03*
X107480000Y29975000D03*
X92240000Y12195000D03*
X107480000Y27435000D03*
X92240000Y14735000D03*
X107480000Y24895000D03*
X92240000Y17275000D03*
X107480000Y22355000D03*
X92240000Y19815000D03*
X107480000Y19815000D03*
X92240000Y22355000D03*
X107480000Y17275000D03*
X92240000Y24895000D03*
X107480000Y14735000D03*
X92240000Y27435000D03*
X107480000Y12195000D03*
X92240000Y29975000D03*
X107480000Y9655000D03*
X92240000Y32515000D03*
X107480000Y7115000D03*
X92240000Y35055000D03*
X107480000Y4575000D03*
D12*
X92240000Y37595000D03*
D22*
X249085000Y174675000D03*
X246585000Y172175000D03*
X249085000Y169675000D03*
D23*
X253530000Y170945000D03*
D18*
X253530000Y173485000D03*
D12*
X155105000Y104905000D03*
D13*
X147485000Y120145000D03*
X155105000Y107445000D03*
X147485000Y117605000D03*
X155105000Y109985000D03*
X147485000Y115065000D03*
X155105000Y112525000D03*
X147485000Y112525000D03*
X155105000Y115065000D03*
X147485000Y109985000D03*
X155105000Y117605000D03*
X147485000Y107445000D03*
X155105000Y120145000D03*
X147485000Y104905000D03*
X155105000Y127765000D03*
D12*
X147485000Y127765000D03*
X99860000Y127765000D03*
D13*
X110020000Y127765000D03*
D12*
X27470000Y50295000D03*
D13*
X19850000Y50295000D03*
X19850000Y46485000D03*
D12*
X27470000Y46485000D03*
X27470000Y42675000D03*
D13*
X19850000Y42675000D03*
D12*
X27470000Y38865000D03*
D13*
X19850000Y38865000D03*
D12*
X27470000Y35055000D03*
D13*
X19850000Y35055000D03*
D12*
X27470000Y31245000D03*
D13*
X19850000Y31245000D03*
X19850000Y27435000D03*
D12*
X27470000Y27435000D03*
D13*
X19850000Y23625000D03*
D12*
X27470000Y23625000D03*
X275120000Y134750000D03*
D13*
X285280000Y134750000D03*
X275120000Y130940000D03*
D12*
X285280000Y130940000D03*
D13*
X275120000Y123320000D03*
D12*
X285280000Y123320000D03*
D13*
X275120000Y127130000D03*
D12*
X285280000Y127130000D03*
X270040000Y171580000D03*
D13*
X259880000Y171580000D03*
X275120000Y162690000D03*
D12*
X285280000Y162690000D03*
X275120000Y166500000D03*
D13*
X285280000Y166500000D03*
X285280000Y170310000D03*
D12*
X275120000Y170310000D03*
D13*
X221145000Y101730000D03*
D12*
X231305000Y101730000D03*
X231305000Y99190000D03*
D13*
X221145000Y99190000D03*
D12*
X231305000Y96650000D03*
D13*
X221145000Y96650000D03*
D10*
X147485000Y130940000D03*
D13*
X155105000Y130940000D03*
D10*
X170345000Y126495000D03*
D13*
X162725000Y126495000D03*
X187490000Y133480000D03*
D10*
X177330000Y133480000D03*
D13*
X73825000Y124590000D03*
D10*
X81445000Y124590000D03*
D13*
X117640000Y127130000D03*
D10*
X125260000Y127130000D03*
X27470000Y19815000D03*
D13*
X19850000Y19815000D03*
X19850000Y16005000D03*
D10*
X27470000Y16005000D03*
X27470000Y12195000D03*
D13*
X19850000Y12195000D03*
X19850000Y8385000D03*
D10*
X27470000Y8385000D03*
X27470000Y4575000D03*
D13*
X19850000Y4575000D03*
X31280000Y149990000D03*
D10*
X31280000Y160150000D03*
D13*
X99860000Y171580000D03*
D10*
X110020000Y171580000D03*
X33820000Y170310000D03*
D13*
X33820000Y180470000D03*
X99860000Y174120000D03*
D10*
X110020000Y174120000D03*
X97320000Y167770000D03*
D13*
X87160000Y167770000D03*
X99860000Y176660000D03*
D10*
X110020000Y176660000D03*
D13*
X99860000Y181740000D03*
D10*
X110020000Y181740000D03*
D13*
X87160000Y175390000D03*
D10*
X97320000Y175390000D03*
X110020000Y179200000D03*
D13*
X99860000Y179200000D03*
X87160000Y177930000D03*
D10*
X97320000Y177930000D03*
X97320000Y180470000D03*
D13*
X87160000Y180470000D03*
D10*
X97320000Y170310000D03*
D13*
X87160000Y170310000D03*
X87160000Y172850000D03*
D10*
X97320000Y172850000D03*
D13*
X117640000Y71250000D03*
D10*
X125260000Y71250000D03*
X18580000Y144910000D03*
D13*
X18580000Y155070000D03*
D10*
X184950000Y101095000D03*
D13*
X177330000Y101095000D03*
X21120000Y144910000D03*
D10*
X21120000Y155070000D03*
X117640000Y73790000D03*
D13*
X125260000Y73790000D03*
X162725000Y133480000D03*
D10*
X170345000Y133480000D03*
X22390000Y96015000D03*
D13*
X32550000Y96015000D03*
D10*
X140500000Y123320000D03*
D13*
X132880000Y123320000D03*
D10*
X140500000Y125860000D03*
D13*
X132880000Y125860000D03*
D10*
X230035000Y69980000D03*
D13*
X222415000Y69980000D03*
X222415000Y67440000D03*
D10*
X230035000Y67440000D03*
X236385000Y167770000D03*
D13*
X246545000Y167770000D03*
D10*
X246545000Y165230000D03*
D13*
X236385000Y165230000D03*
D10*
X259880000Y162690000D03*
D13*
X270040000Y162690000D03*
X270040000Y165230000D03*
D10*
X259880000Y165230000D03*
X270040000Y167770000D03*
D13*
X259880000Y167770000D03*
X275120000Y138560000D03*
D10*
X285280000Y138560000D03*
X259880000Y142370000D03*
D13*
X249720000Y142370000D03*
X222415000Y137290000D03*
D10*
X230035000Y137290000D03*
X230035000Y139830000D03*
D13*
X222415000Y139830000D03*
D10*
X230035000Y142370000D03*
D13*
X222415000Y142370000D03*
X222415000Y144910000D03*
D10*
X230035000Y144910000D03*
D13*
X184950000Y126495000D03*
D10*
X177330000Y126495000D03*
X245275000Y102365000D03*
D13*
X237655000Y102365000D03*
X237655000Y104905000D03*
D10*
X245275000Y104905000D03*
D13*
X245275000Y107445000D03*
D10*
X237655000Y107445000D03*
D13*
X245275000Y109985000D03*
D10*
X237655000Y109985000D03*
X237655000Y112525000D03*
D13*
X245275000Y112525000D03*
D10*
X245275000Y115065000D03*
D13*
X237655000Y115065000D03*
X237655000Y117605000D03*
D10*
X245275000Y117605000D03*
X259880000Y127130000D03*
D13*
X270040000Y127130000D03*
X270040000Y124590000D03*
D10*
X259880000Y124590000D03*
D13*
X259880000Y119510000D03*
D10*
X270040000Y119510000D03*
X245275000Y120145000D03*
D13*
X237655000Y120145000D03*
X245275000Y122685000D03*
D10*
X237655000Y122685000D03*
X237655000Y125225000D03*
D13*
X245275000Y125225000D03*
D10*
X117640000Y129670000D03*
D13*
X125260000Y129670000D03*
D10*
X149390000Y159515000D03*
D13*
X157010000Y159515000D03*
X162725000Y123955000D03*
D10*
X170345000Y123955000D03*
D13*
X94780000Y125225000D03*
D10*
X87160000Y125225000D03*
X104940000Y121415000D03*
D13*
X97320000Y121415000D03*
X259880000Y132845000D03*
D10*
X249720000Y132845000D03*
X249720000Y139830000D03*
D13*
X259880000Y139830000D03*
X222415000Y147450000D03*
D10*
X230035000Y147450000D03*
X222415000Y159515000D03*
D13*
X230035000Y159515000D03*
X200190000Y93475000D03*
D10*
X192570000Y93475000D03*
D13*
X205270000Y128400000D03*
D10*
X215430000Y128400000D03*
X259880000Y122050000D03*
D13*
X270040000Y122050000D03*
D10*
X237655000Y97920000D03*
D13*
X245275000Y97920000D03*
D10*
X14770000Y170310000D03*
D13*
X14770000Y160150000D03*
X264960000Y59820000D03*
D10*
X272580000Y59820000D03*
X272580000Y56010000D03*
D13*
X264960000Y56010000D03*
X264960000Y52200000D03*
D10*
X272580000Y52200000D03*
X272580000Y48390000D03*
D13*
X264960000Y48390000D03*
X264960000Y44580000D03*
D10*
X272580000Y44580000D03*
X272580000Y40135000D03*
D13*
X264960000Y40135000D03*
X264960000Y36325000D03*
D10*
X272580000Y36325000D03*
D13*
X264960000Y32515000D03*
D10*
X272580000Y32515000D03*
D13*
X264960000Y28705000D03*
D10*
X272580000Y28705000D03*
X272580000Y24895000D03*
D13*
X264960000Y24895000D03*
X264960000Y21085000D03*
D10*
X272580000Y21085000D03*
X272580000Y17275000D03*
D13*
X264960000Y17275000D03*
D10*
X170345000Y106175000D03*
D13*
X162725000Y106175000D03*
D10*
X104940000Y118875000D03*
D13*
X97320000Y118875000D03*
X97320000Y116335000D03*
D10*
X104940000Y116335000D03*
D13*
X170345000Y108715000D03*
D10*
X162725000Y108715000D03*
X162725000Y103635000D03*
D13*
X170345000Y103635000D03*
X71285000Y28705000D03*
D10*
X71285000Y21085000D03*
D13*
X214795000Y101095000D03*
D10*
X207175000Y101095000D03*
D12*
X235115000Y160150000D03*
D13*
X245275000Y160150000D03*
X245275000Y156340000D03*
D12*
X235115000Y156340000D03*
D10*
X90335000Y2670000D03*
X90335000Y89030000D03*
X90335000Y116335000D03*
X112560000Y80140000D03*
X112560000Y44580000D03*
X112560000Y85220000D03*
X112560000Y104905000D03*
X112560000Y125225000D03*
X112560000Y139830000D03*
X112560000Y165230000D03*
X112560000Y185550000D03*
X143675000Y64900000D03*
X143675000Y104905000D03*
X143675000Y44580000D03*
X143675000Y124590000D03*
X143675000Y130940000D03*
X143675000Y137290000D03*
X143675000Y144910000D03*
X143675000Y165230000D03*
X143675000Y185550000D03*
X160185000Y42675000D03*
X160185000Y62360000D03*
X160185000Y2670000D03*
X160185000Y94110000D03*
X160185000Y132210000D03*
X160185000Y162690000D03*
X174155000Y64900000D03*
X174155000Y75060000D03*
X174155000Y44580000D03*
X174155000Y104905000D03*
X174155000Y137290000D03*
X174155000Y144910000D03*
X174155000Y165230000D03*
X174155000Y185550000D03*
X204000000Y44580000D03*
X204000000Y75060000D03*
X204000000Y85220000D03*
X204000000Y104905000D03*
X204000000Y125205000D03*
X204000000Y165230000D03*
X204000000Y185550000D03*
X219240000Y22355000D03*
X219240000Y62360000D03*
X219240000Y77600000D03*
X219240000Y93520000D03*
X219240000Y103000000D03*
X219240000Y122685000D03*
X219240000Y162690000D03*
X233845000Y4575000D03*
X233845000Y64900000D03*
X233845000Y75060000D03*
X233845000Y104905000D03*
X233845000Y137290000D03*
X233845000Y185550000D03*
X247815000Y22355000D03*
X247815000Y62360000D03*
X247815000Y102365000D03*
X247815000Y122685000D03*
X247815000Y162690000D03*
D24*
X55410000Y162690000D03*
X12865000Y162690000D03*
X90335000Y162690000D03*
X22390000Y162690000D03*
X140500000Y185550000D03*
X125260000Y185550000D03*
X34879600Y49564800D03*
X149801700Y139168600D03*
X115227000Y165230000D03*
X58048400Y172570700D03*
X210267900Y85887500D03*
X49328400Y153791500D03*
X202797514Y155165000D03*
X111334990Y159476500D03*
X49291000Y160194988D03*
X109121800Y159458400D03*
X45551600Y160194990D03*
X41991300Y143679700D03*
X73478000Y49145100D03*
X32223500Y139301300D03*
X53346600Y177961500D03*
X64957300Y67440000D03*
X75398100Y47871300D03*
X66195600Y133459800D03*
X66109990Y170265400D03*
X45250000Y123149100D03*
X218014990Y34160600D03*
X214962800Y160317800D03*
X138617700Y159952098D03*
X30839800Y124999800D03*
X32437500Y69980000D03*
X81101900Y42829800D03*
X74450500Y132836400D03*
X68982300Y136395800D03*
X81646800Y37942800D03*
X91560010Y46604800D03*
X40370400Y97159000D03*
X209146800Y154184500D03*
X97752000Y151797800D03*
X35838100Y116627500D03*
X130848000Y160023000D03*
X212512900Y67710600D03*
X163138500Y70630700D03*
X35445600Y110449600D03*
X37443400Y98165800D03*
X100925800Y153836200D03*
X178695400Y94461300D03*
X124101600Y156213200D03*
X217487100Y30735600D03*
X58145000Y115895200D03*
X228099100Y73690100D03*
X82952300Y42230900D03*
X3036500Y57677300D03*
X71706800Y46045600D03*
X74628500Y128434300D03*
X68806087Y48913513D03*
X60456000Y64900000D03*
X7128200Y70721500D03*
X51783800Y144245100D03*
X59170000Y111607900D03*
X50569700Y102376400D03*
X56099200Y139814300D03*
X212133700Y20419000D03*
X154256100Y159486300D03*
X55406300Y157610000D03*
X40620100Y101730000D03*
X43386800Y152341800D03*
X175735600Y157007300D03*
X63507700Y79527500D03*
X123696000Y125381100D03*
X70247300Y129677300D03*
X62448900Y75137800D03*
X61662100Y72520000D03*
X75631500Y136906300D03*
X77321300Y142809300D03*
X43989700Y61138400D03*
X77928100Y48506000D03*
X71557900Y47948200D03*
X30010000Y185550000D03*
X153173600Y136484100D03*
X137376800Y139796700D03*
X146054200Y141161700D03*
X142292600Y94891500D03*
X76317400Y83349600D03*
X123390800Y80529300D03*
X165968400Y117295600D03*
X165532500Y123349700D03*
X60133100Y145732900D03*
X77396100Y127829700D03*
X130970400Y119238700D03*
X192492700Y159219900D03*
X88534990Y158118008D03*
X178403400Y154461300D03*
X107480000Y153235000D03*
X213256400Y126841300D03*
X196963900Y124317400D03*
X155923600Y100572800D03*
X158959990Y65203300D03*
X136054600Y59818100D03*
X49884500Y151907200D03*
X158959700Y152025000D03*
X164578400Y112568500D03*
X131102000Y133607000D03*
X81691400Y156747200D03*
X106113600Y157643700D03*
X152099900Y42040300D03*
X84275700Y156713800D03*
X191255010Y157087900D03*
X85875000Y123374100D03*
X137571200Y74675700D03*
X158498100Y73799900D03*
X130295010Y139830000D03*
X120882600Y149336400D03*
X231156700Y154941000D03*
X167944800Y82702900D03*
X150048500Y59738600D03*
X121280300Y113822900D03*
X113785010Y58001768D03*
X103535900Y45146300D03*
X120761000Y90070700D03*
X197457800Y98789500D03*
X193637500Y95646300D03*
X193270100Y132865500D03*
X130973400Y58524200D03*
X127398200Y53385700D03*
X113785010Y48436169D03*
X147617100Y99956500D03*
X183604600Y99493900D03*
X152403600Y92786500D03*
X206181100Y20984700D03*
X151399600Y109096100D03*
X134558700Y97600200D03*
X102139000Y41884500D03*
X187534990Y153395700D03*
X180574100Y126032900D03*
X185604400Y133367100D03*
X128965900Y42635700D03*
X211552700Y72756400D03*
X122755500Y68637500D03*
X185552400Y71869200D03*
X99374800Y44061100D03*
X240944900Y82135000D03*
X116985500Y97234700D03*
X116863700Y95380100D03*
X108888600Y55176700D03*
X109182900Y43958500D03*
X153340300Y34965900D03*
X150442800Y24552600D03*
X205484800Y58211400D03*
X138425200Y37595000D03*
X131240600Y94697300D03*
X199190900Y97905600D03*
X201491500Y130172600D03*
X203240022Y112644955D03*
X136587200Y99385600D03*
X79732800Y32980900D03*
X98662900Y50987000D03*
X178747500Y66183000D03*
X235862300Y25130700D03*
X239477800Y20268800D03*
X106431400Y135342200D03*
X171465800Y95234800D03*
X101086100Y99488700D03*
X100922200Y97638300D03*
X102963200Y99587500D03*
X69673600Y109591500D03*
X59081000Y81398900D03*
X57855600Y80007300D03*
X103862700Y96645000D03*
X81726300Y66170000D03*
X78205000Y67446300D03*
X85342600Y68710000D03*
X53379200Y76040300D03*
X76810800Y72527400D03*
X130375300Y102916100D03*
X89065000Y85855000D03*
X28969900Y120073000D03*
X92264800Y120145000D03*
X28819100Y113701800D03*
X12466800Y114297200D03*
X79470600Y129311700D03*
X150629900Y123421400D03*
X26932500Y94901500D03*
X155453200Y35670800D03*
X145864200Y69336300D03*
X96550100Y52441300D03*
X138446700Y69273600D03*
X263751000Y143399300D03*
X129664400Y124546900D03*
X221288500Y128447200D03*
X261604900Y151589500D03*
X136944000Y164849000D03*
X25050000Y165252300D03*
X78949600Y156933400D03*
X40524000Y156365600D03*
X110851600Y106636200D03*
X74041600Y88806600D03*
X92135010Y146092300D03*
X28699200Y103769300D03*
X182299200Y120851900D03*
X71798659Y126365641D03*
X29002200Y111049900D03*
X84351200Y116221100D03*
X73194000Y83346400D03*
X122251000Y102466600D03*
X151615000Y69922200D03*
X184342400Y65866500D03*
X202136700Y66711100D03*
X110655000Y76330000D03*
X216336500Y58423600D03*
X181615100Y105998300D03*
X127494900Y98197800D03*
X110890400Y26923300D03*
X27151800Y111577700D03*
X226789600Y122625700D03*
X223065700Y154696500D03*
D25*
X19850000Y167770000D02*
X21082400Y169002400D01*
X21082400Y169002400D02*
X21082400Y174157600D01*
X21082400Y174157600D02*
X19850000Y175390000D01*
X14770000Y170310000D02*
X14770000Y180470000D01*
X14770000Y180470000D02*
X10325000Y184915000D01*
X19850000Y170310000D02*
X19850000Y172850000D01*
X42710000Y45215000D02*
X43948900Y43976100D01*
X43948900Y43976100D02*
X43948900Y38833900D01*
X43948900Y38833900D02*
X42710000Y37595000D01*
X55410000Y115065000D02*
X56635300Y113839700D01*
X56635300Y113839700D02*
X56635300Y84257300D01*
X56635300Y84257300D02*
X55330300Y82952300D01*
X55330300Y82952300D02*
X55330300Y78084700D01*
X55330300Y78084700D02*
X55410000Y78005000D01*
X219990000Y76850000D02*
X220740000Y77600000D01*
X222415000Y67440000D02*
X219932600Y69922400D01*
X219932600Y69922400D02*
X219932600Y76792600D01*
X219932600Y76792600D02*
X219990000Y76850000D01*
X219240000Y77600000D02*
X219990000Y76850000D01*
X222415000Y77600000D02*
X220740000Y77600000D01*
X63030000Y157610000D02*
X63030000Y159285000D01*
X55410000Y76330000D02*
X55410000Y78005000D01*
X259880000Y22355000D02*
X261555000Y22355000D01*
X272580000Y22990000D02*
X262190000Y22990000D01*
X262190000Y22990000D02*
X261555000Y22355000D01*
D26*
X272580000Y22990000D02*
X272580000Y21085000D01*
X272580000Y24895000D02*
X272580000Y22990000D01*
D25*
X147485000Y87760000D02*
X147485000Y90300000D01*
X148717400Y85220000D02*
X148717400Y86527600D01*
X148717400Y86527600D02*
X147485000Y87760000D01*
X147485000Y82680000D02*
X147485000Y80140000D01*
X148717400Y85220000D02*
X148717400Y83912400D01*
X148717400Y83912400D02*
X147485000Y82680000D01*
X94780000Y149990000D02*
X93105000Y149990000D01*
X90335000Y151256200D02*
X91838800Y151256200D01*
X91838800Y151256200D02*
X93105000Y149990000D01*
X188760000Y162690000D02*
X185585000Y159515000D01*
X185585000Y159515000D02*
X185585000Y152530000D01*
X140500000Y67440000D02*
X139275000Y66215000D01*
X139275000Y66215000D02*
X139275000Y63585000D01*
X139275000Y63585000D02*
X140500000Y62360000D01*
X140500000Y62360000D02*
X140500000Y59820000D01*
X177370000Y130940000D02*
X177330000Y130900000D01*
X177330000Y130900000D02*
X177330000Y126495000D01*
X163950400Y136479700D02*
X163950400Y141144600D01*
X163950400Y141144600D02*
X162725000Y142370000D01*
X160185000Y132210000D02*
X160185000Y132714300D01*
X160185000Y132714300D02*
X163950400Y136479700D01*
X170345000Y133480000D02*
X166950100Y133480000D01*
X166950100Y133480000D02*
X163950400Y136479700D01*
X162725000Y121820000D02*
X160185000Y124360000D01*
X160185000Y124360000D02*
X160185000Y132210000D01*
X162725000Y120145000D02*
X162725000Y121820000D01*
X148717400Y85220000D02*
X155105000Y85220000D01*
X155105000Y87760000D02*
X155105000Y85220000D01*
X170345000Y75060000D02*
X170345000Y73385000D01*
X170345000Y62360000D02*
X170345000Y73385000D01*
X111170000Y37595000D02*
X115100000Y41525000D01*
X115100000Y41525000D02*
X115100000Y46374600D01*
X115100000Y46374600D02*
X117115400Y48390000D01*
X117115400Y48390000D02*
X118132600Y48390000D01*
X118132600Y48390000D02*
X123162300Y53419700D01*
X123162300Y53419700D02*
X123162300Y60262300D01*
X123162300Y60262300D02*
X125260000Y62360000D01*
X42710000Y22355000D02*
X42710000Y24030000D01*
X42710000Y24030000D02*
X43935400Y25255400D01*
X43935400Y25255400D02*
X43935400Y33030200D01*
X43935400Y33030200D02*
X43180600Y33785000D01*
X43180600Y33785000D02*
X42214900Y33785000D01*
X42214900Y33785000D02*
X41430100Y34569800D01*
X41430100Y34569800D02*
X41430100Y36315100D01*
X41430100Y36315100D02*
X42710000Y37595000D01*
X258750000Y178891800D02*
X258749700Y178892100D01*
X258749700Y178892100D02*
X258749700Y179741000D01*
D26*
X258750000Y178891800D02*
X258750000Y179741000D01*
X258750000Y179741000D02*
X261249100Y179741000D01*
X256250000Y174742300D02*
X256250000Y176840300D01*
X256250000Y176840300D02*
X256705000Y177295000D01*
X256705000Y177295000D02*
X258610000Y177295000D01*
D27*
X258610000Y177295000D02*
X258750000Y177434700D01*
D26*
X258750000Y177434700D02*
X258750000Y178891800D01*
D25*
X157010000Y159515000D02*
X157010000Y157840000D01*
X157010000Y157840000D02*
X155105000Y155935000D01*
X155105000Y155935000D02*
X155105000Y152530000D01*
X117640000Y129670000D02*
X112560000Y134750000D01*
X112560000Y134750000D02*
X110020000Y134750000D01*
X90335000Y2670000D02*
X84958600Y2670000D01*
X84958600Y2670000D02*
X76703600Y10925000D01*
X76703600Y10925000D02*
X73825000Y10925000D01*
X73825000Y10925000D02*
X71285000Y13465000D01*
D26*
X92240000Y2670000D02*
X90335000Y2670000D01*
D25*
X245275000Y156340000D02*
X245275000Y158015000D01*
X247815000Y162690000D02*
X247815000Y160555000D01*
X247815000Y160555000D02*
X245275000Y158015000D01*
X160185000Y42675000D02*
X160185000Y47120000D01*
X160185000Y47120000D02*
X162725000Y49660000D01*
X214795000Y92840000D02*
X216470000Y92840000D01*
X219240000Y93520000D02*
X217150000Y93520000D01*
X217150000Y93520000D02*
X216470000Y92840000D01*
X80175000Y113795000D02*
X81850000Y113795000D01*
X90335000Y116335000D02*
X87795000Y113795000D01*
X87795000Y113795000D02*
X81850000Y113795000D01*
X10642600Y115730600D02*
X10642300Y115730600D01*
X10642300Y115730600D02*
X9911000Y114999300D01*
D27*
X10642600Y115730600D02*
X9911000Y114999000D01*
D26*
X9911000Y114999000D02*
X9911000Y112497400D01*
X12865000Y162690000D02*
X12865000Y117953000D01*
X12865000Y117953000D02*
X10642600Y115730600D01*
D25*
X155105000Y52200000D02*
X155105000Y54740000D01*
X155105000Y49660000D02*
X155105000Y52200000D01*
X200190000Y122685000D02*
X200190000Y124360000D01*
X198920000Y129215000D02*
X198920000Y125630000D01*
X198920000Y125630000D02*
X200190000Y124360000D01*
X70038700Y26371700D02*
X70873200Y26371700D01*
X70873200Y26371700D02*
X73206500Y28705000D01*
X73206500Y28705000D02*
X77230000Y28705000D01*
X77230000Y28705000D02*
X81040000Y32515000D01*
X70038700Y26371700D02*
X70038700Y14711300D01*
X70038700Y14711300D02*
X71285000Y13465000D01*
X82715000Y32515000D02*
X81040000Y32515000D01*
X198920000Y130940000D02*
X198920000Y129215000D01*
X270040000Y139830000D02*
X270040000Y137290000D01*
X270040000Y137290000D02*
X259880000Y127130000D01*
X256250300Y174742300D02*
X256250000Y174742300D01*
X162725000Y77600000D02*
X162725000Y80140000D01*
X22390000Y166500000D02*
X30090000Y166500000D01*
X30090000Y166500000D02*
X31280000Y165310000D01*
D26*
X22390000Y166500000D02*
X22390000Y162944000D01*
X22390000Y181686300D02*
X22390000Y166500000D01*
D25*
X27470000Y180470000D02*
X25795000Y180470000D01*
X22390000Y181686300D02*
X24578700Y181686300D01*
X24578700Y181686300D02*
X25795000Y180470000D01*
D26*
X22390000Y186185000D02*
X22390000Y181686300D01*
D25*
X273748000Y179741000D02*
X273748400Y179741000D01*
D26*
X271249000Y179741000D02*
X273748000Y179741000D01*
D27*
X9910800Y94999200D02*
X9911000Y94999000D01*
X9911000Y112497400D02*
X9911000Y112497000D01*
D26*
X9911000Y112497000D02*
X7785000Y110371000D01*
X7785000Y110371000D02*
X7785000Y97125000D01*
X7785000Y97125000D02*
X9910800Y94999200D01*
D25*
X9911000Y94999400D02*
X9910800Y94999200D01*
D26*
X272580000Y56010000D02*
X272580000Y52200000D01*
X272580000Y59820000D02*
X272580000Y56010000D01*
X272580000Y48390000D02*
X272580000Y44580000D01*
X272580000Y52200000D02*
X272580000Y48390000D01*
X272580000Y40135000D02*
X272580000Y36325000D01*
X272580000Y44580000D02*
X272580000Y40135000D01*
X268749700Y179741000D02*
X271249000Y179741000D01*
X266250300Y179741000D02*
X268749700Y179741000D01*
X272580000Y36325000D02*
X272580000Y32515000D01*
X263751000Y179741000D02*
X266250300Y179741000D01*
X272580000Y32515000D02*
X272580000Y28705000D01*
X272580000Y28705000D02*
X272580000Y24895000D01*
X261249100Y179741000D02*
X263751000Y179741000D01*
X272580000Y21085000D02*
X272580000Y17275000D01*
D25*
X245275000Y152530000D02*
X245275000Y156340000D01*
X162725000Y117605000D02*
X162725000Y115065000D01*
X162725000Y120145000D02*
X162725000Y117605000D01*
X140500000Y57280000D02*
X140500000Y59820000D01*
D26*
X160185000Y2670000D02*
X142405000Y2670000D01*
X167805000Y4575000D02*
X167805000Y2670000D01*
X167805000Y2670000D02*
X160185000Y2670000D01*
X92240000Y4575000D02*
X92240000Y2670000D01*
X142405000Y2670000D02*
X117640000Y2670000D01*
X142405000Y4575000D02*
X142405000Y2670000D01*
X117640000Y2670000D02*
X92240000Y2670000D01*
X117640000Y4575000D02*
X117640000Y2670000D01*
D25*
X222415000Y65535000D02*
X220039999Y63159999D01*
X222415000Y67440000D02*
X222415000Y65535000D01*
X220039999Y63159999D02*
X219240000Y62360000D01*
X125260000Y62360000D02*
X129070000Y66170000D01*
D27*
X22390000Y162944000D02*
X22390000Y162690000D01*
D25*
X55410000Y167770000D02*
X57188000Y165992000D01*
X57188000Y164468000D02*
X55410000Y162690000D01*
X57188000Y165992000D02*
X57188000Y164468000D01*
X63030000Y159285558D02*
X63030000Y159285000D01*
X59625558Y162690000D02*
X63030000Y159285558D01*
X55410000Y162690000D02*
X59625558Y162690000D01*
X157264000Y159642000D02*
X157264000Y159769000D01*
X157137000Y159515000D02*
X157264000Y159642000D01*
X157264000Y159769000D02*
X160185000Y162690000D01*
X157010000Y159515000D02*
X157137000Y159515000D01*
X66308400Y30102000D02*
X70038700Y26371700D01*
X65062000Y30102000D02*
X66308400Y30102000D01*
X64935000Y29975000D02*
X65062000Y30102000D01*
X170345000Y156745000D02*
X170345000Y155070000D01*
X162725000Y165230000D02*
X162725000Y165103000D01*
X162852000Y164238000D02*
X170345000Y156745000D01*
X162725000Y165103000D02*
X162852000Y164976000D01*
X162852000Y164976000D02*
X162852000Y164238000D01*
D26*
X90335000Y162690000D02*
X90335000Y151256200D01*
X90335000Y117466370D02*
X90335000Y116335000D01*
X90335000Y151256200D02*
X90335000Y117466370D01*
D25*
X136739900Y131565100D02*
X134825000Y133480000D01*
X136739900Y125048100D02*
X136739900Y131565100D01*
X140500000Y121288000D02*
X136739900Y125048100D01*
X140500000Y120145000D02*
X140500000Y121288000D01*
D28*
X192570000Y120145000D02*
X192570000Y117605000D01*
X192570000Y122685000D02*
X192570000Y120145000D01*
X192570000Y117605000D02*
X193795300Y116379700D01*
X157645000Y32515000D02*
X157645000Y34190000D01*
X162725000Y44580000D02*
X162725000Y39270000D01*
X162725000Y39270000D02*
X157645000Y34190000D01*
D26*
X70015000Y4575000D02*
X72555000Y4575000D01*
X67475000Y4575000D02*
X70015000Y4575000D01*
D25*
X102400000Y134750000D02*
X102400000Y133912500D01*
X112560000Y125225000D02*
X112560000Y124821700D01*
D28*
X204000000Y165230000D02*
X204000000Y179200000D01*
X204000000Y179200000D02*
X200190000Y183010000D01*
X162725000Y137290000D02*
X162725000Y139830000D01*
D25*
X132880000Y44580000D02*
X133717500Y44580000D01*
D28*
X170345000Y103635000D02*
X170345000Y106175000D01*
X177330000Y94515000D02*
X177330000Y99420000D01*
X87160000Y125225000D02*
X87160000Y133075000D01*
X35090000Y28300000D02*
X27470000Y20680000D01*
X27470000Y20680000D02*
X27470000Y19815000D01*
X162725000Y149990000D02*
X162725000Y152530000D01*
D25*
X9910600Y122497000D02*
X9911000Y122497400D01*
D27*
X9910600Y122497000D02*
X9911000Y122497000D01*
D26*
X17310000Y165230000D02*
X10325000Y165230000D01*
X10325000Y165230000D02*
X10325000Y133480000D01*
X10325000Y133480000D02*
X7785000Y130940000D01*
X7785000Y130940000D02*
X7785000Y122685000D01*
D27*
X7785000Y122685000D02*
X7972600Y122497000D01*
D26*
X7972600Y122497000D02*
X9910600Y122497000D01*
D28*
X177965000Y147450000D02*
X179640000Y147450000D01*
X179640000Y147450000D02*
X182180000Y144910000D01*
X182180000Y144910000D02*
X185585000Y144910000D01*
X35090000Y29975000D02*
X35090000Y28300000D01*
D26*
X27470000Y19815000D02*
X27470000Y16005000D01*
D28*
X107480000Y37595000D02*
X107480000Y39270000D01*
D25*
X112560000Y44580000D02*
X112560000Y44350000D01*
D28*
X112560000Y44350000D02*
X107480000Y39270000D01*
X179005000Y44580000D02*
X179005000Y46255000D01*
X179005000Y46255000D02*
X184950000Y52200000D01*
X183045000Y34190000D02*
X179005000Y38230000D01*
X179005000Y38230000D02*
X179005000Y44580000D01*
X87160000Y134750000D02*
X87160000Y133075000D01*
X230035000Y142370000D02*
X230035000Y144910000D01*
X192570000Y107445000D02*
X192570000Y104905000D01*
X35090000Y7115000D02*
X35090000Y5440000D01*
D26*
X36207600Y4575000D02*
X57315000Y4575000D01*
D28*
X233845000Y104905000D02*
X233845000Y101730000D01*
X233845000Y101730000D02*
X237655000Y97920000D01*
X177330000Y101095000D02*
X177330000Y99420000D01*
D25*
X177330000Y90300000D02*
X177330000Y87760000D01*
D28*
X183045000Y32515000D02*
X183045000Y34190000D01*
X177330000Y44580000D02*
X179005000Y44580000D01*
X125260000Y77600000D02*
X125260000Y73790000D01*
X104940000Y116335000D02*
X104940000Y118875000D01*
X177330000Y92840000D02*
X177330000Y94515000D01*
D27*
X19805400Y165230000D02*
X19850000Y165230000D01*
D26*
X17310000Y165230000D02*
X19805400Y165230000D01*
X27470000Y12195000D02*
X27470000Y8385000D01*
X27470000Y16005000D02*
X27470000Y12195000D01*
D28*
X230035000Y139830000D02*
X230035000Y142370000D01*
X177330000Y92840000D02*
X177330000Y90300000D01*
D26*
X27470000Y8385000D02*
X27470000Y4575000D01*
D28*
X170345000Y108715000D02*
X170345000Y106175000D01*
X162725000Y152530000D02*
X162725000Y155070000D01*
X147485000Y107445000D02*
X147485000Y104905000D01*
X147485000Y109985000D02*
X147485000Y107445000D01*
D26*
X17310000Y186185000D02*
X17310000Y165230000D01*
X57315000Y4575000D02*
X67475000Y4575000D01*
D28*
X170345000Y123955000D02*
X170345000Y126495000D01*
X177965000Y137290000D02*
X177965000Y139830000D01*
X125260000Y73790000D02*
X125260000Y71250000D01*
X117640000Y77600000D02*
X117640000Y80140000D01*
X207175000Y107445000D02*
X207175000Y104905000D01*
X147485000Y127765000D02*
X147485000Y130940000D01*
D25*
X117640000Y139830000D02*
X117640000Y137290000D01*
D28*
X177330000Y101095000D02*
X177330000Y104905000D01*
X47790000Y127130000D02*
X47790000Y124590000D01*
D26*
X192570000Y4575000D02*
X192570000Y2670000D01*
X192570000Y2670000D02*
X207810000Y2670000D01*
X207810000Y2670000D02*
X222415000Y2670000D01*
D28*
X207810000Y7115000D02*
X207810000Y2670000D01*
D26*
X222415000Y2670000D02*
X230035000Y2670000D01*
X222415000Y4575000D02*
X222415000Y2670000D01*
X230035000Y2670000D02*
X233845000Y2670000D01*
X233845000Y2670000D02*
X252260000Y2670000D01*
D28*
X252260000Y7115000D02*
X252260000Y2670000D01*
X57315000Y7115000D02*
X57315000Y4575000D01*
X259880000Y165230000D02*
X259880000Y162690000D01*
X140500000Y183010000D02*
X140500000Y185550000D01*
X125260000Y183010000D02*
X125260000Y185550000D01*
D26*
X233845000Y4575000D02*
X233845000Y2670000D01*
D28*
X35090000Y5440000D02*
X35090000Y4575000D01*
D26*
X35090000Y4575000D02*
X36207600Y4575000D01*
X27470000Y4575000D02*
X35090000Y4575000D01*
D25*
X234480000Y4575000D02*
X233845000Y4575000D01*
D28*
X237020000Y7115000D02*
X234480000Y4575000D01*
X75095000Y7115000D02*
X72555000Y4575000D01*
X75095000Y9655000D02*
X75095000Y7115000D01*
X168670000Y144910000D02*
X163590000Y149990000D01*
D25*
X163590000Y149990000D02*
X162725000Y149990000D01*
D28*
X170345000Y144910000D02*
X168670000Y144910000D01*
D26*
X230035000Y4575000D02*
X230035000Y2670000D01*
D25*
X132880000Y43342400D02*
X132880000Y44580000D01*
D28*
X132880000Y32515000D02*
X132880000Y43342400D01*
X193840000Y108715000D02*
X192570000Y107445000D01*
X193840000Y116335000D02*
X193840000Y108715000D01*
X193795300Y116379700D02*
X193840000Y116335000D01*
X205778000Y108842000D02*
X207175000Y107445000D01*
X207175000Y115065000D02*
X205778000Y113668000D01*
X205778000Y113668000D02*
X205778000Y108842000D01*
X213398000Y106302000D02*
X213398000Y111128000D01*
X214795000Y104905000D02*
X213398000Y106302000D01*
X213398000Y111128000D02*
X214795000Y112525000D01*
X131610000Y81410000D02*
X132880000Y82680000D01*
X131610000Y76330000D02*
X131610000Y81410000D01*
X132880000Y75060000D02*
X131610000Y76330000D01*
X101149999Y146199999D02*
X102400000Y147450000D01*
X101149999Y141588001D02*
X101149999Y146199999D01*
X102996301Y141119999D02*
X101618001Y141119999D01*
X103625400Y140490900D02*
X102996301Y141119999D01*
X103625400Y140454602D02*
X103625400Y140490900D01*
X103650001Y136689999D02*
X103650001Y140430001D01*
X101618001Y141119999D02*
X101149999Y141588001D01*
X103625400Y136665398D02*
X103650001Y136689999D01*
X103650001Y140430001D02*
X103625400Y140454602D01*
X103625400Y135975400D02*
X103625400Y136665398D01*
X102400000Y134750000D02*
X103625400Y135975400D01*
X102400000Y121669000D02*
X102400000Y134750000D01*
X104940000Y119129000D02*
X102400000Y121669000D01*
X104940000Y118875000D02*
X104940000Y119129000D01*
X107226000Y118875000D02*
X104940000Y118875000D01*
X112560000Y124209000D02*
X107226000Y118875000D01*
X112560000Y124821700D02*
X112560000Y124209000D01*
X133717500Y43342400D02*
X132880000Y43342400D01*
X133749900Y43310000D02*
X133717500Y43342400D01*
X142405000Y43310000D02*
X133749900Y43310000D01*
X143675000Y44580000D02*
X142405000Y43310000D01*
X171869000Y53724000D02*
X170345000Y52200000D01*
X171869000Y55248000D02*
X171869000Y53724000D01*
X174716000Y58095000D02*
X171869000Y55248000D01*
X174716000Y59746000D02*
X174716000Y58095000D01*
X177330000Y62360000D02*
X174716000Y59746000D01*
X171742000Y127892000D02*
X170345000Y126495000D01*
X171742000Y134218000D02*
X171742000Y127892000D01*
X170345000Y135615000D02*
X171742000Y134218000D01*
X170345000Y137290000D02*
X170345000Y135615000D01*
X183680000Y76330000D02*
X183680000Y81410000D01*
X184950000Y75060000D02*
X183680000Y76330000D01*
X183680000Y81410000D02*
X184950000Y82680000D01*
X19850000Y146180000D02*
X18580000Y144910000D01*
X19850000Y165185400D02*
X19850000Y146180000D01*
X19805400Y165230000D02*
X19850000Y165185400D01*
X106083000Y36198000D02*
X107480000Y37595000D01*
X106083000Y33912000D02*
X106083000Y36198000D01*
X107480000Y32515000D02*
X106083000Y33912000D01*
X200190000Y103230000D02*
X200190000Y104905000D01*
X200698000Y102722000D02*
X200190000Y103230000D01*
X200698000Y95658000D02*
X200698000Y102722000D01*
X200190000Y95150000D02*
X200698000Y95658000D01*
X200190000Y93475000D02*
X200190000Y95150000D01*
X221653000Y153292000D02*
X230035000Y144910000D01*
X221653000Y158753000D02*
X221653000Y153292000D01*
X222415000Y159515000D02*
X221653000Y158753000D01*
D26*
X276709000Y19880000D02*
X280708000Y19880000D01*
X275755000Y18926000D02*
X276709000Y19880000D01*
X275755000Y2670000D02*
X275755000Y18926000D01*
X252260000Y2670000D02*
X275755000Y2670000D01*
D28*
X131545012Y138624988D02*
X132880000Y137290000D01*
X131545012Y141035012D02*
X131545012Y138624988D01*
X132880000Y142370000D02*
X131545012Y141035012D01*
D25*
X47790000Y94745000D02*
X49052400Y93482600D01*
X49052400Y93482600D02*
X49052400Y65682700D01*
X49052400Y65682700D02*
X48269700Y64900000D01*
X48269700Y64900000D02*
X47311000Y64900000D01*
X47311000Y64900000D02*
X45938200Y63527200D01*
X45938200Y63527200D02*
X45938200Y57861800D01*
X45938200Y57861800D02*
X47790000Y56010000D01*
X27470000Y167770000D02*
X30586400Y167770000D01*
X30586400Y167770000D02*
X33096000Y165260400D01*
X33096000Y165260400D02*
X33096000Y153511500D01*
X33096000Y153511500D02*
X33784800Y152822700D01*
X33784800Y152822700D02*
X33784800Y111370600D01*
X33784800Y111370600D02*
X33620000Y111205800D01*
X33620000Y111205800D02*
X33620000Y109323200D01*
X33620000Y109323200D02*
X33784800Y109158400D01*
X33784800Y109158400D02*
X33784800Y50659600D01*
X33784800Y50659600D02*
X34879600Y49564800D01*
X115227000Y163294500D02*
X115227000Y165230000D01*
X145502200Y142342500D02*
X145502200Y157612600D01*
X138294001Y166074001D02*
X136355999Y166074001D01*
X144828900Y141669200D02*
X145502200Y142342500D01*
X149801700Y139168600D02*
X148670330Y139168600D01*
X146913100Y138560000D02*
X144828900Y140644200D01*
X145502200Y157612600D02*
X139157500Y163957300D01*
X144828900Y140644200D02*
X144828900Y141669200D01*
X139157500Y163957300D02*
X139157500Y165210502D01*
X135718999Y162232454D02*
X128450445Y154963900D01*
X123557600Y154963900D02*
X115227000Y163294500D01*
X148061730Y138560000D02*
X146913100Y138560000D01*
X136355999Y166074001D02*
X135718999Y165437001D01*
X128450445Y154963900D02*
X123557600Y154963900D01*
X135718999Y165437001D02*
X135718999Y162232454D01*
X148670330Y139168600D02*
X148061730Y138560000D01*
X139157500Y165210502D02*
X138294001Y166074001D01*
X63030000Y165230000D02*
X58048400Y170211600D01*
X58048400Y170211600D02*
X58048400Y172570700D01*
X207175000Y142370000D02*
X208405700Y141139300D01*
X208405700Y141139300D02*
X208405700Y125570300D01*
X208405700Y125570300D02*
X210267900Y123708100D01*
X210267900Y123708100D02*
X210267900Y85887500D01*
X45250000Y163555000D02*
X47957000Y160848000D01*
X47957000Y160848000D02*
X47957000Y159428100D01*
X47957000Y159428100D02*
X49328400Y158056700D01*
X49328400Y158056700D02*
X49328400Y153791500D01*
X45250000Y165230000D02*
X45250000Y163555000D01*
X207175000Y142370000D02*
X203409990Y146135010D01*
X203409990Y154552524D02*
X202797514Y155165000D01*
X203409990Y146135010D02*
X203409990Y154552524D01*
X113233500Y159476500D02*
X112466360Y159476500D01*
X125260000Y147450000D02*
X113233500Y159476500D01*
X112466360Y159476500D02*
X111334990Y159476500D01*
X49291000Y161326358D02*
X49291000Y160194988D01*
X49291000Y163729000D02*
X49291000Y161326358D01*
X45250000Y167770000D02*
X49291000Y163729000D01*
X35090000Y160150000D02*
X35090000Y175390000D01*
X35090000Y175390000D02*
X37630000Y177930000D01*
X109121800Y159458400D02*
X109121800Y156764700D01*
X109121800Y156764700D02*
X117166500Y148720000D01*
X117166500Y148720000D02*
X118173600Y148720000D01*
X118173600Y148720000D02*
X118954600Y147939000D01*
X118954600Y147939000D02*
X118954600Y143684600D01*
X118954600Y143684600D02*
X117640000Y142370000D01*
X44751601Y160994989D02*
X45551600Y160194990D01*
X43993600Y169053600D02*
X43993600Y161752990D01*
X45250000Y170310000D02*
X43993600Y169053600D01*
X43993600Y161752990D02*
X44751601Y160994989D01*
X37630000Y175390000D02*
X41991300Y171028700D01*
X41991300Y171028700D02*
X41991300Y143679700D01*
X80175000Y101095000D02*
X80175000Y98555000D01*
X94275100Y138560000D02*
X95255300Y138560000D01*
X96042100Y137773200D02*
X96042100Y136012100D01*
X95266400Y148720000D02*
X94237100Y148720000D01*
X96042100Y136012100D02*
X94780000Y134750000D01*
X93461500Y145500796D02*
X93461500Y139373600D01*
X93465002Y145504298D02*
X93461500Y145500796D01*
X93461500Y139373600D02*
X94275100Y138560000D01*
X93465002Y147947902D02*
X93465002Y145504298D01*
X99860000Y171580000D02*
X99860000Y155666100D01*
X94237100Y148720000D02*
X93465002Y147947902D01*
X96049500Y149503100D02*
X95266400Y148720000D01*
X96049500Y151855600D02*
X96049500Y149503100D01*
X99860000Y155666100D02*
X96049500Y151855600D01*
X95255300Y138560000D02*
X96042100Y137773200D01*
X245275000Y112525000D02*
X250542500Y117792500D01*
X250542500Y117792500D02*
X250542500Y127007500D01*
X250542500Y127007500D02*
X257605400Y134070400D01*
X257605400Y134070400D02*
X260512500Y134070400D01*
X260512500Y134070400D02*
X266250300Y139808200D01*
X266250300Y139808200D02*
X266250300Y174742300D01*
X273390900Y133057400D02*
X275631100Y133057400D01*
X259343100Y123320000D02*
X263653500Y123320000D01*
X256843800Y120820700D02*
X259343100Y123320000D01*
X255157900Y120820700D02*
X256843800Y120820700D01*
X244737800Y111255000D02*
X245791100Y111255000D01*
X263653500Y123320000D02*
X273390900Y133057400D01*
X245791100Y111255000D02*
X251169500Y116633400D01*
X238387800Y104905000D02*
X244737800Y111255000D01*
X252723800Y117789200D02*
X253530000Y118595400D01*
X237655000Y104905000D02*
X238387800Y104905000D01*
X276414300Y133840600D02*
X276414300Y174578300D01*
X251169500Y116830200D02*
X252128500Y117789200D01*
X275631100Y133057400D02*
X276414300Y133840600D01*
X251169500Y116633400D02*
X251169500Y116830200D01*
X253530000Y119192800D02*
X255157900Y120820700D01*
X276414300Y174578300D02*
X276250300Y174742300D01*
X252128500Y117789200D02*
X252723800Y117789200D01*
X253530000Y118595400D02*
X253530000Y119192800D01*
X53346600Y177961500D02*
X51780500Y176395400D01*
X51780500Y176395400D02*
X51780500Y146360500D01*
X51780500Y146360500D02*
X47790000Y142370000D01*
X72555000Y62360000D02*
X71329600Y61134600D01*
X71329600Y61134600D02*
X71329600Y51293500D01*
X71329600Y51293500D02*
X73478000Y49145100D01*
X14912200Y62497500D02*
X30292100Y77877400D01*
X30292100Y77877400D02*
X30292100Y120684000D01*
X30292100Y120684000D02*
X29611700Y121364400D01*
X29611700Y121364400D02*
X29611700Y136689500D01*
X29611700Y136689500D02*
X32223500Y139301300D01*
X27470000Y44350000D02*
X27393300Y44350000D01*
X27393300Y44350000D02*
X26244600Y45498700D01*
X26244600Y45498700D02*
X26244600Y51165100D01*
X26244600Y51165100D02*
X14912200Y62497500D01*
X27470000Y42675000D02*
X27470000Y44350000D01*
X66195600Y133459800D02*
X66195600Y131028800D01*
X66195600Y131028800D02*
X63566800Y128400000D01*
X63566800Y128400000D02*
X62557700Y128400000D01*
X62557700Y128400000D02*
X61790700Y127633000D01*
X61790700Y127633000D02*
X61790700Y123364600D01*
X61790700Y123364600D02*
X64957300Y120198000D01*
X64957300Y120198000D02*
X64957300Y67440000D01*
X75398100Y47871300D02*
X72323100Y44796300D01*
X72323100Y44796300D02*
X71143400Y44796300D01*
X71143400Y44796300D02*
X64957400Y50982300D01*
X64957400Y50982300D02*
X64957400Y67440000D01*
X64957400Y67440000D02*
X64957300Y67440000D01*
X27470000Y29110000D02*
X27365300Y29110000D01*
X27365300Y29110000D02*
X22402800Y34072500D01*
X22402800Y34072500D02*
X22402800Y50368400D01*
X22402800Y50368400D02*
X16523400Y56247800D01*
X16523400Y56247800D02*
X13785200Y56247800D01*
X13785200Y56247800D02*
X11284500Y58748500D01*
X11284500Y58748500D02*
X9462800Y58748500D01*
X9462800Y58748500D02*
X8710500Y59500800D01*
X8710500Y59500800D02*
X8710500Y62991200D01*
X8710500Y62991200D02*
X9466500Y63747200D01*
X9466500Y63747200D02*
X13662500Y63747200D01*
X13662500Y63747200D02*
X14912200Y64996900D01*
X72555000Y57280000D02*
X75398100Y54436900D01*
X75398100Y54436900D02*
X75398100Y47871300D01*
X27470000Y27435000D02*
X27470000Y29110000D01*
X66249990Y170125400D02*
X66109990Y170265400D01*
X66249990Y160427810D02*
X66249990Y170125400D01*
X66995599Y159682201D02*
X66249990Y160427810D01*
X66195600Y133459800D02*
X66995599Y134259799D01*
X66995599Y134259799D02*
X66995599Y159682201D01*
X92240000Y94110000D02*
X80175000Y106175000D01*
X45250000Y123149100D02*
X45250000Y146585000D01*
X45250000Y146585000D02*
X46115000Y147450000D01*
X222415000Y170002100D02*
X226127900Y170002100D01*
X226127900Y170002100D02*
X228360000Y167770000D01*
X222415000Y170310000D02*
X222415000Y170002100D01*
X45250000Y115065000D02*
X45250000Y123149100D01*
X47790000Y147450000D02*
X46115000Y147450000D01*
X230035000Y167770000D02*
X228360000Y167770000D01*
X226150900Y42296510D02*
X226150900Y121087200D01*
X214962800Y158882000D02*
X214962800Y160317800D01*
X225564300Y148280500D02*
X214962800Y158882000D01*
X225564300Y121673800D02*
X225564300Y148280500D01*
X214962800Y162549900D02*
X214962800Y160317800D01*
X218014990Y34160600D02*
X226150900Y42296510D01*
X222415000Y170002100D02*
X214962800Y162549900D01*
X226150900Y121087200D02*
X225564300Y121673800D01*
X142332700Y141662700D02*
X142332700Y156237098D01*
X140500000Y139830000D02*
X142332700Y141662700D01*
X142332700Y156237098D02*
X138617700Y159952098D01*
X72555000Y69980000D02*
X73845600Y68689400D01*
X73845600Y68689400D02*
X73845600Y60952000D01*
X73845600Y60952000D02*
X77004700Y57792900D01*
X77004700Y57792900D02*
X77004700Y51162200D01*
X77004700Y51162200D02*
X81101900Y47065000D01*
X81101900Y47065000D02*
X81101900Y42829800D01*
X32437500Y69980000D02*
X31300700Y71116800D01*
X31300700Y71116800D02*
X31300700Y124538900D01*
X31300700Y124538900D02*
X30839800Y124999800D01*
X27470000Y38865000D02*
X27470000Y40540000D01*
X27470000Y40540000D02*
X27574700Y40540000D01*
X27574700Y40540000D02*
X32437500Y45402800D01*
X32437500Y45402800D02*
X32437500Y69980000D01*
X80175000Y177930000D02*
X74406200Y172161200D01*
X74406200Y172161200D02*
X74406200Y132880700D01*
X74406200Y132880700D02*
X74450500Y132836400D01*
X68982300Y136395800D02*
X68448300Y135861800D01*
X68448300Y135861800D02*
X68448300Y109036200D01*
X68448300Y109036200D02*
X69448400Y108036100D01*
X69448400Y108036100D02*
X69448400Y79841500D01*
X69448400Y79841500D02*
X69448500Y79841500D01*
X69448500Y79841500D02*
X72555000Y76735000D01*
X84390000Y45761200D02*
X84390000Y40686000D01*
X84390000Y40686000D02*
X81646800Y37942800D01*
X68982300Y136395800D02*
X69770900Y137184400D01*
X69770900Y137184400D02*
X69770900Y170065900D01*
X69770900Y170065900D02*
X72555000Y172850000D01*
X72555000Y75060000D02*
X72555000Y76735000D01*
X84390000Y45761200D02*
X78949600Y51201600D01*
X78949600Y51201600D02*
X78949600Y62175500D01*
X78949600Y62175500D02*
X75585400Y65539700D01*
X75585400Y65539700D02*
X75585400Y72029600D01*
X75585400Y72029600D02*
X72555000Y75060000D01*
X90428640Y46604800D02*
X91560010Y46604800D01*
X85233600Y46604800D02*
X90428640Y46604800D01*
X84390000Y45761200D02*
X85233600Y46604800D01*
X201865000Y4575000D02*
X205675000Y8385000D01*
X205675000Y8385000D02*
X209389800Y8385000D01*
X209389800Y8385000D02*
X211903300Y5871500D01*
X211903300Y5871500D02*
X216418200Y5871500D01*
X216418200Y5871500D02*
X216677700Y6131000D01*
X216677700Y6131000D02*
X216677700Y10257500D01*
X216677700Y10257500D02*
X216054900Y10880300D01*
X216054900Y10880300D02*
X214985800Y10880300D01*
X214985800Y10880300D02*
X214204600Y11661500D01*
X214204600Y11661500D02*
X214204600Y42906800D01*
X214204600Y42906800D02*
X213531600Y43579800D01*
X213531600Y43579800D02*
X213531600Y66996400D01*
X213531600Y66996400D02*
X213738200Y67203000D01*
X213738200Y67203000D02*
X213738200Y70151700D01*
X213738200Y70151700D02*
X216669800Y73083300D01*
X216669800Y73083300D02*
X216669800Y85161700D01*
X216669800Y85161700D02*
X215341500Y86490000D01*
X215341500Y86490000D02*
X213569600Y86490000D01*
X200190000Y4575000D02*
X201865000Y4575000D01*
X213569600Y86490000D02*
X211468500Y88591100D01*
X211468500Y88591100D02*
X211468500Y124205500D01*
X211468500Y124205500D02*
X210206600Y125467400D01*
X210206600Y125467400D02*
X210206600Y153124700D01*
X210206600Y153124700D02*
X209146800Y154184500D01*
X49465000Y97285000D02*
X53049400Y100869400D01*
X53049400Y100869400D02*
X53049400Y135031600D01*
X53049400Y135031600D02*
X58211500Y140193700D01*
X58211500Y140193700D02*
X58211500Y146846500D01*
X58211500Y146846500D02*
X61355000Y149990000D01*
X63030000Y149990000D02*
X61355000Y149990000D01*
X47790000Y97285000D02*
X49465000Y97285000D01*
X40370400Y97159000D02*
X36649300Y100880100D01*
X36649300Y100880100D02*
X36649300Y102587000D01*
X36649300Y102587000D02*
X36721700Y102659400D01*
X36721700Y102659400D02*
X36721700Y115743900D01*
X36721700Y115743900D02*
X35838100Y116627500D01*
X35090000Y14735000D02*
X38315400Y17960400D01*
X38315400Y17960400D02*
X38315400Y95104000D01*
X38315400Y95104000D02*
X40370400Y97159000D01*
X117640000Y170310000D02*
X115299700Y170310000D01*
X115299700Y170310000D02*
X103687700Y158698000D01*
X103687700Y158698000D02*
X103687700Y158407500D01*
X103687700Y158407500D02*
X97752000Y152471800D01*
X97752000Y152471800D02*
X97752000Y151797800D01*
X213569600Y86490000D02*
X213569600Y83905400D01*
X213569600Y83905400D02*
X214795000Y82680000D01*
X130848000Y164214000D02*
X130848000Y160023000D01*
X127292000Y167770000D02*
X130848000Y164214000D01*
X125260000Y167770000D02*
X127292000Y167770000D01*
X61355000Y152530000D02*
X55992700Y147167700D01*
X55992700Y147167700D02*
X55992700Y142027600D01*
X55992700Y142027600D02*
X50899700Y136934600D01*
X50899700Y136934600D02*
X50899700Y104439200D01*
X50899700Y104439200D02*
X49280900Y102820400D01*
X49280900Y102820400D02*
X49280900Y101315900D01*
X49280900Y101315900D02*
X47790000Y99825000D01*
X212931300Y67710600D02*
X212931300Y43331000D01*
X212931300Y43331000D02*
X213390900Y42871400D01*
X213390900Y42871400D02*
X213390900Y16037400D01*
X213390900Y16037400D02*
X208278500Y10925000D01*
X208278500Y10925000D02*
X205675000Y10925000D01*
X205675000Y10925000D02*
X201865000Y7115000D01*
X214795000Y85220000D02*
X216062500Y83952500D01*
X216062500Y83952500D02*
X216062500Y73490100D01*
X216062500Y73490100D02*
X212931300Y70358900D01*
X212931300Y70358900D02*
X212931300Y67710600D01*
X212512900Y67710600D02*
X212931300Y67710600D01*
X140500000Y167770000D02*
X142905400Y167770000D01*
X142905400Y167770000D02*
X152660300Y158015100D01*
X152660300Y158015100D02*
X152660300Y153230400D01*
X152660300Y153230400D02*
X154630700Y151260000D01*
X154630700Y151260000D02*
X155671800Y151260000D01*
X155671800Y151260000D02*
X158150300Y148781500D01*
X158150300Y148781500D02*
X158150300Y111556800D01*
X158150300Y111556800D02*
X162217500Y107489600D01*
X162217500Y107489600D02*
X163192300Y107489600D01*
X163192300Y107489600D02*
X163995000Y106686900D01*
X163995000Y106686900D02*
X163995000Y87255200D01*
X163995000Y87255200D02*
X163229800Y86490000D01*
X163229800Y86490000D02*
X162255600Y86490000D01*
X162255600Y86490000D02*
X161492600Y85727000D01*
X161492600Y85727000D02*
X161492600Y74435000D01*
X161492600Y74435000D02*
X163138500Y72789100D01*
X163138500Y72789100D02*
X163138500Y70630700D01*
X200190000Y7115000D02*
X201865000Y7115000D01*
X37443400Y98165800D02*
X35445600Y100163600D01*
X35445600Y100163600D02*
X35445600Y110449600D01*
X35090000Y22355000D02*
X35090000Y24030000D01*
X35090000Y24030000D02*
X37443400Y26383400D01*
X37443400Y26383400D02*
X37443400Y98165800D01*
X63030000Y152530000D02*
X61355000Y152530000D01*
X104288000Y158399900D02*
X104288000Y157198400D01*
X104288000Y157198400D02*
X100925800Y153836200D01*
X118910000Y166455400D02*
X114639396Y166455400D01*
X131565400Y168995400D02*
X121450000Y168995400D01*
X114001998Y165818002D02*
X114001998Y164920098D01*
X132880000Y170310000D02*
X131565400Y168995400D01*
X121450000Y168995400D02*
X118910000Y166455400D01*
X114639396Y166455400D02*
X114001998Y165818002D01*
X108514900Y162626800D02*
X104288000Y158399900D01*
X111708700Y162626800D02*
X108514900Y162626800D01*
X114001998Y164920098D02*
X111708700Y162626800D01*
X45250000Y102365000D02*
X43575000Y102365000D01*
X43575000Y102365000D02*
X43389300Y102179300D01*
X43389300Y102179300D02*
X43389300Y64141400D01*
X43389300Y64141400D02*
X42727100Y63479200D01*
X42727100Y63479200D02*
X42727100Y49690100D01*
X42727100Y49690100D02*
X45837400Y46579800D01*
X45837400Y46579800D02*
X45837400Y15322400D01*
X45837400Y15322400D02*
X42710000Y12195000D01*
X207175000Y85220000D02*
X209685600Y82709400D01*
X209685600Y82709400D02*
X209685600Y14871600D01*
X209685600Y14871600D02*
X208279100Y13465100D01*
X208279100Y13465100D02*
X205675100Y13465100D01*
X205675100Y13465100D02*
X201865000Y9655000D01*
X200190000Y9655000D02*
X201865000Y9655000D01*
X63030000Y155070000D02*
X55392400Y147432400D01*
X55392400Y147432400D02*
X55392400Y142276300D01*
X55392400Y142276300D02*
X50299400Y137183300D01*
X50299400Y137183300D02*
X50299400Y104874400D01*
X50299400Y104874400D02*
X47790000Y102365000D01*
X178695400Y134400600D02*
X178695400Y94461300D01*
X156780000Y167770000D02*
X160557200Y171547200D01*
X155105000Y167770000D02*
X156780000Y167770000D01*
X167708100Y167129400D02*
X167708100Y165116500D01*
X173530200Y152571900D02*
X175385500Y150716600D01*
X175385500Y137710500D02*
X178695400Y134400600D01*
X160557200Y171547200D02*
X163290300Y171547200D01*
X167708100Y165116500D02*
X173530200Y159294400D01*
X175385500Y150716600D02*
X175385500Y137710500D01*
X163290300Y171547200D02*
X167708100Y167129400D01*
X173530200Y159294400D02*
X173530200Y152571900D01*
X146170400Y168995400D02*
X146685001Y169510001D01*
X128851202Y156213200D02*
X135118988Y162480986D01*
X146685001Y169510001D02*
X147485000Y170310000D01*
X124101600Y156213200D02*
X128851202Y156213200D01*
X135118988Y165685533D02*
X138428855Y168995400D01*
X138428855Y168995400D02*
X146170400Y168995400D01*
X135118988Y162480986D02*
X135118988Y165685533D01*
X209035400Y163960300D02*
X203517800Y163960300D01*
X203517800Y163960300D02*
X202616000Y164862100D01*
X202616000Y164862100D02*
X202616000Y167145800D01*
X202616000Y167145800D02*
X200766500Y168995300D01*
X200766500Y168995300D02*
X189987200Y168995300D01*
X189987200Y168995300D02*
X187402500Y171580000D01*
X187402500Y171580000D02*
X183228200Y171580000D01*
X183228200Y171580000D02*
X180732800Y174075400D01*
X180732800Y174075400D02*
X159444100Y174075400D01*
X159444100Y174075400D02*
X156859500Y176660000D01*
X156859500Y176660000D02*
X152748200Y176660000D01*
X152748200Y176660000D02*
X150208200Y179200000D01*
X150208200Y179200000D02*
X124051800Y179200000D01*
X124051800Y179200000D02*
X118965400Y184286400D01*
X118965400Y184286400D02*
X115639100Y184286400D01*
X115639100Y184286400D02*
X115000200Y183647500D01*
X115000200Y183647500D02*
X108414700Y183647500D01*
X108414700Y183647500D02*
X102697200Y177930000D01*
X102697200Y177930000D02*
X99306400Y177930000D01*
X99306400Y177930000D02*
X98036400Y179200000D01*
X98036400Y179200000D02*
X93267700Y179200000D01*
X93267700Y179200000D02*
X87583900Y184883800D01*
X87583900Y184883800D02*
X71381100Y184883800D01*
X71381100Y184883800D02*
X65697300Y179200000D01*
X65697300Y179200000D02*
X52852300Y179200000D01*
X52852300Y179200000D02*
X51154100Y177501800D01*
X51154100Y177501800D02*
X51154100Y151435700D01*
X51154100Y151435700D02*
X49708400Y149990000D01*
X49708400Y149990000D02*
X49465000Y149990000D01*
X46520000Y112525000D02*
X46520000Y145394200D01*
X46520000Y145394200D02*
X47305800Y146180000D01*
X47305800Y146180000D02*
X48258900Y146180000D01*
X48258900Y146180000D02*
X49465000Y147386100D01*
X49465000Y147386100D02*
X49465000Y149990000D01*
X209035400Y167770000D02*
X209035400Y163960300D01*
X209035400Y167770000D02*
X213755000Y167770000D01*
X209035400Y167770000D02*
X209035400Y169084600D01*
X209035400Y169084600D02*
X207810000Y170310000D01*
X215430000Y167770000D02*
X213755000Y167770000D01*
X47790000Y149990000D02*
X49465000Y149990000D01*
X46520000Y112525000D02*
X46925000Y112525000D01*
X45250000Y112525000D02*
X46520000Y112525000D01*
X47790000Y112525000D02*
X46925000Y112525000D01*
X217487100Y31866970D02*
X217487100Y30735600D01*
X225522300Y120480200D02*
X225522300Y61174900D01*
X225522300Y61174900D02*
X222897400Y58550000D01*
X217398000Y54060800D02*
X217398000Y35356614D01*
X222897400Y58550000D02*
X221887200Y58550000D01*
X221887200Y58550000D02*
X217398000Y54060800D01*
X217398000Y35356614D02*
X216789988Y34748602D01*
X216789988Y34748602D02*
X216789988Y32564082D01*
X224874000Y148121700D02*
X224874000Y121128500D01*
X209035400Y163960300D02*
X224874000Y148121700D01*
X224874000Y121128500D02*
X225522300Y120480200D01*
X216789988Y32564082D02*
X217487100Y31866970D01*
X21075400Y31289600D02*
X26155400Y26209600D01*
X21075400Y50846600D02*
X21075400Y31289600D01*
X14160900Y52719500D02*
X19202500Y52719500D01*
X10569000Y56311400D02*
X14160900Y52719500D01*
X9372600Y56311400D02*
X10569000Y56311400D01*
X8060000Y57624000D02*
X9372600Y56311400D01*
X19202500Y52719500D02*
X21075400Y50846600D01*
X16141900Y106266500D02*
X16141900Y96972100D01*
X16141900Y96972100D02*
X15418900Y96249100D01*
X33775400Y31534900D02*
X33775400Y36280400D01*
X26155400Y26209600D02*
X28450100Y26209600D01*
X11990600Y72867700D02*
X10370700Y71247800D01*
X14909700Y107498700D02*
X16141900Y106266500D01*
X28450100Y26209600D02*
X33775400Y31534900D01*
X11990600Y93836300D02*
X11990600Y72867700D01*
X33775400Y36280400D02*
X35090000Y37595000D01*
X14403400Y96249100D02*
X11990600Y93836300D01*
X15418900Y96249100D02*
X14403400Y96249100D01*
X9444100Y71247800D02*
X8060000Y69863700D01*
X10370700Y71247800D02*
X9444100Y71247800D01*
X8060000Y69863700D02*
X8060000Y57624000D01*
X63030000Y147450000D02*
X64855600Y149275600D01*
X64855600Y149275600D02*
X64855600Y159275200D01*
X64855600Y159275200D02*
X64255300Y159875500D01*
X64255300Y159875500D02*
X64255300Y166544700D01*
X64255300Y166544700D02*
X63030000Y167770000D01*
X58145000Y115895200D02*
X57503000Y116537200D01*
X57503000Y116537200D02*
X57503000Y137787200D01*
X57503000Y137787200D02*
X61204300Y141488500D01*
X61204300Y141488500D02*
X61204300Y143988800D01*
X61204300Y143988800D02*
X61804600Y144589100D01*
X61804600Y144589100D02*
X61804600Y146224600D01*
X61804600Y146224600D02*
X63030000Y147450000D01*
X58145000Y115895200D02*
X57260700Y115010900D01*
X57260700Y115010900D02*
X57260700Y82765700D01*
X57260700Y82765700D02*
X55951300Y81456300D01*
X55951300Y81456300D02*
X55951300Y78734800D01*
X55951300Y78734800D02*
X56649900Y78036200D01*
X56649900Y78036200D02*
X56649900Y68196500D01*
X56649900Y68196500D02*
X55893400Y67440000D01*
X55893400Y67440000D02*
X54882300Y67440000D01*
X54882300Y67440000D02*
X49802300Y62360000D01*
X49802300Y62360000D02*
X47245800Y62360000D01*
X47245800Y62360000D02*
X46538500Y61652700D01*
X46538500Y61652700D02*
X46538500Y59801500D01*
X46538500Y59801500D02*
X47790000Y58550000D01*
X47790000Y58550000D02*
X59360700Y46979300D01*
X59360700Y46979300D02*
X59360700Y12689300D01*
X59360700Y12689300D02*
X64935000Y7115000D01*
X228099100Y73690100D02*
X228099100Y122487100D01*
X228099100Y122487100D02*
X238895200Y133283200D01*
X238895200Y133283200D02*
X238895200Y151289800D01*
X238895200Y151289800D02*
X237655000Y152530000D01*
X72555000Y72520000D02*
X68779700Y76295300D01*
X68779700Y76295300D02*
X68779700Y105706000D01*
X68779700Y105706000D02*
X67748000Y106737700D01*
X67748000Y106737700D02*
X67748000Y149250900D01*
X67748000Y149250900D02*
X68992700Y150495600D01*
X68992700Y150495600D02*
X68992700Y176907700D01*
X68992700Y176907700D02*
X72555000Y180470000D01*
X72555000Y72520000D02*
X74595100Y70479900D01*
X74595100Y70479900D02*
X74595100Y64754200D01*
X74595100Y64754200D02*
X78349200Y61000100D01*
X78349200Y61000100D02*
X78349200Y50666800D01*
X78349200Y50666800D02*
X82952300Y46063700D01*
X82952300Y46063700D02*
X82952300Y42230900D01*
X9911000Y127498700D02*
X11120800Y126288900D01*
X11120800Y126288900D02*
X11120800Y119481000D01*
X11120800Y119481000D02*
X10388100Y118748300D01*
X10388100Y118748300D02*
X9474700Y118748300D01*
X9474700Y118748300D02*
X3036500Y112310100D01*
X3036500Y112310100D02*
X3036500Y57677300D01*
X69010200Y48763000D02*
X71706800Y46066400D01*
X71706800Y46066400D02*
X71706800Y46045600D01*
X72555000Y67440000D02*
X69010200Y63895200D01*
X69010200Y63895200D02*
X69010200Y48763000D01*
X72555000Y67440000D02*
X66249700Y73745300D01*
X66249700Y73745300D02*
X66249700Y123910300D01*
X66249700Y123910300D02*
X63030000Y127130000D01*
X80175000Y170310000D02*
X76096000Y166231000D01*
X76096000Y166231000D02*
X76096000Y138663000D01*
X76096000Y138663000D02*
X76892300Y137866700D01*
X76892300Y137866700D02*
X76892300Y136373300D01*
X76892300Y136373300D02*
X76176700Y135657700D01*
X76176700Y135657700D02*
X76176700Y132829600D01*
X76176700Y132829600D02*
X74628500Y131281400D01*
X74628500Y131281400D02*
X74628500Y128434300D01*
X125260000Y49660000D02*
X128339200Y49660000D01*
X128339200Y49660000D02*
X132104600Y53425400D01*
X132104600Y53425400D02*
X135304500Y53425400D01*
X135304500Y53425400D02*
X136619100Y54740000D01*
X136619100Y54740000D02*
X140500000Y54740000D01*
X68956600Y48763000D02*
X68806087Y48913513D01*
X69010200Y48763000D02*
X68956600Y48763000D01*
X60456000Y64900000D02*
X59836500Y65519500D01*
X59836500Y65519500D02*
X59836500Y80340700D01*
X59836500Y80340700D02*
X60395300Y80899500D01*
X60395300Y80899500D02*
X60395300Y116311400D01*
X60395300Y116311400D02*
X58764500Y117942200D01*
X58764500Y117942200D02*
X58764500Y137350700D01*
X58764500Y137350700D02*
X63030000Y141616200D01*
X63030000Y141616200D02*
X63030000Y142370000D01*
X55410000Y177930000D02*
X52954900Y175474900D01*
X52954900Y175474900D02*
X52954900Y145416200D01*
X52954900Y145416200D02*
X51783800Y144245100D01*
X64935000Y12195000D02*
X61056300Y16073700D01*
X61056300Y16073700D02*
X61056300Y64299700D01*
X61056300Y64299700D02*
X60456000Y64900000D01*
X9911000Y102497400D02*
X11115400Y101293000D01*
X11115400Y101293000D02*
X11115400Y79499600D01*
X11115400Y79499600D02*
X10362900Y78747100D01*
X10362900Y78747100D02*
X9417200Y78747100D01*
X9417200Y78747100D02*
X7128200Y76458100D01*
X7128200Y76458100D02*
X7128200Y70721500D01*
X59170000Y111607900D02*
X59370400Y111808300D01*
X59370400Y111808300D02*
X59370400Y116487300D01*
X59370400Y116487300D02*
X58103800Y117753900D01*
X58103800Y117753900D02*
X58103800Y137539000D01*
X58103800Y137539000D02*
X61804600Y141239800D01*
X61804600Y141239800D02*
X61804600Y143684600D01*
X61804600Y143684600D02*
X63030000Y144910000D01*
X50330000Y61090000D02*
X54140000Y64900000D01*
X54140000Y64900000D02*
X55881600Y64900000D01*
X55881600Y64900000D02*
X57250200Y66268600D01*
X57250200Y66268600D02*
X57250200Y78316600D01*
X57250200Y78316600D02*
X56551600Y79015200D01*
X56551600Y79015200D02*
X56551600Y81207600D01*
X56551600Y81207600D02*
X59170000Y83826000D01*
X59170000Y83826000D02*
X59170000Y111607900D01*
X50330000Y61090000D02*
X50330000Y59309900D01*
X50330000Y59309900D02*
X54944500Y54695400D01*
X54944500Y54695400D02*
X56424100Y54695400D01*
X56424100Y54695400D02*
X59996200Y51123300D01*
X59996200Y51123300D02*
X59996200Y14593800D01*
X59996200Y14593800D02*
X64935000Y9655000D01*
X50330000Y61090000D02*
X49465000Y61090000D01*
X47790000Y61090000D02*
X49465000Y61090000D01*
X64284977Y174135023D02*
X63829999Y174590001D01*
X65455900Y147335900D02*
X65455900Y159523900D01*
X64284977Y169428866D02*
X64284977Y174135023D01*
X63030000Y144910000D02*
X65455900Y147335900D01*
X65455900Y159523900D02*
X64864600Y160115200D01*
X63829999Y174590001D02*
X63030000Y175390000D01*
X64864600Y168849244D02*
X64284977Y169428866D01*
X64864600Y160115200D02*
X64864600Y168849244D01*
X64935000Y14735000D02*
X66165900Y13504100D01*
X66165900Y13504100D02*
X66165900Y6140600D01*
X66165900Y6140600D02*
X65914900Y5889600D01*
X65914900Y5889600D02*
X63922000Y5889600D01*
X63922000Y5889600D02*
X58760300Y11051300D01*
X58760300Y11051300D02*
X58760300Y35354800D01*
X58760300Y35354800D02*
X45337900Y48777200D01*
X45337900Y48777200D02*
X45337900Y63827500D01*
X45337900Y63827500D02*
X47735200Y66224800D01*
X47735200Y66224800D02*
X46538200Y67421800D01*
X46538200Y67421800D02*
X46538200Y97771700D01*
X46538200Y97771700D02*
X47321500Y98555000D01*
X47321500Y98555000D02*
X48294800Y98555000D01*
X48294800Y98555000D02*
X50569700Y100829900D01*
X50569700Y100829900D02*
X50569700Y102376400D01*
X50569700Y102376400D02*
X52449000Y104255700D01*
X52449000Y104255700D02*
X52449000Y136164100D01*
X52449000Y136164100D02*
X56099200Y139814300D01*
X56099200Y139814300D02*
X56593100Y140308200D01*
X56593100Y140308200D02*
X56593100Y146097300D01*
X56593100Y146097300D02*
X61755800Y151260000D01*
X61755800Y151260000D02*
X63552400Y151260000D01*
X63552400Y151260000D02*
X64255300Y151962900D01*
X64255300Y151962900D02*
X64255300Y158908800D01*
X64255300Y158908800D02*
X61804600Y161359500D01*
X61804600Y161359500D02*
X61804600Y163915400D01*
X61804600Y163915400D02*
X55410000Y170310000D01*
X47735200Y66224800D02*
X47790000Y66170000D01*
X192570000Y170310000D02*
X190895000Y170310000D01*
X190895000Y170310000D02*
X190895000Y171880300D01*
X190895000Y171880300D02*
X186115300Y176660000D01*
X186115300Y176660000D02*
X175608200Y176660000D01*
X175608200Y176660000D02*
X173068200Y179200000D01*
X173068200Y179200000D02*
X160368200Y179200000D01*
X160368200Y179200000D02*
X157828200Y181740000D01*
X157828200Y181740000D02*
X124784100Y181740000D01*
X124784100Y181740000D02*
X121637300Y184886800D01*
X121637300Y184886800D02*
X114810400Y184886800D01*
X114810400Y184886800D02*
X114171500Y184247900D01*
X114171500Y184247900D02*
X107814300Y184247900D01*
X107814300Y184247900D02*
X105947000Y186115200D01*
X105947000Y186115200D02*
X69837000Y186115200D01*
X69837000Y186115200D02*
X68019200Y184297400D01*
X68019200Y184297400D02*
X53467600Y184297400D01*
X53467600Y184297400D02*
X45830200Y176660000D01*
X45830200Y176660000D02*
X44701600Y176660000D01*
X44701600Y176660000D02*
X43349400Y175307800D01*
X43349400Y175307800D02*
X43349400Y156970600D01*
X43349400Y156970600D02*
X47790000Y152530000D01*
X47790000Y152530000D02*
X43987200Y148727200D01*
X43987200Y148727200D02*
X43987200Y111247800D01*
X43987200Y111247800D02*
X45250000Y109985000D01*
X45250000Y109985000D02*
X46115000Y109985000D01*
X47790000Y109985000D02*
X46115000Y109985000D01*
X200190000Y167770000D02*
X198964600Y166544600D01*
X198964600Y166544600D02*
X198964600Y139282500D01*
X198964600Y139282500D02*
X199731700Y138515400D01*
X199731700Y138515400D02*
X201205000Y138515400D01*
X201205000Y138515400D02*
X203917600Y135802800D01*
X203917600Y135802800D02*
X203917600Y131077200D01*
X203917600Y131077200D02*
X205007300Y129987500D01*
X205007300Y129987500D02*
X205488200Y129987500D01*
X205488200Y129987500D02*
X207543000Y127932700D01*
X207543000Y127932700D02*
X207543000Y125584000D01*
X207543000Y125584000D02*
X209667600Y123459400D01*
X209667600Y123459400D02*
X209667600Y87348700D01*
X209667600Y87348700D02*
X209022100Y86703200D01*
X209022100Y86703200D02*
X209022100Y84662100D01*
X209022100Y84662100D02*
X210286000Y83398200D01*
X210286000Y83398200D02*
X210286000Y22266700D01*
X210286000Y22266700D02*
X212133700Y20419000D01*
X45250000Y104905000D02*
X42727100Y102382100D01*
X42727100Y102382100D02*
X42727100Y64628200D01*
X42727100Y64628200D02*
X42126800Y64027900D01*
X42126800Y64027900D02*
X42126800Y48930800D01*
X42126800Y48930800D02*
X45224100Y45833500D01*
X45224100Y45833500D02*
X45224100Y22329100D01*
X45224100Y22329100D02*
X42710000Y19815000D01*
X207175000Y82680000D02*
X209050100Y80804900D01*
X209050100Y80804900D02*
X209050100Y16776900D01*
X209050100Y16776900D02*
X208278300Y16005100D01*
X208278300Y16005100D02*
X205675100Y16005100D01*
X205675100Y16005100D02*
X201865000Y12195000D01*
X200190000Y12195000D02*
X201865000Y12195000D01*
X172020000Y167770000D02*
X175830000Y171580000D01*
X175830000Y171580000D02*
X180600300Y171580000D01*
X180600300Y171580000D02*
X183140300Y169040000D01*
X183140300Y169040000D02*
X186051500Y169040000D01*
X186051500Y169040000D02*
X197764000Y157327500D01*
X197764000Y157327500D02*
X197764000Y136664400D01*
X197764000Y136664400D02*
X203317200Y131111200D01*
X203317200Y131111200D02*
X203317200Y128610300D01*
X203317200Y128610300D02*
X209007900Y122919600D01*
X209007900Y122919600D02*
X209007900Y98045000D01*
X209007900Y98045000D02*
X205888000Y94925100D01*
X205888000Y94925100D02*
X205888000Y83967000D01*
X205888000Y83967000D02*
X207175000Y82680000D01*
X47790000Y104905000D02*
X49699100Y106814100D01*
X49699100Y106814100D02*
X49699100Y137432000D01*
X49699100Y137432000D02*
X54792100Y142525000D01*
X54792100Y142525000D02*
X54792100Y156995800D01*
X54792100Y156995800D02*
X55406300Y157610000D01*
X170345000Y167770000D02*
X172020000Y167770000D01*
X154256100Y159486300D02*
X154256100Y161841100D01*
X154256100Y161841100D02*
X162725000Y170310000D01*
X41597900Y101730000D02*
X40620100Y101730000D01*
X43575000Y107445000D02*
X41597900Y105467900D01*
X41597900Y105467900D02*
X41597900Y101730000D01*
X41597900Y101730000D02*
X41597900Y64348000D01*
X41597900Y64348000D02*
X41526500Y64276600D01*
X41526500Y64276600D02*
X41526500Y48184500D01*
X41526500Y48184500D02*
X44563500Y45147500D01*
X44563500Y45147500D02*
X44563500Y36908500D01*
X44563500Y36908500D02*
X42710000Y35055000D01*
X43575000Y107445000D02*
X43386800Y107633200D01*
X43386800Y107633200D02*
X43386800Y152341800D01*
X45250000Y107445000D02*
X43575000Y107445000D01*
X177965000Y170310000D02*
X179640000Y170310000D01*
X179640000Y170310000D02*
X182180000Y167770000D01*
X182180000Y167770000D02*
X185585000Y167770000D01*
X175735600Y157007300D02*
X175735600Y168080600D01*
X175735600Y168080600D02*
X177965000Y170310000D01*
X177965000Y142370000D02*
X176335900Y143999100D01*
X176335900Y143999100D02*
X176335900Y156407000D01*
X176335900Y156407000D02*
X175735600Y157007300D01*
X200190000Y14735000D02*
X198950800Y15974200D01*
X198950800Y15974200D02*
X198950800Y48119300D01*
X198950800Y48119300D02*
X199176900Y48345400D01*
X199176900Y48345400D02*
X200663300Y48345400D01*
X200663300Y48345400D02*
X201467400Y49149500D01*
X201467400Y49149500D02*
X201467400Y57756100D01*
X201467400Y57756100D02*
X200673500Y58550000D01*
X200673500Y58550000D02*
X199719400Y58550000D01*
X199719400Y58550000D02*
X194395700Y63873700D01*
X194395700Y63873700D02*
X194395700Y77527800D01*
X194395700Y77527800D02*
X193053500Y78870000D01*
X193053500Y78870000D02*
X192099400Y78870000D01*
X192099400Y78870000D02*
X189985400Y80984000D01*
X189985400Y80984000D02*
X189985400Y163369600D01*
X189985400Y163369600D02*
X185585000Y167770000D01*
X268749700Y174742300D02*
X267560700Y175931300D01*
X267560700Y175931300D02*
X265742000Y175931300D01*
X265742000Y175931300D02*
X265000800Y175190100D01*
X265000800Y175190100D02*
X265000800Y139407800D01*
X265000800Y139407800D02*
X260263800Y134670800D01*
X260263800Y134670800D02*
X255481100Y134670800D01*
X255481100Y134670800D02*
X247774700Y126964400D01*
X247774700Y126964400D02*
X245268500Y126964400D01*
X245268500Y126964400D02*
X242779000Y124474900D01*
X242779000Y124474900D02*
X242779000Y112569000D01*
X242779000Y112569000D02*
X237655000Y107445000D01*
X63507700Y79527500D02*
X63709500Y79325700D01*
X63709500Y79325700D02*
X63709500Y26120500D01*
X63709500Y26120500D02*
X64935000Y24895000D01*
X61355000Y129670000D02*
X61189700Y129504700D01*
X61189700Y129504700D02*
X61189700Y123116500D01*
X61189700Y123116500D02*
X63507700Y120798500D01*
X63507700Y120798500D02*
X63507700Y79527500D01*
X63030000Y129670000D02*
X61355000Y129670000D01*
X125260000Y109985000D02*
X123696000Y111549000D01*
X123696000Y111549000D02*
X123696000Y125381100D01*
X70247300Y129677300D02*
X70521900Y129951900D01*
X70521900Y129951900D02*
X70521900Y168276900D01*
X70521900Y168276900D02*
X72555000Y170310000D01*
X63030000Y132210000D02*
X60588800Y129768800D01*
X60588800Y129768800D02*
X60588800Y119332700D01*
X60588800Y119332700D02*
X62282400Y117639100D01*
X62282400Y117639100D02*
X62282400Y75304300D01*
X62282400Y75304300D02*
X62448900Y75137800D01*
X62448900Y75137800D02*
X63015400Y74571300D01*
X63015400Y74571300D02*
X63015400Y24274600D01*
X63015400Y24274600D02*
X64935000Y22355000D01*
X64884988Y169677398D02*
X64884988Y174543388D01*
X73354999Y178729999D02*
X72555000Y177930000D01*
X72081600Y181740000D02*
X73025800Y181740000D01*
X73816900Y179191900D02*
X73354999Y178729999D01*
X73025800Y181740000D02*
X73816900Y180948900D01*
X66056200Y135236200D02*
X66056200Y159772600D01*
X64884988Y174543388D02*
X72081600Y181740000D01*
X63030000Y132210000D02*
X66056200Y135236200D01*
X73816900Y180948900D02*
X73816900Y179191900D01*
X65649400Y168912986D02*
X64884988Y169677398D01*
X66056200Y159772600D02*
X65649400Y160179400D01*
X65649400Y160179400D02*
X65649400Y168912986D01*
X61662100Y72520000D02*
X61223500Y72958600D01*
X61223500Y72958600D02*
X61223500Y80029700D01*
X61223500Y80029700D02*
X61595900Y80402100D01*
X61595900Y80402100D02*
X61595900Y116808800D01*
X61595900Y116808800D02*
X59965200Y118439500D01*
X59965200Y118439500D02*
X59965200Y131685200D01*
X59965200Y131685200D02*
X63030000Y134750000D01*
X61662100Y72520000D02*
X62415000Y71767100D01*
X62415000Y71767100D02*
X62415000Y22335000D01*
X62415000Y22335000D02*
X64935000Y19815000D01*
X80175000Y175390000D02*
X75495700Y170710700D01*
X75495700Y170710700D02*
X75495700Y137042100D01*
X75495700Y137042100D02*
X75631500Y136906300D01*
X107480000Y109350000D02*
X93499400Y95369400D01*
X93499400Y95369400D02*
X93499400Y91074300D01*
X93499400Y91074300D02*
X92733100Y90308000D01*
X92733100Y90308000D02*
X86093200Y90308000D01*
X86093200Y90308000D02*
X82926200Y93475000D01*
X82926200Y93475000D02*
X80175000Y93475000D01*
X92240000Y109350000D02*
X90565000Y109350000D01*
X90565000Y109350000D02*
X88660000Y107445000D01*
X88660000Y107445000D02*
X79707900Y107445000D01*
X79707900Y107445000D02*
X78913400Y106650500D01*
X78913400Y106650500D02*
X78913400Y97276600D01*
X78913400Y97276600D02*
X80175000Y96015000D01*
X64935000Y17275000D02*
X61814600Y20395400D01*
X61814600Y20395400D02*
X61814600Y66830400D01*
X61814600Y66830400D02*
X60436800Y68208200D01*
X60436800Y68208200D02*
X60436800Y80092000D01*
X60436800Y80092000D02*
X60995600Y80650800D01*
X60995600Y80650800D02*
X60995600Y116560100D01*
X60995600Y116560100D02*
X59364800Y118190900D01*
X59364800Y118190900D02*
X59364800Y133624800D01*
X59364800Y133624800D02*
X63030000Y137290000D01*
X80175000Y167770000D02*
X77321300Y164916300D01*
X77321300Y164916300D02*
X77321300Y142809300D01*
X63030000Y177930000D02*
X61355000Y177930000D01*
X61355000Y177930000D02*
X56729200Y173304200D01*
X56729200Y173304200D02*
X56729200Y172388900D01*
X56729200Y172388900D02*
X55920300Y171580000D01*
X55920300Y171580000D02*
X54941800Y171580000D01*
X54941800Y171580000D02*
X54155700Y170793900D01*
X54155700Y170793900D02*
X54155700Y143162000D01*
X54155700Y143162000D02*
X49098700Y138105000D01*
X49098700Y138105000D02*
X49098700Y136058700D01*
X49098700Y136058700D02*
X47790000Y134750000D01*
X43989700Y61138400D02*
X43989700Y100301700D01*
X43989700Y100301700D02*
X44827600Y101139600D01*
X44827600Y101139600D02*
X45779600Y101139600D01*
X45779600Y101139600D02*
X46564600Y101924600D01*
X46564600Y101924600D02*
X46564600Y107953900D01*
X46564600Y107953900D02*
X47325700Y108715000D01*
X47325700Y108715000D02*
X48276200Y108715000D01*
X48276200Y108715000D02*
X49047300Y109486100D01*
X49047300Y109486100D02*
X49047300Y133492700D01*
X49047300Y133492700D02*
X47790000Y134750000D01*
X72555000Y59820000D02*
X76323200Y56051800D01*
X76323200Y56051800D02*
X76323200Y50110900D01*
X76323200Y50110900D02*
X77928100Y48506000D01*
X27470000Y35055000D02*
X27470000Y36730000D01*
X27470000Y36730000D02*
X27365300Y36730000D01*
X27365300Y36730000D02*
X24111600Y39983700D01*
X24111600Y39983700D02*
X24111600Y50008000D01*
X24111600Y50008000D02*
X15371100Y58748500D01*
X15371100Y58748500D02*
X13660000Y58748500D01*
X13660000Y58748500D02*
X9911000Y62497500D01*
X53735000Y172850000D02*
X53555300Y172670300D01*
X53555300Y172670300D02*
X53555300Y143835200D01*
X53555300Y143835200D02*
X47790000Y138069900D01*
X47790000Y138069900D02*
X47790000Y137290000D01*
X55410000Y172850000D02*
X53735000Y172850000D01*
X72555000Y64900000D02*
X70706600Y63051600D01*
X70706600Y63051600D02*
X70706600Y48799500D01*
X70706600Y48799500D02*
X71557900Y47948200D01*
X271249000Y174742300D02*
X269459600Y176531700D01*
X269459600Y176531700D02*
X263855500Y176531700D01*
X263855500Y176531700D02*
X262539100Y175215300D01*
X262539100Y175215300D02*
X262539100Y159811100D01*
X262539100Y159811100D02*
X262839700Y159510500D01*
X262839700Y159510500D02*
X262839700Y144220800D01*
X262839700Y144220800D02*
X262085500Y143466600D01*
X262085500Y143466600D02*
X262085500Y142808900D01*
X262085500Y142808900D02*
X260376600Y141100000D01*
X260376600Y141100000D02*
X259396800Y141100000D01*
X259396800Y141100000D02*
X258271500Y139974700D01*
X258271500Y139974700D02*
X258271500Y139599500D01*
X258271500Y139599500D02*
X248249200Y129577200D01*
X248249200Y129577200D02*
X247032200Y129577200D01*
X247032200Y129577200D02*
X241332600Y123877600D01*
X241332600Y123877600D02*
X241332600Y121282600D01*
X241332600Y121282600D02*
X237655000Y117605000D01*
X113858900Y61061100D02*
X116840001Y58079999D01*
X96958400Y126007600D02*
X102861700Y120104300D01*
X96958400Y142731600D02*
X96958400Y126007600D01*
X102861700Y116617200D02*
X106298900Y113180000D01*
X113858900Y75355471D02*
X113858900Y61061100D01*
X106298900Y113180000D02*
X107172100Y113180000D01*
X113858900Y78066953D02*
X114014955Y77910897D01*
X113858900Y106493200D02*
X113858900Y78066953D01*
X116840001Y58079999D02*
X117640000Y57280000D01*
X94780000Y144910000D02*
X96958400Y142731600D01*
X102861700Y120104300D02*
X102861700Y116617200D01*
X107172100Y113180000D02*
X113858900Y106493200D01*
X114014955Y75511526D02*
X113858900Y75355471D01*
X114014955Y77910897D02*
X114014955Y75511526D01*
X117640000Y183010000D02*
X115965000Y183010000D01*
X97320000Y170310000D02*
X97320000Y170786300D01*
X97320000Y170786300D02*
X99383700Y172850000D01*
X99383700Y172850000D02*
X101171400Y172850000D01*
X101171400Y172850000D02*
X106251400Y177930000D01*
X106251400Y177930000D02*
X110885000Y177930000D01*
X110885000Y177930000D02*
X115965000Y183010000D01*
X222415000Y183010000D02*
X220740000Y183010000D01*
X207810000Y183010000D02*
X209485000Y183010000D01*
X209485000Y183010000D02*
X210757000Y184282000D01*
X210757000Y184282000D02*
X219468000Y184282000D01*
X219468000Y184282000D02*
X220740000Y183010000D01*
X162725000Y183010000D02*
X161050000Y183010000D01*
X147485000Y183010000D02*
X149160000Y183010000D01*
X149160000Y183010000D02*
X150385300Y184235300D01*
X150385300Y184235300D02*
X159824700Y184235300D01*
X159824700Y184235300D02*
X161050000Y183010000D01*
X176290000Y183010000D02*
X175059600Y184240400D01*
X175059600Y184240400D02*
X165630400Y184240400D01*
X165630400Y184240400D02*
X164400000Y183010000D01*
X177965000Y183010000D02*
X176290000Y183010000D01*
X162725000Y183010000D02*
X164400000Y183010000D01*
X177965000Y180470000D02*
X176290000Y180470000D01*
X162725000Y180470000D02*
X164400000Y180470000D01*
X164400000Y180470000D02*
X165632300Y181702300D01*
X165632300Y181702300D02*
X175057700Y181702300D01*
X175057700Y181702300D02*
X176290000Y180470000D01*
X222415000Y180470000D02*
X220740000Y180470000D01*
X207810000Y180470000D02*
X209485000Y180470000D01*
X209485000Y180470000D02*
X210717300Y181702300D01*
X210717300Y181702300D02*
X219507700Y181702300D01*
X219507700Y181702300D02*
X220740000Y180470000D01*
X192570000Y180470000D02*
X190895000Y180470000D01*
X177965000Y180470000D02*
X179640000Y180470000D01*
X179640000Y180470000D02*
X180872300Y181702300D01*
X180872300Y181702300D02*
X189662700Y181702300D01*
X189662700Y181702300D02*
X190895000Y180470000D01*
X222415000Y177930000D02*
X220740000Y177930000D01*
X207810000Y177930000D02*
X209485000Y177930000D01*
X209485000Y177930000D02*
X210717300Y179162300D01*
X210717300Y179162300D02*
X219507700Y179162300D01*
X219507700Y179162300D02*
X220740000Y177930000D01*
X192570000Y177930000D02*
X190895000Y177930000D01*
X177965000Y177930000D02*
X179640000Y177930000D01*
X179640000Y177930000D02*
X180909900Y179199900D01*
X180909900Y179199900D02*
X189625100Y179199900D01*
X189625100Y179199900D02*
X190895000Y177930000D01*
X138825000Y172850000D02*
X137592700Y171617700D01*
X137592700Y171617700D02*
X128167300Y171617700D01*
X128167300Y171617700D02*
X126935000Y172850000D01*
X140500000Y172850000D02*
X138825000Y172850000D01*
X125260000Y172850000D02*
X126935000Y172850000D01*
X132880000Y175390000D02*
X131205000Y175390000D01*
X117640000Y175390000D02*
X119315000Y175390000D01*
X119315000Y175390000D02*
X120547300Y176622300D01*
X120547300Y176622300D02*
X129972700Y176622300D01*
X129972700Y176622300D02*
X131205000Y175390000D01*
X162725000Y175390000D02*
X164400000Y175390000D01*
X164400000Y175390000D02*
X165639600Y176629600D01*
X165639600Y176629600D02*
X171045100Y176629600D01*
X171045100Y176629600D02*
X172284700Y175390000D01*
X172284700Y175390000D02*
X177965000Y175390000D01*
X222415000Y175390000D02*
X220740000Y175390000D01*
X207810000Y175390000D02*
X209485000Y175390000D01*
X209485000Y175390000D02*
X210754900Y176659900D01*
X210754900Y176659900D02*
X219470100Y176659900D01*
X219470100Y176659900D02*
X220740000Y175390000D01*
X147485000Y175390000D02*
X145810000Y175390000D01*
X132880000Y175390000D02*
X134555000Y175390000D01*
X134555000Y175390000D02*
X135787300Y176622300D01*
X135787300Y176622300D02*
X144577700Y176622300D01*
X144577700Y176622300D02*
X145810000Y175390000D01*
X162725000Y172850000D02*
X164400000Y172850000D01*
X164400000Y172850000D02*
X165644000Y171606000D01*
X165644000Y171606000D02*
X172859700Y171606000D01*
X172859700Y171606000D02*
X174103700Y172850000D01*
X174103700Y172850000D02*
X177965000Y172850000D01*
X149160000Y172850000D02*
X150404000Y174094000D01*
X150404000Y174094000D02*
X157306000Y174094000D01*
X157306000Y174094000D02*
X158550000Y172850000D01*
X158550000Y172850000D02*
X162725000Y172850000D01*
X132880000Y172850000D02*
X131205000Y172850000D01*
X117640000Y172850000D02*
X119315000Y172850000D01*
X119315000Y172850000D02*
X120547300Y174082300D01*
X120547300Y174082300D02*
X129972700Y174082300D01*
X129972700Y174082300D02*
X131205000Y172850000D01*
X222415000Y172850000D02*
X220740000Y172850000D01*
X207810000Y172850000D02*
X209485000Y172850000D01*
X209485000Y172850000D02*
X210754900Y171580100D01*
X210754900Y171580100D02*
X219470100Y171580100D01*
X219470100Y171580100D02*
X220740000Y172850000D01*
X147485000Y172850000D02*
X145810000Y172850000D01*
X132880000Y172850000D02*
X134555000Y172850000D01*
X134555000Y172850000D02*
X135824900Y174119900D01*
X135824900Y174119900D02*
X144540100Y174119900D01*
X144540100Y174119900D02*
X145810000Y172850000D01*
X147485000Y172850000D02*
X149160000Y172850000D01*
X200190000Y180470000D02*
X198515000Y180470000D01*
X185585000Y180470000D02*
X189324700Y180470000D01*
X189324700Y180470000D02*
X190594600Y179200100D01*
X190594600Y179200100D02*
X197245100Y179200100D01*
X197245100Y179200100D02*
X198515000Y180470000D01*
X285280000Y162690000D02*
X285280000Y166500000D01*
X270040000Y162690000D02*
X270040000Y161015000D01*
X270040000Y161015000D02*
X268855600Y159830600D01*
X268855600Y159830600D02*
X268855600Y138645600D01*
X268855600Y138645600D02*
X267500000Y137290000D01*
X33696400Y154613500D02*
X33696400Y167389900D01*
X34412600Y109379600D02*
X34220300Y109571900D01*
X32505400Y183054600D02*
X30010000Y185550000D01*
X36322400Y97554000D02*
X34412600Y99463800D01*
X34412600Y99463800D02*
X34412600Y109379600D01*
X34220300Y109571900D02*
X34220300Y110957100D01*
X33696400Y167389900D02*
X32505400Y168580900D01*
X36322400Y36287400D02*
X36322400Y97554000D01*
X34220300Y110957100D02*
X34412600Y111149400D01*
X35090000Y35055000D02*
X36322400Y36287400D01*
X32505400Y168580900D02*
X32505400Y183054600D01*
X34412600Y111149400D02*
X34412600Y153897300D01*
X34412600Y153897300D02*
X33696400Y154613500D01*
X236385000Y167770000D02*
X236385000Y170905000D01*
X236385000Y170905000D02*
X240195000Y174715000D01*
X153173600Y136484100D02*
X153173600Y145518600D01*
X153173600Y145518600D02*
X155105000Y147450000D01*
X152565000Y123320000D02*
X152565000Y135875500D01*
X152565000Y135875500D02*
X153173600Y136484100D01*
X134785000Y130940000D02*
X133453600Y132271400D01*
X133453600Y132271400D02*
X133453600Y135873500D01*
X133453600Y135873500D02*
X137376800Y139796700D01*
X149390000Y159515000D02*
X146249400Y156374400D01*
X146249400Y156374400D02*
X146249400Y151975100D01*
X146249400Y151975100D02*
X146964500Y151260000D01*
X146964500Y151260000D02*
X148055700Y151260000D01*
X148055700Y151260000D02*
X148799600Y150516100D01*
X148799600Y150516100D02*
X148799600Y146224600D01*
X148799600Y146224600D02*
X147485000Y144910000D01*
X185585000Y137290000D02*
X185585000Y139830000D01*
X146054200Y141161700D02*
X146170400Y141277900D01*
X146170400Y141277900D02*
X146170400Y148675400D01*
X146170400Y148675400D02*
X147485000Y149990000D01*
X125260000Y129670000D02*
X125260000Y131345000D01*
X125260000Y131345000D02*
X125180000Y131425000D01*
X125180000Y131425000D02*
X125180000Y132210000D01*
X155105000Y130940000D02*
X155105000Y132615000D01*
X155105000Y132615000D02*
X155065000Y132655000D01*
X155065000Y132655000D02*
X155065000Y134115000D01*
X155105000Y130940000D02*
X155105000Y127765000D01*
X155105000Y137290000D02*
X155105000Y135615000D01*
X155065000Y134115000D02*
X155065000Y135575000D01*
X155065000Y135575000D02*
X155105000Y135615000D01*
X140500000Y149990000D02*
X138674300Y148164300D01*
X138674300Y148164300D02*
X138674300Y137630400D01*
X138674300Y137630400D02*
X138492700Y137448800D01*
X138492700Y137448800D02*
X138492700Y129057300D01*
X138492700Y129057300D02*
X139150000Y128400000D01*
X140500000Y147450000D02*
X139274600Y146224600D01*
X139274600Y146224600D02*
X139274600Y139233800D01*
X139274600Y139233800D02*
X139993000Y138515400D01*
X139993000Y138515400D02*
X141533000Y138515400D01*
X141533000Y138515400D02*
X142330800Y137717600D01*
X142330800Y137717600D02*
X142330800Y112560600D01*
X142330800Y112560600D02*
X141025200Y111255000D01*
X141025200Y111255000D02*
X140014000Y111255000D01*
X140014000Y111255000D02*
X139249600Y110490600D01*
X139249600Y110490600D02*
X139249600Y97934500D01*
X139249600Y97934500D02*
X142292600Y94891500D01*
X80175000Y133075000D02*
X80749100Y132500900D01*
X80749100Y132500900D02*
X80749100Y127240300D01*
X80749100Y127240300D02*
X80071000Y126562200D01*
X80071000Y126562200D02*
X80071000Y120686700D01*
X80071000Y120686700D02*
X76914200Y117529900D01*
X76914200Y117529900D02*
X76914200Y106160300D01*
X76914200Y106160300D02*
X73118900Y102365000D01*
X73118900Y102365000D02*
X72016500Y102365000D01*
X72016500Y102365000D02*
X71322200Y101670700D01*
X71322200Y101670700D02*
X71322200Y88344800D01*
X71322200Y88344800D02*
X76317400Y83349600D01*
X80175000Y134750000D02*
X80175000Y133075000D01*
X117640000Y49660000D02*
X118528400Y49660000D01*
X118528400Y49660000D02*
X122562000Y53693600D01*
X122562000Y53693600D02*
X122562000Y65143200D01*
X122562000Y65143200D02*
X123981400Y66562600D01*
X123981400Y66562600D02*
X123981400Y79938700D01*
X123981400Y79938700D02*
X123390800Y80529300D01*
X222415000Y82680000D02*
X222415000Y85220000D01*
X140500000Y137290000D02*
X140500000Y135615000D01*
X140500000Y135615000D02*
X139825000Y134940000D01*
X139825000Y134940000D02*
X139825000Y133480000D01*
X139825000Y133480000D02*
X141725000Y131580000D01*
X141725000Y131580000D02*
X141725000Y124545000D01*
X141725000Y124545000D02*
X140500000Y123320000D01*
X165532500Y123349700D02*
X165532500Y117731500D01*
X165532500Y117731500D02*
X165968400Y117295600D01*
X55410000Y92205000D02*
X54177600Y93437400D01*
X54177600Y93437400D02*
X54177600Y135310800D01*
X54177600Y135310800D02*
X60133100Y141266300D01*
X60133100Y141266300D02*
X60133100Y145732900D01*
X80175000Y137290000D02*
X82323200Y139438200D01*
X82323200Y139438200D02*
X82323200Y146828200D01*
X82323200Y146828200D02*
X85485000Y149990000D01*
X132880000Y117605000D02*
X131205000Y117605000D01*
X131205000Y117605000D02*
X131205000Y119004100D01*
X131205000Y119004100D02*
X130970400Y119238700D01*
X87160000Y149990000D02*
X85485000Y149990000D01*
X79597300Y137290000D02*
X80175000Y137290000D01*
X77396100Y135088800D02*
X79597300Y137290000D01*
X77396100Y127829700D02*
X77396100Y135088800D01*
X72555000Y142370000D02*
X73780500Y141144500D01*
X73780500Y141144500D02*
X73780500Y133899200D01*
X73780500Y133899200D02*
X73225200Y133343900D01*
X73225200Y133343900D02*
X73225200Y126864800D01*
X73225200Y126864800D02*
X73825000Y126265000D01*
X73825000Y124590000D02*
X73825000Y126265000D01*
X94780000Y142370000D02*
X94780000Y139830000D01*
X198515000Y120145000D02*
X195095700Y123564300D01*
X195095700Y123564300D02*
X195095700Y133621800D01*
X195095700Y133621800D02*
X194651900Y134065600D01*
X194651900Y134065600D02*
X194651900Y140288100D01*
X194651900Y140288100D02*
X192570000Y142370000D01*
X200190000Y120145000D02*
X201418000Y118917000D01*
X201418000Y118917000D02*
X201418000Y117090000D01*
X201418000Y117090000D02*
X200663000Y116335000D01*
X200663000Y116335000D02*
X199707600Y116335000D01*
X199707600Y116335000D02*
X196232500Y112859900D01*
X196232500Y112859900D02*
X196232500Y82286900D01*
X196232500Y82286900D02*
X199649400Y78870000D01*
X199649400Y78870000D02*
X200722500Y78870000D01*
X200722500Y78870000D02*
X201504600Y79652100D01*
X201504600Y79652100D02*
X201504600Y81365400D01*
X201504600Y81365400D02*
X200190000Y82680000D01*
X200190000Y120145000D02*
X198515000Y120145000D01*
X192570000Y142370000D02*
X191300900Y143639100D01*
X191300900Y143639100D02*
X191300900Y155209900D01*
X191300900Y155209900D02*
X192492700Y156401700D01*
X192492700Y156401700D02*
X192492700Y159219900D01*
X89011485Y157641513D02*
X88534990Y158118008D01*
X89011485Y141681485D02*
X89011485Y157641513D01*
X87160000Y139830000D02*
X89011485Y141681485D01*
X200190000Y117605000D02*
X194495400Y123299600D01*
X194495400Y123299600D02*
X194495400Y133373100D01*
X194495400Y133373100D02*
X193884600Y133983900D01*
X193884600Y133983900D02*
X193884600Y138515400D01*
X193884600Y138515400D02*
X192570000Y139830000D01*
X110020000Y137290000D02*
X111290000Y138560000D01*
X111290000Y138560000D02*
X111290000Y150478900D01*
X111290000Y150478900D02*
X110553500Y151215400D01*
X110553500Y151215400D02*
X109499600Y151215400D01*
X109499600Y151215400D02*
X107480000Y153235000D01*
X185414700Y147450000D02*
X178403400Y154461300D01*
X185585000Y147450000D02*
X185414700Y147450000D01*
X102400000Y144910000D02*
X104940000Y142370000D01*
X104940000Y142370000D02*
X104940000Y121415000D01*
X110020000Y147450000D02*
X108793000Y146223000D01*
X108793000Y146223000D02*
X108793000Y125122000D01*
X108793000Y125122000D02*
X109960000Y123955000D01*
X102400000Y139830000D02*
X100020000Y137450000D01*
X100020000Y137450000D02*
X100020000Y131575000D01*
X106210000Y123955000D02*
X107656700Y125401700D01*
X107656700Y125401700D02*
X107656700Y147626700D01*
X107656700Y147626700D02*
X110020000Y149990000D01*
X125260000Y149990000D02*
X126487500Y148762500D01*
X126487500Y148762500D02*
X126487500Y146931600D01*
X126487500Y146931600D02*
X125735900Y146180000D01*
X125735900Y146180000D02*
X124789000Y146180000D01*
X124789000Y146180000D02*
X120180000Y141571000D01*
X120180000Y141571000D02*
X120180000Y132210000D01*
X200190000Y142370000D02*
X205270000Y137290000D01*
X205270000Y137290000D02*
X205270000Y131575000D01*
X214795000Y135615000D02*
X213256400Y134076400D01*
X213256400Y134076400D02*
X213256400Y126841300D01*
X214795000Y137290000D02*
X214795000Y135615000D01*
X222415000Y139830000D02*
X224273700Y137971300D01*
X224273700Y137971300D02*
X224273700Y120879800D01*
X224273700Y120879800D02*
X224918500Y120235000D01*
X224918500Y120235000D02*
X224918500Y112488500D01*
X224918500Y112488500D02*
X222415000Y109985000D01*
X222415000Y142370000D02*
X221183300Y141138300D01*
X221183300Y141138300D02*
X221183300Y133159100D01*
X221183300Y133159100D02*
X223673400Y130669000D01*
X223673400Y130669000D02*
X223673400Y120631100D01*
X223673400Y120631100D02*
X224318100Y119986400D01*
X224318100Y119986400D02*
X224318100Y114428100D01*
X224318100Y114428100D02*
X222415000Y112525000D01*
X245275000Y137290000D02*
X248949800Y137290000D01*
X248949800Y137290000D02*
X250973700Y139313900D01*
X250973700Y139313900D02*
X250973700Y148736300D01*
X250973700Y148736300D02*
X249720000Y149990000D01*
X249880000Y136020000D02*
X249880000Y133005000D01*
X249880000Y133005000D02*
X249720000Y132845000D01*
X259880000Y139830000D02*
X259880000Y136020000D01*
X249720000Y139830000D02*
X245275000Y144275000D01*
X245275000Y144275000D02*
X245275000Y144910000D01*
X245275000Y144910000D02*
X245275000Y147450000D01*
X110020000Y127765000D02*
X110020000Y131575000D01*
X132880000Y127535000D02*
X133285000Y127535000D01*
X133285000Y127535000D02*
X134150000Y128400000D01*
X132880000Y125860000D02*
X132880000Y127535000D01*
X259880000Y124590000D02*
X259744700Y124590000D01*
X259744700Y124590000D02*
X258655800Y123501100D01*
X258655800Y123501100D02*
X253348900Y123501100D01*
X253348900Y123501100D02*
X252260000Y124590000D01*
X259880000Y119510000D02*
X258205000Y119510000D01*
X258205000Y119510000D02*
X255030000Y116335000D01*
X255030000Y116335000D02*
X252260000Y116335000D01*
X259880000Y119510000D02*
X259880000Y122050000D01*
X247877500Y100517500D02*
X253530000Y94865000D01*
X245275000Y99595000D02*
X246955000Y99595000D01*
X246955000Y99595000D02*
X247877500Y100517500D01*
X252260000Y116335000D02*
X252260000Y104900000D01*
X252260000Y104900000D02*
X247877500Y100517500D01*
X245275000Y97920000D02*
X245275000Y99595000D01*
X253530000Y89665000D02*
X253530000Y94865000D01*
X252260000Y118875000D02*
X251169300Y119965700D01*
X251169300Y119965700D02*
X251169300Y126039300D01*
X251169300Y126039300D02*
X252260000Y127130000D01*
X222415000Y147450000D02*
X217770000Y142805000D01*
X217770000Y142805000D02*
X217770000Y131575000D01*
X230035000Y147450000D02*
X227495000Y149990000D01*
X227495000Y149990000D02*
X227495000Y155070000D01*
X230035000Y159515000D02*
X230035000Y157840000D01*
X227495000Y155070000D02*
X227495000Y155300000D01*
X227495000Y155300000D02*
X230035000Y157840000D01*
X80175000Y108715000D02*
X80175000Y111255000D01*
X177330000Y120145000D02*
X177330000Y121820000D01*
X177330000Y121820000D02*
X176060000Y123090000D01*
X176060000Y123090000D02*
X176060000Y123955000D01*
X202018300Y116431000D02*
X202018300Y120074700D01*
X199981400Y91887500D02*
X200335700Y91887500D01*
X200190000Y80140000D02*
X198953200Y81376800D01*
X198953200Y90859300D02*
X199981400Y91887500D01*
X201415001Y110363439D02*
X201415001Y115827701D01*
X202018300Y120074700D02*
X200678000Y121415000D01*
X198734930Y121415000D02*
X196963900Y123186030D01*
X198953200Y81376800D02*
X198953200Y90859300D01*
X200678000Y121415000D02*
X198734930Y121415000D01*
X196963900Y123186030D02*
X196963900Y124317400D01*
X201415001Y115827701D02*
X202018300Y116431000D01*
X201486000Y93037800D02*
X201486000Y110292440D01*
X201486000Y110292440D02*
X201415001Y110363439D01*
X200335700Y91887500D02*
X201486000Y93037800D01*
X155105000Y149990000D02*
X155148000Y149990000D01*
X155148000Y149990000D02*
X157549900Y147588100D01*
X157549900Y147588100D02*
X157549900Y102199100D01*
X157549900Y102199100D02*
X155923600Y100572800D01*
X150716100Y92712200D02*
X154428800Y88999500D01*
X147485000Y142370000D02*
X148616370Y142370000D01*
X150716100Y100405300D02*
X150716100Y92712200D01*
X159759989Y84841211D02*
X159759989Y66003299D01*
X154428800Y88999500D02*
X155601700Y88999500D01*
X155601700Y88999500D02*
X159759989Y84841211D01*
X151441600Y125965900D02*
X149384800Y123909100D01*
X148616370Y142370000D02*
X151441600Y139544770D01*
X149384800Y101736600D02*
X150716100Y100405300D01*
X159759989Y66003299D02*
X158959990Y65203300D01*
X149384800Y123909100D02*
X149384800Y101736600D01*
X151441600Y139544770D02*
X151441600Y125965900D01*
X162108800Y87633900D02*
X160892300Y86417400D01*
X160892300Y86417400D02*
X160892300Y73886000D01*
X160892300Y73886000D02*
X161492600Y73285700D01*
X161492600Y73285700D02*
X161492600Y58512400D01*
X161492600Y58512400D02*
X162725000Y57280000D01*
X162108800Y87633900D02*
X153244600Y96498100D01*
X153244600Y96498100D02*
X153244600Y99734000D01*
X153244600Y99734000D02*
X156949500Y103438900D01*
X156949500Y103438900D02*
X156949500Y147339400D01*
X156949500Y147339400D02*
X155568900Y148720000D01*
X155568900Y148720000D02*
X152970000Y148720000D01*
X152970000Y148720000D02*
X149160000Y152530000D01*
X162725000Y87760000D02*
X162598900Y87633900D01*
X162598900Y87633900D02*
X162108800Y87633900D01*
X147485000Y152530000D02*
X149160000Y152530000D01*
X134555000Y87760000D02*
X136054600Y86260400D01*
X136054600Y86260400D02*
X136054600Y59818100D01*
X132880000Y144910000D02*
X127796300Y139826300D01*
X127796300Y139826300D02*
X127796300Y102445200D01*
X127796300Y102445200D02*
X134721800Y95519700D01*
X134721800Y95519700D02*
X134721800Y87926800D01*
X134721800Y87926800D02*
X134555000Y87760000D01*
X132880000Y87760000D02*
X134555000Y87760000D01*
X168670000Y49660000D02*
X166940000Y49660000D01*
X166940000Y49660000D02*
X164400000Y47120000D01*
X162725000Y47120000D02*
X164400000Y47120000D01*
X170345000Y49660000D02*
X168670000Y49660000D01*
X164578400Y112568500D02*
X163351900Y113795000D01*
X163351900Y113795000D02*
X162257800Y113795000D01*
X162257800Y113795000D02*
X158959700Y117093100D01*
X158959700Y117093100D02*
X158959700Y152025000D01*
X45250000Y175390000D02*
X50553800Y170086200D01*
X50553800Y170086200D02*
X50553800Y152576500D01*
X50553800Y152576500D02*
X49884500Y151907200D01*
X134105300Y121519500D02*
X134105300Y123917100D01*
X131647999Y133061001D02*
X131102000Y133607000D01*
X131647999Y125359201D02*
X131647999Y133061001D01*
X132372500Y124634700D02*
X131647999Y125359201D01*
X133387700Y124634700D02*
X132372500Y124634700D01*
X134105300Y123917100D02*
X133387700Y124634700D01*
X140500000Y115124800D02*
X134105300Y121519500D01*
X140500000Y115065000D02*
X140500000Y115124800D01*
X81691400Y156747200D02*
X78949600Y154005400D01*
X78949600Y154005400D02*
X78949600Y144285000D01*
X78949600Y144285000D02*
X80175000Y143059600D01*
X80175000Y143059600D02*
X80175000Y142370000D01*
X108658600Y160728000D02*
X106113600Y158183000D01*
X126784000Y151260000D02*
X123597300Y151260000D01*
X129279400Y148764600D02*
X126784000Y151260000D01*
X133430500Y148764600D02*
X129279400Y148764600D01*
X114129300Y160728000D02*
X108658600Y160728000D01*
X152099900Y42040300D02*
X152099900Y61351800D01*
X123597300Y151260000D02*
X114129300Y160728000D01*
X144900400Y143341600D02*
X144900400Y155330400D01*
X144601000Y68850700D02*
X144601000Y70297300D01*
X144601000Y70297300D02*
X144960700Y70657000D01*
X136861600Y152195700D02*
X133430500Y148764600D01*
X144960700Y70657000D02*
X144960700Y137842200D01*
X138029699Y161177099D02*
X136861600Y160009000D01*
X144960700Y137842200D02*
X144228600Y138574300D01*
X139842701Y160540099D02*
X139205701Y161177099D01*
X106113600Y158183000D02*
X106113600Y157643700D01*
X136861600Y160009000D02*
X136861600Y152195700D01*
X144228600Y138574300D02*
X144228600Y142669800D01*
X144228600Y142669800D02*
X144900400Y143341600D01*
X139205701Y161177099D02*
X138029699Y161177099D01*
X144900400Y155330400D02*
X139842701Y160388099D01*
X152099900Y61351800D02*
X144601000Y68850700D01*
X139842701Y160388099D02*
X139842701Y160540099D01*
X80175000Y147450000D02*
X84275700Y151550700D01*
X84275700Y151550700D02*
X84275700Y156713800D01*
X192570000Y80140000D02*
X190700500Y82009500D01*
X190700500Y82009500D02*
X190700500Y156533390D01*
X190700500Y156533390D02*
X191255010Y157087900D01*
X87160000Y144910000D02*
X85875000Y143625000D01*
X85875000Y143625000D02*
X85875000Y123374100D01*
X57085000Y183010000D02*
X58310300Y181784700D01*
X58310300Y181784700D02*
X67432900Y181784700D01*
X67432900Y181784700D02*
X71132300Y185484100D01*
X71132300Y185484100D02*
X94038900Y185484100D01*
X94038900Y185484100D02*
X99860000Y179663000D01*
X99860000Y179663000D02*
X99860000Y179200000D01*
X55410000Y183010000D02*
X57085000Y183010000D01*
X99860000Y176660000D02*
X94131100Y176660000D01*
X94131100Y176660000D02*
X86507700Y184283400D01*
X86507700Y184283400D02*
X71749800Y184283400D01*
X71749800Y184283400D02*
X64171000Y176704600D01*
X64171000Y176704600D02*
X62591300Y176704600D01*
X62591300Y176704600D02*
X61804600Y175917900D01*
X61804600Y175917900D02*
X61804600Y174075400D01*
X61804600Y174075400D02*
X63030000Y172850000D01*
X87160000Y172850000D02*
X88403100Y174093100D01*
X88403100Y174093100D02*
X88403100Y178480900D01*
X88403100Y178480900D02*
X87728600Y179155400D01*
X87728600Y179155400D02*
X79458400Y179155400D01*
X79458400Y179155400D02*
X75603800Y183010000D01*
X75603800Y183010000D02*
X72555000Y183010000D01*
X80405000Y172850000D02*
X80175000Y172850000D01*
X85485000Y177930000D02*
X80405000Y172850000D01*
X87160000Y177930000D02*
X85485000Y177930000D01*
X137571200Y74675700D02*
X137571200Y84831200D01*
X137571200Y84831200D02*
X140500000Y87760000D01*
X155105000Y77600000D02*
X158498100Y74206900D01*
X158498100Y74206900D02*
X158498100Y73799900D01*
X133090000Y121377200D02*
X130934500Y123532700D01*
X133398500Y121377200D02*
X133090000Y121377200D01*
X130934500Y125740500D02*
X129495011Y127179989D01*
X137879100Y116896600D02*
X133398500Y121377200D01*
X129495011Y139030001D02*
X130295010Y139830000D01*
X129495011Y127179989D02*
X129495011Y139030001D01*
X137879100Y90380900D02*
X137879100Y116896600D01*
X140500000Y87760000D02*
X137879100Y90380900D01*
X130934500Y123532700D02*
X130934500Y125740500D01*
X120882600Y149336400D02*
X119968600Y149336400D01*
X119968600Y149336400D02*
X119315000Y149990000D01*
X233187500Y91570000D02*
X233187500Y103322300D01*
X233187500Y103322300D02*
X232604000Y103905800D01*
X232604000Y103905800D02*
X232604000Y121906900D01*
X232604000Y121906900D02*
X239533800Y128836700D01*
X239533800Y128836700D02*
X239533800Y152427200D01*
X239533800Y152427200D02*
X237020000Y154941000D01*
X237020000Y154941000D02*
X231156700Y154941000D01*
X230035000Y77600000D02*
X228772200Y78862800D01*
X228772200Y78862800D02*
X228772200Y88252300D01*
X228772200Y88252300D02*
X229549900Y89030000D01*
X229549900Y89030000D02*
X230647500Y89030000D01*
X230647500Y89030000D02*
X233187500Y91570000D01*
X245275000Y77600000D02*
X244049600Y78825400D01*
X244049600Y78825400D02*
X244049600Y85648800D01*
X244049600Y85648800D02*
X238128400Y91570000D01*
X238128400Y91570000D02*
X233187500Y91570000D01*
X117640000Y149990000D02*
X119315000Y149990000D01*
X125260000Y142370000D02*
X126574600Y141055400D01*
X126574600Y141055400D02*
X126574600Y101366100D01*
X126574600Y101366100D02*
X134121400Y93819300D01*
X134121400Y93819300D02*
X134121400Y89793100D01*
X134121400Y89793100D02*
X133358300Y89030000D01*
X133358300Y89030000D02*
X132397600Y89030000D01*
X132397600Y89030000D02*
X131618400Y88250800D01*
X131618400Y88250800D02*
X131618400Y84647300D01*
X131618400Y84647300D02*
X132315700Y83950000D01*
X132315700Y83950000D02*
X133417800Y83950000D01*
X133417800Y83950000D02*
X134111700Y83256100D01*
X134111700Y83256100D02*
X134111700Y81371700D01*
X134111700Y81371700D02*
X132880000Y80140000D01*
X170345000Y80140000D02*
X167944800Y82540200D01*
X167944800Y82540200D02*
X167944800Y82702900D01*
X117640000Y144910000D02*
X116407600Y143677600D01*
X116407600Y143677600D02*
X116407600Y133970200D01*
X116407600Y133970200D02*
X121280300Y129097500D01*
X121280300Y129097500D02*
X121280300Y113822900D01*
X140500000Y109985000D02*
X141814600Y108670400D01*
X141814600Y108670400D02*
X141814600Y104898700D01*
X141814600Y104898700D02*
X143970800Y102742500D01*
X143970800Y102742500D02*
X143970800Y67782900D01*
X143970800Y67782900D02*
X150048500Y61705200D01*
X150048500Y61705200D02*
X150048500Y59738600D01*
X81565000Y9655000D02*
X80193600Y11026400D01*
X80193600Y11026400D02*
X80193600Y26692500D01*
X80193600Y26692500D02*
X82206100Y28705000D01*
X109567768Y58001768D02*
X112653640Y58001768D01*
X85701900Y31163800D02*
X85701900Y34135900D01*
X112653640Y58001768D02*
X113785010Y58001768D01*
X82206100Y28705000D02*
X83243100Y28705000D01*
X85701900Y34135900D02*
X109567768Y58001768D01*
X83243100Y28705000D02*
X85701900Y31163800D01*
X82715000Y9655000D02*
X81565000Y9655000D01*
X200190000Y109985000D02*
X197457800Y107252800D01*
X197457800Y107252800D02*
X197457800Y98789500D01*
X120761000Y90070700D02*
X120761000Y55316700D01*
X120761000Y55316700D02*
X118914300Y53470000D01*
X118914300Y53470000D02*
X111859600Y53470000D01*
X111859600Y53470000D02*
X103535900Y45146300D01*
X222415000Y87760000D02*
X222415000Y90300000D01*
X200349967Y156250060D02*
X200349967Y154183035D01*
X212031000Y154731200D02*
X209146600Y157615600D01*
X216728100Y121492900D02*
X212031000Y126190000D01*
X212031000Y126190000D02*
X212031000Y154731200D01*
X216728100Y98166200D02*
X216728100Y121492900D01*
X200989999Y150789999D02*
X200190000Y149990000D01*
X220487900Y94406400D02*
X216728100Y98166200D01*
X200349967Y154183035D02*
X201415001Y153118001D01*
X201415001Y151215001D02*
X200989999Y150789999D01*
X201715507Y157615600D02*
X200349967Y156250060D01*
X222415000Y90300000D02*
X220487900Y92227100D01*
X209146600Y157615600D02*
X201715507Y157615600D01*
X220487900Y92227100D02*
X220487900Y94406400D01*
X201415001Y153118001D02*
X201415001Y151215001D01*
X215257900Y89030000D02*
X214308200Y89030000D01*
X212068800Y91269400D02*
X212068800Y124454200D01*
X200989999Y145709999D02*
X200190000Y144910000D01*
X212068800Y124454200D02*
X210806900Y125716100D01*
X210806900Y125716100D02*
X210806900Y154257300D01*
X201549989Y155752996D02*
X201549989Y154680099D01*
X201549989Y154680099D02*
X202705300Y153524788D01*
X202705300Y153524788D02*
X202705300Y147425300D01*
X202186993Y156390000D02*
X201549989Y155752996D01*
X214308200Y89030000D02*
X212068800Y91269400D01*
X202705300Y147425300D02*
X200989999Y145709999D01*
X217358800Y86929100D02*
X215257900Y89030000D01*
X210806900Y154257300D02*
X208674200Y156390000D01*
X219388900Y59820000D02*
X217358800Y61850100D01*
X217358800Y61850100D02*
X217358800Y86929100D01*
X222415000Y59820000D02*
X219388900Y59820000D01*
X208674200Y156390000D02*
X202186993Y156390000D01*
X192570000Y152530000D02*
X197163700Y147936300D01*
X197163700Y147936300D02*
X197163700Y136415700D01*
X197163700Y136415700D02*
X202716900Y130862500D01*
X202716900Y130862500D02*
X202716900Y128361600D01*
X202716900Y128361600D02*
X208400300Y122678200D01*
X208400300Y122678200D02*
X208400300Y111210300D01*
X208400300Y111210300D02*
X207175000Y109985000D01*
X193270100Y132865500D02*
X193796800Y132338800D01*
X193796800Y132338800D02*
X193796800Y121516900D01*
X193796800Y121516900D02*
X194465011Y120848689D01*
X194465011Y120848689D02*
X194465011Y96473811D01*
X194465011Y96473811D02*
X194437499Y96446299D01*
X194437499Y96446299D02*
X193637500Y95646300D01*
X132880000Y49660000D02*
X134555000Y49660000D01*
X134555000Y49660000D02*
X138365000Y53470000D01*
X138365000Y53470000D02*
X141017300Y53470000D01*
X141017300Y53470000D02*
X142370200Y54822900D01*
X142370200Y54822900D02*
X142370200Y70857700D01*
X142370200Y70857700D02*
X139271500Y73956400D01*
X139271500Y73956400D02*
X139271500Y83196400D01*
X139271500Y83196400D02*
X140025100Y83950000D01*
X140025100Y83950000D02*
X140981600Y83950000D01*
X140981600Y83950000D02*
X141762500Y84730900D01*
X141762500Y84730900D02*
X141762500Y89037500D01*
X141762500Y89037500D02*
X140500000Y90300000D01*
X132880000Y27435000D02*
X131037900Y29277100D01*
X131037900Y29277100D02*
X131037900Y47817900D01*
X131037900Y47817900D02*
X132880000Y49660000D01*
X132880000Y54740000D02*
X131205000Y54740000D01*
X131205000Y54740000D02*
X127395000Y50930000D01*
X127395000Y50930000D02*
X124745400Y50930000D01*
X124745400Y50930000D02*
X119283600Y45468200D01*
X119283600Y45468200D02*
X119283600Y38861900D01*
X119283600Y38861900D02*
X115421700Y35000000D01*
X115421700Y35000000D02*
X115000000Y35000000D01*
X134555000Y85220000D02*
X134712100Y85062900D01*
X134712100Y85062900D02*
X134712100Y56572100D01*
X134712100Y56572100D02*
X132880000Y54740000D01*
X132880000Y85220000D02*
X134555000Y85220000D01*
X140500000Y82680000D02*
X143184600Y79995400D01*
X143184600Y79995400D02*
X143184600Y67123400D01*
X143184600Y67123400D02*
X144901600Y65406400D01*
X144901600Y65406400D02*
X144901600Y54814100D01*
X144901600Y54814100D02*
X141017500Y50930000D01*
X141017500Y50930000D02*
X138365000Y50930000D01*
X138365000Y50930000D02*
X134555000Y47120000D01*
X132880000Y47120000D02*
X134555000Y47120000D01*
X132880000Y29975000D02*
X131646400Y31208600D01*
X131646400Y31208600D02*
X131646400Y45886400D01*
X131646400Y45886400D02*
X132880000Y47120000D01*
X132880000Y92840000D02*
X130973400Y90933400D01*
X130973400Y90933400D02*
X130973400Y58524200D01*
X132880000Y19815000D02*
X130437500Y22257500D01*
X130437500Y22257500D02*
X130437500Y49757500D01*
X130437500Y49757500D02*
X132880000Y52200000D01*
X131205000Y57280000D02*
X131205000Y57192500D01*
X131205000Y57192500D02*
X127398200Y53385700D01*
X132880000Y57280000D02*
X131205000Y57280000D01*
X92240000Y35055000D02*
X98546700Y35055000D01*
X98546700Y35055000D02*
X111927869Y48436169D01*
X111927869Y48436169D02*
X112653640Y48436169D01*
X112653640Y48436169D02*
X113785010Y48436169D01*
X153708000Y48517000D02*
X153708000Y81283000D01*
X153708000Y81283000D02*
X155105000Y82680000D01*
X155105000Y47120000D02*
X153708000Y48517000D01*
X162725000Y85220000D02*
X164400000Y85220000D01*
X164400000Y85220000D02*
X166331100Y87151100D01*
X166331100Y87151100D02*
X166331100Y90564800D01*
X166331100Y90564800D02*
X169849800Y94083500D01*
X169849800Y94083500D02*
X170884300Y94083500D01*
X170884300Y94083500D02*
X170958300Y94009500D01*
X170958300Y94009500D02*
X171973400Y94009500D01*
X171973400Y94009500D02*
X172691100Y94727200D01*
X172691100Y94727200D02*
X172691100Y145103900D01*
X172691100Y145103900D02*
X170345000Y147450000D01*
X119315000Y54740000D02*
X120135100Y55560100D01*
X120135100Y55560100D02*
X120135100Y67079900D01*
X120135100Y67079900D02*
X117640000Y69575000D01*
X117640000Y54740000D02*
X119315000Y54740000D01*
X117640000Y71250000D02*
X117640000Y69575000D01*
X117640000Y71250000D02*
X118872400Y72482400D01*
X118872400Y72482400D02*
X118872400Y81447600D01*
X118872400Y81447600D02*
X117640000Y82680000D01*
X147485000Y115065000D02*
X148713800Y113836200D01*
X148713800Y113836200D02*
X148713800Y101053200D01*
X148713800Y101053200D02*
X147617100Y99956500D01*
X184950000Y115065000D02*
X183604600Y113719600D01*
X183604600Y113719600D02*
X183604600Y99493900D01*
X155105000Y117605000D02*
X150174300Y112674300D01*
X150174300Y112674300D02*
X150174300Y107486900D01*
X150174300Y107486900D02*
X152403600Y105257600D01*
X152403600Y105257600D02*
X152403600Y92786500D01*
X214795000Y117605000D02*
X216020000Y116380000D01*
X216020000Y116380000D02*
X216020000Y108670000D01*
X216020000Y108670000D02*
X214795000Y107445000D01*
X201865000Y59820000D02*
X205256200Y56428800D01*
X205256200Y56428800D02*
X205256200Y21909600D01*
X205256200Y21909600D02*
X206181100Y20984700D01*
X200190000Y59820000D02*
X201865000Y59820000D01*
X208406100Y61851100D02*
X207645000Y61090000D01*
X208406100Y63818000D02*
X208406100Y61851100D01*
X203135000Y61090000D02*
X201865000Y59820000D01*
X204818400Y67405700D02*
X208406100Y63818000D01*
X207645000Y61090000D02*
X203135000Y61090000D01*
X204818400Y71891800D02*
X204818400Y67405700D01*
X205152989Y72226389D02*
X204818400Y71891800D01*
X205152989Y74399987D02*
X205152989Y72226389D01*
X207175000Y117605000D02*
X205152989Y115582989D01*
X205225001Y74471999D02*
X205152989Y74399987D01*
X205152989Y75720013D02*
X205225001Y75648001D01*
X205225001Y104316999D02*
X205152989Y104244987D01*
X205152989Y85880013D02*
X205225001Y85808001D01*
X205152989Y115582989D02*
X205152989Y105565013D01*
X205225001Y85808001D02*
X205225001Y84631999D01*
X205152989Y105565013D02*
X205225001Y105493001D01*
X205225001Y84631999D02*
X205152989Y84559987D01*
X205225001Y105493001D02*
X205225001Y104316999D01*
X205152989Y84559987D02*
X205152989Y75720013D01*
X205152989Y104244987D02*
X205152989Y85880013D01*
X205225001Y75648001D02*
X205225001Y74471999D01*
X151399600Y109096100D02*
X151399600Y111359600D01*
X151399600Y111359600D02*
X155105000Y115065000D01*
X132880000Y109985000D02*
X134558700Y108306300D01*
X134558700Y108306300D02*
X134558700Y97600200D01*
X82715000Y12195000D02*
X80855900Y14054100D01*
X80855900Y14054100D02*
X80855900Y24819800D01*
X80855900Y24819800D02*
X82201100Y26165000D01*
X82201100Y26165000D02*
X83204800Y26165000D01*
X83204800Y26165000D02*
X90408700Y33368900D01*
X90408700Y33368900D02*
X90408700Y34956700D01*
X90408700Y34956700D02*
X91821600Y36369600D01*
X91821600Y36369600D02*
X96624100Y36369600D01*
X96624100Y36369600D02*
X102139000Y41884500D01*
X184950000Y47120000D02*
X184950000Y44580000D01*
X188969989Y129160789D02*
X188969989Y151960701D01*
X184950000Y47120000D02*
X187490000Y49660000D01*
X187490000Y127680800D02*
X188969989Y129160789D01*
X188969989Y151960701D02*
X188334989Y152595701D01*
X188334989Y152595701D02*
X187534990Y153395700D01*
X187490000Y49660000D02*
X187490000Y127680800D01*
X180574100Y126032900D02*
X180167500Y125626300D01*
X180167500Y125626300D02*
X180167500Y69536000D01*
X180167500Y69536000D02*
X177519000Y66887500D01*
X177519000Y66887500D02*
X177519000Y65387400D01*
X177519000Y65387400D02*
X178591700Y64314700D01*
X178591700Y64314700D02*
X178591700Y61081700D01*
X178591700Y61081700D02*
X177330000Y59820000D01*
X82715000Y14735000D02*
X84390000Y14735000D01*
X177330000Y59820000D02*
X172929600Y55419600D01*
X172929600Y55419600D02*
X172929600Y43503000D01*
X172929600Y43503000D02*
X158131600Y28705000D01*
X158131600Y28705000D02*
X157182200Y28705000D01*
X157182200Y28705000D02*
X147022200Y18545000D01*
X147022200Y18545000D02*
X141318200Y18545000D01*
X141318200Y18545000D02*
X133698200Y10925000D01*
X133698200Y10925000D02*
X88200000Y10925000D01*
X88200000Y10925000D02*
X84390000Y14735000D01*
X184950000Y59820000D02*
X186800300Y61670300D01*
X186800300Y61670300D02*
X186800300Y132171200D01*
X186800300Y132171200D02*
X185604400Y133367100D01*
X82715000Y17275000D02*
X90096900Y17275000D01*
X90096900Y17275000D02*
X91367000Y16004900D01*
X91367000Y16004900D02*
X107954600Y16004900D01*
X107954600Y16004900D02*
X115495500Y23545800D01*
X115495500Y23545800D02*
X115495500Y29583200D01*
X115495500Y29583200D02*
X117201900Y31289600D01*
X117201900Y31289600D02*
X118639700Y31289600D01*
X118639700Y31289600D02*
X128965900Y41615800D01*
X128965900Y41615800D02*
X128965900Y42635700D01*
X211552700Y72756400D02*
X211552700Y87326800D01*
X211552700Y87326800D02*
X210868200Y88011300D01*
X210868200Y88011300D02*
X210868200Y123956800D01*
X210868200Y123956800D02*
X209006100Y125818900D01*
X209006100Y125818900D02*
X209006100Y143078900D01*
X209006100Y143078900D02*
X207175000Y144910000D01*
X184950000Y80140000D02*
X186199900Y78890100D01*
X186199900Y78890100D02*
X186199900Y72516700D01*
X186199900Y72516700D02*
X185552400Y71869200D01*
X118949400Y50930000D02*
X121961700Y53942300D01*
X113447067Y47211167D02*
X114373012Y47211167D01*
X121961700Y66712330D02*
X122755500Y67506130D01*
X115010012Y47848167D02*
X115010012Y48774112D01*
X82715000Y19815000D02*
X89065000Y26165000D01*
X117165900Y50930000D02*
X118949400Y50930000D01*
X115010012Y48774112D02*
X117165900Y50930000D01*
X93122300Y26165000D02*
X110782100Y43824800D01*
X110782100Y43824800D02*
X110782100Y44546200D01*
X122755500Y67506130D02*
X122755500Y68637500D01*
X110782100Y44546200D02*
X113447067Y47211167D01*
X121961700Y53942300D02*
X121961700Y66712330D01*
X114373012Y47211167D02*
X115010012Y47848167D01*
X89065000Y26165000D02*
X93122300Y26165000D01*
X230035000Y117605000D02*
X231929700Y115710300D01*
X231929700Y115710300D02*
X231929700Y103731000D01*
X231929700Y103731000D02*
X232530000Y103130700D01*
X232530000Y103130700D02*
X232530000Y97875000D01*
X232530000Y97875000D02*
X231305000Y96650000D01*
X231305000Y96650000D02*
X231305000Y91570000D01*
X231305000Y91570000D02*
X230035000Y90300000D01*
X231305000Y99190000D02*
X228802600Y101692400D01*
X228802600Y101692400D02*
X228802600Y111292600D01*
X228802600Y111292600D02*
X230035000Y112525000D01*
X222415000Y117605000D02*
X221160300Y116350300D01*
X221160300Y116350300D02*
X221160300Y104375300D01*
X221160300Y104375300D02*
X222415000Y103120600D01*
X222415000Y103120600D02*
X222415000Y92840000D01*
X231305000Y101730000D02*
X231305000Y108715000D01*
X231305000Y108715000D02*
X230035000Y109985000D01*
X115814988Y74765930D02*
X115756900Y74707842D01*
X117640000Y122685000D02*
X115714300Y120759300D01*
X117215000Y94154700D02*
X115756900Y92696600D01*
X118118200Y56010000D02*
X112455070Y56010000D01*
X115756900Y74707842D02*
X115756900Y69413000D01*
X115756900Y78736877D02*
X115814988Y78678789D01*
X112455070Y56010000D02*
X100506170Y44061100D01*
X100506170Y44061100D02*
X99374800Y44061100D01*
X117376600Y94154700D02*
X117215000Y94154700D01*
X119534700Y57426500D02*
X118118200Y56010000D01*
X118257400Y95035500D02*
X117376600Y94154700D01*
X115714300Y120759300D02*
X115714300Y100266900D01*
X119534700Y65635200D02*
X119534700Y57426500D01*
X115756900Y69413000D02*
X119534700Y65635200D01*
X115814988Y78678789D02*
X115814988Y74765930D01*
X115714300Y100266900D02*
X118257400Y97723800D01*
X115756900Y92696600D02*
X115756900Y78736877D01*
X118257400Y97723800D02*
X118257400Y95035500D01*
X256250000Y179741000D02*
X256250300Y179741000D01*
D27*
X256250000Y179741000D02*
X245369000Y179741000D01*
X245369000Y179741000D02*
X245275000Y179835000D01*
X245275000Y179835000D02*
X245275000Y187240000D01*
X245275000Y187240000D02*
X27470000Y187240000D01*
X27470000Y187240000D02*
X27470000Y186185000D01*
D25*
X264960000Y59820000D02*
X263285000Y59820000D01*
X263285000Y59820000D02*
X262009900Y58544900D01*
X262009900Y58544900D02*
X259398700Y58544900D01*
X259398700Y58544900D02*
X253574600Y52720800D01*
X253574600Y52720800D02*
X253574600Y48434600D01*
X253574600Y48434600D02*
X252260000Y47120000D01*
X178461370Y54740000D02*
X177330000Y54740000D01*
X183054989Y59333619D02*
X178461370Y54740000D01*
X183054989Y83324989D02*
X183054989Y59333619D01*
X184950000Y85220000D02*
X183054989Y83324989D01*
X170345000Y54740000D02*
X172864700Y57259700D01*
X172864700Y57259700D02*
X172864700Y80754700D01*
X172864700Y80754700D02*
X177330000Y85220000D01*
X164400000Y54740000D02*
X166668500Y57008500D01*
X166668500Y57008500D02*
X166668500Y83218500D01*
X166668500Y83218500D02*
X168670000Y85220000D01*
X170345000Y85220000D02*
X168670000Y85220000D01*
X162725000Y54740000D02*
X164400000Y54740000D01*
X192570000Y82680000D02*
X192570000Y85220000D01*
X192570000Y57280000D02*
X193795300Y58505300D01*
X193795300Y58505300D02*
X193795300Y76374700D01*
X193795300Y76374700D02*
X192570000Y77600000D01*
X237655000Y85220000D02*
X237655000Y82680000D01*
X230035000Y80140000D02*
X230035000Y82680000D01*
X245275000Y82680000D02*
X245275000Y80140000D01*
X237655000Y90300000D02*
X243360100Y84594900D01*
X243360100Y84594900D02*
X243360100Y61734900D01*
X243360100Y61734900D02*
X245275000Y59820000D01*
X237655000Y87760000D02*
X238937400Y86477600D01*
X238937400Y86477600D02*
X238937400Y59355700D01*
X238937400Y59355700D02*
X238131700Y58550000D01*
X238131700Y58550000D02*
X237174300Y58550000D01*
X237174300Y58550000D02*
X231349600Y52725300D01*
X231349600Y52725300D02*
X231349600Y48434600D01*
X231349600Y48434600D02*
X230035000Y47120000D01*
X240944900Y82135000D02*
X240944900Y51028200D01*
X240944900Y51028200D02*
X237655000Y47738300D01*
X237655000Y47738300D02*
X237655000Y47120000D01*
X245275000Y87760000D02*
X246500000Y86535000D01*
X246500000Y86535000D02*
X246500000Y48345000D01*
X246500000Y48345000D02*
X245275000Y47120000D01*
X114556200Y94805400D02*
X116185501Y96434701D01*
X114556200Y78240491D02*
X114556200Y94805400D01*
X114614966Y75262994D02*
X114614966Y78181725D01*
X116185501Y96434701D02*
X116985500Y97234700D01*
X114614966Y78181725D02*
X114556200Y78240491D01*
X117640000Y62360000D02*
X114556200Y65443800D01*
X114556200Y65443800D02*
X114556200Y75204228D01*
X114556200Y75204228D02*
X114614966Y75262994D01*
X184950000Y101095000D02*
X186175000Y102320000D01*
X186175000Y102320000D02*
X186175000Y106220000D01*
X186175000Y106220000D02*
X184950000Y107445000D01*
X115156500Y67367600D02*
X118899900Y63624200D01*
X115214977Y78430257D02*
X115214977Y75014462D01*
X118899900Y63624200D02*
X118899900Y61079900D01*
X115156889Y93673289D02*
X115156889Y78488345D01*
X116863700Y95380100D02*
X115156889Y93673289D01*
X115156500Y74955985D02*
X115156500Y67367600D01*
X118899900Y61079900D02*
X118439999Y60619999D01*
X115156889Y78488345D02*
X115214977Y78430257D01*
X118439999Y60619999D02*
X117640000Y59820000D01*
X115214977Y75014462D02*
X115156500Y74955985D01*
X82715000Y27435000D02*
X82822200Y27435000D01*
X82822200Y27435000D02*
X89276100Y33888900D01*
X89276100Y33888900D02*
X89276100Y36855700D01*
X89276100Y36855700D02*
X107597100Y55176700D01*
X107597100Y55176700D02*
X108888600Y55176700D01*
X162725000Y59820000D02*
X163993000Y58552000D01*
X163993000Y58552000D02*
X163993000Y56808300D01*
X163993000Y56808300D02*
X163194700Y56010000D01*
X163194700Y56010000D02*
X162224800Y56010000D01*
X162224800Y56010000D02*
X157329200Y51114400D01*
X157329200Y51114400D02*
X157329200Y34823800D01*
X157329200Y34823800D02*
X154905800Y32400400D01*
X154905800Y32400400D02*
X154905800Y27277700D01*
X154905800Y27277700D02*
X148713100Y21085000D01*
X148713100Y21085000D02*
X139229800Y21085000D01*
X139229800Y21085000D02*
X134149900Y16005100D01*
X134149900Y16005100D02*
X120760300Y16005100D01*
X120760300Y16005100D02*
X118220200Y13465000D01*
X118220200Y13465000D02*
X90776100Y13465000D01*
X90776100Y13465000D02*
X88236000Y16005100D01*
X88236000Y16005100D02*
X82226700Y16005100D01*
X82226700Y16005100D02*
X81462200Y16769600D01*
X81462200Y16769600D02*
X81462200Y23642200D01*
X81462200Y23642200D02*
X82715000Y24895000D01*
X109182900Y43958500D02*
X93974000Y28749600D01*
X93974000Y28749600D02*
X90784600Y28749600D01*
X90784600Y28749600D02*
X84390000Y22355000D01*
X82715000Y22355000D02*
X84390000Y22355000D01*
X170345000Y47120000D02*
X170345000Y44580000D01*
X153340300Y34965900D02*
X150150400Y38155800D01*
X150150400Y38155800D02*
X150150400Y52074600D01*
X150150400Y52074600D02*
X147485000Y54740000D01*
X147485000Y52200000D02*
X149322400Y50362600D01*
X149322400Y50362600D02*
X149322400Y25673000D01*
X149322400Y25673000D02*
X150442800Y24552600D01*
X157645000Y17275000D02*
X158870000Y18500000D01*
X158870000Y18500000D02*
X158870000Y21130000D01*
X158870000Y21130000D02*
X157645000Y22355000D01*
X134194600Y22355000D02*
X134194600Y26604300D01*
X134194600Y26604300D02*
X148722000Y41131700D01*
X148722000Y41131700D02*
X148722000Y48423000D01*
X148722000Y48423000D02*
X147485000Y49660000D01*
X132880000Y22355000D02*
X134194600Y22355000D01*
X132880000Y17275000D02*
X134194600Y18589600D01*
X134194600Y18589600D02*
X134194600Y22355000D01*
X192570000Y24895000D02*
X194259200Y26584200D01*
X194259200Y26584200D02*
X194259200Y51349200D01*
X194259200Y51349200D02*
X200190000Y57280000D01*
X183045000Y14735000D02*
X192570000Y24260000D01*
X192570000Y24260000D02*
X192570000Y24895000D01*
X182429200Y14735000D02*
X183045000Y14735000D01*
X182429200Y14735000D02*
X181370000Y14735000D01*
X157645000Y14735000D02*
X159320000Y14735000D01*
X159320000Y14735000D02*
X160589900Y13465100D01*
X160589900Y13465100D02*
X180100100Y13465100D01*
X180100100Y13465100D02*
X181370000Y14735000D01*
X192570000Y22355000D02*
X195747900Y25532900D01*
X195747900Y25532900D02*
X195747900Y50297900D01*
X195747900Y50297900D02*
X200190000Y54740000D01*
X183045000Y12195000D02*
X192570000Y21720000D01*
X192570000Y21720000D02*
X192570000Y22355000D01*
X192570000Y19815000D02*
X196559500Y23804500D01*
X196559500Y23804500D02*
X196559500Y48569500D01*
X196559500Y48569500D02*
X200190000Y52200000D01*
X183045000Y9655000D02*
X192570000Y19180000D01*
X192570000Y19180000D02*
X192570000Y19815000D01*
X207810000Y22355000D02*
X207810000Y24030000D01*
X205484800Y58211400D02*
X205909500Y57786700D01*
X205909500Y57786700D02*
X205909500Y25930500D01*
X205909500Y25930500D02*
X207810000Y24030000D01*
X207810000Y22355000D02*
X207810000Y19815000D01*
X192570000Y17275000D02*
X197229400Y21934400D01*
X197229400Y21934400D02*
X197229400Y48374400D01*
X197229400Y48374400D02*
X198515000Y49660000D01*
X183045000Y7115000D02*
X192570000Y16640000D01*
X192570000Y16640000D02*
X192570000Y17275000D01*
X200190000Y49660000D02*
X198515000Y49660000D01*
X200190000Y45445000D02*
X202015800Y43619200D01*
X202015800Y43619200D02*
X202015800Y23069200D01*
X202015800Y23069200D02*
X207810000Y17275000D01*
X200190000Y47120000D02*
X200190000Y45445000D01*
X237655000Y52200000D02*
X236429600Y50974600D01*
X236429600Y50974600D02*
X236429600Y32031900D01*
X236429600Y32031900D02*
X223729600Y19331900D01*
X223729600Y19331900D02*
X223729600Y8429600D01*
X223729600Y8429600D02*
X222415000Y7115000D01*
X245275000Y54740000D02*
X245275000Y54340000D01*
X245275000Y54340000D02*
X238951700Y48016700D01*
X238951700Y48016700D02*
X238951700Y31650900D01*
X238951700Y31650900D02*
X232406700Y25105900D01*
X232406700Y25105900D02*
X232406700Y22186700D01*
X232406700Y22186700D02*
X230035000Y19815000D01*
X237655000Y54740000D02*
X233947700Y51032700D01*
X233947700Y51032700D02*
X233947700Y31347700D01*
X233947700Y31347700D02*
X222415000Y19815000D01*
X245275000Y52200000D02*
X244049600Y50974600D01*
X244049600Y50974600D02*
X244049600Y35050700D01*
X244049600Y35050700D02*
X234148100Y25149200D01*
X234148100Y25149200D02*
X234148100Y11228100D01*
X234148100Y11228100D02*
X230035000Y7115000D01*
X237655000Y59820000D02*
X236362500Y61112500D01*
X236362500Y61112500D02*
X236362500Y81432500D01*
X236362500Y81432500D02*
X230035000Y87760000D01*
X230035000Y85220000D02*
X231267400Y83987600D01*
X231267400Y83987600D02*
X231267400Y61052400D01*
X231267400Y61052400D02*
X230035000Y59820000D01*
X183045000Y4575000D02*
X192570000Y14100000D01*
X192570000Y14100000D02*
X192570000Y14735000D01*
X217105000Y17275000D02*
X215430000Y17275000D01*
X222185000Y12195000D02*
X217105000Y17275000D01*
X222415000Y12195000D02*
X222185000Y12195000D01*
X192570000Y7115000D02*
X187331700Y7115000D01*
X187331700Y7115000D02*
X183547100Y3330400D01*
X183547100Y3330400D02*
X178344600Y3330400D01*
X178344600Y3330400D02*
X169480000Y12195000D01*
X167805000Y12195000D02*
X169480000Y12195000D01*
X109155000Y24895000D02*
X110610600Y24895000D01*
X110610600Y24895000D02*
X112460000Y26744400D01*
X112460000Y26744400D02*
X112460000Y35000000D01*
X107480000Y24895000D02*
X109155000Y24895000D01*
X142405000Y7115000D02*
X140730000Y7115000D01*
X117640000Y7115000D02*
X119315000Y7115000D01*
X119315000Y7115000D02*
X120584900Y8384900D01*
X120584900Y8384900D02*
X139460100Y8384900D01*
X139460100Y8384900D02*
X140730000Y7115000D01*
X167805000Y7115000D02*
X169480000Y7115000D01*
X192570000Y12195000D02*
X193800900Y10964100D01*
X193800900Y10964100D02*
X193800900Y6612300D01*
X193800900Y6612300D02*
X193033600Y5845000D01*
X193033600Y5845000D02*
X188868200Y5845000D01*
X188868200Y5845000D02*
X185724600Y2701400D01*
X185724600Y2701400D02*
X173893600Y2701400D01*
X173893600Y2701400D02*
X169480000Y7115000D01*
X207810000Y9655000D02*
X209485000Y9655000D01*
X209485000Y9655000D02*
X212025000Y7115000D01*
X212025000Y7115000D02*
X215430000Y7115000D01*
X184950000Y112525000D02*
X184950000Y109985000D01*
X147485000Y47120000D02*
X147485000Y46654800D01*
X147485000Y46654800D02*
X138425200Y37595000D01*
X200190000Y107445000D02*
X198964600Y106219600D01*
X198964600Y106219600D02*
X198964600Y98131900D01*
X198964600Y98131900D02*
X199190900Y97905600D01*
X131240600Y94697300D02*
X126574600Y90031300D01*
X126574600Y90031300D02*
X126574600Y83994600D01*
X126574600Y83994600D02*
X125260000Y82680000D01*
X192570000Y149990000D02*
X196284300Y146275700D01*
X196284300Y146275700D02*
X196284300Y136446000D01*
X196284300Y136446000D02*
X201491500Y131238800D01*
X201491500Y131238800D02*
X201491500Y130172600D01*
X203240022Y123008178D02*
X203240022Y113776325D01*
X203240022Y113776325D02*
X203240022Y112644955D01*
X201491500Y130172600D02*
X201491500Y124756700D01*
X201491500Y124756700D02*
X203240022Y123008178D01*
X207175000Y80140000D02*
X205950000Y78915000D01*
X205950000Y78915000D02*
X205950000Y70095000D01*
X205950000Y70095000D02*
X206065000Y69980000D01*
X132880000Y120145000D02*
X136587200Y116437800D01*
X136587200Y116437800D02*
X136587200Y99385600D01*
X190895000Y27435000D02*
X187085000Y31245000D01*
X187085000Y31245000D02*
X182554000Y31245000D01*
X182554000Y31245000D02*
X176068100Y37730900D01*
X176068100Y37730900D02*
X176068100Y55231500D01*
X176068100Y55231500D02*
X176846600Y56010000D01*
X176846600Y56010000D02*
X177800600Y56010000D01*
X177800600Y56010000D02*
X179202400Y57411800D01*
X179202400Y57411800D02*
X179202400Y65728100D01*
X179202400Y65728100D02*
X178747500Y66183000D01*
X98662900Y50987000D02*
X80656800Y32980900D01*
X80656800Y32980900D02*
X79732800Y32980900D01*
X184950000Y117605000D02*
X182840400Y115495400D01*
X182840400Y115495400D02*
X182840400Y105490700D01*
X182840400Y105490700D02*
X180767900Y103418200D01*
X180767900Y103418200D02*
X180767900Y68203400D01*
X180767900Y68203400D02*
X178747500Y66183000D01*
X192570000Y27435000D02*
X190895000Y27435000D01*
X264960000Y56010000D02*
X266635000Y56010000D01*
X266635000Y56010000D02*
X271692000Y61067000D01*
X271692000Y61067000D02*
X273141500Y61067000D01*
X273141500Y61067000D02*
X282118400Y52090100D01*
X282118400Y52090100D02*
X282118400Y47624600D01*
X282118400Y47624600D02*
X283548000Y46195000D01*
X280708000Y22650000D02*
X282323000Y24265000D01*
X282323000Y24265000D02*
X282323000Y42200000D01*
X282323000Y42200000D02*
X283548000Y43425000D01*
X264706000Y52454000D02*
X259880000Y57280000D01*
X264706000Y52200000D02*
X264706000Y52454000D01*
X264960000Y52200000D02*
X264706000Y52200000D01*
X264960000Y40135000D02*
X264960000Y38460000D01*
X264960000Y38460000D02*
X263285000Y36785000D01*
X263285000Y36785000D02*
X263285000Y35920000D01*
X263285000Y35920000D02*
X244640000Y17275000D01*
X264960000Y44475300D02*
X264960000Y44580000D01*
X241478800Y20994100D02*
X264960000Y44475300D01*
X241478800Y14113800D02*
X241478800Y20994100D01*
X237020000Y9655000D02*
X241478800Y14113800D01*
X264960000Y21085000D02*
X262825000Y21085000D01*
X262825000Y21085000D02*
X261555000Y19815000D01*
X259880000Y19815000D02*
X261555000Y19815000D01*
X264960000Y21085000D02*
X266635000Y21085000D01*
X273805400Y19967700D02*
X279257700Y25420000D01*
X266635000Y21085000D02*
X271676600Y16043400D01*
X271676600Y16043400D02*
X273081200Y16043400D01*
X273081200Y16043400D02*
X273805400Y16767600D01*
X273805400Y16767600D02*
X273805400Y19967700D01*
X279257700Y25420000D02*
X280708000Y25420000D01*
X283548000Y37885000D02*
X284773000Y36660000D01*
X284773000Y36660000D02*
X284773000Y16950000D01*
X284773000Y16950000D02*
X283548000Y15725000D01*
X253935000Y12195000D02*
X252260000Y12195000D01*
X264960000Y17275000D02*
X264227200Y17275000D01*
X264227200Y17275000D02*
X260388500Y13436300D01*
X260388500Y13436300D02*
X255176300Y13436300D01*
X255176300Y13436300D02*
X253935000Y12195000D01*
X282740000Y142650000D02*
X282740000Y140975000D01*
X285280000Y138560000D02*
X282865000Y140975000D01*
X282865000Y140975000D02*
X282740000Y140975000D01*
X259880000Y142370000D02*
X253530000Y148720000D01*
X253530000Y148720000D02*
X253530000Y165230000D01*
X249720000Y142370000D02*
X249720000Y147282800D01*
X249720000Y147282800D02*
X245742800Y151260000D01*
X245742800Y151260000D02*
X244790400Y151260000D01*
X244790400Y151260000D02*
X243994900Y152055500D01*
X243994900Y152055500D02*
X243994900Y158869900D01*
X243994900Y158869900D02*
X245275000Y160150000D01*
X245275000Y125225000D02*
X245275000Y122685000D01*
X162725000Y106175000D02*
X162725000Y105592700D01*
X162725000Y105592700D02*
X156322300Y99190000D01*
X156322300Y99190000D02*
X154470000Y99190000D01*
X245275000Y104905000D02*
X245275000Y102365000D01*
X245275000Y107445000D02*
X245275000Y104905000D01*
X245275000Y109985000D02*
X245275000Y107445000D01*
X237655000Y112525000D02*
X237655000Y109985000D01*
X237655000Y115065000D02*
X237655000Y112525000D01*
X245275000Y117605000D02*
X245275000Y115065000D01*
X245275000Y120145000D02*
X245275000Y117605000D01*
X230035000Y69980000D02*
X230035000Y67440000D01*
X237020000Y24030000D02*
X249009400Y36019400D01*
X249009400Y36019400D02*
X249009400Y50695600D01*
X249009400Y50695600D02*
X251783800Y53470000D01*
X251783800Y53470000D02*
X252730600Y53470000D01*
X252730600Y53470000D02*
X253485400Y54224800D01*
X253485400Y54224800D02*
X253485400Y58594600D01*
X253485400Y58594600D02*
X252260000Y59820000D01*
X237020000Y22355000D02*
X237020000Y24030000D01*
X237020000Y22355000D02*
X235787600Y21122600D01*
X235787600Y21122600D02*
X235787600Y18507400D01*
X235787600Y18507400D02*
X237020000Y17275000D01*
X9911000Y35911000D02*
X9911000Y32461700D01*
X17310000Y45758002D02*
X17310000Y43310000D01*
X19261999Y47710001D02*
X17310000Y45758002D01*
X17310000Y43310000D02*
X9911000Y35911000D01*
X19850000Y47710001D02*
X19261999Y47710001D01*
X19850000Y50295000D02*
X19850000Y47710001D01*
X261112400Y45812400D02*
X265530300Y45812400D01*
X265530300Y45812400D02*
X266239000Y45103700D01*
X266239000Y45103700D02*
X266239000Y43149800D01*
X266239000Y43149800D02*
X246227500Y23138300D01*
X246227500Y23138300D02*
X246227500Y22206900D01*
X246227500Y22206900D02*
X245061000Y21040400D01*
X245061000Y21040400D02*
X244112100Y21040400D01*
X244112100Y21040400D02*
X243381100Y20309400D01*
X243381100Y20309400D02*
X243381100Y12195000D01*
X244640000Y12195000D02*
X243381100Y12195000D01*
X243381100Y12195000D02*
X243381100Y8373900D01*
X243381100Y8373900D02*
X244640000Y7115000D01*
X261112400Y45812400D02*
X259880000Y44580000D01*
X259880000Y49660000D02*
X261112400Y48427600D01*
X261112400Y48427600D02*
X261112400Y45812400D01*
X9911000Y27460400D02*
X12426100Y29975500D01*
X12426100Y29975500D02*
X12426100Y37386100D01*
X12426100Y37386100D02*
X19850000Y44810000D01*
X19850000Y46485000D02*
X19850000Y44810000D01*
X19850000Y31245000D02*
X19850000Y29570000D01*
X19850000Y29570000D02*
X16553000Y26273000D01*
X16553000Y26273000D02*
X11223000Y26273000D01*
X11223000Y26273000D02*
X9911000Y24961000D01*
X19850000Y23625000D02*
X18175000Y23625000D01*
X18175000Y23625000D02*
X16839000Y24961000D01*
X16839000Y24961000D02*
X14909700Y24961000D01*
X235862300Y25130700D02*
X247100400Y36368800D01*
X247100400Y36368800D02*
X247100400Y52120400D01*
X247100400Y52120400D02*
X252260000Y57280000D01*
X19850000Y19815000D02*
X15953700Y23711300D01*
X15953700Y23711300D02*
X11160600Y23711300D01*
X11160600Y23711300D02*
X9911000Y22461700D01*
X250585000Y12100000D02*
X250585000Y14285400D01*
X250585000Y14285400D02*
X251034600Y14735000D01*
X258205000Y9655000D02*
X256979600Y10880400D01*
X256979600Y10880400D02*
X251804600Y10880400D01*
X251804600Y10880400D02*
X250585000Y12100000D01*
X252260000Y14735000D02*
X251034600Y14735000D01*
X252260000Y19815000D02*
X251034600Y18589600D01*
X251034600Y18589600D02*
X251034600Y14735000D01*
X259880000Y9655000D02*
X258205000Y9655000D01*
X246315000Y9655000D02*
X248760000Y12100000D01*
X248760000Y12100000D02*
X250585000Y12100000D01*
X244640000Y9655000D02*
X246315000Y9655000D01*
X259880000Y47120000D02*
X258565400Y45805400D01*
X258565400Y45805400D02*
X258565400Y39356400D01*
X258565400Y39356400D02*
X239477800Y20268800D01*
X19850000Y17521400D02*
X14909700Y22461700D01*
X19850000Y16005000D02*
X19850000Y17521400D01*
X19850000Y8385000D02*
X19850000Y10060000D01*
X19850000Y10060000D02*
X18175000Y11735000D01*
X18175000Y11735000D02*
X18175000Y16697000D01*
X18175000Y16697000D02*
X14909700Y19962300D01*
X259245000Y14735000D02*
X259880000Y14735000D01*
X259144200Y14735000D02*
X259245000Y14735000D01*
X244640000Y14735000D02*
X245372800Y14735000D01*
X245372800Y14735000D02*
X251722800Y21085000D01*
X251722800Y21085000D02*
X252794200Y21085000D01*
X252794200Y21085000D02*
X259144200Y14735000D01*
X252260000Y52200000D02*
X250945400Y50885400D01*
X250945400Y50885400D02*
X250945400Y33886800D01*
X250945400Y33886800D02*
X238252500Y21193900D01*
X238252500Y21193900D02*
X238252500Y15967500D01*
X238252500Y15967500D02*
X237020000Y14735000D01*
X97320000Y118875000D02*
X98546200Y117648800D01*
X98546200Y117648800D02*
X98546200Y105496200D01*
X98546200Y105496200D02*
X92240000Y99190000D01*
X106431400Y135342200D02*
X106431400Y145958600D01*
X106431400Y145958600D02*
X102400000Y149990000D01*
X170345000Y117605000D02*
X168670000Y117605000D01*
X162725000Y123955000D02*
X164400000Y123955000D01*
X164400000Y123955000D02*
X165063000Y124618000D01*
X165063000Y124618000D02*
X166065800Y124618000D01*
X166065800Y124618000D02*
X168670000Y122013800D01*
X168670000Y122013800D02*
X168670000Y117605000D01*
X170345000Y120145000D02*
X171570300Y118919700D01*
X171570300Y118919700D02*
X171570300Y95339300D01*
X171570300Y95339300D02*
X171465800Y95234800D01*
X192570000Y93475000D02*
X193802400Y92242600D01*
X193802400Y92242600D02*
X193802400Y88992400D01*
X193802400Y88992400D02*
X192570000Y87760000D01*
X107480000Y76330000D02*
X99696900Y84113100D01*
X99696900Y84113100D02*
X99696900Y98186500D01*
X99696900Y98186500D02*
X100999100Y99488700D01*
X100999100Y99488700D02*
X101086100Y99488700D01*
X107480000Y78870000D02*
X100922200Y85427800D01*
X100922200Y85427800D02*
X100922200Y97638300D01*
X107480000Y81410000D02*
X102627500Y86262500D01*
X102627500Y86262500D02*
X102627500Y99251800D01*
X102627500Y99251800D02*
X102963200Y99587500D01*
X107480000Y83950000D02*
X108749800Y82680200D01*
X108749800Y82680200D02*
X108749800Y75826600D01*
X108749800Y75826600D02*
X107983200Y75060000D01*
X107983200Y75060000D02*
X101078300Y75060000D01*
X101078300Y75060000D02*
X93502200Y82636100D01*
X93502200Y82636100D02*
X77577500Y82636100D01*
X77577500Y82636100D02*
X77021000Y82079600D01*
X77021000Y82079600D02*
X72727900Y82079600D01*
X72727900Y82079600D02*
X70121400Y84686100D01*
X70121400Y84686100D02*
X70121400Y109143700D01*
X70121400Y109143700D02*
X69673600Y109591500D01*
X55410000Y56010000D02*
X59081000Y59681000D01*
X59081000Y59681000D02*
X59081000Y81398900D01*
X55410000Y58550000D02*
X57855600Y60995600D01*
X57855600Y60995600D02*
X57855600Y80007300D01*
X107480000Y89030000D02*
X103862700Y92647300D01*
X103862700Y92647300D02*
X103862700Y96645000D01*
X81726300Y66170000D02*
X81726300Y67556900D01*
X81726300Y67556900D02*
X91769400Y77600000D01*
X91769400Y77600000D02*
X92730600Y77600000D01*
X92730600Y77600000D02*
X93503100Y78372500D01*
X93503100Y78372500D02*
X93503100Y80146900D01*
X93503100Y80146900D02*
X92240000Y81410000D01*
X79468700Y68710000D02*
X78205000Y67446300D01*
X80665200Y68710000D02*
X79468700Y68710000D01*
X90825200Y78870000D02*
X80665200Y68710000D01*
X92240000Y78870000D02*
X90825200Y78870000D01*
X85342600Y68710000D02*
X92240000Y75607400D01*
X92240000Y75607400D02*
X92240000Y76330000D01*
X55410000Y68710000D02*
X53379200Y70740800D01*
X53379200Y70740800D02*
X53379200Y76040300D01*
X90565000Y68710000D02*
X85485000Y63630000D01*
X85485000Y63630000D02*
X79667500Y63630000D01*
X79667500Y63630000D02*
X76810800Y66486700D01*
X76810800Y66486700D02*
X76810800Y72527400D01*
X92240000Y68710000D02*
X90565000Y68710000D01*
X80175000Y54740000D02*
X81850000Y54740000D01*
X81850000Y54740000D02*
X89470000Y62360000D01*
X89470000Y62360000D02*
X92730600Y62360000D01*
X92730600Y62360000D02*
X93503100Y63132500D01*
X93503100Y63132500D02*
X93503100Y64906900D01*
X93503100Y64906900D02*
X92240000Y66170000D01*
X80175000Y57280000D02*
X81850000Y57280000D01*
X81850000Y57280000D02*
X88200000Y63630000D01*
X88200000Y63630000D02*
X92240000Y63630000D01*
X130375300Y102916100D02*
X130375300Y104940300D01*
X130375300Y104940300D02*
X132880000Y107445000D01*
X72555000Y101095000D02*
X76365000Y97285000D01*
X76365000Y95485000D02*
X79689600Y92160400D01*
X82759600Y92160400D02*
X88265001Y86654999D01*
X79689600Y92160400D02*
X82759600Y92160400D01*
X88265001Y86654999D02*
X89065000Y85855000D01*
X76365000Y97285000D02*
X76365000Y95485000D01*
X116414999Y75015001D02*
X116414999Y83994999D01*
X116840001Y84420001D02*
X117640000Y85220000D01*
X116414999Y83994999D02*
X116840001Y84420001D01*
X117640000Y73790000D02*
X116414999Y75015001D01*
X92240000Y104270000D02*
X93915000Y104270000D01*
X93915000Y104270000D02*
X94113700Y104468700D01*
X94113700Y104468700D02*
X94113700Y118296100D01*
X94113700Y118296100D02*
X92264800Y120145000D01*
X28969900Y120073000D02*
X28969900Y144300800D01*
X28969900Y144300800D02*
X33143600Y148474500D01*
X33143600Y148474500D02*
X33143600Y152190600D01*
X33143600Y152190600D02*
X27470100Y157864100D01*
X27470100Y157864100D02*
X27470100Y163555000D01*
X27470100Y163555000D02*
X27470000Y163555000D01*
X9911000Y64996900D02*
X13686500Y68772400D01*
X13686500Y68772400D02*
X13686500Y80496600D01*
X13686500Y80496600D02*
X14437700Y81247800D01*
X14437700Y81247800D02*
X15378400Y81247800D01*
X15378400Y81247800D02*
X19143500Y85012900D01*
X19143500Y85012900D02*
X19143500Y110246600D01*
X19143500Y110246600D02*
X28969900Y120073000D01*
X27470000Y165230000D02*
X27470000Y163555000D01*
X28819100Y113701800D02*
X27543100Y113701800D01*
X27543100Y113701800D02*
X20044000Y106202700D01*
X20044000Y106202700D02*
X20044000Y82628000D01*
X20044000Y82628000D02*
X14912200Y77496200D01*
X97320000Y114660000D02*
X97320000Y105135000D01*
X97320000Y105135000D02*
X93915000Y101730000D01*
X97320000Y116335000D02*
X97320000Y114660000D01*
X92240000Y101730000D02*
X93915000Y101730000D01*
X81445000Y124590000D02*
X81445000Y117642500D01*
X81445000Y117642500D02*
X78929400Y115126900D01*
X78929400Y115126900D02*
X78929400Y113288200D01*
X78929400Y113288200D02*
X79692600Y112525000D01*
X79692600Y112525000D02*
X90798100Y112525000D01*
X90798100Y112525000D02*
X93513400Y109809700D01*
X93513400Y109809700D02*
X93513400Y106274200D01*
X93513400Y106274200D02*
X92779200Y105540000D01*
X92779200Y105540000D02*
X91676300Y105540000D01*
X91676300Y105540000D02*
X91006900Y104870600D01*
X91006900Y104870600D02*
X91006900Y97883100D01*
X91006900Y97883100D02*
X92240000Y96650000D01*
X97320000Y121415000D02*
X101360900Y117374100D01*
X101360900Y117374100D02*
X101360900Y116307700D01*
X101360900Y116307700D02*
X106467500Y111201100D01*
X106467500Y111201100D02*
X107431600Y111201100D01*
X107431600Y111201100D02*
X108712400Y109920300D01*
X108712400Y109920300D02*
X108712400Y100422400D01*
X108712400Y100422400D02*
X107480000Y99190000D01*
X14912200Y97498700D02*
X12466800Y99944100D01*
X12466800Y99944100D02*
X12466800Y114297200D01*
X14770000Y158475000D02*
X16742300Y156502700D01*
X16742300Y156502700D02*
X16742300Y96723400D01*
X16742300Y96723400D02*
X15018300Y94999400D01*
X15018300Y94999400D02*
X14912200Y94999400D01*
X14770000Y160150000D02*
X14770000Y158475000D01*
X92240000Y91570000D02*
X80175000Y103635000D01*
X221145000Y99190000D02*
X221145000Y101730000D01*
X221145000Y96650000D02*
X221145000Y99190000D01*
X200989999Y148249999D02*
X200190000Y147450000D01*
X200949978Y156001528D02*
X200949978Y154431567D01*
X208898000Y157015200D02*
X201963650Y157015200D01*
X202104900Y149364900D02*
X200989999Y148249999D01*
X211430700Y125941300D02*
X211430700Y154482500D01*
X211430700Y154482500D02*
X208898000Y157015200D01*
X212772989Y124599011D02*
X211430700Y125941300D01*
X201963650Y157015200D02*
X200949978Y156001528D01*
X212772989Y103117011D02*
X212772989Y124599011D01*
X202104900Y153276645D02*
X202104900Y149364900D01*
X200949978Y154431567D02*
X202104900Y153276645D01*
X214795000Y101095000D02*
X212772989Y103117011D01*
X249085000Y174675000D02*
X246585000Y172175000D01*
X79470600Y129311700D02*
X79470600Y123417900D01*
X79470600Y123417900D02*
X75310300Y119257600D01*
X75310300Y119257600D02*
X75310300Y107255300D01*
X75310300Y107255300D02*
X74230000Y106175000D01*
X26932500Y94901500D02*
X26932500Y79519100D01*
X26932500Y79519100D02*
X14912200Y67498800D01*
X72555000Y106175000D02*
X74230000Y106175000D01*
X155105000Y112525000D02*
X156346200Y113766200D01*
X156346200Y113766200D02*
X156346200Y118153500D01*
X156346200Y118153500D02*
X155669300Y118830400D01*
X155669300Y118830400D02*
X154657800Y118830400D01*
X154657800Y118830400D02*
X150629900Y122858300D01*
X150629900Y122858300D02*
X150629900Y123421400D01*
X145864200Y69336300D02*
X145636900Y69563600D01*
X145636900Y69563600D02*
X145636900Y118296900D01*
X145636900Y118296900D02*
X147485000Y120145000D01*
X140500000Y64900000D02*
X141769800Y66169800D01*
X141769800Y66169800D02*
X141769800Y67971500D01*
X141769800Y67971500D02*
X140467700Y69273600D01*
X140467700Y69273600D02*
X138446700Y69273600D01*
X147485000Y120145000D02*
X147485000Y121820000D01*
X147485000Y121820000D02*
X147565000Y121900000D01*
X147565000Y121900000D02*
X147565000Y123320000D01*
X71285000Y28705000D02*
X73825000Y31245000D01*
X75605100Y31245000D02*
X78566300Y34206200D01*
X73825000Y31245000D02*
X75605100Y31245000D01*
X78566300Y34206200D02*
X79726500Y34206200D01*
X96550100Y49781886D02*
X96550100Y51309930D01*
X92148012Y45379798D02*
X96550100Y49781886D01*
X96550100Y51309930D02*
X96550100Y52441300D01*
X90900098Y45379798D02*
X92148012Y45379798D01*
X79726500Y34206200D02*
X90900098Y45379798D01*
X155453200Y35670800D02*
X153579600Y37544400D01*
X153579600Y37544400D02*
X153579600Y47796857D01*
X153579600Y47796857D02*
X153107989Y48268468D01*
X153107989Y48268468D02*
X153107989Y62092511D01*
X153107989Y62092511D02*
X145864200Y69336300D01*
X275120000Y134750000D02*
X275120000Y136425000D01*
X275120000Y136425000D02*
X272498700Y139046300D01*
X272498700Y139046300D02*
X272498700Y175184300D01*
X272498700Y175184300D02*
X270540900Y177142100D01*
X270540900Y177142100D02*
X261149500Y177142100D01*
X261149500Y177142100D02*
X258749700Y174742300D01*
X263751000Y174742300D02*
X263751000Y143399300D01*
X129664400Y124546900D02*
X130312200Y123899100D01*
X130312200Y123899100D02*
X130312200Y120920200D01*
X130312200Y120920200D02*
X129693500Y120301500D01*
X129693500Y120301500D02*
X129693500Y115711500D01*
X129693500Y115711500D02*
X132880000Y112525000D01*
X221288500Y128447200D02*
X221164200Y128322900D01*
X221164200Y128322900D02*
X221164200Y119655200D01*
X221164200Y119655200D02*
X221944400Y118875000D01*
X221944400Y118875000D02*
X222923500Y118875000D01*
X222923500Y118875000D02*
X223685000Y118113500D01*
X223685000Y118113500D02*
X223685000Y116335000D01*
X223685000Y116335000D02*
X222415000Y115065000D01*
X129847400Y154363500D02*
X121942800Y154363500D01*
X121942800Y154363500D02*
X114963000Y161343300D01*
X114963000Y161343300D02*
X108080400Y161343300D01*
X108080400Y161343300D02*
X104888300Y158151200D01*
X104888300Y158151200D02*
X104888300Y156693300D01*
X104888300Y156693300D02*
X102400000Y154205000D01*
X261604900Y151589500D02*
X261604900Y174386500D01*
X261604900Y174386500D02*
X261249100Y174742300D01*
X102400000Y152530000D02*
X102400000Y154205000D01*
X136944000Y161460100D02*
X136944000Y163717630D01*
X136944000Y163717630D02*
X136944000Y164849000D01*
X129847400Y154363500D02*
X136944000Y161460100D01*
X131205000Y149990000D02*
X132880000Y149990000D01*
X130594000Y150601000D02*
X131205000Y149990000D01*
X130594000Y153616900D02*
X130594000Y150601000D01*
X129847400Y154363500D02*
X130594000Y153616900D01*
X117640000Y109985000D02*
X119315000Y109985000D01*
X119315000Y109985000D02*
X122550100Y113220100D01*
X122550100Y113220100D02*
X122550100Y119239800D01*
X122550100Y119239800D02*
X122462200Y119327700D01*
X122462200Y119327700D02*
X122462200Y141380700D01*
X122462200Y141380700D02*
X124721500Y143640000D01*
X124721500Y143640000D02*
X126660700Y143640000D01*
X126660700Y143640000D02*
X129200700Y146180000D01*
X129200700Y146180000D02*
X134839800Y146180000D01*
X134839800Y146180000D02*
X139919800Y151260000D01*
X139919800Y151260000D02*
X140981900Y151260000D01*
X140981900Y151260000D02*
X141732400Y150509500D01*
X141732400Y150509500D02*
X141732400Y143602400D01*
X141732400Y143602400D02*
X140500000Y142370000D01*
X41480500Y9655000D02*
X41480500Y14735000D01*
X42710000Y7115000D02*
X41480500Y8344500D01*
X41480500Y8344500D02*
X41480500Y9655000D01*
X41480500Y9655000D02*
X36765000Y9655000D01*
X35090000Y9655000D02*
X36765000Y9655000D01*
X41480500Y14735000D02*
X41480500Y27070500D01*
X41480500Y27070500D02*
X42710000Y28300000D01*
X42710000Y14735000D02*
X41480500Y14735000D01*
X42710000Y29975000D02*
X42710000Y28300000D01*
X42710000Y42675000D02*
X40829700Y40794700D01*
X40829700Y40794700D02*
X40829700Y31855300D01*
X40829700Y31855300D02*
X42710000Y29975000D01*
X25050000Y165252300D02*
X25050000Y159412500D01*
X25050000Y159412500D02*
X32514000Y151948500D01*
X32514000Y151948500D02*
X32514000Y148699900D01*
X32514000Y148699900D02*
X18543200Y134729100D01*
X18543200Y134729100D02*
X18543200Y86128500D01*
X18543200Y86128500D02*
X14912200Y82497500D01*
X31280000Y148315000D02*
X17942900Y134977900D01*
X17942900Y134977900D02*
X17942900Y93028800D01*
X17942900Y93028800D02*
X14912200Y89998100D01*
X31280000Y149990000D02*
X31280000Y148315000D01*
X78949600Y156933400D02*
X78349300Y156333100D01*
X78349300Y156333100D02*
X78349300Y143736000D01*
X78349300Y143736000D02*
X78574400Y143510900D01*
X78574400Y143510900D02*
X78574400Y139385400D01*
X78574400Y139385400D02*
X77538000Y138349000D01*
X77538000Y138349000D02*
X77538000Y136080900D01*
X77538000Y136080900D02*
X76777000Y135319900D01*
X76777000Y135319900D02*
X76777000Y132580900D01*
X76777000Y132580900D02*
X76165800Y131969700D01*
X76165800Y131969700D02*
X76165800Y122910000D01*
X76165800Y122910000D02*
X72555000Y119299200D01*
X72555000Y119299200D02*
X72555000Y113795000D01*
X99860000Y174120000D02*
X96136200Y174120000D01*
X96136200Y174120000D02*
X78949600Y156933400D01*
X37630000Y167770000D02*
X40524000Y164876000D01*
X40524000Y164876000D02*
X40524000Y156365600D01*
X93942500Y137290000D02*
X93554600Y136902100D01*
X93554600Y136902100D02*
X93554600Y128520600D01*
X93554600Y128520600D02*
X102261300Y119813900D01*
X102261300Y119813900D02*
X102261300Y116287400D01*
X102261300Y116287400D02*
X106747200Y111801500D01*
X106747200Y111801500D02*
X107680300Y111801500D01*
X107680300Y111801500D02*
X109418100Y110063700D01*
X109418100Y110063700D02*
X109418100Y106636200D01*
X74041600Y88806600D02*
X78218500Y84629700D01*
X78218500Y84629700D02*
X90847600Y84629700D01*
X90847600Y84629700D02*
X91437900Y85220000D01*
X91437900Y85220000D02*
X92762600Y85220000D01*
X92762600Y85220000D02*
X96298700Y88756100D01*
X96298700Y88756100D02*
X96298700Y96518600D01*
X96298700Y96518600D02*
X100594300Y100814200D01*
X100594300Y100814200D02*
X104082200Y100814200D01*
X104082200Y100814200D02*
X106976400Y97920000D01*
X106976400Y97920000D02*
X107953400Y97920000D01*
X107953400Y97920000D02*
X109418100Y99384700D01*
X109418100Y99384700D02*
X109418100Y106636200D01*
X109418100Y106636200D02*
X110851600Y106636200D01*
X74041600Y88806600D02*
X74041600Y97068400D01*
X74041600Y97068400D02*
X72555000Y98555000D01*
X94780000Y137290000D02*
X93942500Y137290000D01*
X92135010Y139097490D02*
X92135010Y144960930D01*
X92135010Y144960930D02*
X92135010Y146092300D01*
X93942500Y137290000D02*
X92135010Y139097490D01*
X182299200Y120851900D02*
X182299200Y125176100D01*
X182299200Y125176100D02*
X183706600Y126583500D01*
X183706600Y126583500D02*
X183706600Y140491600D01*
X183706600Y140491600D02*
X185585000Y142370000D01*
X28699200Y103769300D02*
X25573600Y100643700D01*
X25573600Y100643700D02*
X25573600Y80659500D01*
X25573600Y80659500D02*
X14912200Y69998100D01*
X71798659Y130484741D02*
X71798659Y126365641D01*
X72555000Y108715000D02*
X70998660Y110271340D01*
X71297500Y130985900D02*
X71798659Y130484741D01*
X71297500Y143652500D02*
X71297500Y130985900D01*
X70998660Y125565642D02*
X71798659Y126365641D01*
X70998660Y110271340D02*
X70998660Y125565642D01*
X72555000Y144910000D02*
X71297500Y143652500D01*
X14912200Y74996900D02*
X23789900Y83874600D01*
X23789900Y83874600D02*
X23789900Y105837600D01*
X23789900Y105837600D02*
X29002200Y111049900D01*
X87160000Y147450000D02*
X84351200Y144641200D01*
X84351200Y144641200D02*
X84351200Y116221100D01*
X87160000Y142370000D02*
X88411474Y143621474D01*
X78648600Y128345600D02*
X78648600Y123608800D01*
X70721800Y106129900D02*
X70721800Y85818600D01*
X83523800Y145607900D02*
X83523800Y138895900D01*
X78648600Y123608800D02*
X74430000Y119390200D01*
X87729400Y148720000D02*
X86635900Y148720000D01*
X88411474Y148037926D02*
X87729400Y148720000D01*
X72036900Y107445000D02*
X70721800Y106129900D01*
X73071800Y107445000D02*
X72036900Y107445000D01*
X74430000Y119390200D02*
X74430000Y108803200D01*
X78215000Y128779200D02*
X78648600Y128345600D01*
X78215000Y135058600D02*
X78215000Y128779200D01*
X80603300Y135975400D02*
X79131800Y135975400D01*
X79131800Y135975400D02*
X78215000Y135058600D01*
X74430000Y108803200D02*
X73071800Y107445000D01*
X70721800Y85818600D02*
X73194000Y83346400D01*
X88411474Y143621474D02*
X88411474Y148037926D01*
X86635900Y148720000D02*
X83523800Y145607900D01*
X83523800Y138895900D02*
X80603300Y135975400D01*
X119315000Y52200000D02*
X121361400Y54246400D01*
X121361400Y54246400D02*
X121361400Y88404500D01*
X121361400Y88404500D02*
X122251000Y89294100D01*
X122251000Y89294100D02*
X122251000Y102466600D01*
X117640000Y52200000D02*
X119315000Y52200000D01*
X9911000Y67498800D02*
X13023900Y70611700D01*
X13023900Y70611700D02*
X13023900Y92321000D01*
X13023900Y92321000D02*
X14451400Y93748500D01*
X14451400Y93748500D02*
X15359300Y93748500D01*
X15359300Y93748500D02*
X17342600Y95731800D01*
X17342600Y95731800D02*
X17342600Y139457600D01*
X17342600Y139457600D02*
X21120000Y143235000D01*
X21120000Y144910000D02*
X21120000Y143235000D01*
X147485000Y77600000D02*
X151615000Y73470000D01*
X151615000Y73470000D02*
X151615000Y69922200D01*
X147485000Y77600000D02*
X146248500Y78836500D01*
X146248500Y78836500D02*
X146248500Y116368500D01*
X146248500Y116368500D02*
X147485000Y117605000D01*
X184342400Y65866500D02*
X183708500Y65232600D01*
X183708500Y65232600D02*
X183708500Y55981500D01*
X183708500Y55981500D02*
X184950000Y54740000D01*
X200190000Y87760000D02*
X202136700Y85813300D01*
X202136700Y85813300D02*
X202136700Y66711100D01*
X110655000Y60018200D02*
X110655000Y75198630D01*
X84029600Y31289600D02*
X84029600Y33392800D01*
X84029600Y33392800D02*
X110655000Y60018200D01*
X110655000Y75198630D02*
X110655000Y76330000D01*
X82715000Y29975000D02*
X84029600Y31289600D01*
X192570000Y147450000D02*
X192570000Y144910000D01*
X216189977Y57145707D02*
X216336500Y57292230D01*
X216189977Y28580023D02*
X216189977Y57145707D01*
X216336500Y57292230D02*
X216336500Y58423600D01*
X222415000Y22355000D02*
X216189977Y28580023D01*
X202015012Y110821534D02*
X202015012Y113410351D01*
X200266200Y131615100D02*
X195684000Y136197300D01*
X202774600Y110061946D02*
X202015012Y110821534D01*
X195684000Y141796000D02*
X193369999Y144110001D01*
X195684000Y136197300D02*
X195684000Y141796000D01*
X202618600Y122780500D02*
X200266200Y125132900D01*
X200266200Y125132900D02*
X200266200Y131615100D01*
X202774600Y68435400D02*
X202774600Y110061946D01*
X202618600Y114013939D02*
X202618600Y122780500D01*
X207175000Y62360000D02*
X207175000Y64035000D01*
X207175000Y64035000D02*
X202774600Y68435400D01*
X193369999Y144110001D02*
X192570000Y144910000D01*
X202015012Y113410351D02*
X202618600Y114013939D01*
X181615100Y105998300D02*
X181027200Y106586200D01*
X181027200Y106586200D02*
X181027200Y124753100D01*
X181027200Y124753100D02*
X181799400Y125525300D01*
X181799400Y125525300D02*
X181799400Y126540400D01*
X181799400Y126540400D02*
X181027200Y127312600D01*
X181027200Y127312600D02*
X181027200Y141847800D01*
X181027200Y141847800D02*
X177965000Y144910000D01*
X117640000Y120145000D02*
X116369300Y118874300D01*
X116369300Y118874300D02*
X116369300Y109487100D01*
X116369300Y109487100D02*
X117141400Y108715000D01*
X117141400Y108715000D02*
X118107500Y108715000D01*
X118107500Y108715000D02*
X127494900Y99327600D01*
X127494900Y99327600D02*
X127494900Y98197800D01*
X157645000Y23625100D02*
X180100100Y23625100D01*
X180100100Y23625100D02*
X181370000Y24895000D01*
X71285000Y18465000D02*
X73745000Y16005000D01*
X73745000Y16005000D02*
X75571800Y16005000D01*
X75571800Y16005000D02*
X78809800Y12767000D01*
X78809800Y12767000D02*
X78809800Y11309700D01*
X78809800Y11309700D02*
X84274500Y5845000D01*
X84274500Y5845000D02*
X142886700Y5845000D01*
X142886700Y5845000D02*
X156330400Y19288700D01*
X156330400Y19288700D02*
X156330400Y22795400D01*
X156330400Y22795400D02*
X157160100Y23625100D01*
X157160100Y23625100D02*
X157645000Y23625100D01*
X157645000Y24895000D02*
X157645000Y23625100D01*
X183045000Y24895000D02*
X181370000Y24895000D01*
X71285000Y21085000D02*
X71285000Y18465000D01*
X110890400Y26923300D02*
X109920000Y27893700D01*
X109920000Y27893700D02*
X109920000Y35000000D01*
X22390000Y96015000D02*
X22390000Y106815900D01*
X22390000Y106815900D02*
X27151800Y111577700D01*
X226789600Y131967500D02*
X237192100Y142370000D01*
X237192100Y142370000D02*
X237655000Y142370000D01*
X226789600Y122625700D02*
X226789600Y131967500D01*
X109155000Y22355000D02*
X113710000Y26910000D01*
X113710000Y26910000D02*
X113710000Y37595000D01*
X107480000Y17275000D02*
X109155000Y18950000D01*
X109155000Y18950000D02*
X109155000Y22355000D01*
X107480000Y22355000D02*
X109155000Y22355000D01*
X253530000Y170945000D02*
X251805000Y170945000D01*
X251805000Y170945000D02*
X250535000Y169675000D01*
X250535000Y169675000D02*
X249085000Y169675000D01*
X230383600Y162101600D02*
X223065700Y154783700D01*
X223065700Y154783700D02*
X223065700Y154696500D01*
X285280000Y170310000D02*
X285280000Y170945000D01*
X255680579Y178554019D02*
X255669598Y178565000D01*
X257437341Y179171259D02*
X256820101Y178554019D01*
X239011600Y162101600D02*
X230383600Y162101600D01*
X285046300Y170945000D02*
X275037700Y180953600D01*
X257562300Y180251500D02*
X257562300Y179333100D01*
X285280000Y170945000D02*
X285046300Y170945000D01*
X255669598Y178565000D02*
X255475000Y178565000D01*
X257562300Y179333100D02*
X257437341Y179208141D01*
X275037700Y180953600D02*
X258264400Y180953600D01*
X257437341Y179208141D02*
X257437341Y179171259D01*
X258264400Y180953600D02*
X257562300Y180251500D01*
X256820101Y178554019D02*
X255680579Y178554019D01*
X255475000Y178565000D02*
X239011600Y162101600D01*
X19850000Y38865000D02*
X19850000Y37190000D01*
X19850000Y37190000D02*
X18175000Y35515000D01*
X18175000Y35515000D02*
X18175000Y30725700D01*
X18175000Y30725700D02*
X14909700Y27460400D01*
X19850000Y42675000D02*
X19850000Y41000000D01*
X19850000Y41000000D02*
X14909700Y36059700D01*
X14909700Y36059700D02*
X14909700Y32461700D01*
X270040000Y165230000D02*
X267500000Y162690000D01*
X267500000Y162690000D02*
X267500000Y139830000D01*
X270040000Y165230000D02*
X270040000Y167770000D01*
X270040000Y167770000D02*
X270040000Y169905000D01*
X270040000Y171580000D02*
X270040000Y169905000D01*
X275120000Y171985000D02*
X274935800Y172169200D01*
X274935800Y172169200D02*
X274935800Y175236900D01*
X274935800Y175236900D02*
X272430200Y177742500D01*
X272430200Y177742500D02*
X260522200Y177742500D01*
X257500000Y175225300D02*
X257500000Y172578500D01*
X257500000Y172578500D02*
X252691500Y167770000D01*
X252691500Y167770000D02*
X246545000Y167770000D01*
X275120000Y170310000D02*
X275120000Y171985000D01*
X246545000Y165230000D02*
X246545000Y167770000D01*
X275120000Y170310000D02*
X275120000Y166500000D01*
X258204001Y175929301D02*
X257500000Y175225300D01*
X258906316Y175929301D02*
X258204001Y175929301D01*
X260522200Y177545185D02*
X258906316Y175929301D01*
X260522200Y177742500D02*
X260522200Y177545185D01*
X270040000Y124590000D02*
X270040000Y127130000D01*
X270040000Y122050000D02*
X270040000Y124590000D01*
X270040000Y127130000D02*
X273445000Y127130000D01*
X275120000Y127130000D02*
X273445000Y127130000D01*
X275120000Y127130000D02*
X275120000Y123320000D01*
X275120000Y130940000D02*
X275120000Y127130000D01*
X99860000Y127765000D02*
X99860000Y129440000D01*
X99860000Y129440000D02*
X101252700Y130832700D01*
X101252700Y130832700D02*
X101252700Y132722300D01*
X101252700Y132722300D02*
X101169000Y132806000D01*
X101169000Y132806000D02*
X101169000Y136059000D01*
X101169000Y136059000D02*
X102400000Y137290000D01*
X285280000Y130940000D02*
X285280000Y134750000D01*
X235115000Y160150000D02*
X235115000Y156340000D01*
M02*
