G04 #@! TF.GenerationSoftware,KiCad,Pcbnew,6.0.1-79c1e3a40b~116~ubuntu20.04.1*
G04 #@! TF.CreationDate,2022-02-05T14:03:53+01:00*
G04 #@! TF.ProjectId,modulator,6d6f6475-6c61-4746-9f72-2e6b69636164,1.0*
G04 #@! TF.SameCoordinates,PX6acfc00PY8e18f40*
G04 #@! TF.FileFunction,Copper,L1,Top*
G04 #@! TF.FilePolarity,Positive*
%FSLAX46Y46*%
G04 Gerber Fmt 4.6, Leading zero omitted, Abs format (unit mm)*
G04 Created by KiCad (PCBNEW 6.0.1-79c1e3a40b~116~ubuntu20.04.1) date 2022-02-05 14:03:53*
%MOMM*%
%LPD*%
G01*
G04 APERTURE LIST*
G04 Aperture macros list*
%AMRoundRect*
0 Rectangle with rounded corners*
0 $1 Rounding radius*
0 $2 $3 $4 $5 $6 $7 $8 $9 X,Y pos of 4 corners*
0 Add a 4 corners polygon primitive as box body*
4,1,4,$2,$3,$4,$5,$6,$7,$8,$9,$2,$3,0*
0 Add four circle primitives for the rounded corners*
1,1,$1+$1,$2,$3*
1,1,$1+$1,$4,$5*
1,1,$1+$1,$6,$7*
1,1,$1+$1,$8,$9*
0 Add four rect primitives between the rounded corners*
20,1,$1+$1,$2,$3,$4,$5,0*
20,1,$1+$1,$4,$5,$6,$7,0*
20,1,$1+$1,$6,$7,$8,$9,0*
20,1,$1+$1,$8,$9,$2,$3,0*%
G04 Aperture macros list end*
G04 #@! TA.AperFunction,ComponentPad*
%ADD10C,1.600000*%
G04 #@! TD*
G04 #@! TA.AperFunction,ComponentPad*
%ADD11C,1.397000*%
G04 #@! TD*
G04 #@! TA.AperFunction,ComponentPad*
%ADD12R,1.500000X1.500000*%
G04 #@! TD*
G04 #@! TA.AperFunction,ComponentPad*
%ADD13C,1.500000*%
G04 #@! TD*
G04 #@! TA.AperFunction,ComponentPad*
%ADD14RoundRect,1.000000X-1.000000X-1.000000X1.000000X-1.000000X1.000000X1.000000X-1.000000X1.000000X0*%
G04 #@! TD*
G04 #@! TA.AperFunction,ComponentPad*
%ADD15C,1.524000*%
G04 #@! TD*
G04 #@! TA.AperFunction,ComponentPad*
%ADD16C,2.540000*%
G04 #@! TD*
G04 #@! TA.AperFunction,ComponentPad*
%ADD17C,2.000000*%
G04 #@! TD*
G04 #@! TA.AperFunction,ComponentPad*
%ADD18R,1.574800X2.286000*%
G04 #@! TD*
G04 #@! TA.AperFunction,ComponentPad*
%ADD19O,1.574800X2.286000*%
G04 #@! TD*
G04 #@! TA.AperFunction,ComponentPad*
%ADD20R,1.397000X1.397000*%
G04 #@! TD*
G04 #@! TA.AperFunction,ComponentPad*
%ADD21R,1.778000X1.778000*%
G04 #@! TD*
G04 #@! TA.AperFunction,ComponentPad*
%ADD22C,1.778000*%
G04 #@! TD*
G04 #@! TA.AperFunction,ViaPad*
%ADD23C,1.500000*%
G04 #@! TD*
G04 #@! TA.AperFunction,Conductor*
%ADD24C,0.508000*%
G04 #@! TD*
G04 #@! TA.AperFunction,Conductor*
%ADD25C,1.016000*%
G04 #@! TD*
G04 APERTURE END LIST*
D10*
X7380000Y67974000D03*
D11*
X47385000Y40415000D03*
X60085000Y40415000D03*
X49925000Y37875000D03*
X60085000Y37875000D03*
D12*
X22620000Y44860000D03*
D13*
X22620000Y49940000D03*
X20080000Y47400000D03*
D14*
X22879080Y5030260D03*
X55380920Y5030260D03*
D15*
X37880320Y10028980D03*
X35380960Y10028980D03*
X32881600Y10028980D03*
X30379700Y10028980D03*
X27880340Y10028980D03*
X40379680Y10028980D03*
X42879040Y10028980D03*
X45380940Y10028980D03*
X47880300Y10028980D03*
X50379660Y10028980D03*
X50379660Y15027700D03*
X47880300Y15027700D03*
X45380940Y15027700D03*
X42879040Y15027700D03*
X40379680Y15027700D03*
X27880340Y15027700D03*
X30379700Y15027700D03*
X32881600Y15027700D03*
X35380960Y15027700D03*
X37880320Y15027700D03*
D10*
X29605000Y75340000D03*
X15000000Y39780000D03*
X52465000Y75340000D03*
D16*
X20080000Y55020000D03*
X15000000Y57560000D03*
X20080000Y60100000D03*
D10*
X27700000Y48035000D03*
D17*
X72706260Y52439360D03*
X72706260Y47440640D03*
X62703740Y49940000D03*
X47306260Y70219360D03*
X47306260Y65220640D03*
X37303740Y67720000D03*
D11*
X55005000Y20095000D03*
X37225000Y20095000D03*
X12460000Y47400000D03*
X12460000Y62640000D03*
X47385000Y77245000D03*
X37225000Y77245000D03*
X60085000Y55655000D03*
X60085000Y45495000D03*
X62625000Y65180000D03*
X72785000Y65180000D03*
D15*
X17540000Y49940000D03*
D11*
X17540000Y39780000D03*
X32145000Y72800000D03*
X32145000Y62640000D03*
X49925000Y75340000D03*
X49925000Y65180000D03*
X27700000Y52480000D03*
X27700000Y62640000D03*
X52465000Y42955000D03*
X62625000Y42955000D03*
X39765000Y60100000D03*
X47385000Y60100000D03*
X70245000Y60735000D03*
X62625000Y60735000D03*
D18*
X55005000Y35335000D03*
D19*
X52465000Y35335000D03*
X49925000Y35335000D03*
X47385000Y35335000D03*
X44845000Y35335000D03*
X42305000Y35335000D03*
X39765000Y35335000D03*
X37225000Y35335000D03*
X34685000Y35335000D03*
X32145000Y35335000D03*
X32145000Y27715000D03*
X34685000Y27715000D03*
X37225000Y27715000D03*
X39765000Y27715000D03*
X42305000Y27715000D03*
X44845000Y27715000D03*
X47385000Y27715000D03*
X49925000Y27715000D03*
X52465000Y27715000D03*
X55005000Y27715000D03*
D18*
X55005000Y57560000D03*
D19*
X52465000Y57560000D03*
X49925000Y57560000D03*
X47385000Y57560000D03*
X44845000Y57560000D03*
X42305000Y57560000D03*
X39765000Y57560000D03*
X37225000Y57560000D03*
X34685000Y57560000D03*
X34685000Y49940000D03*
X37225000Y49940000D03*
X39765000Y49940000D03*
X42305000Y49940000D03*
X44845000Y49940000D03*
X47385000Y49940000D03*
X49925000Y49940000D03*
X52465000Y49940000D03*
X55005000Y49940000D03*
D20*
X35320000Y17555000D03*
D11*
X35320000Y25175000D03*
D20*
X37225000Y60100000D03*
D11*
X29605000Y60100000D03*
D20*
X32780000Y17555000D03*
D11*
X32780000Y25175000D03*
D20*
X7380000Y47400000D03*
D11*
X7380000Y65180000D03*
X57545000Y57620960D03*
X57545000Y65119040D03*
D21*
X17540000Y27715000D03*
D22*
X22620000Y27715000D03*
D11*
X67705000Y70260000D03*
X72785000Y70260000D03*
X55005000Y22635000D03*
X60085000Y22635000D03*
X70245000Y63275000D03*
X65165000Y63275000D03*
X17540000Y34700000D03*
X22620000Y34700000D03*
X70245000Y57560000D03*
X65165000Y57560000D03*
D20*
X57545000Y15015000D03*
D11*
X57545000Y12475000D03*
X29605000Y44860000D03*
X32145000Y44860000D03*
X29605000Y72800000D03*
X27065000Y72800000D03*
X55005000Y45495000D03*
X57545000Y45495000D03*
X42305000Y39780000D03*
X42305000Y44860000D03*
X39765000Y39780000D03*
X39765000Y44860000D03*
X34685000Y44860000D03*
X34685000Y39780000D03*
X39704040Y37875000D03*
X32205960Y37875000D03*
D23*
X44845000Y47400000D03*
X49925000Y47400000D03*
X25160000Y55020000D03*
X25160000Y35335000D03*
D24*
X49925000Y47400000D02*
X44845000Y47400000D01*
D25*
X25160000Y55020000D02*
X25160000Y35335000D01*
M02*
