M48
; DRILL file {KiCad 6.0.1-79c1e3a40b~116~ubuntu20.04.1} date Sat 05 Feb 2022 02:03:43 PM CET
; FORMAT={-:-/ absolute / metric / decimal}
; #@! TF.CreationDate,2022-02-05T14:03:43+01:00
; #@! TF.GenerationSoftware,Kicad,Pcbnew,6.0.1-79c1e3a40b~116~ubuntu20.04.1
; #@! TF.FileFunction,MixedPlating,1,2
FMAT,2
METRIC
; #@! TA.AperFunction,Plated,PTH,ViaDrill
T1C0.700
; #@! TA.AperFunction,Plated,PTH,ComponentDrill
T2C0.800
; #@! TA.AperFunction,Plated,PTH,ComponentDrill
T3C0.813
; #@! TA.AperFunction,Plated,PTH,ComponentDrill
T4C1.016
; #@! TA.AperFunction,Plated,PTH,ComponentDrill
T5C1.200
; #@! TA.AperFunction,Plated,PTH,ComponentDrill
T6C1.300
; #@! TA.AperFunction,Plated,PTH,ComponentDrill
T7C1.999
%
G90
G05
T1
X25.16Y55.02
X25.16Y35.335
X44.845Y47.4
X49.925Y47.4
T2
X7.38Y67.974
X15.0Y39.78
X27.7Y48.035
X29.605Y75.34
X52.465Y75.34
T3
X7.38Y65.18
X7.38Y47.4
X12.46Y62.64
X12.46Y47.4
X17.54Y49.94
X17.54Y39.78
X17.54Y34.7
X20.08Y47.4
X22.62Y49.94
X22.62Y44.86
X22.62Y34.7
X27.065Y72.8
X27.7Y62.64
X27.7Y52.48
X27.88Y15.028
X27.88Y10.029
X29.605Y72.8
X29.605Y60.1
X29.605Y44.86
X30.38Y15.028
X30.38Y10.029
X32.145Y72.8
X32.145Y62.64
X32.145Y44.86
X32.145Y35.335
X32.145Y27.715
X32.206Y37.875
X32.78Y25.175
X32.78Y17.555
X32.882Y15.028
X32.882Y10.029
X34.685Y57.56
X34.685Y49.94
X34.685Y44.86
X34.685Y39.78
X34.685Y35.335
X34.685Y27.715
X35.32Y25.175
X35.32Y17.555
X35.381Y15.028
X35.381Y10.029
X37.225Y77.245
X37.225Y60.1
X37.225Y57.56
X37.225Y49.94
X37.225Y35.335
X37.225Y27.715
X37.225Y20.095
X37.88Y15.028
X37.88Y10.029
X39.704Y37.875
X39.765Y60.1
X39.765Y57.56
X39.765Y49.94
X39.765Y44.86
X39.765Y39.78
X39.765Y35.335
X39.765Y27.715
X40.38Y15.028
X40.38Y10.029
X42.305Y57.56
X42.305Y49.94
X42.305Y44.86
X42.305Y39.78
X42.305Y35.335
X42.305Y27.715
X42.879Y15.028
X42.879Y10.029
X44.845Y57.56
X44.845Y49.94
X44.845Y35.335
X44.845Y27.715
X45.381Y15.028
X45.381Y10.029
X47.385Y77.245
X47.385Y60.1
X47.385Y57.56
X47.385Y49.94
X47.385Y40.415
X47.385Y35.335
X47.385Y27.715
X47.88Y15.028
X47.88Y10.029
X49.925Y75.34
X49.925Y65.18
X49.925Y57.56
X49.925Y49.94
X49.925Y37.875
X49.925Y35.335
X49.925Y27.715
X50.38Y15.028
X50.38Y10.029
X52.465Y57.56
X52.465Y49.94
X52.465Y42.955
X52.465Y35.335
X52.465Y27.715
X55.005Y57.56
X55.005Y49.94
X55.005Y45.495
X55.005Y35.335
X55.005Y27.715
X55.005Y22.635
X55.005Y20.095
X57.545Y65.119
X57.545Y57.621
X57.545Y45.495
X57.545Y15.015
X57.545Y12.475
X60.085Y55.655
X60.085Y45.495
X60.085Y40.415
X60.085Y37.875
X60.085Y22.635
X62.625Y65.18
X62.625Y60.735
X62.625Y42.955
X65.165Y63.275
X65.165Y57.56
X67.705Y70.26
X70.245Y63.275
X70.245Y60.735
X70.245Y57.56
X72.785Y70.26
X72.785Y65.18
T4
X17.54Y27.715
X22.62Y27.715
T5
X37.304Y67.72
X47.306Y70.219
X47.306Y65.221
X62.704Y49.94
X72.706Y52.439
X72.706Y47.441
T6
X15.0Y57.56
X20.08Y60.1
X20.08Y55.02
T7
X22.879Y5.03
X55.381Y5.03
T0
M30
