G04 #@! TF.GenerationSoftware,KiCad,Pcbnew,6.0.1-79c1e3a40b~116~ubuntu20.04.1*
G04 #@! TF.CreationDate,2022-02-05T14:03:54+01:00*
G04 #@! TF.ProjectId,modulator,6d6f6475-6c61-4746-9f72-2e6b69636164,1.0*
G04 #@! TF.SameCoordinates,PX6acfc00PY8e18f40*
G04 #@! TF.FileFunction,Copper,L2,Bot*
G04 #@! TF.FilePolarity,Positive*
%FSLAX46Y46*%
G04 Gerber Fmt 4.6, Leading zero omitted, Abs format (unit mm)*
G04 Created by KiCad (PCBNEW 6.0.1-79c1e3a40b~116~ubuntu20.04.1) date 2022-02-05 14:03:54*
%MOMM*%
%LPD*%
G01*
G04 APERTURE LIST*
G04 Aperture macros list*
%AMRoundRect*
0 Rectangle with rounded corners*
0 $1 Rounding radius*
0 $2 $3 $4 $5 $6 $7 $8 $9 X,Y pos of 4 corners*
0 Add a 4 corners polygon primitive as box body*
4,1,4,$2,$3,$4,$5,$6,$7,$8,$9,$2,$3,0*
0 Add four circle primitives for the rounded corners*
1,1,$1+$1,$2,$3*
1,1,$1+$1,$4,$5*
1,1,$1+$1,$6,$7*
1,1,$1+$1,$8,$9*
0 Add four rect primitives between the rounded corners*
20,1,$1+$1,$2,$3,$4,$5,0*
20,1,$1+$1,$4,$5,$6,$7,0*
20,1,$1+$1,$6,$7,$8,$9,0*
20,1,$1+$1,$8,$9,$2,$3,0*%
G04 Aperture macros list end*
G04 #@! TA.AperFunction,ComponentPad*
%ADD10C,1.600000*%
G04 #@! TD*
G04 #@! TA.AperFunction,ComponentPad*
%ADD11C,1.397000*%
G04 #@! TD*
G04 #@! TA.AperFunction,ComponentPad*
%ADD12R,1.500000X1.500000*%
G04 #@! TD*
G04 #@! TA.AperFunction,ComponentPad*
%ADD13C,1.500000*%
G04 #@! TD*
G04 #@! TA.AperFunction,ComponentPad*
%ADD14RoundRect,1.000000X-1.000000X-1.000000X1.000000X-1.000000X1.000000X1.000000X-1.000000X1.000000X0*%
G04 #@! TD*
G04 #@! TA.AperFunction,ComponentPad*
%ADD15C,1.524000*%
G04 #@! TD*
G04 #@! TA.AperFunction,ComponentPad*
%ADD16C,2.540000*%
G04 #@! TD*
G04 #@! TA.AperFunction,ComponentPad*
%ADD17C,2.000000*%
G04 #@! TD*
G04 #@! TA.AperFunction,ComponentPad*
%ADD18R,1.574800X2.286000*%
G04 #@! TD*
G04 #@! TA.AperFunction,ComponentPad*
%ADD19O,1.574800X2.286000*%
G04 #@! TD*
G04 #@! TA.AperFunction,ComponentPad*
%ADD20R,1.397000X1.397000*%
G04 #@! TD*
G04 #@! TA.AperFunction,ComponentPad*
%ADD21R,1.778000X1.778000*%
G04 #@! TD*
G04 #@! TA.AperFunction,ComponentPad*
%ADD22C,1.778000*%
G04 #@! TD*
G04 #@! TA.AperFunction,ViaPad*
%ADD23C,1.500000*%
G04 #@! TD*
G04 #@! TA.AperFunction,Conductor*
%ADD24C,1.016000*%
G04 #@! TD*
G04 #@! TA.AperFunction,Conductor*
%ADD25C,0.508000*%
G04 #@! TD*
G04 APERTURE END LIST*
D10*
X7380000Y67974000D03*
D11*
X47385000Y40415000D03*
X60085000Y40415000D03*
X49925000Y37875000D03*
X60085000Y37875000D03*
D12*
X22620000Y44860000D03*
D13*
X22620000Y49940000D03*
X20080000Y47400000D03*
D14*
X22879080Y5030260D03*
X55380920Y5030260D03*
D15*
X37880320Y10028980D03*
X35380960Y10028980D03*
X32881600Y10028980D03*
X30379700Y10028980D03*
X27880340Y10028980D03*
X40379680Y10028980D03*
X42879040Y10028980D03*
X45380940Y10028980D03*
X47880300Y10028980D03*
X50379660Y10028980D03*
X50379660Y15027700D03*
X47880300Y15027700D03*
X45380940Y15027700D03*
X42879040Y15027700D03*
X40379680Y15027700D03*
X27880340Y15027700D03*
X30379700Y15027700D03*
X32881600Y15027700D03*
X35380960Y15027700D03*
X37880320Y15027700D03*
D10*
X29605000Y75340000D03*
X15000000Y39780000D03*
X52465000Y75340000D03*
D16*
X20080000Y55020000D03*
X15000000Y57560000D03*
X20080000Y60100000D03*
D10*
X27700000Y48035000D03*
D17*
X72706260Y52439360D03*
X72706260Y47440640D03*
X62703740Y49940000D03*
X47306260Y70219360D03*
X47306260Y65220640D03*
X37303740Y67720000D03*
D11*
X55005000Y20095000D03*
X37225000Y20095000D03*
X12460000Y47400000D03*
X12460000Y62640000D03*
X47385000Y77245000D03*
X37225000Y77245000D03*
X60085000Y55655000D03*
X60085000Y45495000D03*
X62625000Y65180000D03*
X72785000Y65180000D03*
D15*
X17540000Y49940000D03*
D11*
X17540000Y39780000D03*
X32145000Y72800000D03*
X32145000Y62640000D03*
X49925000Y75340000D03*
X49925000Y65180000D03*
X27700000Y52480000D03*
X27700000Y62640000D03*
X52465000Y42955000D03*
X62625000Y42955000D03*
X39765000Y60100000D03*
X47385000Y60100000D03*
X70245000Y60735000D03*
X62625000Y60735000D03*
D18*
X55005000Y35335000D03*
D19*
X52465000Y35335000D03*
X49925000Y35335000D03*
X47385000Y35335000D03*
X44845000Y35335000D03*
X42305000Y35335000D03*
X39765000Y35335000D03*
X37225000Y35335000D03*
X34685000Y35335000D03*
X32145000Y35335000D03*
X32145000Y27715000D03*
X34685000Y27715000D03*
X37225000Y27715000D03*
X39765000Y27715000D03*
X42305000Y27715000D03*
X44845000Y27715000D03*
X47385000Y27715000D03*
X49925000Y27715000D03*
X52465000Y27715000D03*
X55005000Y27715000D03*
D18*
X55005000Y57560000D03*
D19*
X52465000Y57560000D03*
X49925000Y57560000D03*
X47385000Y57560000D03*
X44845000Y57560000D03*
X42305000Y57560000D03*
X39765000Y57560000D03*
X37225000Y57560000D03*
X34685000Y57560000D03*
X34685000Y49940000D03*
X37225000Y49940000D03*
X39765000Y49940000D03*
X42305000Y49940000D03*
X44845000Y49940000D03*
X47385000Y49940000D03*
X49925000Y49940000D03*
X52465000Y49940000D03*
X55005000Y49940000D03*
D20*
X35320000Y17555000D03*
D11*
X35320000Y25175000D03*
D20*
X37225000Y60100000D03*
D11*
X29605000Y60100000D03*
D20*
X32780000Y17555000D03*
D11*
X32780000Y25175000D03*
D20*
X7380000Y47400000D03*
D11*
X7380000Y65180000D03*
X57545000Y57620960D03*
X57545000Y65119040D03*
D21*
X17540000Y27715000D03*
D22*
X22620000Y27715000D03*
D11*
X67705000Y70260000D03*
X72785000Y70260000D03*
X55005000Y22635000D03*
X60085000Y22635000D03*
X70245000Y63275000D03*
X65165000Y63275000D03*
X17540000Y34700000D03*
X22620000Y34700000D03*
X70245000Y57560000D03*
X65165000Y57560000D03*
D20*
X57545000Y15015000D03*
D11*
X57545000Y12475000D03*
X29605000Y44860000D03*
X32145000Y44860000D03*
X29605000Y72800000D03*
X27065000Y72800000D03*
X55005000Y45495000D03*
X57545000Y45495000D03*
X42305000Y39780000D03*
X42305000Y44860000D03*
X39765000Y39780000D03*
X39765000Y44860000D03*
X34685000Y44860000D03*
X34685000Y39780000D03*
X39704040Y37875000D03*
X32205960Y37875000D03*
D23*
X44845000Y47400000D03*
X49925000Y47400000D03*
X25160000Y55020000D03*
X25160000Y35335000D03*
D24*
X57545000Y12475000D02*
X53427660Y8357660D01*
X53427660Y8357660D02*
X47052260Y8357660D01*
X47052260Y8357660D02*
X45380940Y10028980D01*
X17540000Y34700000D02*
X17540000Y27715000D01*
X35320000Y39780000D02*
X37860000Y42320000D01*
X37860000Y42320000D02*
X44845000Y42320000D01*
D25*
X49925000Y49940000D02*
X49925000Y47400000D01*
D24*
X17540000Y34700000D02*
X17540000Y39780000D01*
X17540000Y39780000D02*
X21985000Y39780000D01*
X17540000Y39780000D02*
X15000000Y39780000D01*
X44845000Y42320000D02*
X44845000Y35335000D01*
X34685000Y39780000D02*
X35320000Y39780000D01*
X44845000Y47400000D02*
X44845000Y42320000D01*
X44845000Y49940000D02*
X44845000Y47400000D01*
X22620000Y39780000D02*
X22620000Y44860000D01*
X34685000Y39780000D02*
X22620000Y39780000D01*
X22620000Y39780000D02*
X21985000Y39780000D01*
X17540000Y20369320D02*
X27880340Y10028980D01*
X17540000Y27715000D02*
X17540000Y20369320D01*
X55005000Y20095000D02*
X55005000Y15015000D01*
X55005000Y15015000D02*
X57545000Y15015000D01*
D25*
X61355000Y54385000D02*
X61355000Y57560000D01*
X54370000Y52480000D02*
X59450000Y52480000D01*
D24*
X55005000Y20095000D02*
X55005000Y22635000D01*
X54370000Y15015000D02*
X55005000Y15015000D01*
D25*
X49925000Y60100000D02*
X49925000Y57560000D01*
X57545000Y40415000D02*
X56910000Y40415000D01*
D24*
X55005000Y22635000D02*
X55005000Y23270000D01*
X57545000Y25810000D02*
X57545000Y27715000D01*
X55005000Y23270000D02*
X57545000Y25810000D01*
D25*
X61355000Y57560000D02*
X58815000Y60100000D01*
X57545000Y27715000D02*
X57545000Y40415000D01*
X50560000Y60100000D02*
X49925000Y60100000D01*
X56910000Y40415000D02*
X53735000Y43590000D01*
X58815000Y60100000D02*
X50560000Y60100000D01*
X53735000Y43590000D02*
X53735000Y51845000D01*
D24*
X55005000Y27715000D02*
X57545000Y27715000D01*
D25*
X53735000Y51845000D02*
X54370000Y52480000D01*
X59450000Y52480000D02*
X61355000Y54385000D01*
D24*
X50379660Y11024660D02*
X50379660Y10028980D01*
X54370000Y15015000D02*
X50379660Y11024660D01*
D25*
X53735000Y25810000D02*
X53735000Y31525000D01*
X53735000Y31525000D02*
X55005000Y32795000D01*
X55005000Y32795000D02*
X55005000Y35335000D01*
X50430460Y22505460D02*
X53735000Y25810000D01*
X50430460Y15078500D02*
X50379660Y15027700D01*
X50430460Y22505460D02*
X50430460Y15078500D01*
X35190460Y17425460D02*
X35320000Y17555000D01*
X35320000Y15088660D02*
X35380960Y15027700D01*
X35320000Y17555000D02*
X35320000Y15088660D01*
X27440920Y29995920D02*
X27440920Y17966480D01*
X30240000Y32795000D02*
X27440920Y29995920D01*
X33415000Y32795000D02*
X30240000Y32795000D01*
X34685000Y34065000D02*
X33415000Y32795000D01*
X27440920Y17966480D02*
X30379700Y15027700D01*
X34685000Y35335000D02*
X34685000Y34065000D01*
X32650460Y17425460D02*
X32780000Y17555000D01*
X32780000Y15129300D02*
X32881600Y15027700D01*
X32780000Y17555000D02*
X32780000Y15129300D01*
X47890460Y22505460D02*
X49925000Y24540000D01*
X49925000Y27715000D02*
X52465000Y27715000D01*
X49925000Y24540000D02*
X49925000Y27715000D01*
X47890460Y15037860D02*
X47880300Y15027700D01*
X47890460Y22505460D02*
X47890460Y15037860D01*
X42810460Y27209540D02*
X42305000Y27715000D01*
X42305000Y27715000D02*
X44845000Y27715000D01*
X42305000Y15601740D02*
X42879040Y15027700D01*
X42305000Y27715000D02*
X42305000Y15601740D01*
X52465000Y34065000D02*
X52465000Y35335000D01*
X48655000Y25810000D02*
X48655000Y30255000D01*
X45350460Y22505460D02*
X48655000Y25810000D01*
X48655000Y30255000D02*
X52465000Y34065000D01*
X45350460Y15058180D02*
X45380940Y15027700D01*
X45350460Y22505460D02*
X45350460Y15058180D01*
X37225000Y27715000D02*
X34685000Y27715000D01*
X37880320Y17448320D02*
X37880320Y15027700D01*
X38749000Y18317000D02*
X37880320Y17448320D01*
X38749000Y20984000D02*
X38749000Y18317000D01*
X37225000Y22508000D02*
X38749000Y20984000D01*
X37225000Y27715000D02*
X37225000Y22508000D01*
X47385000Y29620000D02*
X47385000Y27715000D01*
X39765000Y29620000D02*
X47385000Y29620000D01*
X32145000Y27715000D02*
X32145000Y29620000D01*
X39765000Y29620000D02*
X39765000Y27715000D01*
X32145000Y29620000D02*
X39765000Y29620000D01*
X40270460Y27209540D02*
X39765000Y27715000D01*
X39765000Y15642380D02*
X40379680Y15027700D01*
X39765000Y27715000D02*
X39765000Y15642380D01*
D24*
X27065000Y72800000D02*
X27065000Y81690000D01*
X22620000Y34700000D02*
X22620000Y27715000D01*
X25160000Y72800000D02*
X25160000Y60100000D01*
D25*
X7458740Y82403740D02*
X7458740Y81458860D01*
X8650000Y83595000D02*
X7458740Y82403740D01*
D24*
X60085000Y37875000D02*
X60085000Y40415000D01*
X57545000Y12475000D02*
X60085000Y15015000D01*
X72706260Y46051260D02*
X72706260Y47440640D01*
X60085000Y22635000D02*
X60085000Y37875000D01*
D25*
X27065000Y81690000D02*
X25160000Y83595000D01*
D24*
X72706260Y47440640D02*
X72706260Y52439360D01*
X60085000Y40415000D02*
X67070000Y40415000D01*
D25*
X25160000Y83595000D02*
X8650000Y83595000D01*
D24*
X67070000Y40415000D02*
X72706260Y46051260D01*
X60085000Y15015000D02*
X60085000Y22635000D01*
X27065000Y81690000D02*
X72785000Y81690000D01*
X27065000Y72800000D02*
X25160000Y72800000D01*
X72785000Y81690000D02*
X72785000Y70260000D01*
X60085000Y45495000D02*
X57545000Y45495000D01*
X72706260Y65101260D02*
X72785000Y65180000D01*
X72706260Y52439360D02*
X72706260Y65101260D01*
X44845000Y55020000D02*
X25160000Y55020000D01*
X25160000Y55020000D02*
X25160000Y60100000D01*
X44845000Y57560000D02*
X44845000Y55020000D01*
X72785000Y65180000D02*
X72785000Y70260000D01*
X25160000Y60100000D02*
X20080000Y60100000D01*
X60085000Y40415000D02*
X60085000Y45495000D01*
X23255000Y35335000D02*
X22620000Y34700000D01*
X25160000Y35335000D02*
X23255000Y35335000D01*
X32145000Y35335000D02*
X25160000Y35335000D01*
X32205960Y35395960D02*
X32145000Y35335000D01*
X32205960Y37875000D02*
X32205960Y35395960D01*
X23448040Y19460000D02*
X27880340Y15027700D01*
X22620000Y20288040D02*
X23448040Y19460000D01*
X22620000Y27715000D02*
X22620000Y20288040D01*
X27880340Y12528340D02*
X30379700Y10028980D01*
X27880340Y15027700D02*
X27880340Y12528340D01*
X30379700Y10028980D02*
X32881600Y10028980D01*
X32881600Y10028980D02*
X35380960Y10028980D01*
X35380960Y10028980D02*
X37880320Y10028980D01*
X37880320Y10028980D02*
X40379680Y10028980D01*
X40379680Y10028980D02*
X42879040Y10028980D01*
X42879040Y10028980D02*
X45380940Y10028980D01*
D25*
X39704040Y37875000D02*
X39704040Y39719040D01*
X39704040Y39719040D02*
X39765000Y39780000D01*
X39765000Y35335000D02*
X39765000Y37814040D01*
X39765000Y37814040D02*
X39704040Y37875000D01*
X49925000Y37875000D02*
X49925000Y43590000D01*
X49925000Y35335000D02*
X49925000Y37875000D01*
X49925000Y43590000D02*
X51195000Y44860000D01*
X51195000Y44860000D02*
X51195000Y54385000D01*
X51195000Y54385000D02*
X52465000Y55655000D01*
X52465000Y55655000D02*
X52465000Y57560000D01*
X47385000Y40415000D02*
X47385000Y46765000D01*
X47385000Y53750000D02*
X47385000Y57560000D01*
X48655000Y52480000D02*
X47385000Y53750000D01*
X48655000Y48035000D02*
X48655000Y52480000D01*
X47385000Y46765000D02*
X48655000Y48035000D01*
X47385000Y35335000D02*
X47385000Y40415000D01*
X62625000Y49861260D02*
X62703740Y49940000D01*
X62625000Y42955000D02*
X62625000Y49861260D01*
X62703740Y49940000D02*
X62703740Y50653740D01*
X65165000Y53115000D02*
X65165000Y57560000D01*
X62703740Y50653740D02*
X65165000Y53115000D01*
X55005000Y49940000D02*
X55005000Y45495000D01*
X62625000Y60735000D02*
X62625000Y53115000D01*
X59450000Y49940000D02*
X55005000Y49940000D01*
X62625000Y53115000D02*
X59450000Y49940000D01*
X70245000Y60735000D02*
X70245000Y63275000D01*
X70245000Y57560000D02*
X70245000Y60735000D01*
X65165000Y63275000D02*
X64530000Y63275000D01*
X62625000Y65180000D02*
X57605960Y65180000D01*
X57605960Y65180000D02*
X57545000Y65119040D01*
X64530000Y63275000D02*
X62625000Y65180000D01*
X57484040Y57560000D02*
X57545000Y57620960D01*
X55005000Y57560000D02*
X57484040Y57560000D01*
X47346900Y65180000D02*
X47306260Y65220640D01*
X47306260Y65220640D02*
X47306260Y70219360D01*
X47306260Y65220640D02*
X44885640Y65220640D01*
X47306260Y77166260D02*
X47385000Y77245000D01*
X42305000Y62640000D02*
X42305000Y57560000D01*
X44885640Y65220640D02*
X42305000Y62640000D01*
X49925000Y65180000D02*
X47346900Y65180000D01*
X47306260Y70219360D02*
X47306260Y77166260D01*
X39765000Y62640000D02*
X39765000Y60100000D01*
X39765000Y60100000D02*
X39765000Y57560000D01*
X37303740Y65101260D02*
X39765000Y62640000D01*
X37225000Y77245000D02*
X37225000Y67798740D01*
X37225000Y67798740D02*
X37303740Y67720000D01*
X37303740Y67720000D02*
X37303740Y65101260D01*
X29605000Y72800000D02*
X29605000Y75340000D01*
X29605000Y72800000D02*
X32145000Y72800000D01*
X27700000Y62640000D02*
X27700000Y63275000D01*
X29605000Y65180000D02*
X29605000Y72800000D01*
X27700000Y63275000D02*
X29605000Y65180000D01*
X52465000Y75340000D02*
X49925000Y75340000D01*
X52465000Y64545000D02*
X48020000Y60100000D01*
X48020000Y60100000D02*
X47385000Y60100000D01*
X52465000Y70260000D02*
X52465000Y64545000D01*
X67705000Y70260000D02*
X52465000Y70260000D01*
X52465000Y70260000D02*
X52465000Y75340000D01*
X27700000Y48035000D02*
X27700000Y46765000D01*
X27700000Y46765000D02*
X29605000Y44860000D01*
X34685000Y44860000D02*
X34685000Y49940000D01*
X32145000Y44860000D02*
X34685000Y44860000D01*
X7380000Y47400000D02*
X7380000Y52480000D01*
X12460000Y57560000D02*
X12460000Y62640000D01*
X7380000Y52480000D02*
X12460000Y57560000D01*
X7380000Y67974000D02*
X7380000Y65180000D01*
X35320000Y22000000D02*
X37225000Y20095000D01*
X30240000Y30255000D02*
X31510000Y31525000D01*
X35320000Y25175000D02*
X35320000Y22000000D01*
X35320000Y25175000D02*
X32780000Y25175000D01*
X31510000Y31525000D02*
X35955000Y31525000D01*
X37225000Y32795000D02*
X37225000Y35335000D01*
X32780000Y25175000D02*
X30240000Y25175000D01*
X35955000Y31525000D02*
X37225000Y32795000D01*
X30240000Y25175000D02*
X30240000Y30255000D01*
X37225000Y57560000D02*
X37225000Y60100000D01*
X29605000Y60100000D02*
X32145000Y62640000D01*
X34685000Y57560000D02*
X32145000Y57560000D01*
X32145000Y57560000D02*
X29605000Y60100000D01*
X42305000Y35335000D02*
X42305000Y39780000D01*
X20715000Y47400000D02*
X23890000Y47400000D01*
X23890000Y47400000D02*
X28970000Y42320000D01*
X35320000Y42320000D02*
X37225000Y44225000D01*
X37225000Y44225000D02*
X37225000Y49940000D01*
X28970000Y42320000D02*
X35320000Y42320000D01*
X17540000Y49940000D02*
X20080000Y47400000D01*
X39765000Y44860000D02*
X39765000Y49940000D01*
X42305000Y49940000D02*
X42305000Y52480000D01*
X42305000Y52480000D02*
X27700000Y52480000D01*
X42305000Y44860000D02*
X42305000Y49940000D01*
X52465000Y49940000D02*
X52465000Y42955000D01*
X60085000Y55655000D02*
X58815000Y54385000D01*
X52465000Y52480000D02*
X52465000Y49940000D01*
X54370000Y54385000D02*
X52465000Y52480000D01*
X58815000Y54385000D02*
X54370000Y54385000D01*
X15000000Y53115000D02*
X15000000Y57560000D01*
X12460000Y50575000D02*
X15000000Y53115000D01*
X12460000Y47400000D02*
X12460000Y50575000D01*
X20080000Y55020000D02*
X22620000Y52480000D01*
X22620000Y52480000D02*
X22620000Y49940000D01*
G04 #@! TA.AperFunction,Conductor*
G36*
X77433741Y93470838D02*
G01*
X77480234Y93417182D01*
X77491620Y93364840D01*
X77491620Y80546000D01*
X77471618Y80477879D01*
X77417962Y80431386D01*
X77365620Y80420000D01*
X46115000Y80420000D01*
X45480000Y79785000D01*
X45480000Y67846000D01*
X45459998Y67777879D01*
X45406342Y67731386D01*
X45354000Y67720000D01*
X39256000Y67720000D01*
X39187879Y67740002D01*
X39141386Y67793658D01*
X39130000Y67846000D01*
X39130000Y79785000D01*
X38495000Y80420000D01*
X35955000Y80420000D01*
X35320000Y79785000D01*
X35320000Y67211000D01*
X35299998Y67142879D01*
X35246342Y67096386D01*
X35194000Y67085000D01*
X34176000Y67085000D01*
X34107879Y67105002D01*
X34061386Y67158658D01*
X34050000Y67211000D01*
X34050000Y79785000D01*
X33415000Y80420000D01*
X632760Y80420000D01*
X564639Y80440002D01*
X518146Y80493658D01*
X506760Y80546000D01*
X506760Y93364840D01*
X526762Y93432961D01*
X580418Y93479454D01*
X632760Y93490840D01*
X77365620Y93490840D01*
X77433741Y93470838D01*
G37*
G04 #@! TD.AperFunction*
M02*
